<svg width="418" height="244" viewBox="0 0 418 244" fill="none" xmlns="http://www.w3.org/2000/svg">
<path d="M161.402 244C249.437 244 320.804 231.34 320.804 215.722C320.804 200.105 249.437 187.444 161.402 187.444C73.3666 187.444 2 200.105 2 215.722C2 231.34 73.3666 244 161.402 244Z" fill="#F3C886"/>
<path d="M79.209 227.962C79.209 227.962 89.9371 233.195 96.2727 232.773C96.2727 232.773 106.072 240.033 119.672 237.585C119.672 237.585 132.005 226.358 147.126 223.404C162.331 220.365 192.995 211.248 192.995 211.248C192.995 211.248 263.615 210.489 267.67 203.736C271.725 196.983 138.256 195.716 134.37 199.768C130.569 203.82 147.126 208.463 147.126 208.463C147.126 208.463 70.4237 217.073 79.209 227.962Z" fill="#E0A47C"/>
<path d="M169.511 106.156C174.918 98.3897 181.338 90.7927 190.207 87.3318C199.584 83.6177 210.228 85.3903 219.689 88.8512C233.204 93.8315 245.96 102.779 252.042 115.947C256.435 125.401 256.942 136.122 258.631 146.336C259.983 154.692 262.094 163.049 262.348 171.406C262.686 179.931 260.827 188.795 255.337 195.21C246.72 205.171 232.022 206.268 219.013 206.69C208.961 207.028 198.824 207.281 188.771 207.534C181.338 207.787 173.819 207.956 166.47 206.69C159.121 205.339 151.941 202.301 146.703 196.898C140.199 190.061 137.665 179.931 138.932 170.477C140.452 159.673 147.379 151.147 151.181 141.102C155.658 128.694 161.993 116.96 169.511 106.156Z" fill="#0E98AF"/>
<path d="M262.939 171.406C262.601 162.88 260.574 154.608 259.222 146.336C257.533 136.037 257.026 125.401 252.633 115.947C246.636 102.779 233.796 93.8315 220.28 88.8512C215.212 86.9941 209.721 85.6436 204.314 85.3059C208.876 85.728 213.015 87.585 217.577 89.1889C267.585 106.493 258.04 185.165 260.912 186.516C262.517 181.704 263.108 176.471 262.939 171.406Z" fill="#41A6BD"/>
<path d="M249.423 189.132C238.526 210.32 210.819 195.885 190.714 199.346C184.801 200.19 178.128 201.034 172.299 201.034C156.756 200.444 143.662 189.048 139.185 174.698C139.101 182.801 141.719 190.989 147.295 196.814C152.448 202.301 159.712 205.339 167.062 206.606C174.411 207.956 181.929 207.703 189.363 207.45C199.415 207.112 209.552 206.859 219.604 206.606C232.698 206.184 247.312 205.086 255.928 195.126C258.124 192.593 259.729 189.554 260.827 186.347C258.124 185.165 250.606 186.853 249.423 189.132Z" fill="#057B8E"/>
<path d="M165.034 179.847C174.58 183.983 185.561 184.152 195.698 181.873C200.344 180.86 205.075 179.256 208.707 176.049C210.735 174.36 212.255 172.25 213.776 170.224C215.634 167.692 217.323 165.075 219.013 162.374C225.011 152.667 229.741 142.115 232.613 131.057C233.627 127.005 234.472 122.7 233.711 118.564C233.036 114.428 230.67 110.292 226.953 108.435C223.912 107 219.942 106.831 218.253 104.045C215.465 99.6559 220.702 92.903 217.577 88.6824C215.381 85.8124 210.988 86.5721 207.525 87.6695C202.963 89.1045 198.486 90.7083 194.685 93.4939C190.883 96.2795 187.758 100.5 187.251 105.227C180.746 101.851 171.708 105.058 168.751 111.896C166.639 116.792 167.4 122.447 165.541 127.427C163.598 132.408 159.29 136.122 157.685 141.187C156.756 144.31 156.587 148.362 153.715 149.965C151.772 150.978 149.407 150.641 147.548 151.569C141.888 154.439 148.14 164.4 150.505 167.861C153.799 173.094 159.121 177.23 165.034 179.847Z" fill="#057B8E"/>
<path d="M185.899 97.4612C185.899 99.7403 185.984 102.104 187.42 103.792C189.025 105.734 191.643 106.071 194.093 106.24C196.627 106.493 199.162 106.747 201.696 106.324C204.23 105.902 206.68 104.721 208.116 102.526C209.721 100.247 209.89 97.2924 209.974 94.5912C210.143 89.4421 210.397 84.293 210.566 79.2283C210.65 77.7089 210.65 76.0206 209.89 74.67C208.707 72.3909 206.004 71.6312 203.639 71.2092C200.006 70.5339 196.289 70.2806 192.488 70.2806C186.659 70.2806 185.392 72.5598 185.899 77.5401C186.491 84.0398 185.899 90.8771 185.899 97.4612Z" fill="#E0A47C"/>
<path d="M209.214 79.8191C204.23 80.6632 202.541 73.9103 200.006 75.5985C195.022 78.975 191.559 79.8191 187.42 78.975C186.828 78.6374 186.406 78.2997 185.899 77.8777C186.491 84.2929 185.899 90.9615 185.899 97.3768C185.899 99.6559 185.984 102.019 187.42 103.708C189.025 105.649 191.643 105.987 194.093 106.156C196.627 106.409 199.162 106.662 201.696 106.24C204.23 105.818 206.68 104.636 208.116 102.441C208.876 101.344 209.298 99.9935 209.552 98.643C207.018 93.7471 209.805 85.3059 209.214 79.8191Z" fill="#FECAD0"/>
<path d="M210.481 79.2283C210.566 77.7089 210.566 76.0206 209.805 74.67C208.623 72.3909 205.919 71.6312 203.554 71.2092C199.922 70.5339 196.205 70.2806 192.404 70.2806C186.575 70.2806 185.308 72.5598 185.815 77.5401C185.815 77.7089 185.815 77.7933 185.815 77.9621C186.322 78.3842 186.659 78.8062 187.335 79.0595C191.559 79.9036 194.853 79.0595 199.922 75.683C202.456 73.9948 204.146 80.7477 209.129 79.9036C209.805 85.3903 206.933 93.7471 209.552 98.8118C209.805 97.4612 209.89 96.0262 209.974 94.6756C210.059 89.4421 210.312 84.3774 210.481 79.2283Z" fill="#FECAD0"/>
<path d="M195.529 75.9362C191.812 78.3841 186.237 77.3712 183.618 73.7415C182.351 71.9689 182.013 69.0989 183.872 68.0859C184.801 67.495 185.984 67.6639 187.082 67.495C190.883 66.9886 193.502 63.19 197.134 62.0927C200.851 60.9953 204.737 62.9368 208.2 64.7939C209.805 65.638 211.41 66.5665 212.424 68.0015C213.438 69.4365 213.776 71.6312 212.593 72.9818C214.029 71.7156 216.563 72.5597 217.492 74.248C218.422 76.0206 218.168 78.2153 217.492 79.988C216.817 81.845 215.803 83.6177 215.381 85.5592C214.789 87.7539 214.958 90.1174 214.367 92.3121C213.691 94.5068 211.833 96.5327 209.636 96.2795C208.369 93.6627 208.792 90.8771 209.721 88.0915C210.566 85.3903 210.481 81.5074 210.059 79.3971C209.636 77.7933 207.356 77.54 206.088 76.6115C204.061 75.1765 204.652 72.4753 202.118 72.0533C199.584 71.6312 197.219 74.8389 195.529 75.9362Z" fill="#2E2E2B"/>
<path d="M214.198 75.5986C209.974 73.0662 207.524 67.073 201.611 67.073C196.965 67.073 194.009 72.2221 189.701 72.4754C187.42 72.6442 185.477 70.8715 185.054 68.5924C184.97 68.2548 184.886 67.8327 184.801 67.5795C184.379 67.6639 184.125 67.7483 183.787 68.0015C183.365 68.2548 183.112 68.5924 182.943 68.9301C183.281 71.0404 184.801 73.2351 187.42 73.9104C193.333 76.4427 198.317 66.3133 203.385 69.6898C206.764 71.7156 207.947 73.7415 210.819 75.7674C212.762 77.0336 213.353 79.5659 212.593 81.6762C212.424 82.1827 212.255 82.6048 212.255 83.0268C212.931 83.0268 213.607 83.3645 214.282 84.0398C214.451 84.2086 214.536 84.293 214.62 84.4618C215.381 81.0854 216.563 76.7804 214.198 75.5986Z" fill="#222221"/>
<path d="M210.228 83.6176C210.143 85.1371 209.974 86.6565 209.552 87.9227C209.045 89.3577 208.792 90.7926 208.707 92.2276C209.721 93.8315 211.326 94.76 213.015 94.5068C213.607 93.7471 214.029 92.9874 214.282 92.0588C214.958 89.9485 214.874 87.7538 215.296 85.5591C214.958 84.9682 214.62 84.4618 214.198 83.9553C212.846 82.7735 211.495 82.8579 210.228 83.6176Z" fill="black"/>
<path d="M192.911 99.4026C192.911 99.6559 193.924 114.428 193.924 114.428L209.129 113.077L207.102 95.0977L192.911 99.4026Z" fill="#FECAD0"/>
<path d="M192.911 99.4026C192.911 99.4871 193.502 108.097 193.502 108.097C199.162 109.363 203.385 108.688 208.285 105.227L207.187 95.0977L192.911 99.4026Z" fill="#EE84AA"/>
<path d="M167.991 133.167C165.034 135.531 155.996 142.199 155.32 142.115C153.63 141.862 147.126 138.148 144.93 135.109C149.829 132.576 154.982 127.427 159.375 123.882C165.034 119.408 172.975 102.695 181.338 107.928C186.491 111.136 178.381 122.278 176.269 125.486C174.242 128.356 170.694 131.226 167.991 133.167Z" fill="#E0206E"/>
<path d="M181.253 108.097C180.493 107.591 179.648 107.253 178.972 107.253C172.468 110.714 172.975 121.012 172.806 129.369C174.157 128.187 175.34 126.921 176.185 125.655C178.381 122.447 186.491 111.305 181.253 108.097Z" fill="#C11046"/>
<path d="M226.531 113.753C220.364 131.732 213.184 151.907 205.751 169.464C196.121 166.51 186.828 162.205 178.297 156.971C177.114 156.212 175.847 155.452 175.002 154.27C173.819 152.498 173.735 150.134 173.819 147.939C174.073 136.628 173.819 128.525 176.016 117.636C176.945 112.993 177.367 107.506 182.013 108.181C184.041 108.435 188.011 109.616 190.799 110.629C196.627 112.909 201.442 113.077 202.541 113.331C206.004 114.006 207.947 112.909 211.495 113.077C215.887 113.331 224.081 110.545 226.531 113.753Z" fill="#C12525"/>
<path d="M195.276 118.48C206.173 120.084 209.89 119.324 214.705 112.993C213.522 113.162 212.508 113.246 211.495 113.162C207.947 112.993 206.004 114.006 202.541 113.415C201.442 113.162 196.543 112.909 190.799 110.714C190.123 110.461 189.532 110.207 188.771 109.954C188.771 110.629 188.771 111.136 188.771 111.727C189.109 115.188 191.897 117.889 195.276 118.48Z" fill="#C11046"/>
<path d="M200.767 144.225C209.552 138.57 209.214 119.83 220.787 112.233C218.759 112.318 216.563 112.74 214.705 112.993C209.552 119.83 200.598 122.447 192.488 118.058C189.701 115.947 188.687 113.246 188.856 109.954C186.406 109.11 183.618 108.35 182.013 108.097C177.367 107.422 176.945 112.909 176.016 117.551C173.819 128.44 173.988 136.544 173.819 147.855C173.735 150.05 173.819 152.329 175.002 154.186C175.762 155.368 177.029 156.212 178.297 156.887C186.913 162.205 196.205 166.341 205.751 169.38C206.004 168.874 206.257 168.367 206.426 167.776C194.769 164.315 183.703 158.407 179.902 150.05C173.144 134.096 194.938 149.29 200.767 144.225Z" fill="#E0206E"/>
<path d="M220.787 112.233C212.762 117.551 206.173 134.349 203.892 144.732C203.554 146.251 202.034 147.18 200.513 146.842C196.627 145.829 189.869 143.803 187.673 141.524C182.52 136.291 167.822 135.278 177.114 149.712C182.267 157.731 208.876 167.523 207.693 164.737C214.958 147.686 220.533 131.226 226.531 113.753C225.433 112.318 223.321 112.064 220.787 112.233Z" fill="#C11046"/>
<path d="M195.952 94.4224C201.02 92.4809 204.652 95.8574 207.356 93.325C208.031 92.6497 207.356 83.8709 210.988 83.28C211.917 83.1112 209.805 87.3318 210.312 88.0915C210.734 88.6824 210.65 89.4421 210.481 90.1174C210.143 92.6497 210.143 95.0977 209.805 97.63C209.552 99.4871 209.214 101.766 208.116 103.286C206.088 105.902 201.949 106.746 198.655 106.915C195.867 107 191.728 107.169 189.278 105.734C186.659 104.299 186.237 102.357 185.815 100.078C185.477 98.2209 184.548 92.9874 186.744 92.7341C188.264 92.5653 191.221 94.2535 191.812 94.4224C193.164 94.5912 194.684 94.9288 195.952 94.4224Z" fill="#2E2E2B"/>
<path d="M207.187 94.76C209.805 94.0847 208.369 89.1044 210.566 86.0656C210.988 84.715 211.495 83.1112 210.988 83.28C207.356 83.8709 208.031 92.6497 207.356 93.325C204.652 95.8574 201.105 92.4809 195.952 94.4224C194.685 94.9289 193.248 94.6756 191.897 94.338C191.221 94.1691 188.349 92.4809 186.828 92.6497C186.153 92.7341 185.815 93.325 185.646 94.0003C186.322 93.1562 191.728 95.6886 194.431 95.2665C199.246 94.5068 204.399 95.773 207.187 94.76Z" fill="black"/>
<path d="M132.512 224.332C127.697 226.189 124.571 229.734 121.023 232.267C117.222 234.968 111.731 234.799 107.423 233.111C106.325 232.604 105.142 231.929 104.805 230.663C104.467 229.566 105.142 228.299 105.903 227.54C106.747 226.696 107.846 226.274 108.859 225.767C112.661 223.91 116.124 221.462 118.996 218.423C121.868 215.469 124.994 210.911 131.16 213.021C135.806 214.54 136.651 222.728 132.512 224.332Z" fill="white"/>
<path d="M105.734 227.709C105.058 228.553 104.551 229.566 104.804 230.579C105.142 231.76 106.241 232.52 107.423 233.026C111.309 234.63 116.124 234.884 119.841 232.942C116.293 229.397 110.971 227.371 105.734 227.709Z" fill="#F4DCDC"/>
<path d="M127.021 218.761C129.978 219.183 132.258 218.17 134.286 215.722C133.61 214.709 132.343 213.359 131.245 212.937C127.359 211.586 124.656 212.852 122.544 214.794C122.628 215.638 123.051 216.397 123.558 217.073C124.402 218.086 125.754 218.592 127.021 218.761Z" fill="#F4DCDC"/>
<path d="M199.162 96.3638C199.668 96.3638 199.922 96.9547 199.753 97.2924C198.739 99.065 196.965 100.162 195.191 100.078C193.164 100.078 191.137 98.4741 190.376 96.1106" fill="#EE84AA"/>
<path d="M130.822 225.176C131.414 224.923 131.921 224.585 132.512 224.417C135.468 223.319 136.229 219.605 134.624 216.566C131.752 218.423 130.484 221.378 130.822 225.176Z" fill="#F4DCDC"/>
<path d="M192.15 96.9547C194.262 97.0391 196.458 97.1235 198.57 97.1235C197.979 98.4741 196.543 99.4026 195.107 99.4026C193.671 99.4026 192.235 98.4741 191.728 97.0391" fill="white"/>
<path d="M193.333 115.947C198.486 117.72 206.173 118.733 210.566 115.357C211.579 114.512 212.508 114.428 213.015 113.077C213.522 111.896 213.184 110.123 212.424 109.026C211.917 108.266 209.467 107.844 208.707 108.182C208.792 109.194 208.961 109.785 207.947 110.461C201.527 114.175 193.164 110.292 193.755 109.363C188.18 109.279 189.954 114.766 193.333 115.947Z" fill="#E0206E"/>
<path d="M194.347 111.389C199.584 115.61 207.187 114.428 211.579 109.279C211.748 109.026 211.917 108.941 212.086 108.772C211.664 108.266 209.298 107.928 208.707 108.182C209.552 109.194 208.961 109.785 207.947 110.461C201.527 114.175 193.164 110.292 193.755 109.363C193.502 109.363 192.826 109.448 192.573 109.448C192.911 110.123 193.671 110.714 194.347 111.389Z" fill="#C11046"/>
<path d="M124.487 214.118C123.98 218.339 131.667 218.93 132.765 216.313C132.934 215.891 135.384 208.547 135.046 205.677C132.765 204.917 127.274 204.58 127.274 204.58C126.176 205.93 124.656 213.19 124.487 214.118Z" fill="#FECAD0"/>
<path d="M109.028 219.605C104.213 221.462 101.088 225.007 97.5398 227.54C93.7384 230.241 88.2476 230.072 83.9395 228.384C82.8413 227.877 81.6587 227.202 81.3208 225.936C80.9829 224.839 81.6587 223.572 82.419 222.813C83.2637 221.969 84.3619 221.546 85.3755 221.04C89.1769 219.183 92.6403 216.735 95.5124 213.696C98.3845 210.742 101.51 206.184 107.677 208.294C112.323 209.813 113.252 217.917 109.028 219.605Z" fill="white"/>
<path d="M82.25 222.897C81.5742 223.741 81.0674 224.754 81.3208 225.767C81.6587 226.949 82.7568 227.709 83.9395 228.215C87.8253 229.819 92.6403 230.072 96.3571 228.131C92.8092 224.67 87.4874 222.644 82.25 222.897Z" fill="#F4DCDC"/>
<path d="M103.537 214.034C106.494 214.456 108.775 213.443 110.802 210.995C110.126 209.982 108.859 208.631 107.761 208.209C103.875 206.859 101.172 208.125 99.0603 210.066C99.1448 210.911 99.5671 211.67 100.074 212.346C100.919 213.274 102.27 213.865 103.537 214.034Z" fill="#F4DCDC"/>
<path d="M107.339 220.365C107.93 220.112 108.437 219.774 109.028 219.605C111.985 218.508 112.745 214.794 111.14 211.755C108.268 213.612 107.001 216.651 107.339 220.365Z" fill="#F4DCDC"/>
<path d="M101.088 209.391C100.581 213.612 108.268 214.203 109.366 211.586C109.535 211.164 111.985 203.82 111.647 200.95C109.366 200.19 103.875 199.853 103.875 199.853C102.693 201.203 101.172 208.378 101.088 209.391Z" fill="#FECAD0"/>
<path d="M212.931 123.882C214.113 120.168 215.381 116.285 218.591 113.837C219.942 112.824 221.716 112.149 223.406 112.149C227.967 112.233 229.572 116.201 229.403 119.746C229.234 122.194 228.305 124.389 227.376 126.583C222.561 138.063 217.746 149.459 212.931 160.939C212.255 162.543 211.495 164.231 209.974 164.991C207.862 166.088 205.328 165.075 203.132 163.978C197.219 161.023 191.39 157.9 185.477 154.777C183.281 153.595 177.452 150.05 177.029 149.628C173.819 146.758 177.874 143.381 180.071 139.92C180.577 139.161 183.449 139.329 184.125 140.005C189.447 145.323 196.712 148.615 204.146 149.206C206.933 138.739 207.271 137.05 211.495 126.668L212.931 123.882Z" fill="#E0206E"/>
<path d="M183.618 142.79C183.703 138.992 179.141 138.654 176.523 140.427C176.438 140.511 176.269 140.596 176.185 140.68C174.833 141.946 174.326 144.057 174.58 145.914C179.226 153.511 183.534 146.336 183.618 142.79Z" fill="#F46C6C"/>
<path d="M190.799 86.8253C190.799 87.7538 190.292 88.5135 189.785 88.5135C189.194 88.5135 188.771 87.6694 188.771 86.8253C188.771 85.9812 189.278 85.1371 189.785 85.1371C190.292 85.0527 190.799 85.8968 190.799 86.8253Z" fill="#222221"/>
<path d="M199.584 86.8253C199.584 87.7538 199.077 88.5135 198.57 88.5135C197.979 88.5135 197.557 87.6694 197.557 86.8253C197.557 85.9812 198.063 85.1371 198.57 85.1371C199.246 85.0527 199.584 85.8968 199.584 86.8253Z" fill="#222221"/>
<path d="M191.643 79.7347C191.306 79.5659 190.968 79.4815 190.545 79.3971C190.123 79.3126 189.701 79.3127 189.278 79.4815C188.856 79.6503 188.602 79.8191 188.433 80.0724C188.264 80.3256 188.264 80.4944 188.264 80.4944C188.349 80.5788 188.771 80.1568 189.447 79.9879C190.123 79.8191 190.883 80.1568 191.39 80.41C192.404 80.9165 192.742 80.3256 191.643 79.7347Z" fill="#222221"/>
<path d="M198.317 80.3256C198.908 80.0724 199.837 80.0724 200.598 80.3256C201.358 80.5789 201.949 80.9165 202.034 80.8321C202.118 80.7477 201.611 80.1568 200.767 79.8191C200.344 79.6503 199.837 79.4815 199.331 79.4815C198.824 79.4815 198.401 79.5659 197.979 79.7347C197.303 80.0724 197.134 80.5788 197.303 80.5788C197.472 80.6633 197.81 80.4944 198.317 80.3256Z" fill="#222221"/>
<path d="M193.586 86.9941C193.586 87.585 193.502 88.2603 193.333 89.02C193.248 89.3577 193.079 89.7797 192.911 90.033C192.742 90.3706 192.573 90.7927 192.404 91.1303C192.235 91.5524 192.319 91.9744 192.404 92.3121C192.488 92.6497 192.742 92.9874 192.911 93.1562C193.333 93.4938 193.586 93.4938 193.671 93.4938C193.671 93.4094 193.417 93.325 193.079 92.903C192.826 92.5653 192.573 91.9744 192.826 91.3835C192.911 91.0459 193.164 90.7083 193.333 90.455C193.502 90.033 193.671 89.6953 193.84 89.3577C194.093 88.5135 194.178 87.7538 194.178 87.163C194.093 85.8968 193.671 85.3903 193.502 85.3903C193.502 85.2215 193.586 85.8124 193.586 86.9941Z" fill="#222221"/>
<path d="M187.842 91.5524C188.682 91.5524 189.363 91.1367 189.363 90.6238C189.363 90.111 188.682 89.6953 187.842 89.6953C187.002 89.6953 186.322 90.111 186.322 90.6238C186.322 91.1367 187.002 91.5524 187.842 91.5524Z" fill="#EE84AA"/>
<path d="M201.02 91.5524C201.86 91.5524 202.541 91.1367 202.541 90.6238C202.541 90.111 201.86 89.6953 201.02 89.6953C200.18 89.6953 199.5 90.111 199.5 90.6238C199.5 91.1367 200.18 91.5524 201.02 91.5524Z" fill="#EE84AA"/>
<path d="M101.172 105.987L104.129 104.299H148.562L156.587 138.317L155.235 141.524L113.167 140.342L101.172 105.987Z" fill="#2C1970"/>
<path d="M156.587 138.317L180.577 154.186L181.253 156.634L154.137 140.427L156.587 138.317Z" fill="#2C1970"/>
<path d="M153.63 138.823L181.253 156.634L179.817 158.66L147.126 139.583L153.63 138.823Z" fill="#8C8484"/>
<path d="M101.172 105.987H146.957L155.235 141.524L111.393 142.031L101.172 105.987Z" fill="#5656BA"/>
<path d="M128.542 122.363C127.19 122.363 126.176 121.265 126.176 119.915C126.176 119.746 126.176 119.661 126.261 119.493C125.585 119.915 125.163 120.674 125.163 121.519C125.163 122.869 126.261 123.966 127.528 123.966C128.711 123.966 129.64 123.122 129.893 121.941C129.555 122.194 129.048 122.363 128.542 122.363Z" fill="#2C1970"/>
<path d="M122.037 130.888C121.784 130.719 121.615 130.551 121.361 130.382C120.601 129.791 112.323 128.187 110.633 135.362C104.467 161.277 104.382 178.834 102.524 202.892C104.213 202.216 109.619 202.892 111.309 205.086C117.138 192.931 122.628 168.789 125.163 156.634C128.119 159.757 131.245 162.543 134.286 165.075C134.37 165.159 134.37 165.159 134.455 165.244C134.624 165.328 134.793 165.497 134.962 165.582C136.567 156.803 138.172 148.193 139.27 139.329C134.455 136.375 127.866 133.083 122.037 130.888Z" fill="#DD3C77"/>
<path d="M138.932 141.946C139.101 141.102 139.185 140.089 139.354 139.245C134.539 136.375 127.95 133.167 122.122 130.888C121.868 130.719 121.699 130.551 121.446 130.382C120.686 129.791 112.407 128.187 110.718 135.362V135.446C115.702 126.668 131.414 136.966 138.932 141.946Z" fill="#C11046"/>
<path d="M133.948 136.375C130.4 143.634 129.048 151.654 128.373 159.842C130.4 161.699 132.343 163.471 134.37 165.075C134.455 165.159 134.455 165.159 134.539 165.244C134.708 165.328 134.877 165.497 135.046 165.582C136.651 156.803 138.256 148.193 139.354 139.329C137.749 138.232 135.891 137.304 133.948 136.375Z" fill="#C11046"/>
<path d="M123.642 155.536C122.037 172.588 115.786 188.204 109.366 203.651C110.211 204.073 110.971 204.495 111.393 205.086C117.222 192.931 122.713 168.789 125.247 156.634C127.612 159.082 130.062 161.361 132.512 163.471C132.765 162.374 132.934 161.108 133.188 160.01C130.147 158.153 127.021 156.381 123.642 155.536Z" fill="#C11046"/>
<path d="M204.906 166.763C202.709 165.666 201.273 167.185 192.488 163.218C189.194 161.699 186.491 159.251 183.534 157.394C177.536 153.426 171.539 149.628 165.457 145.66C160.557 142.453 152.532 138.401 145.521 135.615C145.267 135.447 145.098 135.278 144.845 135.109C144.085 134.518 135.806 132.914 134.117 140.089C127.95 166.004 127.866 183.561 126.007 207.619C127.697 206.943 133.103 207.619 134.793 209.813C140.621 197.658 146.112 173.516 148.646 161.361C151.603 164.484 154.728 167.27 157.769 169.802C157.854 169.887 157.854 169.887 157.938 169.971C163.176 173.516 168.16 176.555 174.411 177.99C179.817 179.256 185.561 179.425 190.968 178.159C194.684 177.23 210.65 169.718 204.906 166.763Z" fill="#DD3C77"/>
<path d="M125.247 148.784C123.642 148.277 122.882 157.562 123.98 157.647C125.501 157.562 127.021 149.29 125.247 148.784Z" fill="#C11046"/>
<path d="M193.417 163.64C193.08 163.471 192.826 163.387 192.573 163.218C189.278 161.699 186.575 159.251 183.618 157.394C177.621 153.426 171.623 149.628 165.541 145.66C160.642 142.453 152.617 138.401 145.605 135.615C145.352 135.447 145.183 135.278 144.929 135.109C144.507 134.856 142.733 134.349 140.621 134.602C158.276 138.823 171.877 155.874 188.18 162.796C189.954 163.471 191.728 163.64 193.417 163.64Z" fill="#C11046"/>
<path d="M204.906 166.763C204.906 166.763 204.821 166.763 204.906 166.763C203.723 168.367 202.794 170.224 200.851 169.549C191.643 165.328 180.746 171.237 173.228 172.081C164.781 172.925 157.263 162.796 147.21 160.179C145.605 177.23 139.354 192.847 132.934 208.294C133.779 208.716 134.539 209.138 134.962 209.729C140.79 197.574 146.281 173.432 148.815 161.276C151.772 164.4 154.897 167.185 157.938 169.718C158.023 169.802 158.023 169.802 158.107 169.886C163.345 173.432 168.329 176.471 174.58 177.906C179.986 179.172 185.73 179.341 191.137 178.074C194.684 177.23 210.65 169.718 204.906 166.763Z" fill="#C11046"/>
<path d="M152.11 152.16C152.786 151.485 153.799 150.978 154.728 151.232C154.982 151.738 154.897 152.244 154.644 152.751C154.391 153.257 153.968 153.595 153.63 153.933C152.025 155.368 150.42 156.887 148.9 158.322C150.674 157.14 152.617 156.212 154.728 155.874C155.151 155.79 155.573 155.79 155.827 156.043C156.08 156.296 156.08 156.803 155.827 157.056C155.573 157.394 155.235 157.647 154.982 157.816C153.292 158.744 151.603 159.757 149.913 160.77C148.393 161.614 146.788 162.627 147.295 160.095C147.717 157.056 149.829 154.102 152.11 152.16Z" fill="#C11046"/>
<path d="M179.564 139.498L172.13 135.615L166.977 133.167C166.301 132.914 165.626 133.252 165.288 133.927L164.358 136.291H164.105L163.514 136.206C162.838 136.122 162.162 136.713 162.078 137.388L161.824 139.414H161.909C161.402 139.414 161.148 139.836 161.148 140.258L161.233 144.057C161.233 144.31 161.402 144.563 161.655 144.732C162.331 145.069 163.007 144.563 163.007 143.888V141.862L168.244 142.115L163.936 142.368C163.429 142.368 163.176 142.875 163.176 143.297L163.598 145.998C163.683 146.589 163.936 147.349 164.612 147.517C164.612 147.517 165.794 147.686 165.626 146.589L165.372 144.563L166.893 144.141C167.822 143.888 168.836 143.972 169.68 144.31L177.114 147.011C182.267 147.686 181.253 140.174 179.564 139.498ZM169.68 137.05L166.639 136.544L167.062 135.362L169.68 137.05ZM163.683 139.329L163.767 138.317L168.751 139.329H163.683Z" fill="#FECAD0"/>
<path d="M205.075 174.023C200.006 171.912 195.022 169.042 189.532 169.211C179.986 169.464 172.214 178.919 162.669 178.328C161.486 178.243 160.219 177.99 159.121 178.412C158.023 178.834 157.009 180.1 157.516 181.198C157.769 181.789 158.361 182.126 158.952 182.379C168.244 187.444 178.719 190.314 189.278 189.977C199.837 189.554 210.312 185.84 218.253 178.75C219.689 177.568 221.463 175.711 221.378 173.685C219.52 173.516 217.239 175.627 215.212 175.88C211.748 176.302 208.2 175.289 205.075 174.023Z" fill="#0E98AF"/>
<path d="M221.547 175.12C222.645 174.782 223.912 174.191 224.081 172.925C219.773 173.769 215.465 174.191 211.241 174.445C213.944 174.276 216.563 173.685 219.097 172.588C219.604 172.334 220.196 171.744 219.773 171.406C219.52 171.153 219.182 171.237 218.928 171.321C216.648 171.828 214.367 172.25 212.086 172.672C214.62 172.081 216.817 170.393 218.168 168.283C218.591 167.523 218.844 166.51 218.084 166.088C217.408 165.75 216.732 166.257 216.225 166.763C214.282 168.62 212.508 170.477 210.566 172.334C209.974 172.925 208.369 174.276 208.961 175.12C209.467 175.88 212.339 175.964 213.1 175.964C215.972 176.217 218.844 175.964 221.547 175.12Z" fill="#057B8E"/>
<path d="M155.911 181.535C155.404 181.957 154.897 182.464 155.151 183.139C155.32 183.561 155.827 183.73 156.164 183.73C156.587 183.73 156.925 183.477 157.347 183.224C160.979 181.198 164.612 179.172 168.244 177.146C167.991 177.315 166.977 176.977 166.555 177.062C166.048 177.146 165.626 177.399 165.119 177.568C164.189 177.906 163.176 178.074 162.247 178.412C159.966 178.919 157.854 180.1 155.911 181.535Z" fill="#057B8E"/>
<path d="M234.894 119.239C235.232 116.538 235.401 113.753 234.978 111.136C234.556 108.519 233.542 105.818 231.599 103.876C231.008 103.286 230.163 102.864 229.572 103.37C228.981 103.876 229.657 104.805 230.248 105.48C232.275 107.675 233.289 110.714 233.036 113.668C232.867 110.207 230.332 107.084 227.122 106.071C226.362 105.818 225.686 106.831 226.278 107.422C226.953 108.097 227.798 108.604 228.474 109.194C230.079 110.461 231.177 112.402 231.768 114.344C232.444 116.369 232.444 118.395 232.529 120.506C232.613 125.148 231.853 129.538 231.008 134.18C232.275 133.927 233.036 128.694 233.373 127.512C234.049 124.642 234.556 121.941 234.894 119.239Z" fill="#057B8E"/>
<path d="M245.284 143.55C245.2 142.706 244.946 141.609 244.186 141.355C243.426 141.102 242.581 141.693 242.243 142.453C241.905 143.212 241.99 144.057 242.074 144.901C242.666 152.413 239.962 160.179 234.725 165.666C235.908 163.556 237.09 161.53 237.682 159.166C237.935 158.322 238.019 157.394 238.019 156.549C238.019 155.199 236.077 154.861 235.654 156.127C234.556 159.673 233.204 163.049 231.599 166.426C230.67 168.536 229.488 170.562 232.444 168.874C234.218 167.945 235.739 166.426 237.09 165.075C242.75 159.419 245.96 151.4 245.284 143.55Z" fill="#057B8E"/>
<path d="M214.198 88.598C214.198 90.7927 213.1 92.5653 211.664 92.5653C210.228 92.5653 209.13 90.7927 209.13 88.598C209.13 86.4033 210.228 84.6306 211.664 84.6306C213.1 84.6306 214.198 86.4033 214.198 88.598Z" fill="#FECAD0"/>
<path d="M210.481 87.0786C210.397 87.2474 210.397 87.4162 210.397 87.585C210.397 87.9227 210.397 88.3447 210.481 88.598C210.566 88.8512 210.65 89.2733 210.819 89.5265C210.988 89.8641 211.241 90.1174 211.495 90.2862C211.748 90.3706 212.002 90.3706 212.171 90.2862C212.424 90.1174 212.508 89.7797 212.508 89.5265C212.508 88.6824 212.255 87.9227 211.833 87.2474C211.748 87.0786 211.579 86.9941 211.41 86.9097C211.157 86.7409 210.65 86.8253 210.481 87.0786Z" fill="#EE84AA"/>
<path d="M211.241 87.585C211.664 87.8383 212.002 88.4291 212.171 88.9356C212.34 89.5265 212.424 90.033 212.508 90.033C212.677 90.033 212.846 89.4421 212.677 88.8512C212.593 88.5136 212.508 88.0915 212.255 87.7538C212.086 87.4162 211.748 87.0785 211.579 86.9097C210.988 86.5721 210.735 86.7409 210.735 86.9097C210.65 87.163 210.903 87.3318 211.241 87.585Z" fill="#222221"/>
<path d="M211.495 88.1759C211.241 88.4291 210.988 88.9356 210.819 89.2733C210.65 89.6953 210.65 90.1174 210.819 90.1174C210.988 90.1174 211.157 89.8641 211.326 89.5265C211.579 89.1888 211.833 88.7668 212.002 88.598C212.508 88.0915 212.002 87.6694 211.495 88.1759Z" fill="#222221"/>
<path d="M200.682 140.849C196.036 139.836 191.728 137.219 188.602 133.589C190.207 138.148 192.742 142.368 196.036 145.745C192.15 143.297 189.363 139.498 187.42 135.278C186.237 132.745 185.392 130.044 184.632 127.343C184.379 126.583 183.281 124.051 183.618 123.291C184.125 122.109 184.886 124.135 185.223 124.557C187.673 128.694 190.883 132.408 194.431 135.7C195.952 137.304 198.739 140.342 200.682 140.849Z" fill="#C11046"/>
<path d="M54.796 211.67C66.9726 211.67 76.8437 209.1 76.8437 205.93C76.8437 202.76 66.9726 200.19 54.796 200.19C42.6195 200.19 32.7484 202.76 32.7484 205.93C32.7484 209.1 42.6195 211.67 54.796 211.67Z" fill="#E0A47C"/>
<path d="M60.2868 166.088H58.7663C62.5676 151.231 66.031 136.122 65.9465 121.096C65.9465 117.045 60.0334 116.285 59.1042 120.252C55.5563 135.193 55.0494 150.894 57.5836 166.088H57.1613C58.3439 167.101 59.3576 166.848 60.2868 166.088Z" fill="#68BDD1"/>
<path d="M39.6752 171.068L42.8852 205.677C42.9697 209.56 66.031 209.307 65.9465 205.424L68.3118 170.731L39.6752 171.068Z" fill="#B3B3F4"/>
<path d="M55.8097 166.172C55.5563 167.016 55.3029 167.945 55.1339 168.874C54.965 168.029 54.796 167.101 54.6271 166.172H55.8097Z" fill="#B3B3F4"/>
<path d="M68.0584 175.036L68.7342 166.088H67.5515L41.3647 166.426H39.3373L40.0976 175.373C40.0976 176.808 68.0584 176.471 68.0584 175.036Z" fill="#5656BA"/>
<path d="M42.4629 166.341L42.6318 168.283C38.3237 165.075 34.3534 161.361 30.9745 157.225C27.9334 153.595 33.0018 148.868 36.3808 151.991C39.7597 155.114 42.9697 158.406 45.9263 162.036C47.0245 163.387 48.0381 164.822 49.0518 166.257L42.4629 166.341Z" fill="#68BDD1"/>
<path d="M56.9079 166.172L52.1774 166.257C44.5747 154.524 37.31 142.368 32.7484 129.538C30.89 124.22 38.3237 120.843 41.1113 125.739C48.2916 138.232 53.6134 151.991 56.9079 166.172Z" fill="#0E98AF"/>
<path d="M84.4463 130.213C80.645 143.044 74.6474 155.199 66.9603 166.088L61.385 166.172C61.9763 162.205 62.3987 158.491 63.3279 155.959C66.4534 146.673 70.7616 137.726 76.4213 129.622C78.2797 127.005 82.3345 124.304 84.1084 127.174C84.6997 128.018 84.6997 129.2 84.4463 130.213Z" fill="#0E98AF"/>
<path d="M70.5926 173.01C70.5926 175.036 37.4789 175.458 37.4789 173.432L36.1273 165.666L71.7752 165.244L70.5926 173.01Z" fill="#4A27A0"/>
<path d="M247.373 216.229C247.204 216.229 247.036 216.229 246.951 216.144C246.191 215.806 245.768 214.878 246.022 213.865C250.077 197.489 256.159 172.588 256.497 170.646C256.581 169.802 257.172 169.042 257.933 169.042C258.693 169.042 259.453 169.886 259.453 170.815C259.453 171.153 259.453 172.166 248.894 214.878C248.556 215.722 248.049 216.229 247.373 216.229ZM256.412 170.731C256.412 170.815 256.412 170.815 256.412 170.899C256.412 170.815 256.412 170.731 256.412 170.731Z" fill="#4949AD"/>
<path d="M282.852 214.962C272.293 172.25 272.293 171.237 272.293 170.899C272.293 169.971 272.969 169.127 273.814 169.127C274.574 169.127 275.25 169.886 275.25 170.731C275.588 172.756 281.67 197.574 285.725 213.949C285.978 214.878 285.471 215.891 284.795 216.229C284.626 216.313 284.457 216.313 284.373 216.313C283.697 216.229 283.106 215.722 282.852 214.962ZM275.25 170.899C275.25 170.899 275.25 170.815 275.25 170.731C275.25 170.731 275.25 170.815 275.25 170.899Z" fill="#4949AD"/>
<path d="M279.051 191.243H252.949C252.273 191.243 251.766 191.918 251.766 192.678C251.766 193.437 252.357 194.113 252.949 194.113H279.051C279.727 194.113 280.234 193.437 280.234 192.678C280.234 191.834 279.727 191.243 279.051 191.243Z" fill="#4949AD"/>
<path d="M265.451 226.189C283.786 226.189 298.649 222.863 298.649 218.761C298.649 214.658 283.786 211.333 265.451 211.333C247.116 211.333 232.253 214.658 232.253 218.761C232.253 222.863 247.116 226.189 265.451 226.189Z" fill="#E0A47C"/>
<path d="M283.615 152.413C283.446 152.413 283.362 152.413 283.193 152.413L283.531 148.699H267.396L269.086 167.101H281.841L282.517 160.179C282.855 160.263 283.193 160.348 283.615 160.348C285.727 160.348 287.501 158.575 287.501 156.381C287.585 154.186 285.896 152.413 283.615 152.413ZM283.615 159.082C283.277 159.082 282.939 158.997 282.686 158.913L283.193 153.511C283.362 153.511 283.531 153.426 283.699 153.426C285.22 153.426 286.487 154.692 286.487 156.212C286.403 157.9 285.22 159.082 283.615 159.082Z" fill="#E0206E"/>
<path d="M290.033 173.685H242.136C241.038 173.685 240.109 172.841 240.109 171.659V167.439C240.109 166.341 240.953 165.413 242.136 165.413H290.033C291.131 165.413 292.06 166.257 292.06 167.439V171.659C292.06 172.841 291.131 173.685 290.033 173.685Z" fill="#B3B3F4"/>
<path d="M240.024 222.897C239.771 222.897 239.602 222.897 239.348 222.813C238.25 222.475 237.574 221.293 237.912 220.196C243.741 200.866 252.357 171.321 252.78 169.042C252.864 168.029 253.793 167.101 254.807 167.101C255.99 167.101 256.834 168.029 256.834 169.211C256.834 169.633 256.834 170.815 241.714 221.462C241.798 222.306 241.038 222.897 240.024 222.897ZM253.033 168.958C253.033 169.042 253.033 169.127 253.033 169.127C252.949 169.127 252.949 169.042 253.033 168.958Z" fill="#B3B3F4"/>
<path d="M290.708 221.378C275.588 170.731 275.588 169.549 275.588 169.127C275.588 167.945 276.517 167.016 277.615 167.016C278.713 167.016 279.642 167.861 279.642 168.958C280.149 171.321 288.766 200.781 294.51 220.111C294.848 221.209 294.172 222.475 293.074 222.728C292.82 222.813 292.651 222.813 292.398 222.813C291.807 222.897 290.877 222.306 290.708 221.378ZM279.811 169.211C279.811 169.211 279.811 169.127 279.811 169.042C279.811 169.042 279.811 169.127 279.811 169.211Z" fill="#B3B3F4"/>
<path d="M285.218 193.269H247.965C247.036 193.269 246.275 194.028 246.275 194.957C246.275 195.885 246.951 196.645 247.965 196.645H285.218C286.147 196.645 286.907 195.885 286.907 194.957C286.823 194.113 286.147 193.269 285.218 193.269Z" fill="#B3B3F4"/>
<path d="M276.688 142.706C275.59 141.102 273.563 140.089 272.802 138.401C272.38 137.557 272.127 136.459 272.296 135.531C272.38 134.602 272.887 133.589 273.563 133.167C274.238 132.661 275.168 132.661 275.59 133.167C276.181 133.674 276.266 134.349 276.012 134.771C275.674 135.278 275.252 135.446 274.914 135.446C274.576 135.446 274.323 135.362 274.323 135.446C274.323 135.446 274.407 135.784 274.914 135.869C275.337 136.037 276.097 135.953 276.688 135.278C277.026 134.94 277.195 134.434 277.111 133.927C277.026 133.421 276.773 132.914 276.435 132.492C276.012 132.07 275.421 131.732 274.83 131.732C274.154 131.732 273.563 131.901 272.971 132.239C271.873 132.914 271.197 134.265 271.028 135.446C270.859 136.713 271.028 137.979 271.62 139.161C272.211 140.342 273.056 141.186 273.816 141.862C274.576 142.621 275.252 143.128 275.674 143.803C276.097 144.394 276.35 144.985 276.35 145.407C276.35 145.914 276.266 146.251 276.181 146.589C275.928 147.264 275.506 147.433 275.59 147.602C275.59 147.686 275.759 147.771 276.097 147.686C276.35 147.602 276.773 147.433 277.026 147.011C277.364 146.589 277.702 145.998 277.702 145.154C277.533 144.394 277.195 143.466 276.688 142.706Z" fill="#F3C886"/>
<path d="M418 80.7229H287.066L272.874 77.8529L403.893 68.3988L418 77.9373V80.7229Z" fill="#8585DD"/>
<path d="M394.601 39.1924C395.277 38.1794 396.544 36.9977 397.642 37.5041C398.402 37.8418 398.825 38.8547 398.656 39.7832C398.487 40.6274 397.98 41.4715 397.473 42.2312C393.841 47.3803 390.039 52.445 386.069 57.3409C380.832 51.7697 377.368 44.5103 376.355 36.9132C376.27 36.0691 376.692 35.225 377.453 34.9718C378.72 34.5497 379.396 35.9003 379.649 37.0821C382.268 46.0297 382.606 47.7179 384.717 54.8085C384.38 49.9971 384.126 45.1012 384.042 41.8935C383.957 40.543 384.211 39.1079 384.802 37.8418C385.647 36.2379 388.181 36.9977 388.181 38.7703C388.012 43.9194 386.998 49.153 387.336 54.0488C389.195 49.4062 392.827 41.6403 394.601 39.1924Z" fill="#0E98AF"/>
<path d="M294.753 31.6797H284.278V73.0415H294.753V31.6797Z" fill="#E0A47C"/>
<path d="M302.525 41.387H294.668V73.97H302.525V41.387Z" fill="#0E98AF"/>
<path d="M315.871 31.6797H305.397V73.0415H315.871V31.6797Z" fill="#DD3C77"/>
<path d="M323.727 41.387H315.871V73.97H323.727V41.387Z" fill="#68BDD1"/>
<path d="M367.485 63.925C367.485 61.4771 369.005 59.5356 371.117 58.8603V58.6071H330.147V69.1585H371.117V68.9053C369.005 68.3144 367.485 66.2885 367.485 63.925Z" fill="#B3B3F4"/>
<path d="M391.222 54.2177H379.902C377.368 55.9903 375.679 59.0291 375.679 62.4056C375.679 67.8924 380.071 72.3662 385.562 72.3662C390.968 72.3662 395.446 67.9768 395.446 62.4056C395.446 59.0291 393.756 55.9903 391.222 54.2177Z" fill="#F3C886"/>
<path d="M403.808 68.3988H272.874V77.7685H403.808V68.3988Z" fill="#4A27A0"/>
<path d="M34.5452 64.5222C50.7751 64.5222 63.9319 51.2453 63.9319 34.8675C63.9319 18.4896 50.7751 5.21277 34.5452 5.21277C18.3154 5.21277 5.15857 18.4896 5.15857 34.8675C5.15857 51.2453 18.3154 64.5222 34.5452 64.5222Z" fill="white"/>
<path d="M39.1243 61.6262C22.9529 61.6262 9.7376 48.3626 9.7376 31.9714C9.7376 22.3568 14.2586 13.7848 21.272 8.39825C11.6503 13.3214 5.10065 23.3415 5.10065 34.8674C5.10065 51.2007 18.258 64.5221 34.4873 64.5221C41.2109 64.5221 47.3549 62.2633 52.2816 58.4406C48.3402 60.4678 43.8771 61.6262 39.1243 61.6262Z" fill="#8585DD"/>
<path d="M37.7332 62.7846C37.7332 63.7113 33.9657 63.7113 33.9657 62.7846V5.27063H37.7332V62.7846Z" fill="#B3B3F4"/>
<path d="M7.53505 36.7788C6.25988 36.7788 6.25988 32.9561 7.53505 32.9561H65.2071V36.7788H7.53505Z" fill="#B3B3F4"/>
<path d="M34.5453 0C15.4758 0 0 15.5803 0 34.8675C0 54.1546 15.4758 69.7929 34.5453 69.7929C53.6147 69.7929 69.0906 54.1546 69.0906 34.8675C69.0906 15.5803 53.6147 0 34.5453 0ZM34.5453 64.5222C18.3739 64.5222 5.15861 51.2587 5.15861 34.8675C5.15861 18.4763 18.316 5.27066 34.5453 5.27066C50.7166 5.27066 63.932 18.5342 63.932 34.9254C63.932 51.3166 50.7166 64.5222 34.5453 64.5222Z" fill="#5656BA"/>
</svg>
