<svg width="427" height="245" viewBox="0 0 427 245" fill="none" xmlns="http://www.w3.org/2000/svg">
<path d="M99.2375 148.598H18.2473V33.9671C18.2473 24.7886 99.2375 24.7886 99.2375 33.9001V148.598Z" fill="#E0A47C"/>
<path d="M97.4274 148.601H16.3701V33.9701C16.3701 24.8587 97.4274 24.8587 97.4274 33.9701V148.601Z" fill="#F3C886"/>
<path d="M20.3928 142.836V36.245C20.3928 35.508 20.8621 34.838 21.5326 34.6371C26.0246 33.0292 38.2938 31.1533 56.8652 31.1533C75.4367 31.1533 87.7059 32.9622 92.1979 34.6371C92.8683 34.905 93.3377 35.508 93.3377 36.245V142.836C93.3377 143.774 92.5331 144.578 91.5945 144.578H22.136C21.1303 144.578 20.3928 143.774 20.3928 142.836Z" fill="#D2D2F0"/>
<path d="M37.4892 31.8902L24.8848 144.578H43.3221L56.0606 31.1533C48.8868 31.1533 42.6517 31.4212 37.4892 31.8902Z" fill="white"/>
<path d="M61.3572 31.1533L48.6187 144.578H58.8095L71.4809 31.5552C68.4639 31.3542 65.0446 31.2203 61.3572 31.1533Z" fill="white"/>
<path d="M72.4683 146.02L72.4683 29.3796H68.9149L68.9149 146.02H72.4683Z" fill="#F3C886"/>
<path d="M43.9609 146.033L43.9609 29.3928H40.4076L40.4076 146.033H43.9609Z" fill="#F3C886"/>
<path d="M44.6421 146.022L44.6421 29.3821H43.9716L43.9716 146.022H44.6421Z" fill="#E0A47C"/>
<path d="M73.1494 146.009L73.1494 29.3689H72.479L72.479 146.009H73.1494Z" fill="#E0A47C"/>
<path d="M94.6785 55.0709H18.2473V58.6217H94.6785V55.0709Z" fill="#F3C886"/>
<path d="M95.3489 147.459H12.6826V151.344H95.3489V147.459Z" fill="#F3C886"/>
<path d="M95.377 151.432H99.2656V147.546H95.377V151.432Z" fill="#E0A47C"/>
<path d="M412.318 148.597H331.26V33.9001C331.26 24.7886 412.318 24.7886 412.318 33.9001V148.597Z" fill="#E0A47C"/>
<path d="M410.44 148.6H329.383V33.9697C329.383 24.8582 410.44 24.8582 410.44 33.9697V148.6Z" fill="#F3C886"/>
<path d="M333.405 142.836V36.245C333.405 35.508 333.875 34.838 334.545 34.6371C339.037 33.0292 351.306 31.1533 369.878 31.1533C388.449 31.1533 400.718 32.9622 405.21 34.6371C405.881 34.905 406.35 35.508 406.35 36.245V142.836C406.35 143.774 405.546 144.578 404.607 144.578H335.148C334.21 144.578 333.405 143.774 333.405 142.836Z" fill="#D2D2F0"/>
<path d="M350.569 31.8902L337.964 144.578H356.402L369.14 31.1533C361.966 31.1533 355.731 31.4212 350.569 31.8902Z" fill="white"/>
<path d="M374.437 31.1533L361.698 144.578H371.889L384.561 31.5552C381.476 31.3542 378.124 31.2203 374.437 31.1533Z" fill="white"/>
<path d="M385.527 146.04V29.4H381.974V146.04H385.527Z" fill="#F3C886"/>
<path d="M357.02 145.986V29.3462H353.467V145.986H357.02Z" fill="#F3C886"/>
<path d="M357.702 146.043V29.4025H357.031V146.043H357.702Z" fill="#E0A47C"/>
<path d="M386.209 146.03V29.3893H385.539V146.03H386.209Z" fill="#E0A47C"/>
<path d="M407.758 55.0709H331.327V58.6217H407.758V55.0709Z" fill="#85BBCE"/>
<path d="M408.362 147.459H325.695V151.344H408.362V147.459Z" fill="#F3C886"/>
<path d="M408.416 151.432H412.304V147.546H408.416V151.432Z" fill="#E0A47C"/>
<path d="M20.2476 9.44647H0V15.1411H20.2476V9.44647Z" fill="#68BDD1"/>
<path d="M416.248 9.44647H396V15.1411H416.248V9.44647Z" fill="#68BDD1"/>
<path d="M30.3711 15.1412H10.1235V20.8359H30.3711V15.1412Z" fill="#68BDD1"/>
<path d="M426.371 15.1412H406.124V20.8359H426.371V15.1412Z" fill="#68BDD1"/>
<path d="M305.013 89.2389H284.766V94.9336H305.013V89.2389Z" fill="#68BDD1"/>
<path d="M148.248 128H128V133.695H148.248V128Z" fill="#68BDD1"/>
<path d="M258.111 167.289H237.863V172.984H258.111V167.289Z" fill="#68BDD1"/>
<path d="M180.646 3.68481H160.398V9.37949H180.646V3.68481Z" fill="#68BDD1"/>
<path d="M87.8023 163.337H67.5547V169.031H87.8023V163.337Z" fill="#68BDD1"/>
<path d="M378.441 160.523H358.193V166.218H378.441V160.523Z" fill="#68BDD1"/>
<path d="M77.6787 169.098H57.4312V174.793H77.6787V169.098Z" fill="#68BDD1"/>
<path d="M252.712 20.8134L272.959 20.8134V15.1187L252.712 15.1187V20.8134Z" fill="#68BDD1"/>
<path d="M298.469 18.022C303.43 18.022 307.52 14.0022 307.52 8.97748C307.52 3.95277 303.497 0 298.469 0H297.396V18.022H298.469Z" fill="#5696AC"/>
<path d="M297.396 18.089C302.395 18.089 306.447 14.0396 306.447 9.04448C306.447 4.04935 302.395 0 297.396 0C292.397 0 288.345 4.04935 288.345 9.04448C288.345 14.0396 292.397 18.089 297.396 18.089Z" fill="#85BBCE"/>
<path opacity="0.6" d="M295.586 6.83361C294.044 8.7765 291.898 9.71445 290.893 8.91049C289.887 8.10654 290.289 5.82867 291.898 3.88578C293.44 1.94289 295.586 1.00494 296.591 1.8089C297.597 2.61285 297.128 4.89072 295.586 6.83361Z" fill="#F5F5F5"/>
<path d="M297.396 10.3174C298.099 10.3174 298.67 9.74749 298.67 9.04447C298.67 8.34145 298.099 7.77155 297.396 7.77155C296.692 7.77155 296.122 8.34145 296.122 9.04447C296.122 9.74749 296.692 10.3174 297.396 10.3174Z" fill="#E0E0E0"/>
<path d="M302.156 24.6546H295.116C293.641 24.6546 292.435 23.4486 292.435 21.9747C292.435 20.5008 293.641 19.2949 295.116 19.2949H302.156C303.631 19.2949 304.838 20.5008 304.838 21.9747C304.838 23.4486 303.631 24.6546 302.156 24.6546Z" fill="#5696AC"/>
<path d="M300.949 24.6546H293.909C292.434 24.6546 291.228 23.4486 291.228 21.9747C291.228 20.5008 292.434 19.2949 293.909 19.2949H300.949C302.424 19.2949 303.631 20.5008 303.631 21.9747C303.631 23.4486 302.424 24.6546 300.949 24.6546Z" fill="#85BBCE"/>
<path d="M304.301 21.5058L304.1 20.7688C306.246 20.0989 307.452 17.754 306.782 15.6101L307.452 15.4091C308.257 18.022 306.849 20.7018 304.301 21.5058Z" fill="#5696AC"/>
<path d="M307.453 16.615C307.05 16.749 306.648 16.548 306.581 16.1461L306.313 15.3421C306.179 14.9401 306.38 14.5381 306.782 14.4711C307.184 14.3372 307.587 14.5381 307.654 14.9401L307.922 15.7441C308.056 16.0791 307.788 16.481 307.453 16.615Z" fill="#5696AC"/>
<path d="M213 244.134C284.797 244.134 343 240.745 343 236.563C343 232.382 284.797 228.993 213 228.993C141.203 228.993 83 232.382 83 236.563C83 240.745 141.203 244.134 213 244.134Z" fill="#F3C886"/>
<path d="M134.584 27.2674C134.45 27.2674 134.315 27.2004 134.248 27.0664C133.645 25.8605 134.383 24.9226 135.12 23.9176C136.193 22.5107 137.467 20.7018 136.126 17.218C133.712 10.9874 135.656 7.36958 135.723 7.23558C135.79 7.0346 136.059 7.0346 136.193 7.10159C136.394 7.16859 136.394 7.43657 136.327 7.57057C136.327 7.63756 134.45 11.0544 136.796 16.95C138.338 20.8358 136.796 22.8457 135.723 24.3866C134.919 25.4585 134.584 26.0615 134.919 26.7985C134.986 26.9995 134.919 27.2004 134.785 27.2674C134.651 27.2674 134.584 27.2674 134.584 27.2674Z" fill="#442B9C"/>
<path d="M135.992 8.37451C135.455 8.37451 134.986 7.90554 134.986 7.36957C134.986 6.8336 135.455 6.36462 135.992 6.36462C136.528 6.36462 136.997 6.8336 136.997 7.36957C136.997 7.90554 136.528 8.37451 135.992 8.37451ZM135.992 7.10158C135.857 7.10158 135.723 7.23557 135.723 7.36957C135.723 7.50356 135.857 7.63755 135.992 7.63755C136.126 7.63755 136.26 7.50356 136.26 7.36957C136.26 7.23557 136.126 7.10158 135.992 7.10158Z" fill="#442B9C"/>
<path d="M147.255 21.0368L147.59 21.5728L114.403 41.8726L114.001 41.3366L127.477 25.9945L147.255 21.0368Z" fill="#263238"/>
<path d="M147.591 21.5728L134.115 36.8479L114.403 41.8726L127.812 26.5975L147.591 21.5728Z" fill="#442B9C"/>
<path d="M145.11 33.4311C138.204 36.4459 131.634 40.4657 125.801 45.2224C125.399 45.5574 124.862 45.4904 124.661 45.0884L121.108 39.2598C120.907 38.9248 120.974 38.5228 121.309 38.2548C127.276 33.3641 133.913 29.2773 141.02 26.1955C141.355 26.0615 141.758 26.1285 141.959 26.4635L145.512 32.2922C145.713 32.6941 145.579 33.2301 145.11 33.4311Z" fill="#BF256C"/>
<path opacity="0.3" d="M145.11 33.4311C138.204 36.4459 131.634 40.4657 125.801 45.2224C125.399 45.5574 124.862 45.4904 124.661 45.0884L121.108 39.2598C120.907 38.9248 120.974 38.5228 121.309 38.2548C127.276 33.3641 133.913 29.2773 141.02 26.1955C141.355 26.0615 141.758 26.1285 141.959 26.4635L145.512 32.2922C145.713 32.6941 145.579 33.2301 145.11 33.4311Z" fill="#BF256C"/>
<path d="M341.495 91.9187C341.36 91.9187 341.226 91.8517 341.092 91.7177C339.818 90.2438 340.422 88.6359 341.025 86.961C341.897 84.4152 342.97 81.6013 338.813 77.6485C330.633 69.877 335.729 62.3064 335.796 62.1724C335.93 61.9044 336.265 61.8374 336.533 62.0384C336.801 62.1724 336.868 62.5074 336.667 62.7754C336.466 63.0434 332.108 69.743 339.55 76.8446C344.176 81.2663 342.902 84.7501 342.031 87.296C341.428 89.0379 341.092 90.0428 341.897 90.9808C342.098 91.1818 342.031 91.5167 341.83 91.7177C341.696 91.8517 341.629 91.9187 341.495 91.9187Z" fill="#442B9C"/>
<path d="M336.198 63.9813C335.528 63.9813 334.924 63.5123 334.723 62.8424C334.656 62.4404 334.656 62.0384 334.857 61.7034C335.058 61.3685 335.394 61.1005 335.796 61.0335C336.6 60.8325 337.405 61.3015 337.606 62.1054C337.807 62.9094 337.338 63.7133 336.533 63.9143C336.466 63.9813 336.332 63.9813 336.198 63.9813ZM336.198 62.1054C336.131 62.1054 336.131 62.1054 336.064 62.1054C335.93 62.1054 335.863 62.1724 335.796 62.3064C335.729 62.3734 335.729 62.5074 335.729 62.6414C335.796 62.8424 335.997 62.9764 336.265 62.9764C336.466 62.9094 336.6 62.7084 336.6 62.4404C336.6 62.3064 336.533 62.2394 336.399 62.1724C336.399 62.1054 336.265 62.1054 336.198 62.1054Z" fill="#442B9C"/>
<path d="M360.937 118.516L360.267 119.052L329.024 78.3185L329.694 77.7825L351.618 93.3256L360.937 118.516Z" fill="#263238"/>
<path d="M360.267 119.052L338.343 103.509L329.024 78.3185L350.948 93.7946L360.267 119.052Z" fill="#BF256C"/>
<path d="M344.377 117.444C339.416 108.735 333.248 100.762 326.141 93.7276C325.672 93.2586 325.672 92.5887 326.141 92.1867L333.315 86.693C333.717 86.425 334.254 86.425 334.589 86.827C341.897 93.9956 348.132 102.169 353.16 111.013C353.428 111.482 353.294 112.018 352.959 112.286L345.785 117.779C345.383 118.181 344.713 117.98 344.377 117.444Z" fill="#442B9C"/>
<path opacity="0.3" d="M344.377 117.444C339.416 108.735 333.248 100.762 326.141 93.7276C325.672 93.2586 325.672 92.5887 326.141 92.1867L333.315 86.693C333.717 86.425 334.254 86.425 334.589 86.827C341.897 93.9956 348.132 102.169 353.16 111.013C353.428 111.482 353.294 112.018 352.959 112.286L345.785 117.779C345.383 118.181 344.713 117.98 344.377 117.444Z" fill="#442B9C"/>
<path d="M38.5791 104.581C42.8699 106.39 47.3619 107.529 51.988 108.132C52.2562 108.199 52.4574 108.4 52.3903 108.668L51.3176 112.687C51.2505 112.888 51.0494 113.022 50.7812 113.022C46.0881 112.486 41.462 111.214 37.1711 109.405C36.97 109.338 36.8359 109.07 36.9029 108.869L37.9757 104.849C38.0427 104.648 38.3109 104.514 38.5791 104.581Z" fill="#442B9C"/>
<path d="M34.02 103.04L34.0871 102.638L57.0834 108.735L56.9494 109.137L44.5461 109.606L34.02 103.04Z" fill="#263238"/>
<path d="M34.0872 102.638L46.4905 102.102L57.0835 108.735L44.6132 109.271L34.0872 102.638Z" fill="#BF256C"/>
<g opacity="0.4">
<path opacity="0.4" d="M34.0872 102.638L46.4905 102.102L57.0835 108.735L44.6132 109.271L34.0872 102.638Z" fill="#BF256C"/>
</g>
<path d="M46.2221 105.854H46.1551C46.088 105.787 46.021 105.72 46.088 105.586C46.2891 105.184 46.1551 104.849 45.7528 104.246C45.2164 103.442 44.546 102.236 45.4846 100.293C46.9596 97.2784 46.1551 95.4025 46.088 95.3355C46.021 95.2685 46.088 95.1345 46.1551 95.0675C46.2221 95.0005 46.3562 95.0675 46.4232 95.1345C46.4903 95.2015 47.3619 97.2114 45.7528 100.427C44.8812 102.236 45.4846 103.241 45.9539 104.045C46.2892 104.581 46.6244 105.117 46.2892 105.72C46.3562 105.854 46.2892 105.854 46.2221 105.854Z" fill="#442B9C"/>
<path d="M46.289 95.8045C46.0879 95.8045 45.9538 95.7375 45.8868 95.6035C45.8197 95.4695 45.7527 95.3355 45.7527 95.2015C45.7527 95.0675 45.8197 94.9335 45.9538 94.8665C46.0879 94.7995 46.222 94.7325 46.3561 94.7325C46.4902 94.7325 46.6243 94.7995 46.6913 94.9335C46.7584 95.0675 46.8254 95.2015 46.8254 95.3355C46.8254 95.6035 46.5572 95.8045 46.289 95.8045ZM46.289 95.1345C46.222 95.1345 46.222 95.1345 46.222 95.2015C46.222 95.2015 46.155 95.2685 46.155 95.3355C46.155 95.4025 46.222 95.4695 46.289 95.4695C46.3561 95.4695 46.4231 95.4025 46.4231 95.3355C46.4231 95.2015 46.3561 95.1345 46.289 95.1345Z" fill="#442B9C"/>
<path d="M212.196 38.8577C207.368 37.5178 204.62 45.1554 203.346 51.52C202.072 57.8846 196.373 58.8226 196.373 58.8226C196.373 58.8226 213.469 69.9439 226.141 63.7803C236.399 58.8226 233.114 47.1653 228.488 41.7386C223.861 36.3789 215.146 34.235 212.196 38.8577Z" fill="#263238"/>
<path d="M221.582 230.601L215.816 231.137L209.782 217.336L215.615 216.8L221.582 230.601Z" fill="#F0C9CF"/>
<path d="M258.322 213.584L253.629 217.269L245.182 206.214L249.875 202.529L258.322 213.584Z" fill="#F0C9CF"/>
<path d="M251.819 215.192L255.574 209.631C255.708 209.43 255.976 209.363 256.177 209.43L261.004 211.775C261.541 212.043 261.675 212.713 261.34 213.182C259.999 215.125 259.261 215.996 257.585 218.407C256.579 219.948 254.568 223.432 253.16 225.509C251.819 227.519 249.607 226.313 250.009 225.308C251.752 220.819 251.752 218.273 251.484 216.197C251.551 215.862 251.618 215.46 251.819 215.192Z" fill="#263238"/>
<path d="M215.079 229.328H222.185C222.454 229.328 222.655 229.529 222.722 229.73L224.264 235.357C224.398 235.96 223.996 236.496 223.392 236.496C220.912 236.496 219.705 236.496 216.554 236.496C214.609 236.496 209.648 236.496 206.966 236.496C204.351 236.496 203.815 233.884 204.888 233.616C209.715 232.544 212.464 231.07 214.006 229.663C214.341 229.462 214.676 229.328 215.079 229.328Z" fill="#263238"/>
<path opacity="0.2" d="M209.782 217.336L212.933 224.437H218.967L215.615 216.8L209.782 217.336Z" fill="black"/>
<path opacity="0.2" d="M249.875 202.529L245.182 206.214L249.54 211.909L254.233 208.224L249.875 202.529Z" fill="black"/>
<path d="M204.284 107.328C204.284 107.328 193.088 142.769 196.373 168.763C198.586 186.115 210.318 222.494 210.318 222.494L220.643 222.226C220.643 222.226 212.263 185.311 211.391 170.907C209.916 146.253 222.118 107.328 222.118 107.328H204.284Z" fill="#0E98AF"/>
<path d="M208.843 222.963L221.582 222.628L220.844 218.675H207.905L208.843 222.963Z" fill="#263238"/>
<path d="M209.581 107.328C209.581 107.328 211.123 146.052 219.772 167.892C226.745 185.512 247.126 211.44 247.126 211.44L253.361 206.013C253.361 206.013 240.422 178.612 235.125 166.82C222.118 138.012 236.399 118.047 228.555 107.194L209.581 107.328Z" fill="#0E98AF"/>
<path d="M246.523 212.177L254.501 205.611L252.356 202.06L243.573 209.363L246.523 212.177Z" fill="#263238"/>
<path d="M250.411 218.207C250.21 218.207 250.076 218.139 249.942 217.939C249.741 217.805 249.741 217.604 249.808 217.537C249.942 216.8 251.886 215.929 252.154 215.862C252.221 215.862 252.221 215.862 252.288 215.862C252.355 215.862 252.355 215.929 252.288 215.996C252.02 216.733 251.417 218.006 250.679 218.207C250.545 218.207 250.478 218.207 250.411 218.207ZM251.886 216.197C251.216 216.532 250.009 217.135 249.942 217.604C249.942 217.671 249.942 217.738 250.009 217.805C250.21 217.939 250.344 218.006 250.545 217.939C251.014 217.872 251.484 217.202 251.886 216.197Z" fill="#85BBCE"/>
<path d="M250.277 216.331C249.942 216.331 249.607 216.197 249.473 216.063C249.406 215.996 249.271 215.795 249.406 215.46C249.473 215.259 249.674 215.125 249.875 215.058C250.679 214.857 252.154 215.795 252.221 215.862C252.288 215.862 252.288 215.929 252.288 215.996C252.288 216.063 252.288 216.063 252.221 216.063C251.819 216.264 250.948 216.398 250.277 216.331ZM250.277 215.326C250.143 215.326 250.076 215.326 249.942 215.326C249.808 215.393 249.674 215.46 249.607 215.594C249.54 215.795 249.54 215.862 249.607 215.929C249.942 216.264 251.216 216.197 251.886 215.996C251.551 215.728 250.813 215.326 250.277 215.326Z" fill="#85BBCE"/>
<path d="M211.928 230.467C211.391 230.467 210.855 230.4 210.587 230.132C210.386 229.998 210.251 229.73 210.251 229.462C210.251 229.261 210.319 229.127 210.453 229.127C211.123 228.658 213.671 229.864 214.006 229.998C214.073 229.998 214.073 230.065 214.073 230.132C214.073 230.199 214.006 230.199 214.006 230.266C213.336 230.333 212.598 230.467 211.928 230.467ZM210.788 229.261C210.654 229.261 210.587 229.261 210.52 229.328C210.52 229.328 210.453 229.395 210.453 229.462C210.453 229.663 210.52 229.797 210.721 229.931C211.324 230.4 212.732 230.199 213.47 230.065C212.531 229.73 211.324 229.261 210.788 229.261Z" fill="#85BBCE"/>
<path d="M213.805 230.266C213 229.931 211.324 228.658 211.458 227.988C211.458 227.854 211.592 227.653 211.928 227.653C213.336 227.519 213.939 230.065 213.939 230.132C213.939 230.199 213.939 230.199 213.872 230.266C213.872 230.266 213.872 230.266 213.805 230.266ZM212.062 227.854H211.995C211.726 227.854 211.726 227.988 211.726 227.988C211.659 228.39 212.799 229.462 213.671 229.931C213.47 229.328 212.933 227.854 212.062 227.854Z" fill="#85BBCE"/>
<path d="M167.946 50.0461L165.868 45.5574L179.344 39.9967L192.35 33.498L194.429 37.9868L180.953 43.6145L167.946 50.0461Z" fill="#BF256C"/>
<path opacity="0.5" d="M167.946 50.0461L165.868 45.5574L179.344 39.9967L192.35 33.498L194.429 37.9868L180.953 43.6145L167.946 50.0461Z" fill="#BF256C"/>
<path d="M183.568 43.2795L183.434 43.3465C183.031 43.4805 182.629 43.2125 182.495 42.8105L181.355 39.1257C181.221 38.7238 181.489 38.3218 181.892 38.1878L182.026 38.1208C182.428 37.9868 182.83 38.2548 182.964 38.6568L184.104 42.3415C184.171 42.7435 183.97 43.1455 183.568 43.2795Z" fill="#A41746"/>
<path d="M179.344 45.2224L179.21 45.2894C178.874 45.5574 178.405 45.4234 178.137 45.0884L175.924 41.9396C175.656 41.6046 175.79 41.1356 176.126 40.8676L176.26 40.8006C176.595 40.5327 177.064 40.6666 177.332 41.0016L179.545 44.1504C179.746 44.4854 179.679 44.9544 179.344 45.2224Z" fill="#A41746"/>
<path d="M181.824 47.8353L183.232 42.6766L177.064 43.8155C177.064 43.8155 177.131 47.4333 180.081 49.3092L181.824 47.8353Z" fill="#F0C9CF"/>
<path d="M181.154 37.8528L176.729 39.5278L177.064 43.8155L183.232 42.6766L181.154 37.8528Z" fill="#F0C9CF"/>
<path d="M176.662 59.4926C176.796 53.9989 179.076 46.3613 179.076 46.3613L182.16 45.9594C182.16 45.9594 181.355 52.123 181.825 57.6837L176.662 59.4926Z" fill="#F0C9CF"/>
<path d="M206.765 83.1422C206.363 83.2762 206.162 83.2762 205.827 83.3432L205.022 83.5442L203.346 83.8792C202.273 84.0802 201.133 84.3482 200.061 84.4822C197.848 84.8841 195.569 85.1521 193.222 85.2861C190.808 85.3531 188.328 85.4201 185.512 84.7501C184.104 84.4152 182.629 83.9462 181.087 83.0082C180.685 82.8073 180.349 82.5393 179.947 82.2713L179.813 82.1373L179.612 82.0033L179.21 81.6683C179.009 81.4673 178.74 81.2663 178.539 80.9984C177.735 80.1274 177.265 79.3235 176.863 78.5865C176.059 77.1126 175.656 75.7727 175.321 74.5667C174.986 73.3608 174.785 72.1549 174.584 71.0159C174.181 68.7381 174.047 66.5272 173.846 64.3833C173.712 62.2394 173.578 60.0956 173.511 57.9517L173.377 54.7359L173.31 53.128C173.31 52.592 173.243 52.056 173.243 51.4531L186.652 52.659C186.585 53.061 186.451 53.5299 186.383 53.9989L186.182 55.4058C186.048 56.3438 185.914 57.3487 185.847 58.2867C185.646 60.2296 185.512 62.1054 185.512 63.9813C185.445 65.8572 185.579 67.7331 185.713 69.408C185.78 70.279 185.981 71.0829 186.115 71.8199C186.249 72.5568 186.518 73.1598 186.652 73.4948C186.719 73.6288 186.786 73.6958 186.652 73.5618C186.652 73.5618 186.585 73.4948 186.518 73.4278L186.451 73.3608L186.383 73.2938C186.451 73.2938 186.451 73.3608 186.518 73.3608C186.719 73.4948 187.188 73.6958 187.724 73.8298C188.864 74.0308 190.473 74.0978 192.149 73.8968C193.825 73.6958 195.569 73.3608 197.312 72.8918C198.183 72.6238 199.055 72.3559 199.927 72.0879C200.329 71.9539 200.798 71.7529 201.2 71.6189L201.804 71.3509C202.005 71.2839 202.206 71.1499 202.34 71.0829L206.765 83.1422Z" fill="#442B9C"/>
<g opacity="0.2">
<path opacity="0.2" d="M200.664 189.264C201.603 192.949 202.608 196.634 203.614 200.185C206.564 199.381 210.721 198.175 215.28 196.634C214.475 192.547 213.738 188.393 213.067 184.507L200.664 189.264Z" fill="black"/>
<path opacity="0.2" d="M238.745 174.793L225.604 179.818C227.616 183.368 229.828 186.919 232.041 190.336C236.332 188.393 240.22 186.249 243.036 184.038C241.561 180.823 240.086 177.674 238.745 174.793Z" fill="black"/>
</g>
<path d="M200.53 74.2987C200.932 83.4772 188.931 121.33 194.563 198.51C200.127 199.783 240.421 182.766 245.182 177.942C244.779 168.696 227.817 108.668 231.974 74.7677C232.242 72.6238 231.035 70.6139 228.89 70.279C227.079 70.011 224.8 69.743 222.52 69.609C218.431 69.408 215.078 69.274 211.458 69.609C208.709 69.877 205.692 70.413 203.614 70.7479C201.871 71.0829 200.463 72.5568 200.53 74.2987Z" fill="#442B9C"/>
<path d="M221.381 57.1477C220.711 60.6985 220.04 67.1971 222.521 69.609C222.521 69.609 218.967 75.1697 212.933 77.8495C208.106 73.7627 211.458 69.609 211.458 69.609C215.414 68.671 215.28 65.7232 214.609 62.9764L221.381 57.1477Z" fill="#F0C9CF"/>
<path d="M212.665 78.6535L213.403 74.3657L221.582 67.8001L224.398 69.408C224.331 69.408 217.023 78.9215 212.665 78.6535Z" fill="#E6E6E6"/>
<path d="M212.665 78.6535L213.403 74.3658L212.33 68.8721L209.715 69.341C209.715 69.408 208.24 78.9215 212.665 78.6535Z" fill="#E6E6E6"/>
<path d="M213.402 74.3658C213.402 74.3658 216.889 77.8496 217.09 80.9314C219.436 78.6535 225.135 71.2169 225.269 69.1401C223.995 68.1351 221.515 67.4651 221.515 67.4651L213.402 74.3658Z" fill="white"/>
<path d="M213.403 74.3657C213.403 74.3657 209.983 77.0456 209.849 80.1944C207.503 77.9165 208.575 71.3509 208.911 69.542C210.184 68.5371 212.598 68.2021 212.598 68.2021L213.403 74.3657Z" fill="white"/>
<path opacity="0.2" d="M218.632 59.4926L214.609 62.9094C214.743 63.5793 214.878 64.2493 214.945 64.8523C216.487 64.6513 218.766 63.2443 218.9 61.7034C218.967 60.9665 218.766 59.8945 218.632 59.4926Z" fill="black"/>
<path d="M225.001 51.788C222.99 57.4157 222.319 59.8276 218.565 61.9044C213 65.0533 206.497 61.4355 206.765 55.3388C207.033 49.8451 210.184 41.6046 216.419 40.9347C222.587 40.2647 226.945 46.1604 225.001 51.788Z" fill="#F0C9CF"/>
<path d="M222.655 45.2894C219.101 46.4953 219.437 53.5299 222.923 56.0088C226.409 58.4206 230.633 42.4756 222.655 45.2894Z" fill="#263238"/>
<path d="M212.33 42.7436C215.883 45.8254 220.978 47.0313 222.789 46.1604C224.062 47.1653 228.42 49.2422 225.873 44.3515C223.258 39.4608 218.699 38.8578 215.749 38.8578C212.799 38.8578 209.313 40.0637 212.33 42.7436Z" fill="#263238"/>
<path d="M225.001 57.0807C224.264 58.2196 223.124 58.8896 222.119 59.0906C220.576 59.4256 220.04 57.9516 220.644 56.4777C221.18 55.1378 222.588 53.3959 224.063 53.7309C225.471 54.0659 225.873 55.8078 225.001 57.0807Z" fill="#F0C9CF"/>
<path d="M215.883 50.9171C215.749 51.3861 215.414 51.7211 215.078 51.5871C214.743 51.5201 214.609 51.0511 214.743 50.5821C214.877 50.1131 215.213 49.7782 215.548 49.9122C215.883 49.9792 216.017 50.4481 215.883 50.9171Z" fill="#263238"/>
<path d="M210.654 49.4432C210.519 49.9121 210.184 50.2471 209.849 50.1131C209.514 50.0461 209.38 49.5772 209.514 49.1082C209.648 48.6392 209.983 48.3042 210.318 48.4382C210.587 48.5052 210.788 48.9742 210.654 49.4432Z" fill="#263238"/>
<path d="M210.452 48.5052L209.447 47.8353C209.447 47.8353 209.715 48.9072 210.452 48.5052Z" fill="#263238"/>
<path d="M211.794 50.5821C211.794 50.5821 210.453 52.324 209.313 53.0609C209.782 53.7979 210.855 53.8649 210.855 53.8649L211.794 50.5821Z" fill="#FF5652"/>
<path d="M212.866 56.3438C212.598 56.3438 212.33 56.2768 211.995 56.2098C211.928 56.2098 211.928 56.1428 211.928 56.0758C211.928 56.0088 211.995 56.0088 212.062 56.0088C214.14 56.6118 215.481 55.4058 215.481 55.4058C215.548 55.3388 215.615 55.3388 215.615 55.4058C215.682 55.4728 215.682 55.5398 215.615 55.5398C215.548 55.5398 214.542 56.4778 212.866 56.3438Z" fill="#263238"/>
<path d="M218.766 48.1703C218.699 48.1703 218.632 48.1033 218.565 48.0363C218.028 46.8973 216.956 46.7633 216.889 46.7633C216.755 46.7633 216.688 46.6294 216.688 46.4954C216.688 46.3614 216.822 46.2944 216.956 46.2944C217.023 46.2944 218.297 46.4954 218.967 47.8353C219.034 47.9693 218.967 48.1033 218.833 48.1703H218.766Z" fill="#263238"/>
<path d="M208.776 46.4953C208.709 46.4953 208.642 46.4283 208.575 46.3613C208.508 46.2273 208.575 46.0933 208.709 46.0263C210.117 45.3564 211.19 46.0933 211.257 46.0933C211.391 46.1603 211.391 46.2943 211.324 46.4283C211.257 46.5623 211.123 46.5623 210.989 46.4953C210.922 46.4953 210.05 45.9593 208.91 46.4283C208.843 46.4953 208.843 46.4953 208.776 46.4953Z" fill="#263238"/>
<path d="M254.568 73.2268L255.238 67.9341L260.468 71.3509C260.468 71.3509 258.993 74.7007 255.574 75.2366L254.568 73.2268Z" fill="#F0C9CF"/>
<path d="M259.06 64.2493L262.412 67.5321L260.468 71.3509L255.238 67.8671L259.06 64.2493Z" fill="#F0C9CF"/>
<path d="M254.836 85.9561C256.781 80.7974 257.652 72.8918 257.652 72.8918L254.904 71.3509C254.904 71.3509 253.294 77.3805 250.68 82.2713L254.836 85.9561Z" fill="#F0C9CF"/>
<path d="M231.572 72.2889C231.907 73.0258 232.376 73.9638 232.846 74.7677C233.315 75.5717 233.784 76.4426 234.254 77.2466C235.192 78.8545 236.198 80.4624 237.271 82.0033C238.343 83.5442 239.416 85.0182 240.556 86.2911C241.159 86.961 241.696 87.564 242.299 88.1C242.835 88.6359 243.439 89.1049 243.908 89.5069C244.042 89.5739 244.176 89.7079 244.243 89.7079L244.377 89.7749C244.444 89.7749 244.377 89.7749 244.377 89.7749H244.31C244.176 89.7079 243.841 89.5739 243.506 89.5739C243.171 89.5739 242.835 89.6409 242.701 89.7079C242.567 89.7749 242.567 89.7749 242.634 89.7079C242.768 89.5739 243.171 89.2389 243.573 88.7029C243.975 88.167 244.377 87.564 244.713 86.8271C245.45 85.4201 246.188 83.8122 246.724 82.1373C247.059 81.2664 247.26 80.3954 247.528 79.5245L247.864 78.1845C247.931 77.9836 247.931 77.7156 247.998 77.5146C248.065 77.3136 248.065 77.0456 248.132 76.9116L261.004 80.8644C260.87 81.1994 260.803 81.4674 260.669 81.7353L260.334 82.4723L259.664 83.9462C259.194 84.9512 258.725 85.9561 258.256 86.894C257.25 88.9039 256.244 90.8468 254.97 92.8567C254.367 93.8617 253.63 94.8666 252.758 95.9385C251.886 96.9435 250.881 98.0824 249.406 99.0873C248.668 99.6233 247.797 100.159 246.724 100.494C245.651 100.896 244.31 101.164 242.969 101.097C241.628 101.03 240.288 100.695 239.282 100.159L238.88 99.9583C238.746 99.8913 238.611 99.8243 238.544 99.7573L238.075 99.4893C237.74 99.2883 237.472 99.0874 237.136 98.8864C234.857 97.2785 233.248 95.6035 231.706 93.9956C230.164 92.3207 228.823 90.6458 227.482 88.9709C226.141 87.296 224.934 85.6211 223.66 83.8792L221.85 81.3334L220.979 80.0604C220.643 79.5915 220.375 79.1895 220.04 78.7205L231.572 72.2889Z" fill="#442B9C"/>
<path d="M215.682 49.9791L214.676 49.3091C214.676 49.3091 215.011 50.3811 215.682 49.9791Z" fill="#263238"/>
<path d="M240.019 41.0686L239.952 41.4706L202.206 32.0242L202.273 31.6222L222.118 32.4261L240.019 41.0686Z" fill="#747474"/>
<path d="M239.952 41.4706L220.04 40.6667L202.206 32.0242L222.051 32.8281L239.952 41.4706Z" fill="#8484D9"/>
<path d="M230.432 45.9594C223.325 43.3465 215.95 41.4706 208.441 40.4657C207.972 40.3987 207.637 40.0637 207.704 39.6617L209.045 34.302C209.112 34.0341 209.447 33.8331 209.849 33.9001C217.492 34.905 225.068 36.8479 232.242 39.5277C232.577 39.6617 232.846 39.9967 232.779 40.2647L231.438 45.6244C231.371 45.9594 230.901 46.1604 230.432 45.9594Z" fill="#5757B6"/>
<path opacity="0.3" d="M230.432 45.9594C223.325 43.3465 215.95 41.4706 208.441 40.4657C207.972 40.3987 207.637 40.0637 207.704 39.6617L209.045 34.302C209.112 34.0341 209.447 33.8331 209.849 33.9001C217.492 34.905 225.068 36.8479 232.242 39.5277C232.577 39.6617 232.846 39.9967 232.779 40.2647L231.438 45.6244C231.371 45.9594 230.901 46.1604 230.432 45.9594Z" fill="#5757B6"/>
<path d="M233.784 61.4354C233.717 61.4354 233.65 61.4354 233.583 61.3685C233.449 61.2345 233.449 61.0335 233.516 60.8995C236.801 57.0137 234.991 55.2718 232.443 52.8599C230.968 51.453 229.359 49.9121 228.487 47.6342C226.208 41.4706 233.248 37.3838 233.315 37.3838C233.516 37.3168 233.717 37.3168 233.784 37.5178C233.851 37.7188 233.851 37.9198 233.65 37.9868C233.382 38.1208 227.079 41.8056 229.158 47.4332C229.962 49.5101 231.504 51.051 232.912 52.391C235.393 54.8028 237.74 57.0137 234.052 61.3685C233.985 61.3685 233.851 61.4354 233.784 61.4354Z" fill="#442B9C"/>
<path d="M233.784 62.0384C233.248 62.0384 232.778 61.5695 232.778 61.0335C232.778 60.4975 233.248 60.0286 233.784 60.0286C234.32 60.0286 234.79 60.4975 234.79 61.0335C234.79 61.5695 234.32 62.0384 233.784 62.0384ZM233.784 60.7655C233.65 60.7655 233.516 60.8995 233.516 61.0335C233.516 61.1675 233.65 61.3015 233.784 61.3015C233.918 61.3015 234.052 61.1675 234.052 61.0335C234.052 60.8995 233.918 60.7655 233.784 60.7655Z" fill="#442B9C"/>
</svg>
