<svg width="114" height="104" viewBox="0 0 114 104" fill="none" xmlns="http://www.w3.org/2000/svg">
<path d="M94.5467 10.6802C90.3124 4.93077 84.0619 -0.134178 76.9376 0.00271217C69.6789 0.139603 63.6299 5.61522 59.194 11.4331C54.7582 17.3194 51.1288 23.9585 45.2815 28.2706C39.2998 32.7195 31.6378 34.2938 25.1856 38.1267C15.6418 43.8761 9.25679 55.7856 12.0124 66.7368C13.5583 72.8284 17.5237 77.9618 21.4891 82.753C28.815 91.514 37.2163 100.343 48.2388 102.876C58.858 105.408 70.2165 101.439 78.7522 94.4571C101.402 75.84 113.231 36.0049 94.5467 10.6802Z" fill="#68BDD1"/>
<path opacity="0.95" d="M2.60291 47.983C-0.28713 55.2382 -1.4297 63.9307 2.67012 70.5699C6.83716 77.346 15.1712 80.0153 22.9676 80.9736C30.764 81.9318 38.8293 81.7265 46.0208 84.8065C53.4139 88.0234 59.0596 94.3888 66.1167 98.2902C76.6687 104.177 91.0517 103.492 99.5202 94.868C104.225 90.0768 106.712 83.4376 108.862 77.0037C112.761 65.2312 116.121 52.3635 112.357 40.5909C108.728 29.1605 98.7809 20.6049 87.6912 16.4297C58.1186 5.3416 15.2385 16.2928 2.60291 47.983Z" fill="#583F99"/>
<path d="M37.8884 50.7207H29.8231V38.0583H32.4443V48.5304H37.8884V50.7207Z" fill="white"/>
<path d="M38.7622 50.7207V38.0583H41.3834V50.7207H38.7622Z" fill="white"/>
<path d="M42.7275 50.7207V38.0583H44.8783L50.6584 46.2717H50.7256V38.0583H53.2123V50.7207H51.0616L45.2143 42.4388H45.1471V50.7207H42.7275Z" fill="white"/>
<path d="M65.7134 45.382C65.7134 47.0931 65.243 48.462 64.2348 49.4202C63.2266 50.3785 61.8824 50.926 60.2022 50.926C58.3203 50.926 56.9089 50.31 55.8335 49.1464C54.7581 47.9829 54.2205 46.3402 54.2205 44.2868C54.2205 42.2335 54.7581 40.6592 55.8335 39.4957C56.9089 38.3321 58.3203 37.7845 60.135 37.7845C61.6136 37.7845 62.8234 38.1952 63.8315 38.9481C64.8397 39.7695 65.4446 40.7961 65.6462 42.0281H63.025C62.8234 41.3437 62.4873 40.8646 62.0169 40.4539C61.4792 40.1117 60.9415 39.9063 60.2022 39.9063C59.194 39.9063 58.3875 40.317 57.7826 41.0699C57.1777 41.8228 56.9089 42.8495 56.9089 44.2184C56.9089 45.5873 57.2449 46.6824 57.8498 47.4353C58.4547 48.2567 59.2612 48.5989 60.3366 48.5989C61.2103 48.5989 61.8824 48.3251 62.4201 47.846C62.9578 47.3669 63.2266 46.7509 63.2939 45.9295V45.7242H60.6054V43.8077H65.8478V45.382H65.7134Z" fill="white"/>
<path d="M69.3427 45.9295C69.3427 46.7508 69.5443 47.4353 70.0148 47.846C70.4853 48.3251 71.0902 48.5989 71.9639 48.5989C72.7704 48.5989 73.4425 48.3251 73.913 47.846C74.3835 47.3668 74.5851 46.7508 74.5851 45.9295V38.0583H77.2063V46.2717C77.2063 47.7091 76.7358 48.8042 75.7949 49.694C74.8539 50.5838 73.5769 50.9944 72.0311 50.9944C70.4181 50.9944 69.2083 50.5838 68.2001 49.694C67.2592 48.8042 66.7887 47.7091 66.7887 46.2717V38.0583H69.4099V45.9295H69.3427Z" fill="white"/>
<path d="M85.4062 47.6406H81.0376L80.0966 50.7207H77.4082L81.7097 38.0583H84.8013L89.1028 50.7207H86.3472L85.4062 47.6406ZM81.6425 45.6557H84.8686L83.2555 40.4539H83.1883L81.6425 45.6557Z" fill="white"/>
<path d="M45.8865 67.832H37.8213V55.1696H40.4425V65.6417H45.8865V67.832Z" fill="white"/>
<path d="M53.8845 64.7519H49.5158L48.5749 67.832H45.8865L50.1879 55.1696H53.2796L57.5811 67.832H54.8254L53.8845 64.7519ZM50.0535 62.767H53.2796L51.7338 57.5652H51.6666L50.0535 62.767Z" fill="white"/>
<path d="M58.1859 67.832V55.1696H60.3366L66.1167 63.383H66.1839V55.1696H68.6707V67.832H66.52L60.6727 59.5501H60.6055V67.832H58.1859Z" fill="white"/>
<path d="M74.8541 55.1696C76.736 55.1696 78.1474 55.7172 79.2228 56.8123C80.2981 57.9074 80.7686 59.4817 80.7686 61.4666C80.7686 63.4515 80.2309 65.0257 79.2228 66.1893C78.2146 67.2844 76.736 67.9004 74.8541 67.9004H70.0822V55.1696H74.8541ZM72.6361 65.6417H74.518C75.6606 65.6417 76.6016 65.2995 77.2065 64.5466C77.8113 63.8622 78.1474 62.767 78.1474 61.4666C78.1474 60.1661 77.8113 59.1394 77.2065 58.455C76.6016 57.7705 75.7278 57.3599 74.5852 57.3599H72.7034V65.6417H72.6361Z" fill="white"/>
</svg>
