<svg width="55" height="50" viewBox="0 0 55 50" fill="none" xmlns="http://www.w3.org/2000/svg">
<g clip-path="url(#clip0)">
<path d="M45.628 5.15194C43.5849 2.37783 40.569 -0.0660233 37.1315 2.68924e-05C33.6291 0.0660771 30.7105 2.70809 28.5702 5.51522C26.4298 8.35538 24.6787 11.5588 21.8573 13.6394C18.9711 15.786 15.2742 16.5456 12.161 18.395C7.55602 21.1691 4.47524 26.9155 5.80484 32.1995C6.55071 35.1387 8.46404 37.6156 10.3774 39.9274C13.9122 44.1546 17.9658 48.4148 23.2842 49.6368C28.408 50.8587 33.8886 48.9432 38.0071 45.5747C48.9357 36.5918 54.6433 17.3712 45.628 5.15194Z" fill="#68BDD1"/>
<path opacity="0.95" d="M1.26474 23.1506C-0.129722 26.6512 -0.681019 30.8454 1.29717 34.0488C3.30778 37.3183 7.32901 38.6063 11.0908 39.0687C14.8526 39.531 18.7441 39.4319 22.214 40.9181C25.7812 42.4702 28.5053 45.5416 31.9104 47.424C37.0018 50.2642 43.9416 49.9339 48.0277 45.7728C50.2978 43.461 51.4976 40.2576 52.5354 37.1532C54.4163 31.4729 56.0377 25.2642 54.2217 19.5839C52.4705 14.0687 47.671 9.94052 42.3202 7.92599C28.0513 2.57593 7.36143 7.85994 1.26474 23.1506Z" fill="#583F99"/>
<path d="M18.2901 24.4716H14.3986V18.3619H15.6633V23.4148H18.2901V24.4716Z" fill="white"/>
<path d="M18.7117 24.4716V18.3619H19.9764V24.4716H18.7117Z" fill="white"/>
<path d="M20.625 24.4716V18.3619H21.6627L24.4517 22.325H24.4841V18.3619H25.684V24.4716H24.6462L21.8249 20.4755H21.7925V24.4716H20.625Z" fill="white"/>
<path d="M31.7158 21.8956C31.7158 22.7213 31.4888 23.3818 31.0024 23.8441C30.5159 24.3065 29.8673 24.5707 29.0566 24.5707C28.1486 24.5707 27.4676 24.2734 26.9487 23.712C26.4298 23.1506 26.1704 22.358 26.1704 21.3672C26.1704 20.3765 26.4298 19.6169 26.9487 19.0555C27.4676 18.4941 28.1486 18.2299 29.0242 18.2299C29.7376 18.2299 30.3214 18.428 30.8078 18.7913C31.2942 19.1876 31.5861 19.683 31.6834 20.2774H30.4186C30.3214 19.9472 30.1592 19.716 29.9322 19.5178C29.6728 19.3527 29.4133 19.2536 29.0566 19.2536C28.5702 19.2536 28.181 19.4518 27.8892 19.8151C27.5973 20.1783 27.4676 20.6737 27.4676 21.3342C27.4676 21.9947 27.6297 22.5231 27.9216 22.8864C28.2135 23.2827 28.6026 23.4478 29.1215 23.4478C29.5431 23.4478 29.8673 23.3157 30.1268 23.0845C30.3862 22.8534 30.5159 22.5561 30.5484 22.1598V22.0608H29.2512V21.1361H31.7807V21.8956H31.7158Z" fill="white"/>
<path d="M33.467 22.1598C33.467 22.5561 33.5643 22.8864 33.7913 23.0845C34.0183 23.3157 34.3102 23.4478 34.7317 23.4478C35.1209 23.4478 35.4452 23.3157 35.6722 23.0845C35.8992 22.8534 35.9965 22.5561 35.9965 22.1598V18.3619H37.2612V22.325C37.2612 23.0185 37.0342 23.5469 36.5802 23.9762C36.1262 24.4055 35.51 24.6037 34.7642 24.6037C33.9859 24.6037 33.4021 24.4055 32.9157 23.9762C32.4617 23.5469 32.2347 23.0185 32.2347 22.325V18.3619H33.4994V22.1598H33.467Z" fill="white"/>
<path d="M41.2176 22.9855H39.1097L38.6557 24.4716H37.3585L39.434 18.3619H40.9257L43.0012 24.4716H41.6716L41.2176 22.9855ZM39.4015 22.0277H40.9581L40.1798 19.5178H40.1474L39.4015 22.0277Z" fill="white"/>
<path d="M22.1492 32.7279H18.2577V26.6182H19.5224V31.6711H22.1492V32.7279Z" fill="white"/>
<path d="M26.0083 31.2417H23.9004L23.4464 32.7279H22.1492L24.2247 26.6182H25.7164L27.7919 32.7279H26.4623L26.0083 31.2417ZM24.1598 30.284H25.7164L24.9705 27.7741H24.9381L24.1598 30.284Z" fill="white"/>
<path d="M28.0837 32.7279V26.6182H29.1215L31.9104 30.5812H31.9428V26.6182H33.1427V32.7279H32.105L29.2836 28.7318H29.2512V32.7279H28.0837Z" fill="white"/>
<path d="M36.1262 26.6182C37.0342 26.6182 37.7152 26.8824 38.2341 27.4108C38.753 27.9392 38.98 28.6988 38.98 29.6565C38.98 30.6143 38.7205 31.3738 38.2341 31.9353C37.7477 32.4637 37.0342 32.7609 36.1262 32.7609H33.8237V26.6182H36.1262ZM35.056 31.6711H35.964C36.5153 31.6711 36.9694 31.5059 37.2612 31.1427C37.5531 30.8124 37.7152 30.284 37.7152 29.6565C37.7152 29.0291 37.5531 28.5337 37.2612 28.2034C36.9694 27.8732 36.5478 27.675 35.9965 27.675H35.0885V31.6711H35.056Z" fill="white"/>
</g>
<defs>
<clipPath id="clip0">
<rect width="55" height="50" fill="white"/>
</clipPath>
</defs>
</svg>
