<svg width="472" height="255" viewBox="0 0 472 255" fill="none" xmlns="http://www.w3.org/2000/svg">
<path d="M452.234 184.153C455.964 182.262 460.307 181.984 464.483 182.651C466.71 183.041 468.993 183.708 470.552 185.322C472.055 186.99 472.334 189.939 470.608 191.33C469.55 192.164 468.158 192.331 466.821 192.275C463.592 192.22 459.973 191.663 457.412 193.61C455.964 194.723 454.962 196.559 453.181 197.115C451.455 197.671 449.506 196.615 448.615 195.057C447.724 193.499 447.669 191.552 448.114 189.828C448.058 189.939 448.504 186.1 452.234 184.153Z" fill="#66BBCF"/>
<path d="M443.715 167.742C445.998 170.969 450.397 169.912 452.457 167.909C454.517 165.906 455.352 163.069 456.187 160.343C457.969 154.113 459.806 147.548 458.47 141.151C458.08 139.259 457.356 137.368 456.02 135.922C454.684 134.531 452.624 133.641 450.731 134.141C448.504 134.753 447.112 136.923 446.11 138.981C443.159 145.101 441.6 151.832 441.6 158.619C441.544 161.79 441.934 165.128 443.715 167.742Z" fill="#66BBCF"/>
<path d="M437.48 172.415C439.929 169.467 440.431 165.239 439.317 161.567C438.203 157.896 435.754 154.78 432.858 152.221C429.518 149.217 425.565 146.881 421.333 145.434C419.663 144.822 417.881 144.377 416.155 144.544C414.374 144.711 412.648 145.601 411.813 147.159C410.588 149.495 411.757 152.277 413.037 154.558C415.265 158.619 417.77 162.457 420.61 166.073C422.892 169.022 425.509 171.859 428.961 173.194C432.413 174.529 436.032 174.362 437.869 171.97" fill="#66BBCF"/>
<path d="M443.549 216.697C443.604 216.697 443.66 216.197 443.771 215.195C443.883 214.138 443.994 212.747 444.161 211.19C444.328 209.521 444.607 207.463 445.052 205.293C445.497 203.123 446.277 200.731 447.223 198.339C448.226 195.947 449.395 193.777 450.787 192.053C452.179 190.328 453.793 189.049 455.297 188.326C456.8 187.602 458.136 187.269 459.083 187.157C460.029 187.046 460.53 186.99 460.53 186.935C460.53 186.879 460.029 186.879 459.027 186.935C458.08 186.99 456.688 187.269 455.074 187.936C453.459 188.659 451.789 189.939 450.341 191.719C448.894 193.499 447.669 195.724 446.667 198.172C445.72 200.62 444.996 203.012 444.551 205.237C444.105 207.463 443.883 209.521 443.771 211.19C443.66 212.914 443.604 214.305 443.549 215.251C443.493 216.197 443.549 216.697 443.549 216.697Z" fill="#00B3C9"/>
<path d="M443.827 213.582C443.827 213.582 443.882 213.359 443.882 212.914C443.882 212.414 443.882 211.746 443.882 210.967C443.882 209.243 443.882 206.795 443.994 203.791C444.161 197.727 444.662 191.163 445.664 181.984C446.611 173.305 447.891 163.236 449.283 156.672C449.561 155.17 449.84 153.835 450.118 152.666C450.397 151.498 450.619 150.497 450.842 149.662C451.009 148.883 451.176 148.272 451.287 147.771C451.399 147.326 451.454 147.103 451.399 147.103C451.399 147.103 451.287 147.326 451.176 147.771C451.009 148.272 450.842 148.883 450.619 149.662C450.341 150.497 450.118 151.498 449.84 152.666C449.506 153.835 449.227 155.17 448.893 156.672C447.557 162.624 446.11 170.913 445.107 180.148C444.105 189.383 443.66 197.783 443.604 203.847C443.548 206.906 443.66 209.354 443.715 211.078C443.771 211.857 443.827 212.525 443.827 213.026C443.827 213.359 443.827 213.582 443.827 213.582Z" fill="#00B3C9"/>
<path d="M443.882 197.393C443.938 197.393 443.938 196.67 443.882 195.335C443.826 194 443.604 192.108 443.27 189.772C442.88 187.436 442.323 184.71 441.488 181.706C441.098 180.315 440.263 177.033 438.092 172.137C435.308 165.517 431.466 160.065 428.181 156.727C427.402 155.837 426.567 155.17 425.843 154.558C425.509 154.28 425.175 153.946 424.841 153.723C424.506 153.501 424.228 153.278 423.95 153.111C422.836 152.388 422.224 151.999 422.224 151.999C422.112 152.11 424.674 153.612 427.847 157.006C431.021 160.399 434.751 165.795 437.535 172.36C439.094 175.92 440.152 179.091 440.931 181.817C441.822 184.765 442.379 187.491 442.824 189.828C443.27 192.108 443.492 194 443.659 195.335C443.771 196.67 443.826 197.393 443.882 197.393Z" fill="#00B3C9"/>
<path d="M428.182 225.988L429.852 248.24H458.47L460.085 225.988H428.182Z" fill="#B4B4F7"/>
<path d="M463.481 217.198H425.454V225.988H463.481V217.198Z" fill="#5322A4"/>
<path d="M425.454 247.405V249.797H427.236H462.869V247.405H425.454Z" fill="#5555BE"/>
<path d="M428.961 254.081L427.235 249.797H461.476L459.472 254.081H428.961Z" fill="#8686E1"/>
<path d="M459.528 233.275C459.528 233.275 459.472 233.331 459.417 233.498C459.305 233.665 459.138 233.831 458.971 234.054C458.582 234.555 458.025 235.278 457.301 236.168L457.245 236.279L457.19 236.168C456.132 234.722 454.74 232.774 453.07 230.494H453.292C452.067 232.218 450.731 234.11 449.284 236.224L449.172 236.39L449.005 236.224C447.502 234.443 445.887 232.552 444.217 230.549H444.495C444.44 230.66 444.328 230.772 444.217 230.883C442.714 232.719 441.322 234.555 439.93 236.224L439.763 236.39L439.651 236.224C438.204 234.165 436.868 232.274 435.643 230.494H435.865C433.861 232.774 432.191 234.666 430.91 236.168L430.799 236.279L430.743 236.168C430.075 235.055 429.574 234.165 429.184 233.553C429.017 233.275 428.906 233.053 428.794 232.886C428.683 232.719 428.683 232.663 428.683 232.663C428.683 232.663 428.739 232.719 428.85 232.886C428.961 233.053 429.129 233.275 429.296 233.553C429.685 234.165 430.242 235.055 430.91 236.112H430.743C432.024 234.61 433.694 232.663 435.643 230.382L435.754 230.215L435.865 230.382C437.09 232.107 438.482 233.998 439.93 236.057H439.651C440.988 234.332 442.435 232.552 443.939 230.716C444.05 230.605 444.106 230.494 444.217 230.382L444.328 230.215L444.495 230.382C446.166 232.385 447.78 234.332 449.284 236.057H449.005C450.453 233.998 451.845 232.107 453.07 230.382L453.181 230.215L453.292 230.382C454.907 232.663 456.299 234.666 457.301 236.112H457.134C457.858 235.222 458.47 234.555 458.86 234.054C459.027 233.831 459.194 233.665 459.305 233.498C459.472 233.331 459.528 233.275 459.528 233.275Z" fill="#F5F5F5"/>
<path d="M460.474 225.821C460.474 225.932 453.291 225.988 444.439 225.988C435.586 225.988 428.404 225.932 428.404 225.821C428.404 225.709 435.586 225.654 444.439 225.654C453.291 225.654 460.474 225.765 460.474 225.821Z" fill="#F5F5F5"/>
<path d="M461.922 250.076C461.922 250.187 454.127 250.242 444.495 250.242C434.863 250.242 427.068 250.187 427.068 250.076C427.068 249.964 434.863 249.909 444.495 249.909C454.127 249.909 461.922 249.964 461.922 250.076Z" fill="#5555BE"/>
<path d="M415.106 20.4337H345.733V92.6979H415.106V20.4337Z" fill="#00B3C9"/>
<path d="M410.374 20.4345H341V92.6987H410.374V20.4345Z" fill="#66BBCF"/>
<path d="M410.429 92.6979H341V20.378H410.429V92.6979ZM341.056 92.6979H410.374V20.4337H341.056V92.6979Z" fill="#E0E0E0"/>
<path d="M401.076 30.169H350.354V83.0181H401.076V30.169Z" fill="#FAFAFA"/>
<path d="M350.354 83.3519C350.41 83.4075 349.909 83.9638 349.129 84.7983C348.294 85.6328 347.18 86.801 345.9 88.0805C344.619 89.36 343.45 90.4726 342.559 91.2515C341.668 92.0303 341.112 92.531 341.112 92.4753C341.056 92.4197 341.557 91.8634 342.337 91.0289C343.172 90.1945 344.285 89.0262 345.566 87.7467C346.846 86.4672 348.016 85.3546 348.906 84.5758C349.742 83.7413 350.298 83.2963 350.354 83.3519Z" fill="#E0E0E0"/>
<path d="M401.075 83.185C401.131 83.1294 401.687 83.6301 402.523 84.4089C403.358 85.2434 404.527 86.356 405.808 87.6355C407.088 88.915 408.202 90.0832 408.981 90.9733C409.761 91.8634 410.262 92.4197 410.206 92.4197C410.15 92.4753 409.594 91.9747 408.758 91.1958C407.923 90.3614 406.754 89.2488 405.473 87.9693C404.193 86.6898 403.079 85.5215 402.3 84.6314C401.52 83.797 401.019 83.2407 401.075 83.185Z" fill="#E0E0E0"/>
<path d="M400.964 30.2803C400.908 30.2247 401.41 29.6684 402.189 28.8339C403.024 27.9995 404.138 26.8312 405.418 25.5517C406.699 24.2722 407.868 23.1596 408.759 22.3808C409.65 21.6019 410.207 21.1013 410.207 21.1569C410.262 21.2125 409.761 21.7688 408.982 22.6033C408.146 23.4377 407.033 24.606 405.752 25.8855C404.472 27.165 403.303 28.2776 402.412 29.0564C401.521 29.8909 400.964 30.3359 400.964 30.2803Z" fill="#E0E0E0"/>
<path d="M350.187 30.3916C350.131 30.4472 349.575 29.9465 348.739 29.1677C347.904 28.3332 346.735 27.2206 345.454 25.9411C344.174 24.6616 343.06 23.4934 342.281 22.6033C341.501 21.7132 341 21.1569 341.056 21.1569C341.112 21.1013 341.668 21.6019 342.504 22.3808C343.339 23.2152 344.508 24.3278 345.789 25.6073C347.069 26.8868 348.183 28.0551 348.962 28.9452C349.797 29.8353 350.243 30.3916 350.187 30.3916Z" fill="#E0E0E0"/>
<path d="M400.964 82.9625C400.964 82.9625 400.964 82.8512 400.964 82.6843C400.964 82.5175 400.964 82.2393 400.964 81.9612C400.964 81.2936 400.964 80.3479 400.964 79.124C400.964 76.6206 400.908 73.0046 400.908 68.3316C400.908 59.097 400.853 45.9125 400.797 30.1134L401.02 30.3359C386.265 30.3359 368.894 30.3359 350.409 30.3915L350.632 30.169C350.632 49.5841 350.632 67.7197 350.576 83.0181L350.409 82.8512C365.553 82.9069 378.192 82.9069 387.045 82.9625C391.443 82.9625 394.951 83.0181 397.345 83.0181C398.514 83.0181 399.461 83.0181 400.073 83.0181C400.352 83.0181 400.63 83.0181 400.797 83.0181C400.853 82.9625 400.908 82.9625 400.964 82.9625C400.964 82.9625 400.908 82.9625 400.741 82.9625C400.574 82.9625 400.352 82.9625 400.073 82.9625C399.461 82.9625 398.57 82.9625 397.401 82.9625C395.007 82.9625 391.555 83.0181 387.156 83.0181C378.303 83.0181 365.609 83.0738 350.409 83.1294H350.242V82.9625C350.242 67.6641 350.242 49.5285 350.187 30.1134V29.8909H350.409C368.894 29.8909 386.21 29.8909 401.02 29.9465H401.242V30.169C401.187 46.0238 401.187 59.2082 401.131 68.4985C401.131 73.1159 401.075 76.7319 401.075 79.2352C401.075 80.4591 401.075 81.4048 401.075 82.0724C401.075 82.3506 401.075 82.6287 401.075 82.7956C400.964 82.9069 400.964 82.9625 400.964 82.9625Z" fill="#E0E0E0"/>
<path d="M384.15 48.0821H367.224V64.9938H384.15V48.0821Z" fill="#DE206E"/>
<path d="M130.785 85.3533H0V89.4699H130.785V85.3533Z" fill="black"/>
<path d="M28.7296 87.4116H22.104V100.54H28.7296V87.4116Z" fill="black"/>
<path d="M107.234 85.3533H100.609V100.54H107.234V85.3533Z" fill="#E0E0E0"/>
<path d="M19.0967 57.5379L23.3838 85.6871H48.2158L54.0062 57.983L19.0967 57.5379Z" fill="#DE206E"/>
<path d="M50.5535 75.5623C50.5535 75.6179 44.2063 75.7292 36.3002 75.7292C28.4497 75.7292 22.0469 75.6736 22.0469 75.5623C22.0469 75.5067 28.3941 75.3954 36.3002 75.3954C44.1506 75.451 50.5535 75.5067 50.5535 75.5623Z" fill="#FAFAFA"/>
<path d="M50.6102 74.1715C50.6102 74.2271 44.2073 74.3384 36.3012 74.3384C28.395 74.3384 21.9922 74.2828 21.9922 74.1715C21.9922 74.1159 28.395 74.0046 36.3012 74.0046C44.2073 74.0603 50.6102 74.1159 50.6102 74.1715Z" fill="#FAFAFA"/>
<path d="M50.554 72.6139C50.554 72.6695 44.1512 72.7808 36.245 72.7808C28.3389 72.7808 21.936 72.7251 21.936 72.6139C21.936 72.5026 28.3389 72.447 36.245 72.447C44.1512 72.5026 50.554 72.5583 50.554 72.6139Z" fill="#FAFAFA"/>
<path d="M26.2227 84.0738C26.167 84.0738 25.7773 82.5161 25.4432 80.5134C25.1092 78.5663 24.8864 76.953 24.9421 76.8974C24.9978 76.8974 25.3875 78.4551 25.7216 80.4578C26.1113 82.4605 26.2784 84.0738 26.2227 84.0738Z" fill="#FAFAFA"/>
<path d="M27.8933 83.7956C27.8377 83.7956 27.7263 82.238 27.5593 80.3465C27.4479 78.4551 27.3366 76.8974 27.3923 76.8974C27.4479 76.8974 27.7263 78.3994 27.8377 80.3465C28.0047 82.238 28.0047 83.7956 27.8933 83.7956Z" fill="#FAFAFA"/>
<path d="M31.0109 83.7956C30.9553 83.7956 30.6212 82.238 30.3428 80.2353C30.1201 78.2326 30.0644 76.6193 30.1758 76.6193C30.2315 76.6193 30.3985 78.2326 30.6769 80.1796C30.8439 82.1823 31.0666 83.74 31.0109 83.7956Z" fill="#FAFAFA"/>
<path d="M33.1827 83.9069C33.1271 83.9069 32.9043 82.2936 32.8487 80.2909C32.793 78.2882 32.9043 76.6749 32.96 76.6749C33.0157 76.6749 33.0714 78.2882 33.1271 80.2909C33.1827 82.2936 33.2384 83.9069 33.1827 83.9069Z" fill="#FAFAFA"/>
<path d="M36.9688 83.7956C36.9131 83.7956 36.7461 82.2936 36.6904 80.4021C36.6347 78.5107 36.6347 76.953 36.7461 76.953C36.8017 76.953 36.9688 78.4551 37.0244 80.3465C37.0801 82.238 37.0801 83.7956 36.9688 83.7956Z" fill="#FAFAFA"/>
<path d="M39.8081 83.9069C39.7525 83.9069 39.6968 82.3492 39.6968 80.4021C39.6968 78.4551 39.8081 76.8974 39.8638 76.8974C39.9195 76.8974 39.9752 78.4551 39.9752 80.4021C39.9752 82.3492 39.8638 83.9069 39.8081 83.9069Z" fill="#FAFAFA"/>
<path d="M42.4244 83.5175C42.3687 83.5175 42.4244 81.8486 42.6471 79.8458C42.8698 77.7875 43.0925 76.1742 43.1482 76.1742C43.2039 76.1742 43.1482 77.8431 42.9255 79.8458C42.7028 81.9042 42.4801 83.5731 42.4244 83.5175Z" fill="#FAFAFA"/>
<path d="M45.8211 83.1837C45.7654 83.1837 45.8767 81.7373 46.2665 80.0684C46.6562 78.3438 47.1016 77.0087 47.213 77.0643C47.2687 77.0643 46.9346 78.4551 46.6005 80.1796C46.1551 81.7929 45.8767 83.1837 45.8211 83.1837Z" fill="#FAFAFA"/>
<path d="M43.4273 2.07422C43.4273 2.07422 43.4273 2.12985 43.3716 2.18548C43.3159 2.29674 43.3159 2.408 43.2603 2.57489C43.1489 2.96431 42.9819 3.46498 42.8148 4.07692C42.5921 4.74449 42.3694 5.52332 42.091 6.46904C41.8126 7.41476 41.4786 8.47174 41.2002 9.69562C40.8661 10.8639 40.5321 12.199 40.2537 13.5898C39.9196 14.9805 39.6412 16.5382 39.3072 18.0958C38.6947 21.3224 38.1936 24.8272 37.8039 28.61C37.4142 32.3373 37.2471 35.9533 37.2471 39.1799C37.2471 40.7931 37.2471 42.3508 37.3028 43.7972C37.3028 45.2436 37.4142 46.5787 37.4698 47.8026C37.5255 49.0265 37.6369 50.1391 37.6925 51.1404C37.7482 52.1418 37.8596 52.9763 37.9153 53.6438C37.9709 54.3114 38.0266 54.8121 38.0823 55.2015C38.0823 55.3684 38.0823 55.4796 38.138 55.5909C38.138 55.7022 38.138 55.7578 38.138 55.7578C38.138 55.7578 38.138 55.7022 38.0823 55.6465C38.0823 55.5353 38.0266 55.424 38.0266 55.2571C37.9709 54.8677 37.9153 54.367 37.8039 53.6995C37.6926 53.0319 37.5812 52.1974 37.5255 51.1961C37.4142 50.1947 37.3028 49.0821 37.2471 47.8582C37.1358 46.6344 37.0801 45.2992 37.0244 43.7972C36.9687 42.3508 36.9688 40.7931 36.9688 39.1799C37.0244 35.8977 37.1915 32.3373 37.5255 28.5544C37.9153 24.8272 38.472 21.2668 39.0845 18.0402C39.4185 16.4269 39.6969 14.9249 40.0867 13.5341C40.4207 12.1434 40.7548 10.8082 41.0889 9.63999C41.4229 8.47174 41.757 7.35913 42.0354 6.46904C42.3137 5.52332 42.5921 4.74449 42.8148 4.07692C43.0375 3.46498 43.2046 2.96431 43.3159 2.57489C43.3716 2.408 43.4273 2.29674 43.483 2.18548C43.3716 2.12985 43.3716 2.07422 43.4273 2.07422Z" fill="#4A27A0"/>
<path d="M38.9181 19.4866C39.5862 17.4839 40.9781 15.7037 42.7598 14.5911C43.3722 14.2017 44.1517 13.9235 44.8198 14.2017C45.7107 14.6467 45.7664 15.815 45.488 16.7607C45.0426 18.3184 44.0404 19.7091 42.6484 20.5992C41.3122 21.4893 40.0316 21.8787 38.417 21.6562" fill="#4A27A0"/>
<path d="M37.4141 31.2803C38.0823 28.8326 39.9753 25.3835 41.9796 23.8814C42.3137 23.6589 42.6478 23.4364 43.0375 23.3251C43.4272 23.2139 43.8727 23.2695 44.1511 23.5476C44.5408 23.9371 44.5408 24.6046 44.3738 25.1609C43.5943 28.7213 40.6434 31.6697 37.1357 32.4485" fill="#4A27A0"/>
<path d="M36.9688 41.6276C37.9709 39.3467 39.5856 37.2884 41.5899 35.7864C42.091 35.4526 42.6478 35.1188 43.2046 35.2301C44.0954 35.397 44.4851 36.4539 44.4295 37.344C44.2624 39.1799 42.8705 40.6262 41.4229 41.7945C39.864 43.0184 37.1358 44.0197 37.1358 44.0197" fill="#4A27A0"/>
<path d="M37.2476 49.0264C38.2497 47.3019 39.5303 45.6886 41.2006 44.5204C41.5347 44.2978 41.9244 44.0753 42.3698 43.9641C42.8153 43.9084 43.2607 44.0197 43.5391 44.4091C43.9288 44.9654 43.5391 45.7999 43.1493 46.3562C41.7017 48.3032 39.8644 49.7496 37.5259 50.4728" fill="#4A27A0"/>
<path d="M37.0246 46.0224C35.3543 43.9641 33.4613 42.017 31.4013 40.2924C31.0672 40.0143 30.6775 39.7361 30.2877 39.8474C29.9537 39.9586 29.7866 40.2924 29.7866 40.6262C29.7866 40.96 29.898 41.2938 30.0093 41.5719C31.2342 44.5204 34.1294 46.8568 37.2473 47.6913" fill="#4A27A0"/>
<path d="M37.1917 36.3427C35.6885 34.5625 34.2409 32.7267 32.7376 30.9465C32.2922 30.4458 31.9024 29.8895 31.29 29.6114C30.7332 29.2776 29.9537 29.222 29.397 29.6114C28.8402 30.0008 28.6732 30.724 28.7845 31.3916C28.8959 32.0591 29.2856 32.6154 29.6753 33.1717C30.5662 34.4512 31.624 35.6751 32.9046 36.6208C34.1852 37.5109 35.4101 38.1229 36.969 37.8447" fill="#4A27A0"/>
<path d="M37.8047 25.4391C36.9695 22.8801 35.4106 20.5436 33.3505 18.7634C33.0164 18.4852 32.6267 18.1514 32.1813 18.0958C31.2905 17.9289 30.4553 18.6521 30.1769 19.5422C29.8428 20.4879 30.0656 21.6005 30.5667 22.4906C31.0677 23.3807 31.8472 24.0483 32.6267 24.7159C34.13 25.8285 35.8003 26.7742 37.5263 27.3861" fill="#4A27A0"/>
<path d="M39.5855 15.7037C39.1401 12.5884 37.5255 10.0294 35.6325 7.47041C35.2427 6.91411 34.686 6.3578 34.0178 6.46906C33.5724 6.52469 33.2384 6.85848 33.0713 7.24789C32.9043 7.63731 32.9043 8.08235 32.9043 8.47177C33.0157 12.2546 35.6325 15.815 39.1958 17.0945" fill="#4A27A0"/>
<path d="M40.8109 10.7526C40.6439 9.13929 40.4769 7.52601 40.6439 5.91272C40.8109 4.29943 41.2563 2.68614 42.2585 1.40664C42.7039 0.85033 43.205 0.349654 43.8732 0.127132C44.5413 -0.0953908 45.3208 -0.0397601 45.8219 0.405285C46.323 0.794699 46.5457 1.5179 46.49 2.12983C46.49 2.7974 46.2116 3.40934 45.9889 3.96565C44.8753 6.85844 42.871 9.97375 40.8109 10.7526Z" fill="#4A27A0"/>
<path d="M21.5469 14.4798C21.5469 14.4798 21.5469 14.5911 21.5469 14.8692C21.5469 15.1474 21.5469 15.5368 21.5469 15.9819C21.5469 16.4825 21.5469 17.0945 21.6026 17.762C21.6026 18.4852 21.6026 19.2641 21.7139 20.1542C21.7696 21.9343 21.9366 23.9927 22.215 26.3292C22.4934 28.61 22.8831 31.169 23.4399 33.7837C23.9967 36.3983 24.6648 38.9017 25.3329 41.1269C26.001 43.3521 26.7248 45.3548 27.3373 46.9681C27.6157 47.8026 27.9497 48.5258 28.2281 49.1933C28.5065 49.8609 28.7292 50.4172 28.8963 50.8623C29.0633 51.3073 29.2303 51.6411 29.3417 51.9193C29.453 52.1418 29.5087 52.3087 29.453 52.3087C29.453 52.3087 29.3973 52.1974 29.286 51.9749C29.1746 51.6967 29.0076 51.3629 28.7849 50.9735C28.5622 50.5285 28.3395 49.9722 28.0611 49.3602C27.7827 48.6927 27.4487 47.9695 27.1703 47.1906C26.5021 45.5774 25.7783 43.5747 25.1102 41.3494C24.4421 39.1242 23.774 36.6208 23.2172 34.0062C22.6604 31.3915 22.2707 28.8325 21.9923 26.496C21.7139 24.1596 21.6026 22.1012 21.5469 20.321C21.4912 19.431 21.4912 18.6521 21.4912 17.9289C21.4912 17.2057 21.4912 16.6494 21.4912 16.1487C21.4912 15.7037 21.5469 15.3143 21.5469 15.0361C21.5469 14.6467 21.5469 14.4798 21.5469 14.4798Z" fill="#B3B3F4"/>
<path d="M22.2148 27.3305C22.2148 25.8285 22.8273 24.3265 23.7738 23.1582C24.1079 22.7688 24.5533 22.3794 25.11 22.435C25.7782 22.5463 26.1122 23.3251 26.1122 24.0483C26.1679 25.2165 25.7782 26.3848 24.9987 27.2749C24.2749 28.165 23.4954 28.7213 22.3262 28.8882" fill="#B3B3F4"/>
<path d="M23.7185 35.6195C23.6072 33.8393 24.2196 31.0577 25.2775 29.6114C25.4445 29.3888 25.6116 29.1663 25.8899 28.9994C26.1127 28.8325 26.4467 28.7769 26.7251 28.9438C27.1148 29.1107 27.2262 29.5557 27.2262 30.0008C27.4489 32.5598 26.1127 35.23 23.8856 36.5095" fill="#B3B3F4"/>
<path d="M25.667 42.7958C25.834 41.0157 26.5021 39.2911 27.56 37.8447C27.7827 37.5109 28.1168 37.1771 28.5622 37.1215C29.1746 37.0659 29.6757 37.6778 29.8428 38.2898C30.1212 39.5693 29.5087 40.8488 28.7292 41.9614C27.9497 43.1296 26.2794 44.3535 26.2794 44.3535" fill="#B3B3F4"/>
<path d="M27.4487 47.8026C27.7828 46.4118 28.2839 45.021 29.1747 43.9084C29.3418 43.6859 29.5645 43.4078 29.8428 43.2965C30.1212 43.1852 30.511 43.1296 30.7337 43.3521C31.1234 43.6859 31.0121 44.2978 30.845 44.7429C30.2883 46.3562 29.3417 47.7469 27.8941 48.7483" fill="#B3B3F4"/>
<path d="M26.6693 45.7442C25.0546 44.6873 23.3843 43.7972 21.6027 43.074C21.3243 42.9627 20.9902 42.8515 20.7675 43.0183C20.6005 43.1296 20.5448 43.4078 20.6005 43.6303C20.6561 43.8528 20.8232 44.0197 20.9345 44.2422C22.4378 46.0224 24.8876 46.9681 27.1704 46.8569" fill="#B3B3F4"/>
<path d="M24.7204 39.1242C23.3284 38.2341 21.9365 37.2884 20.5446 36.3983C20.1548 36.1201 19.7651 35.8976 19.264 35.7863C18.8186 35.6751 18.2618 35.7863 17.9834 36.1758C17.7051 36.5652 17.7607 37.1215 17.9278 37.5109C18.1505 37.9559 18.5402 38.2341 18.8743 38.5122C19.7651 39.1798 20.7116 39.8474 21.8252 40.1255C22.883 40.4593 23.8295 40.5706 24.8317 40.1255" fill="#B3B3F4"/>
<path d="M22.7715 31.6141C21.658 30.0564 20.099 28.7769 18.3174 27.9981C18.039 27.8868 17.7049 27.7755 17.3709 27.7755C16.7027 27.8312 16.313 28.5544 16.313 29.1663C16.313 29.8895 16.7027 30.5571 17.2038 31.0577C17.7606 31.5584 18.4287 31.8366 19.0968 32.1147C20.3774 32.5598 21.658 32.8379 22.9942 32.8379" fill="#B3B3F4"/>
<path d="M21.881 24.6046C20.9345 22.5462 19.2642 21.1555 17.4268 19.8203C17.0371 19.5422 16.536 19.264 16.0906 19.4866C15.8122 19.5978 15.6452 19.9316 15.6452 20.2098C15.5895 20.4879 15.7009 20.8217 15.8122 21.0999C16.703 23.6589 19.2642 25.5503 21.9367 25.6059" fill="#B3B3F4"/>
<path d="M21.6581 20.933C21.2127 19.876 20.7673 18.819 20.4889 17.6508C20.2662 16.5382 20.2105 15.3143 20.6003 14.2573C20.7673 13.8123 21.0457 13.3672 21.4354 13.0334C21.8252 12.7553 22.3819 12.5884 22.8274 12.8109C23.2728 12.9778 23.5512 13.4228 23.6625 13.8679C23.7739 14.3129 23.7739 14.758 23.7182 15.2587C23.5512 17.4283 22.883 19.9873 21.6581 20.933Z" fill="#B3B3F4"/>
<path d="M53.0038 14.2017C53.0038 14.2017 53.0038 14.3129 53.0594 14.5911C53.0594 14.8692 53.0594 15.2586 53.1151 15.7037C53.1151 16.2044 53.1708 16.8163 53.1151 17.4839C53.1151 18.2071 53.1151 18.9859 53.0594 19.876C53.0038 21.6562 52.8367 23.7145 52.614 26.051C52.3356 28.3875 51.9459 30.8909 51.3891 33.5611C50.8324 36.1758 50.1642 38.6791 49.4961 40.9044C48.7723 43.1296 48.1042 45.1323 47.4361 46.7456C47.102 47.58 46.768 48.3032 46.5452 48.9152C46.2669 49.5827 46.0442 50.0834 45.8214 50.5285C45.5987 50.9735 45.4317 51.3073 45.3204 51.5298C45.209 51.7523 45.1533 51.8636 45.1533 51.8636C45.1533 51.8636 45.209 51.7523 45.2647 51.4742C45.376 51.196 45.5431 50.8623 45.7101 50.4172C45.9328 49.9722 46.1555 49.4159 46.3782 48.7483C46.6566 48.0807 46.935 47.3575 47.269 46.5231C47.8815 44.8541 48.6053 42.9071 49.2734 40.6818C49.9415 38.4566 50.6097 35.9532 51.1664 33.3386C51.7232 30.724 52.1129 28.165 52.3913 25.8841C52.6697 23.5476 52.8367 21.4893 52.8924 19.7091C52.9481 18.819 52.9481 18.0402 53.0038 17.317C53.0038 16.5938 53.0594 16.0375 53.0594 15.5368C53.0594 15.0918 53.0594 14.7023 53.0594 14.4242C52.9481 14.3686 53.0038 14.2017 53.0038 14.2017Z" fill="#66BBCF"/>
<path d="M52.2796 27.0524C52.2796 25.5503 51.6671 24.0483 50.7206 22.8801C50.3866 22.4907 49.9411 22.1012 49.3844 22.1569C48.7162 22.2681 48.3822 23.047 48.3822 23.7702C48.3265 24.9384 48.7162 26.1067 49.4957 26.9967C50.2195 27.8868 50.999 28.4431 52.1682 28.61" fill="#66BBCF"/>
<path d="M50.7764 35.3413C50.8877 33.5611 50.2753 30.7796 49.2174 29.3332C49.0504 29.1107 48.8834 28.8882 48.605 28.7213C48.3823 28.5544 48.0482 28.4988 47.7698 28.6656C47.3801 28.8325 47.2687 29.2776 47.2687 29.7226C47.046 32.2816 48.3823 34.9519 50.6094 36.2314" fill="#66BBCF"/>
<path d="M48.8276 42.5177C48.6606 40.7375 47.9924 39.0129 46.9346 37.5665C46.7119 37.2328 46.3778 36.899 45.9324 36.8433C45.3199 36.7877 44.8188 37.3996 44.6518 38.0116C44.3734 39.2911 44.9859 40.5706 45.7653 41.6832C46.5448 42.8515 48.2151 44.0753 48.2151 44.0753" fill="#66BBCF"/>
<path d="M47.102 47.5244C46.768 46.1337 46.2669 44.7429 45.376 43.6303C45.209 43.4078 44.9863 43.1296 44.7079 43.0183C44.4295 42.9071 44.0955 42.8515 43.8171 43.074C43.4273 43.4078 43.483 44.0197 43.7057 44.4647C44.2625 46.078 45.209 47.4688 46.6566 48.4701" fill="#66BBCF"/>
<path d="M47.8815 45.5217C49.4961 44.4647 51.1664 43.5747 52.9481 42.8515C53.2265 42.7402 53.5605 42.6289 53.7832 42.7958C53.9503 42.9071 54.0059 43.1852 53.9503 43.4078C53.8946 43.6303 53.7276 43.7972 53.6162 44.0197C52.1129 45.7999 49.6631 46.7456 47.3804 46.6343" fill="#66BBCF"/>
<path d="M49.8301 38.8461C51.222 37.956 52.614 37.0102 54.0059 36.1201C54.3956 35.842 54.7854 35.6195 55.2864 35.5082C55.7319 35.3969 56.2886 35.5082 56.567 35.8976C56.8454 36.287 56.7897 36.8433 56.6227 37.2328C56.4 37.6778 56.0102 37.956 55.6762 38.2341C54.7854 38.9017 53.8388 39.5692 52.7253 39.8474C51.6674 40.1812 50.7209 40.2924 49.7188 39.8474" fill="#66BBCF"/>
<path d="M51.7789 31.3359C52.8924 29.7782 54.4514 28.4987 56.233 27.7199C56.5114 27.6086 56.8455 27.4974 57.1795 27.4974C57.8477 27.553 58.2374 28.2762 58.2374 28.8881C58.2374 29.6113 57.8477 30.2789 57.3466 30.7796C56.7898 31.2803 56.1217 31.5584 55.4535 31.8366C54.173 32.2816 52.8924 32.5598 51.5562 32.5598" fill="#66BBCF"/>
<path d="M52.6699 24.3264C53.6164 22.2681 55.2868 20.8773 57.1241 19.5422C57.5138 19.264 58.0149 18.9859 58.4603 19.2084C58.7387 19.3197 58.9058 19.6534 58.9058 19.9316C58.9614 20.2097 58.8501 20.5435 58.7387 20.8217C57.8479 23.3807 55.2868 25.2721 52.6143 25.3278" fill="#66BBCF"/>
<path d="M52.8925 20.6548C53.3379 19.5979 53.7833 18.5409 54.0617 17.3726C54.2844 16.26 54.3401 15.0362 53.9504 13.9792C53.7834 13.5341 53.505 13.0891 53.1152 12.7553C52.7255 12.4771 52.1687 12.3103 51.7233 12.5328C51.2779 12.6997 50.9995 13.1447 50.8881 13.5898C50.7768 14.0348 50.7768 14.4798 50.8325 14.9805C50.9995 17.1501 51.6676 19.7091 52.8925 20.6548Z" fill="#66BBCF"/>
<path d="M16.2573 51.9749V57.2598C16.2573 58.4281 17.2038 59.3181 18.3174 59.3181H54.3404C55.5096 59.3181 56.4004 58.3724 56.4004 57.2598V51.9749H16.2573Z" fill="#DE206E"/>
<path d="M19.376 59.3181L19.6544 60.987L52.8935 63.3792L53.7287 59.3181H19.376Z" fill="#AA2461"/>
<path d="M72.6032 48.2488C72.6032 48.2488 66.6457 52.8105 72.3805 58.8187C72.4918 58.9299 72.6032 58.9855 72.7702 58.9855L124.94 58.7074C124.94 58.7074 129.394 53.7006 125.719 47.9707L72.6032 48.2488Z" fill="#F3C886"/>
<path d="M113.359 52.9763C113.359 53.0319 106.845 53.0875 98.8271 53.0875C90.8096 53.0875 84.2954 53.0319 84.2954 52.9763C84.2954 52.9206 90.8096 52.865 98.8271 52.865C106.9 52.865 113.359 52.9206 113.359 52.9763Z" fill="#E0E0E0"/>
<path d="M105.286 54.8677C105.286 54.9233 102.224 54.979 98.4933 54.979C94.7072 54.979 91.7007 54.9233 91.7007 54.8677C91.7007 54.8121 94.7629 54.7564 98.4933 54.7564C102.224 54.7564 105.286 54.8121 105.286 54.8677Z" fill="#E0E0E0"/>
<path d="M118.704 58.4837C118.649 58.4837 118.816 57.8717 118.983 56.926C119.15 55.9803 119.317 54.5895 119.261 53.1431C119.261 51.6411 119.094 50.306 118.871 49.3603C118.704 48.4145 118.537 47.8026 118.593 47.8026C118.593 47.8026 118.649 47.9139 118.76 48.192C118.871 48.4702 118.927 48.8596 119.038 49.3046C119.261 50.2503 119.484 51.6411 119.484 53.1431C119.484 54.6452 119.317 56.0359 119.094 56.9817C118.983 57.4823 118.871 57.8717 118.816 58.0943C118.76 58.3724 118.76 58.4837 118.704 58.4837Z" fill="#E0E0E0"/>
<path d="M122.601 47.8582C122.601 47.8582 122.712 47.9695 122.824 48.2476C122.879 48.3589 122.991 48.5258 123.046 48.6927C123.102 48.8596 123.214 49.0821 123.325 49.3046C123.492 49.8053 123.659 50.3616 123.826 51.0292C123.937 51.6967 124.049 52.4199 124.049 53.1988C124.049 53.9776 123.993 54.7008 123.882 55.3684C123.77 56.0359 123.603 56.6479 123.436 57.0929C123.381 57.3154 123.269 57.538 123.158 57.7605C123.102 57.9274 122.991 58.0943 122.935 58.2055C122.824 58.4837 122.712 58.5949 122.712 58.5949C122.657 58.5949 122.991 58.0386 123.269 57.0373C123.436 56.5366 123.548 55.9803 123.715 55.3127C123.826 54.6452 123.882 53.922 123.882 53.1431C123.882 52.3643 123.77 51.6411 123.659 50.9735C123.548 50.306 123.381 49.7497 123.214 49.249C122.879 48.4145 122.601 47.8582 122.601 47.8582Z" fill="#E0E0E0"/>
<path d="M80.8441 58.5393C80.8441 58.5393 80.7327 58.4281 80.6214 58.2055C80.5657 58.0943 80.4543 57.9274 80.3987 57.7605C80.2873 57.5936 80.2316 57.3711 80.1203 57.1486C79.9532 56.7035 79.7305 56.1472 79.6192 55.4796C79.5078 54.8677 79.3965 54.1445 79.3965 53.3657C79.3965 52.6425 79.5078 51.9193 79.6749 51.2517C79.8419 50.6398 80.0089 50.0835 80.2316 49.6384C80.343 49.4159 80.4543 49.1934 80.51 49.0265C80.6214 48.8596 80.6771 48.6927 80.7884 48.5814C80.9554 48.3589 81.0111 48.2477 81.0668 48.2477C81.1225 48.2477 80.7884 48.7483 80.3987 49.6941C80.2316 50.1391 80.0646 50.6954 79.8976 51.3073C79.7862 51.9193 79.6749 52.6425 79.6749 53.3657C79.6749 54.0889 79.7305 54.8121 79.8419 55.424C79.9532 56.0359 80.1203 56.5923 80.2873 57.0373C80.5657 58.0387 80.8998 58.5393 80.8441 58.5393Z" fill="#E0E0E0"/>
<path d="M75.2201 59.8188C75.2201 59.8188 75.1088 59.7075 74.9418 59.4294C74.8861 59.3181 74.7747 59.1512 74.6634 58.9287C74.552 58.7062 74.4407 58.5393 74.3293 58.2611C74.1066 57.7605 73.8839 57.1485 73.7169 56.4253C73.5498 55.7021 73.4385 54.9233 73.4385 54.0889C73.4385 53.2544 73.4942 52.4199 73.6055 51.7524C73.7169 51.0292 73.9396 50.4172 74.1066 49.8609C74.218 49.5828 74.3293 49.3602 74.385 49.1934C74.4963 48.9708 74.552 48.8039 74.6077 48.6927C74.7747 48.4145 74.8304 48.3033 74.8304 48.3033C74.8861 48.3033 74.552 48.9152 74.1623 49.9722C73.9952 50.4729 73.8282 51.1404 73.7169 51.808C73.6055 52.5312 73.5498 53.31 73.5498 54.1445C73.5498 54.9789 73.6612 55.7578 73.8282 56.481C73.9953 57.2042 74.1623 57.8161 74.385 58.3168C74.8861 59.2069 75.2758 59.8188 75.2201 59.8188Z" fill="#E0E0E0"/>
<path d="M122.992 74.5053C122.992 74.8947 122.992 84.4632 122.992 84.4632H103.672V74.5053H122.992Z" fill="#EBEBEB"/>
<path d="M60.6328 79.6233C60.6328 79.7346 60.6328 79.7902 60.6328 79.9015C60.7999 82.9055 63.361 85.242 66.3675 85.242H123.882V84.5188H110.241C107.457 84.5188 105.23 82.2936 105.23 79.5121C105.23 76.7305 107.457 74.5053 110.241 74.5053H123.882V73.4483L66.3675 73.6152C63.1383 73.6709 60.5215 76.3411 60.6328 79.6233Z" fill="#E0A47C"/>
<path d="M122.991 79.6233C122.991 79.6789 119.038 79.7346 114.139 79.7346C109.239 79.7346 105.286 79.6789 105.286 79.6233C105.286 79.5677 109.239 79.512 114.139 79.512C119.038 79.5677 122.991 79.5677 122.991 79.6233Z" fill="#E0E0E0"/>
<path d="M122.713 81.9042C122.713 81.9598 118.983 82.0154 114.306 82.0154C109.685 82.0154 105.899 81.9598 105.899 81.9042C105.899 81.8485 109.629 81.7929 114.306 81.7929C118.983 81.7929 122.713 81.8485 122.713 81.9042Z" fill="#E0E0E0"/>
<path d="M122.992 83.9625C122.992 84.0181 119.596 84.0738 115.42 84.0738C111.244 84.0738 107.848 84.0181 107.848 83.9625C107.848 83.9069 111.244 83.8512 115.42 83.8512C119.596 83.8512 122.992 83.9069 122.992 83.9625Z" fill="#E0E0E0"/>
<path d="M122.991 77.6206C122.991 77.6762 119.094 77.7319 114.306 77.7319C109.518 77.7319 105.62 77.6762 105.62 77.6206C105.62 77.565 109.518 77.5094 114.306 77.5094C119.094 77.5094 122.991 77.565 122.991 77.6206Z" fill="#E0E0E0"/>
<path d="M122.714 75.6179C122.714 75.6735 119.262 75.7292 114.974 75.7292C110.687 75.7292 107.235 75.6735 107.235 75.6179C107.235 75.5623 110.687 75.5066 114.974 75.5066C119.262 75.5066 122.714 75.5623 122.714 75.6179Z" fill="#E0E0E0"/>
<path d="M67.5929 73.8377C67.6486 73.8934 67.0362 74.3384 66.368 75.2841C65.6999 76.2299 65.0318 77.7875 65.0318 79.5677C65.0318 81.3479 65.7556 82.9055 66.4237 83.8512C67.0918 84.797 67.7043 85.242 67.7043 85.2976C67.7043 85.2976 67.5372 85.1864 67.3145 85.0195C67.0362 84.797 66.7021 84.4632 66.368 84.0181C65.6442 83.0724 64.8647 81.5148 64.8647 79.679C64.8647 77.8431 65.5885 76.2299 66.2567 75.2841C66.5907 74.7835 66.9248 74.4497 67.2032 74.2272C67.4259 73.949 67.5929 73.8377 67.5929 73.8377Z" fill="#F5F5F5"/>
<path d="M65.6442 73.6152C65.6999 73.6708 65.0874 74.1159 64.4193 75.0616C63.7512 76.0073 63.083 77.565 63.083 79.3452C63.083 81.1253 63.8069 82.683 64.475 83.6287C65.1431 84.5744 65.7555 85.0195 65.7555 85.0751C65.7555 85.0751 65.5885 84.9639 65.3658 84.7413C65.0874 84.5188 64.7534 84.185 64.4193 83.74C63.6955 82.7943 62.916 81.2366 62.916 79.4008C62.916 77.565 63.6398 75.9517 64.3079 75.006C64.642 74.5053 64.9761 74.1715 65.2545 73.949C65.4772 73.7265 65.6442 73.6152 65.6442 73.6152Z" fill="#F5F5F5"/>
<path d="M104.73 73.8377C104.785 73.8934 104.173 74.3384 103.505 75.2841C102.837 76.2299 102.168 77.7875 102.168 79.5677C102.168 81.3479 102.892 82.9055 103.56 83.8512C104.229 84.797 104.841 85.242 104.841 85.2976C104.841 85.2976 104.674 85.1864 104.451 85.0195C104.173 84.797 103.839 84.4632 103.505 84.0181C102.781 83.0724 102.001 81.5148 102.001 79.679C102.001 77.8431 102.725 76.2299 103.393 75.2841C103.727 74.7835 104.062 74.4497 104.34 74.2272C104.563 73.949 104.73 73.8377 104.73 73.8377Z" fill="#F5F5F5"/>
<path d="M102.78 73.6152C102.836 73.6708 102.224 74.1159 101.556 75.0616C100.887 76.0073 100.219 77.565 100.219 79.3452C100.219 81.1253 100.943 82.683 101.611 83.6287C102.279 84.5744 102.892 85.0195 102.892 85.0751C102.892 85.0751 102.725 84.9639 102.502 84.7413C102.224 84.5188 101.89 84.185 101.556 83.74C100.832 82.7943 100.052 81.2366 100.052 79.4008C100.052 77.565 100.776 75.9517 101.444 75.006C101.778 74.5053 102.112 74.1715 102.391 73.949C102.613 73.7265 102.78 73.6152 102.78 73.6152Z" fill="#F5F5F5"/>
<path d="M74.1628 81.0141C74.1628 79.6789 74.1071 78.2882 74.1071 76.953C74.1071 76.6193 74.1071 76.2298 73.9401 75.8961C73.8288 75.5623 73.4947 75.2841 73.1606 75.2285C72.6595 75.006 71.8801 75.451 71.4903 76.0073C71.1563 76.6193 71.1006 77.2868 71.1006 78.01C71.1006 79.067 71.1563 80.124 71.2676 81.2366C71.3233 81.7373 71.379 82.238 71.6574 82.683C71.9357 83.128 72.3812 83.4618 72.8822 83.4062C73.3833 83.3506 73.7731 82.9611 73.9401 82.4605C74.1628 82.0154 74.1628 81.5148 74.1628 81.0141Z" fill="#F5F5F5"/>
<path d="M96.4892 79.8458C96.4892 79.9015 92.3134 79.9571 87.1911 79.9571C82.0688 79.9571 77.8931 79.9015 77.8931 79.8458C77.8931 79.7902 82.0688 79.7346 87.1911 79.7346C92.3134 79.7346 96.4892 79.7902 96.4892 79.8458Z" fill="#F5F5F5"/>
<path d="M70.2642 73.4483L70.1528 63.9911H75.3308L75.4978 73.4483H70.2642Z" fill="#F5F5F5"/>
<path d="M74.9977 65.6601C74.9977 65.7157 73.9398 65.7713 72.6036 65.7713C71.2673 65.7713 70.2095 65.7157 70.2095 65.6601C70.2095 65.6044 71.2673 65.5488 72.6036 65.5488C73.9398 65.5488 74.9977 65.6044 74.9977 65.6601Z" fill="#E0E0E0"/>
<path d="M74.9977 67.1064C74.9977 67.1621 73.9398 67.2177 72.6036 67.2177C71.2673 67.2177 70.2095 67.1621 70.2095 67.1064C70.2095 67.0508 71.2673 66.9952 72.6036 66.9952C73.9398 66.9952 74.9977 67.0508 74.9977 67.1064Z" fill="#E0E0E0"/>
<path d="M74.9977 68.5528C74.9977 68.6085 73.9398 68.6641 72.6036 68.6641C71.2673 68.6641 70.2095 68.6085 70.2095 68.5528C70.2095 68.4972 71.2673 68.4416 72.6036 68.4416C73.9398 68.4972 74.9977 68.4972 74.9977 68.5528Z" fill="#E0E0E0"/>
<path d="M74.9977 70.0549C74.9977 70.1105 73.9398 70.1661 72.6036 70.1661C71.2673 70.1661 70.2095 70.1105 70.2095 70.0549C70.2095 69.9992 71.2673 69.9436 72.6036 69.9436C73.9398 69.9436 74.9977 69.9992 74.9977 70.0549Z" fill="#E0E0E0"/>
<path d="M74.9977 71.5013C74.9977 71.5569 73.9398 71.6125 72.6036 71.6125C71.2673 71.6125 70.2095 71.5569 70.2095 71.5013C70.2095 71.4456 71.2673 71.39 72.6036 71.39C73.9398 71.39 74.9977 71.4456 74.9977 71.5013Z" fill="#E0E0E0"/>
<path d="M69.9307 63.7137H127C127.723 66.8291 127.612 70.2782 127 73.9498H70.1534V73.2822H73.6054C74.4962 73.2822 75.22 72.559 75.22 71.6689V65.9946C75.22 65.1045 74.4962 64.3813 73.6054 64.3813H69.875V63.7137H69.9307Z" fill="#2E1273"/>
<path d="M83.4041 68.831H84.3506C84.4063 68.831 84.4063 68.831 84.462 68.831C84.5177 68.8866 84.5733 68.9422 84.5733 68.9979V69.0535C84.5733 69.1091 84.5177 69.2204 84.5177 69.276C84.4063 69.7211 84.1836 70.0549 83.9052 70.333C83.6268 70.6112 83.3485 70.778 83.0701 70.778C83.0144 70.778 83.0144 70.778 82.9587 70.778C82.6803 70.7224 82.4576 70.5555 82.2906 70.333C82.1236 70.0549 82.0122 69.6654 82.0122 69.1648C82.0122 68.8866 82.0679 68.6085 82.1236 68.3303C82.2349 67.8853 82.4576 67.4958 82.6803 67.2177C82.9587 66.9395 83.2371 66.7726 83.5155 66.7726C83.6268 66.7726 83.7382 66.7726 83.8496 66.8283C84.0723 66.9395 84.295 67.1621 84.4063 67.4958C84.4063 67.5515 84.4063 67.5515 84.4063 67.6071C84.4063 67.6627 84.4063 67.6627 84.3506 67.7184C84.295 67.774 84.2393 67.8296 84.1836 67.8296H84.1279C84.0723 67.8296 84.0166 67.774 84.0166 67.7184C83.9609 67.6071 83.9609 67.5515 83.9052 67.4958C83.7939 67.329 83.6268 67.2177 83.4598 67.2177C83.3485 67.2177 83.2371 67.2733 83.1257 67.329C82.903 67.4958 82.736 67.7184 82.6246 68.0522C82.4576 68.4416 82.4019 68.7753 82.4019 69.1091C82.4019 69.4429 82.4576 69.7211 82.569 69.9436C82.6803 70.1661 82.8474 70.333 83.0701 70.333C83.2371 70.333 83.3485 70.2217 83.5155 70.0549C83.7382 69.8323 83.9052 69.5542 84.0166 69.1648C83.5712 69.1648 83.3485 69.1648 83.3485 69.1648C83.1814 69.1648 83.1257 69.0535 83.1257 68.9422V68.8866C83.2371 68.8866 83.2928 68.831 83.4041 68.831Z" fill="#FAFAFA"/>
<path d="M86.6338 66.9952V67.0508C86.6895 67.2177 86.9122 68.3859 87.3019 70.6111V70.6668C87.3019 70.7224 87.3019 70.7224 87.2462 70.778C87.1906 70.8337 87.1349 70.8893 87.0792 70.8893C87.0792 70.8893 87.0792 70.8893 87.0235 70.8893C86.9679 70.8893 86.9122 70.8337 86.8565 70.7224L86.6338 69.5542H85.4646L84.9078 70.7224C84.9078 70.7224 84.9078 70.7224 84.9078 70.778C84.8521 70.8337 84.7964 70.8893 84.7408 70.8893C84.6851 70.8893 84.6851 70.8893 84.6294 70.8337C84.5737 70.778 84.5181 70.7224 84.5181 70.6668V70.6111C84.5737 70.5555 84.6294 70.3886 84.6851 70.2217C85.5203 68.4416 86.0213 67.3846 86.1327 67.0508C86.1884 66.9395 86.2441 66.8839 86.3554 66.8839C86.5224 66.8839 86.5781 66.9395 86.6338 66.9952ZM86.4111 67.774L85.7986 69.1091H86.6895L86.4111 67.774Z" fill="#FAFAFA"/>
<path d="M89.8071 70.8337H88.0811C88.0254 70.8337 88.0254 70.8337 87.9698 70.778C87.9141 70.7224 87.9141 70.6668 87.8584 70.5555C87.8584 70.4999 88.0254 69.3316 88.3595 67.0508V66.9952C88.4152 66.8839 88.4708 66.8839 88.5265 66.8839C88.5822 66.8839 88.5822 66.8839 88.6379 66.8839C88.6935 66.9395 88.7492 66.9952 88.7492 67.0508C88.7492 67.2177 88.6935 67.5515 88.6379 67.9965C88.4152 69.4985 88.3595 70.2774 88.3038 70.3886H89.7514C89.8071 70.3886 89.8071 70.3886 89.8628 70.3886C89.9741 70.4443 89.9741 70.4999 89.9741 70.5555V70.6112C90.0298 70.778 89.9184 70.8337 89.8071 70.8337Z" fill="#FAFAFA"/>
<path d="M92.2017 66.9952V67.0508C92.2573 67.2177 92.48 68.3859 92.8698 70.6111V70.6668C92.8698 70.7224 92.8698 70.7224 92.8141 70.778C92.7584 70.8337 92.7028 70.8893 92.6471 70.8893C92.6471 70.8893 92.6471 70.8893 92.5914 70.8893C92.5357 70.8893 92.48 70.8337 92.4244 70.7224L92.2017 69.5542H91.0324L90.4757 70.7224C90.4757 70.7224 90.4757 70.7224 90.4757 70.778C90.42 70.8337 90.3643 70.8893 90.3086 70.8893C90.253 70.8893 90.253 70.8893 90.1973 70.8337C90.1416 70.778 90.0859 70.7224 90.0859 70.6668V70.6111C90.1416 70.5555 90.1973 70.3886 90.253 70.2217C91.0881 68.4416 91.5892 67.3846 91.7006 67.0508C91.7562 66.9395 91.8119 66.8839 91.9233 66.8839C92.0903 66.8839 92.146 66.9395 92.2017 66.9952ZM91.9233 67.774L91.3108 69.1091H92.2017L91.9233 67.774Z" fill="#FAFAFA"/>
<path d="M94.9296 68.9979C95.0409 69.3873 95.1523 69.6654 95.2636 69.8323C95.4307 70.333 95.542 70.5555 95.542 70.6112C95.542 70.6668 95.542 70.6668 95.4863 70.7224C95.4307 70.778 95.375 70.8337 95.3193 70.8337C95.2636 70.8337 95.2079 70.778 95.1523 70.7224C95.1523 70.6668 95.1523 70.6668 95.0966 70.6112C94.9852 70.3886 94.8739 69.9992 94.6512 69.3873L93.7047 70.7224C93.649 70.778 93.5933 70.8337 93.5376 70.8337C93.482 70.8337 93.482 70.8337 93.4263 70.778C93.3706 70.7224 93.3149 70.6668 93.3149 70.6112V70.5555C93.3149 70.4999 93.3706 70.4443 93.4263 70.3886C93.7604 69.9436 94.0944 69.4429 94.4842 68.8866C94.4285 68.7753 94.4285 68.6641 94.3728 68.5528C93.9831 67.5515 93.816 67.0508 93.816 67.0508C93.816 66.9952 93.816 66.9952 93.816 66.9395C93.8717 66.8839 93.9274 66.8283 93.9831 66.8283C94.0944 66.8283 94.1501 66.8839 94.1501 66.9395L94.7069 68.4972L95.8761 66.9395C95.9318 66.8839 95.9874 66.8283 96.0431 66.8283C96.0988 66.8283 96.0988 66.8283 96.1545 66.8283C96.2101 66.8839 96.2658 66.9395 96.2658 66.9952C96.2658 67.0508 96.2658 67.0508 96.2658 67.1064L94.9296 68.9979Z" fill="#FAFAFA"/>
<path d="M99.1608 66.8839C99.2165 66.8839 99.2165 66.8839 99.2722 66.8839C99.3279 66.9395 99.3836 66.9952 99.3836 67.0508C99.1052 69.276 98.9381 70.4999 98.9381 70.6668C98.8825 71.0562 98.7711 71.3343 98.5484 71.6125C98.27 72.0019 97.8803 72.1688 97.3792 72.1688C97.2121 72.1688 97.0451 72.1132 96.8224 72.0019C96.544 71.8906 96.3213 71.6681 96.21 71.4456C96.21 71.39 96.21 71.39 96.21 71.3343C96.21 71.2787 96.21 71.2787 96.2656 71.2231C96.3213 71.1674 96.377 71.1118 96.4327 71.1118C96.4883 71.1118 96.544 71.1674 96.5997 71.2231C96.8781 71.5569 97.1565 71.7238 97.4905 71.7238C97.7689 71.7238 97.9916 71.6125 98.1587 71.39C98.3814 71.1118 98.4927 70.778 98.5484 70.333C98.4927 70.4443 98.3814 70.4999 98.27 70.6111C98.103 70.7224 97.8803 70.8337 97.6576 70.8337C97.6019 70.8337 97.6019 70.8337 97.5462 70.8337C97.2678 70.778 97.0451 70.6668 96.8781 70.3886C96.7111 70.1105 96.5997 69.7211 96.5997 69.2204C96.5997 68.9979 96.5997 68.7753 96.6554 68.5528C96.7111 68.219 96.7667 67.7184 96.8781 67.0508V66.9952C96.9338 66.8839 96.9894 66.8283 97.0451 66.8283C97.1008 66.8283 97.1008 66.8283 97.1565 66.8839C97.2121 66.9395 97.2678 66.9952 97.2678 67.0508C97.2678 67.162 97.2121 67.4402 97.1565 67.8296C97.0451 68.4416 97.0451 68.831 97.0451 69.0535C97.0451 69.4429 97.1008 69.7211 97.2121 69.9992C97.3235 70.2774 97.4905 70.4443 97.7132 70.4443H97.7689C97.936 70.3886 98.103 70.2774 98.27 70.0548C98.4927 69.7767 98.6041 69.4429 98.7154 69.1091L98.9938 67.162C98.9938 67.1064 98.9938 67.1064 98.9938 67.0508C99.0495 66.9395 99.1052 66.8839 99.1608 66.8839Z" fill="#FAFAFA"/>
<path d="M124.828 74.0603C124.772 74.0603 124.717 71.7238 124.717 68.831C124.717 65.9382 124.772 63.6017 124.828 63.6017C124.884 63.6017 124.939 65.9382 124.939 68.831C124.939 71.7238 124.884 74.0603 124.828 74.0603Z" fill="#F5F5F5"/>
<path d="M78.1148 74.0603C78.0591 74.0603 78.0034 71.7238 78.0034 68.831C78.0034 65.9382 78.0591 63.6017 78.1148 63.6017C78.1704 63.6017 78.2261 65.9382 78.2261 68.831C78.2261 71.7238 78.1704 74.0603 78.1148 74.0603Z" fill="#E0E0E0"/>
<path d="M125.83 74.0603C125.774 74.0603 125.718 71.7238 125.718 68.831C125.718 65.9382 125.774 63.6017 125.83 63.6017C125.885 63.6017 125.941 65.9382 125.941 68.831C125.941 71.7238 125.885 74.0603 125.83 74.0603Z" fill="#F5F5F5"/>
<path d="M77.169 74.0603C77.1133 74.0603 77.0576 71.7238 77.0576 68.831C77.0576 65.9382 77.1133 63.6017 77.169 63.6017C77.2247 63.6017 77.2803 65.9382 77.2803 68.831C77.2803 71.7238 77.2803 74.0603 77.169 74.0603Z" fill="#E0E0E0"/>
<path d="M111.02 65.3262C112.579 66.5501 114.695 68.2747 117.033 70.1661L117.089 70.2217H117.033C116.755 70.2774 116.532 70.333 116.254 70.4442C114.416 70.9449 112.69 71.39 111.187 71.7794C109.294 71.0006 107.679 70.2774 106.566 69.8323C106.009 69.6098 105.564 69.3873 105.285 69.276C105.118 69.2204 105.007 69.1647 104.951 69.1091C104.896 69.1091 104.896 69.0535 104.84 69.0535H104.784C104.784 69.0535 104.784 69.0535 104.84 69.0535C104.84 69.0535 104.896 69.0535 104.951 69.1091C105.007 69.1647 105.174 69.1647 105.285 69.276C105.619 69.3873 106.009 69.6098 106.622 69.8323C107.735 70.2774 109.35 70.9449 111.243 71.7794C112.746 71.39 114.528 70.9449 116.309 70.4442C116.588 70.3886 116.866 70.2774 117.089 70.2217V70.2774C114.639 68.3303 112.523 66.6057 111.02 65.3262Z" fill="#E0E0E0"/>
<path d="M116.477 69.3873L116.811 69.7211L117.256 69.6098L117.033 70.0548L117.256 70.4442L116.811 70.3886L116.532 70.7224L116.477 70.2774L116.031 70.0548L116.421 69.8323L116.477 69.3873Z" fill="#E0E0E0"/>
<path d="M110.686 71.3344L110.909 71.5012L111.187 71.4456L111.076 71.7238L111.243 71.9463H110.964L110.797 72.1688L110.686 71.8907L110.408 71.7794L110.686 71.6125V71.3344Z" fill="#E0E0E0"/>
<path d="M104.283 68.7197H104.673L104.896 68.4416L104.951 68.7753L105.285 68.9422L105.007 69.1091V69.4429L104.729 69.2204L104.395 69.3317L104.506 68.9979L104.283 68.7197Z" fill="#E0E0E0"/>
<path d="M119.204 65.3819L119.538 65.4375L119.761 65.1593L119.872 65.4931L120.206 65.6044L119.872 65.8269V66.1607L119.594 65.9382L119.26 66.0494L119.371 65.7157L119.204 65.3819Z" fill="#E0E0E0"/>
<path d="M110.686 65.1594H110.909L111.076 64.9925L111.131 65.215L111.354 65.2706L111.131 65.4375V65.66L110.964 65.4931L110.742 65.5488L110.853 65.3262L110.686 65.1594Z" fill="#E0E0E0"/>
<path d="M119.705 65.66C119.705 65.66 117.756 65.6044 115.362 65.4931C112.968 65.3819 111.02 65.2706 111.02 65.2706C111.02 65.2706 112.968 65.3262 115.362 65.4375C117.756 65.5488 119.705 65.6044 119.705 65.66Z" fill="#E0E0E0"/>
<path d="M121.878 63.6573H63.9739C63.1945 61.9328 63.0274 60.3195 63.9739 58.8175H121.878C122.658 60.5976 122.546 62.1553 121.878 63.6573Z" fill="#5555BE"/>
<path d="M107.347 60.2082H76.0005V61.9328H107.347V60.2082Z" fill="#EBEBEB"/>
<path d="M66.2012 63.6573C66.2012 63.6573 65.9785 63.4904 65.7558 63.101C65.5331 62.7116 65.3104 62.0997 65.2547 61.3765C65.199 60.6533 65.3104 60.0413 65.4774 59.5963C65.6445 59.1512 65.8115 58.9287 65.8115 58.9287C65.8672 58.9287 65.7001 59.2069 65.5888 59.6519C65.4774 60.097 65.3661 60.7089 65.4218 61.3765C65.4774 62.044 65.7001 62.656 65.8672 63.0454C66.0899 63.4348 66.2569 63.6573 66.2012 63.6573Z" fill="#E0E0E0"/>
<path d="M67.481 63.6573C67.481 63.6573 67.2583 63.4904 67.0356 63.101C66.8129 62.7116 66.5902 62.0997 66.5345 61.3765C66.4788 60.6533 66.5902 60.0413 66.7572 59.5963C66.9242 59.1512 67.0913 58.9287 67.0913 58.9287C67.147 58.9287 66.9799 59.2069 66.8686 59.6519C66.7572 60.097 66.6459 60.7089 66.7015 61.3765C66.7572 62.044 66.9799 62.656 67.147 63.0454C67.314 63.4348 67.481 63.6573 67.481 63.6573Z" fill="#E0E0E0"/>
<path d="M119.539 63.5461C119.484 63.5461 119.929 62.5447 119.929 61.2096C119.929 59.8745 119.484 58.8731 119.539 58.8731C119.595 58.8175 120.152 59.8745 120.152 61.2096C120.152 62.6004 119.595 63.6017 119.539 63.5461Z" fill="#F5F5F5"/>
<path d="M118.482 63.5461C118.426 63.5461 118.649 62.4891 118.649 61.2652C118.649 59.9857 118.426 58.9843 118.482 58.9843C118.537 58.9843 118.871 59.9857 118.871 61.2652C118.871 62.5447 118.482 63.5461 118.482 63.5461Z" fill="#F5F5F5"/>
<path d="M159.253 148.901C159.345 148.992 157.703 150.177 155.057 152.091C152.503 154.005 149.037 156.831 145.479 160.294C142.013 163.758 139.094 167.13 137.087 169.682C135.08 172.234 133.894 173.875 133.803 173.783C133.712 173.692 134.624 171.961 136.54 169.317C138.455 166.674 141.283 163.12 144.841 159.656C148.398 156.193 151.956 153.367 154.692 151.544C157.338 149.722 159.162 148.81 159.253 148.901Z" fill="#263238"/>
<path d="M155.786 134.956C156.06 135.047 155.148 139.513 153.78 144.982C152.411 150.451 151.134 154.826 150.861 154.826C150.587 154.734 151.499 150.268 152.867 144.8C154.236 139.24 155.604 134.865 155.786 134.956Z" fill="#263238"/>
<path d="M154.327 134.227C153.689 134.501 153.506 136.141 154.054 136.961C154.601 137.782 155.787 137.873 156.699 137.417C157.702 136.87 158.158 135.412 157.611 134.501C156.881 133.498 155.057 133.316 154.327 134.227Z" fill="#455A64"/>
<path d="M161.442 140.516C161.534 140.79 159.892 141.701 157.794 142.704C155.696 143.706 153.871 144.253 153.78 143.98C153.689 143.706 155.331 142.795 157.429 141.792C159.527 140.881 161.351 140.243 161.442 140.516Z" fill="#263238"/>
<path d="M161.26 138.967C160.713 139.422 160.166 139.878 159.983 140.607C159.801 141.245 160.074 142.157 160.713 142.339C161.169 142.521 161.625 142.339 161.99 142.066C162.355 141.792 162.537 141.336 162.72 140.972C162.902 140.516 162.993 139.969 162.811 139.513C162.629 139.058 162.081 138.693 161.625 138.875" fill="#455A64"/>
<path d="M161.169 147.078C160.166 147.078 159.253 147.99 159.253 148.992C159.253 149.995 160.257 150.906 161.26 150.815C162.264 150.724 163.085 149.722 162.993 148.719C162.811 147.716 161.808 146.987 160.804 147.17" fill="#455A64"/>
<path d="M118.205 92.3922C118.296 92.3922 118.387 93.5771 118.479 95.6734C118.57 97.952 118.661 100.96 118.752 104.514C118.935 111.988 119.208 122.379 119.3 133.771C119.482 145.256 119.573 155.555 119.573 163.029C119.573 166.674 119.573 169.682 119.573 171.869C119.573 173.966 119.482 175.151 119.391 175.151C119.3 175.151 119.208 173.966 119.117 171.869C119.026 169.591 118.935 166.583 118.843 163.029C118.661 155.555 118.387 145.164 118.296 133.68C118.114 122.196 118.022 111.897 118.022 104.423C118.022 100.777 118.022 97.7697 118.022 95.5823C118.114 93.486 118.114 92.3922 118.205 92.3922Z" fill="#263238"/>
<path d="M132.8 86.1033C133.439 94.0328 127.509 101.051 119.482 101.689C111.546 102.327 104.522 96.4026 103.884 88.3819C103.245 80.4524 109.174 73.4344 117.202 72.7964C125.229 72.2495 132.162 78.1738 132.8 86.1033Z" fill="#FF1A71"/>
<g opacity="0.3">
<g opacity="0.3">
<g opacity="0.3">
<g opacity="0.3">
<g opacity="0.3">
<g opacity="0.3">
<path opacity="0.3" d="M117.749 101.78C117.567 101.78 117.749 100.139 117.84 97.5874C117.932 95.0354 117.84 91.3897 116.381 87.8351C114.921 84.2805 112.094 81.8196 109.813 80.817C107.533 79.7233 105.891 79.9056 105.891 79.7233C105.891 79.6321 106.256 79.541 106.985 79.541C107.715 79.541 108.81 79.7233 110.087 80.179C112.55 81.0904 115.651 83.6425 117.202 87.4705C118.753 91.2985 118.753 95.0354 118.479 97.5874C118.296 100.231 117.932 101.78 117.749 101.78Z" fill="black"/>
</g>
</g>
</g>
</g>
</g>
</g>
<g opacity="0.3">
<g opacity="0.3">
<g opacity="0.3">
<g opacity="0.3">
<g opacity="0.3">
<g opacity="0.3">
<path opacity="0.3" d="M131.25 81.6373C131.25 81.9107 127.236 81.6373 123.222 84.1893C119.209 86.7413 117.84 90.5694 117.567 90.4782C117.475 90.4782 117.658 89.4756 118.388 88.0173C119.117 86.559 120.577 84.7362 122.675 83.4602C124.773 82.093 127.053 81.5461 128.604 81.455C130.337 81.2727 131.25 81.455 131.25 81.6373Z" fill="black"/>
</g>
</g>
</g>
</g>
</g>
</g>
<g opacity="0.3">
<g opacity="0.3">
<g opacity="0.3">
<g opacity="0.3">
<g opacity="0.3">
<g opacity="0.3">
<path opacity="0.3" d="M124.773 82.731C124.59 82.731 124.408 81.8196 123.496 80.5436C122.675 79.3587 120.85 77.9004 118.661 77.7181C116.381 77.5358 114.465 78.7207 113.37 79.7233C112.276 80.817 111.911 81.7284 111.82 81.6373C111.728 81.6373 111.82 80.5436 112.914 79.2676C113.918 77.9915 116.107 76.5333 118.752 76.7155C121.398 76.989 123.313 78.7207 124.134 80.179C124.955 81.6373 124.864 82.731 124.773 82.731Z" fill="black"/>
</g>
</g>
</g>
</g>
</g>
</g>
<g opacity="0.3">
<g opacity="0.3">
<g opacity="0.3">
<g opacity="0.3">
<g opacity="0.3">
<g opacity="0.3">
<path opacity="0.3" d="M120.85 85.5564C120.577 85.5564 120.303 83.5513 119.026 81.5461C117.84 79.4498 116.289 78.1738 116.472 77.9915C116.563 77.8093 118.57 78.8118 119.938 81.0904C121.215 83.2779 121.033 85.5564 120.85 85.5564Z" fill="black"/>
</g>
</g>
</g>
</g>
</g>
</g>
<g opacity="0.3">
<g opacity="0.3">
<g opacity="0.3">
<g opacity="0.3">
<g opacity="0.3">
<g opacity="0.3">
<path opacity="0.3" d="M119.391 81.1816C119.482 81.455 118.296 81.8196 117.293 82.8222C116.289 83.8247 115.651 84.9185 115.377 84.7362C115.195 84.645 115.468 83.369 116.654 82.093C117.931 80.9082 119.391 80.9993 119.391 81.1816Z" fill="black"/>
</g>
</g>
</g>
</g>
</g>
</g>
<path d="M87.3712 136.779C87.6449 136.688 91.5673 148.446 96.2195 162.937C100.872 177.429 104.429 189.278 104.156 189.369C103.882 189.46 99.9595 177.703 95.3073 163.211C90.6551 148.628 87.0976 136.779 87.3712 136.779Z" fill="#263238"/>
<path d="M96.6754 165.581C96.493 165.763 92.4793 162.573 87.371 158.654C82.2627 154.734 78.3403 151.362 78.5227 151.18C78.7052 150.998 82.9013 154.005 88.0096 157.924C93.0266 161.844 96.8578 165.398 96.6754 165.581Z" fill="#263238"/>
<path d="M76.1517 149.995C75.3308 150.724 75.6956 152.274 76.5166 153.185C77.4288 154.096 79.4356 153.641 80.1654 152.547C80.8039 151.453 80.3478 149.904 79.2532 149.357C78.1586 148.81 76.6078 149.175 75.9693 150.268" fill="#455A64"/>
<path d="M96.6764 131.037C96.9501 131.128 96.1291 135.23 94.3959 140.152C92.6627 145.073 91.6593 149.084 91.3857 148.992C91.112 148.992 91.7506 144.709 93.4837 139.787C95.1257 134.956 96.4027 130.946 96.6764 131.037Z" fill="#263238"/>
<path d="M96.2206 127.391C95.2172 128.121 95.2172 128.485 94.8523 129.579C94.4874 130.673 95.0348 132.222 96.1294 132.404C97.224 132.587 98.2274 131.675 98.6835 130.673C99.1396 129.761 99.2309 128.576 98.6835 127.756C98.1362 126.936 96.6767 126.662 96.1294 127.483" fill="#455A64"/>
<path d="M79.6187 162.026C79.5275 161.753 81.2606 160.841 83.4499 159.93C85.6392 159.018 87.5548 158.471 87.646 158.654C87.7372 158.927 86.004 159.838 83.8148 160.75C81.6255 161.753 79.7099 162.299 79.6187 162.026Z" fill="#263238"/>
<path d="M76.1515 160.385C75.5129 160.75 75.2393 162.299 75.2393 163.029C75.2393 163.667 75.6954 164.305 76.2427 164.669C77.2461 165.307 78.7968 165.125 79.6178 164.122C80.4388 163.211 80.3476 161.661 79.5266 160.75C78.7056 159.838 77.1549 159.656 76.1515 160.385Z" fill="#455A64"/>
<path d="M83.0852 134.045C82.7203 135.503 83.5413 137.144 84.9096 137.873C86.2779 138.602 88.1023 138.237 89.0145 137.053C89.4706 136.506 89.7442 135.777 89.653 135.047C89.4706 133.771 87.8286 132.313 86.5516 132.222C84.7272 132.131 83.6325 133.042 83.0852 134.045Z" fill="#455A64"/>
<path d="M132.709 148.446C132.8 148.537 132.344 149.904 131.523 152.274C130.611 154.917 129.516 158.016 128.331 161.297C127.145 164.669 126.05 167.677 125.047 170.32C124.226 172.599 123.678 174.057 123.496 173.966C123.222 173.875 124.864 167.95 127.418 160.932C129.973 153.914 132.436 148.263 132.709 148.446Z" fill="#263238"/>
<path d="M148.036 141.792C146.577 148.446 140.009 152.729 133.35 151.362C126.691 149.904 122.404 143.342 123.772 136.688C125.232 130.035 131.799 125.751 138.458 127.118C145.209 128.485 149.496 135.139 148.036 141.792Z" fill="#FF1A71"/>
<g opacity="0.3">
<g opacity="0.3">
<g opacity="0.3">
<g opacity="0.3">
<g opacity="0.3">
<g opacity="0.3">
<path opacity="0.3" d="M131.889 150.998C131.798 150.906 132.254 149.63 132.984 147.534C133.622 145.438 134.443 142.521 134.078 139.24C133.714 135.959 132.072 133.316 130.43 131.949C128.788 130.49 127.419 130.217 127.511 130.035C127.511 129.943 129.061 130.035 130.886 131.402C132.71 132.769 134.626 135.594 134.991 139.149C135.356 142.704 134.352 145.711 133.531 147.808C132.801 149.813 131.98 150.998 131.889 150.998Z" fill="black"/>
</g>
</g>
</g>
</g>
</g>
</g>
<g opacity="0.3">
<g opacity="0.3">
<g opacity="0.3">
<g opacity="0.3">
<g opacity="0.3">
<g opacity="0.3">
<path opacity="0.3" d="M147.853 137.691C147.762 137.964 144.478 136.779 140.647 137.964C136.815 139.058 134.626 141.883 134.444 141.61C134.352 141.519 134.717 140.79 135.721 139.787C136.724 138.784 138.275 137.599 140.373 137.053C142.471 136.415 144.478 136.506 145.755 136.87C147.214 137.144 147.944 137.599 147.853 137.691Z" fill="black"/>
</g>
</g>
</g>
</g>
</g>
</g>
<g opacity="0.3">
<g opacity="0.3">
<g opacity="0.3">
<g opacity="0.3">
<g opacity="0.3">
<g opacity="0.3">
<path opacity="0.3" d="M142.288 137.053C142.106 137.053 142.197 136.141 141.741 134.956C141.285 133.771 140.282 132.222 138.457 131.493C136.633 130.764 134.808 131.219 133.714 131.857C132.528 132.404 132.072 133.133 131.889 133.042C131.798 132.951 132.163 132.131 133.349 131.311C134.535 130.49 136.633 129.852 138.822 130.673C141.011 131.493 142.106 133.498 142.38 134.865C142.744 136.232 142.38 137.144 142.288 137.053Z" fill="black"/>
</g>
</g>
</g>
</g>
</g>
</g>
<g opacity="0.3">
<g opacity="0.3">
<g opacity="0.3">
<g opacity="0.3">
<g opacity="0.3">
<g opacity="0.3">
<path opacity="0.3" d="M138.366 138.42C138.093 138.329 138.275 136.688 137.819 134.683C137.363 132.678 136.451 131.311 136.633 131.128C136.816 130.946 138.184 132.222 138.731 134.501C139.279 136.688 138.549 138.511 138.366 138.42Z" fill="black"/>
</g>
</g>
</g>
</g>
</g>
</g>
<g opacity="0.3">
<g opacity="0.3">
<g opacity="0.3">
<g opacity="0.3">
<g opacity="0.3">
<g opacity="0.3">
<path opacity="0.3" d="M138.275 134.501C138.275 134.774 137.18 134.865 136.177 135.412C135.173 135.959 134.261 136.688 134.079 136.506C133.896 136.323 134.444 135.321 135.721 134.592C137.089 133.863 138.275 134.318 138.275 134.501Z" fill="black"/>
</g>
</g>
</g>
</g>
</g>
</g>
<path d="M104.157 122.47C104.249 122.47 104.431 123.199 104.614 124.566C104.887 126.115 105.161 128.029 105.526 130.217C106.255 134.956 107.259 141.61 108.262 148.81C109.266 156.102 110.178 162.664 110.725 167.495C110.999 169.773 111.181 171.596 111.364 173.146C111.455 174.513 111.546 175.242 111.455 175.242C111.364 175.242 111.181 174.513 110.999 173.237C110.725 171.687 110.452 169.864 110.087 167.586C109.357 162.846 108.354 156.193 107.35 148.901C106.347 141.61 105.434 135.047 104.887 130.217C104.614 128.029 104.431 126.115 104.249 124.566C104.157 123.199 104.066 122.47 104.157 122.47Z" fill="#263238"/>
<path d="M114.648 109.436C116.472 115.998 112.641 122.834 106.073 124.657C99.5051 126.48 92.6636 122.652 90.8392 116.09C89.0148 109.527 92.8461 102.692 99.4139 100.869C105.982 99.0458 112.823 102.874 114.648 109.436Z" fill="#FF1A71"/>
<g opacity="0.3">
<g opacity="0.3">
<g opacity="0.3">
<g opacity="0.3">
<g opacity="0.3">
<g opacity="0.3">
<path opacity="0.3" d="M104.704 125.113C104.522 125.113 104.431 123.746 104.066 121.558C103.701 119.371 103.062 116.363 101.238 113.629C99.4135 110.894 96.6769 109.345 94.6701 108.798C92.572 108.251 91.2038 108.616 91.2038 108.434C91.1125 108.342 92.572 107.704 94.8525 108.069C97.133 108.434 100.143 110.074 102.15 112.991C104.066 115.907 104.704 119.097 104.887 121.285C104.887 123.655 104.795 125.113 104.704 125.113Z" fill="black"/>
</g>
</g>
</g>
</g>
</g>
</g>
<g opacity="0.3">
<g opacity="0.3">
<g opacity="0.3">
<g opacity="0.3">
<g opacity="0.3">
<g opacity="0.3">
<path opacity="0.3" d="M112.641 105.973C112.732 106.246 109.266 106.702 106.347 109.527C103.428 112.353 102.88 115.725 102.607 115.634C102.515 115.634 102.424 114.722 102.88 113.446C103.245 112.079 104.157 110.347 105.708 108.798C107.259 107.34 109.083 106.428 110.452 106.155C111.82 105.79 112.641 105.79 112.641 105.973Z" fill="black"/>
</g>
</g>
</g>
</g>
</g>
</g>
<g opacity="0.3">
<g opacity="0.3">
<g opacity="0.3">
<g opacity="0.3">
<g opacity="0.3">
<g opacity="0.3">
<path opacity="0.3" d="M107.441 107.978C107.258 108.069 106.985 107.249 105.981 106.337C105.069 105.517 103.336 104.605 101.42 104.788C99.5047 104.97 98.0451 106.246 97.3154 107.34C96.5856 108.434 96.4032 109.254 96.2208 109.254C96.1295 109.254 96.0383 108.342 96.6768 107.066C97.3154 105.79 98.8661 104.241 101.238 103.967C103.518 103.694 105.434 104.879 106.346 105.973C107.441 106.975 107.532 107.978 107.441 107.978Z" fill="black"/>
</g>
</g>
</g>
</g>
</g>
</g>
<g opacity="0.3">
<g opacity="0.3">
<g opacity="0.3">
<g opacity="0.3">
<g opacity="0.3">
<g opacity="0.3">
<path opacity="0.3" d="M104.523 110.986C104.249 111.077 103.611 109.436 102.243 107.978C100.874 106.428 99.4148 105.608 99.506 105.335C99.5972 105.061 101.422 105.608 102.972 107.34C104.523 108.98 104.797 110.894 104.523 110.986Z" fill="black"/>
</g>
</g>
</g>
</g>
</g>
</g>
<g opacity="0.3">
<g opacity="0.3">
<g opacity="0.3">
<g opacity="0.3">
<g opacity="0.3">
<g opacity="0.3">
<path opacity="0.3" d="M102.607 107.613C102.698 107.887 101.786 108.434 101.148 109.345C100.509 110.348 100.053 111.35 99.7792 111.259C99.5968 111.168 99.5056 110.074 100.327 108.798C101.33 107.522 102.607 107.34 102.607 107.613Z" fill="black"/>
</g>
</g>
</g>
</g>
</g>
</g>
<path d="M105.981 254.081L94.6699 173.054H143.108L133.165 254.081H105.981Z" fill="#263238"/>
<path d="M139.55 204.772C139.55 204.955 130.519 205.137 119.299 205.137C108.079 205.137 99.0483 204.955 99.0483 204.772C99.0483 204.59 108.079 204.408 119.299 204.408C130.519 204.317 139.55 204.499 139.55 204.772Z" fill="#FAFAFA"/>
<path d="M138.546 209.967C138.546 210.15 129.88 210.332 119.208 210.332C108.535 210.332 99.8691 210.15 99.8691 209.967C99.8691 209.785 108.535 209.603 119.208 209.603C129.88 209.512 138.546 209.694 138.546 209.967Z" fill="#FAFAFA"/>
<path d="M138 214.889C138 215.072 129.607 215.254 119.3 215.254C108.992 215.254 100.6 215.072 100.6 214.889C100.6 214.707 108.992 214.525 119.3 214.525C129.607 214.525 138 214.707 138 214.889Z" fill="#FAFAFA"/>
<path d="M137.27 220.358C137.27 220.54 129.243 220.722 119.208 220.722C109.266 220.722 101.147 220.54 101.147 220.358C101.147 220.176 109.174 219.993 119.208 219.993C129.243 219.902 137.27 220.084 137.27 220.358Z" fill="#FAFAFA"/>
<path d="M136.722 225.28C136.722 225.462 129.06 225.644 119.482 225.644C109.995 225.644 102.241 225.462 102.241 225.28C102.241 225.097 109.904 224.915 119.482 224.915C128.969 224.915 136.722 225.097 136.722 225.28Z" fill="#FAFAFA"/>
<path d="M135.719 230.201C135.719 230.384 128.33 230.566 119.208 230.566C110.086 230.566 102.697 230.384 102.697 230.201C102.697 230.019 110.086 229.837 119.208 229.837C128.33 229.837 135.719 230.019 135.719 230.201Z" fill="#FAFAFA"/>
<path d="M135.536 235.214C135.536 235.397 128.33 235.579 119.481 235.579C110.633 235.579 103.427 235.397 103.427 235.214C103.427 235.032 110.633 234.85 119.481 234.85C128.33 234.759 135.536 234.941 135.536 235.214Z" fill="#FAFAFA"/>
<path d="M134.897 240.136C134.897 240.318 127.964 240.501 119.481 240.501C110.906 240.501 104.065 240.318 104.065 240.136C104.065 239.954 110.998 239.771 119.481 239.771C127.964 239.771 134.897 239.863 134.897 240.136Z" fill="#FAFAFA"/>
<path d="M241.772 38.5009C240.881 39.9473 238.766 40.2255 237.262 39.5023C235.703 38.7791 234.701 37.3327 233.866 35.8863C233.031 34.4399 232.363 32.8266 231.194 31.6027C229.301 29.4888 226.183 28.4874 223.399 29.2106C220.671 29.9894 218.444 32.5484 218.276 35.3856C218.054 38.8347 220.559 42.0057 223.677 43.5077C226.795 45.0097 230.358 45.121 233.81 44.9541" fill="#263238"/>
<path d="M283.53 40.9487C286.87 39.3354 291.102 41.2825 293.05 44.5091C294.943 47.68 294.943 51.6854 294.22 55.3014C293.496 58.7505 292.382 62.8672 294.832 65.3706C296.781 67.3176 300.288 67.4289 301.625 69.821C303.573 73.2701 299.175 77.2755 299.787 81.1697C300.177 83.6174 302.46 85.3419 304.742 86.3433C307.025 87.3447 309.531 87.9566 311.535 89.5142C313.484 91.0719 314.653 94.0203 313.205 96.0787C308.918 97.4138 304.687 98.7489 300.4 100.084C299.509 98.582 298.674 97.08 297.783 95.578C298.674 97.4694 298.284 99.8059 297.226 101.586C296.168 103.366 294.498 104.757 292.772 105.981C286.146 110.821 278.129 114.159 269.944 113.714" fill="#263238"/>
<path d="M227.853 47.5687C227.741 44.1753 230.915 41.505 234.089 40.2811C237.262 39.0572 240.826 38.5566 243.665 36.6651C246.171 34.9962 247.841 32.3259 250.012 30.212C255.246 24.9271 263.375 22.7575 270.501 24.7045C277.684 26.6516 283.585 32.6597 285.367 39.8917C286.592 44.7316 285.757 50.5171 281.915 53.7437C277.461 57.471 270.891 56.6365 265.156 55.4683C259.477 54.3 253.019 53.1318 248.231 56.5253C245.335 58.528 243.721 61.8102 241.939 64.8699C240.157 67.9295 237.986 70.9892 234.645 72.1575C231.305 73.3257 226.795 71.323 226.684 67.8183" fill="#263238"/>
<path d="M228.075 49.4602C228.465 52.2973 226.405 54.8563 224.289 56.9147C222.229 58.9174 219.891 61.087 219.557 63.9241C219.111 67.262 221.561 70.5442 220.893 73.882C220.448 75.996 218.833 77.6093 217.831 79.5007C216.439 82.171 216.383 85.3976 217.218 88.2903C218.053 91.1831 219.445 97.5807 221.45 99.8615C227.017 106.037 235.814 111.377 243.943 113.269C252.072 115.104 260.479 115.16 268.775 114.604C275.568 114.159 283.363 114.492 289.042 105.146C291.993 100.307 293.44 93.8534 294.999 88.4572C296.335 83.7843 297.505 78.7775 296.113 74.1045C295.277 71.3786 293.663 68.9865 292.883 66.2606C291.881 62.8671 292.271 59.2512 291.826 55.6908C290.935 48.0694 286.202 41.0043 279.521 37.2771C272.784 33.5498 264.265 33.2716 257.361 36.5539" fill="#263238"/>
<path d="M288.484 61.1983C287.871 51.4629 281.357 39.5023 271.669 40.5593L241.325 48.292C238.375 48.6257 236.147 51.1291 236.203 54.0775L238.152 120.667C238.43 130.292 246.448 137.913 256.08 137.69C265.601 137.468 273.284 129.68 273.284 120.167C273.284 115.438 273.284 109.819 273.284 109.875C273.284 109.875 285.756 107.761 288.261 91.517C289.653 83.4505 289.208 71.9906 288.484 61.1983Z" fill="#FFCBD1"/>
<path d="M283.084 73.7708C283.139 74.8834 282.248 75.8291 281.079 75.8847C279.91 75.9403 278.963 75.1059 278.908 73.9933C278.852 72.8807 279.743 71.9349 280.912 71.8793C282.081 71.8237 283.028 72.6581 283.084 73.7708Z" fill="#263238"/>
<path d="M285.644 68.0964C285.366 68.3746 283.807 67.2063 281.58 67.2063C279.353 67.2063 277.683 68.3189 277.46 68.0408C277.349 67.9295 277.627 67.4289 278.295 66.9282C279.019 66.4275 280.188 65.9268 281.58 65.9268C282.972 65.9268 284.141 66.4275 284.809 66.9838C285.533 67.4845 285.756 67.9295 285.644 68.0964Z" fill="#263238"/>
<path d="M261.537 73.7708C261.593 74.8834 260.702 75.8291 259.533 75.8847C258.364 75.9404 257.417 75.1059 257.361 73.9933C257.306 72.8807 258.197 71.935 259.366 71.8793C260.535 71.8237 261.537 72.6582 261.537 73.7708Z" fill="#263238"/>
<path d="M263.596 68.5415C263.318 68.8196 261.759 67.6514 259.532 67.6514C257.305 67.6514 255.634 68.764 255.412 68.4858C255.3 68.3746 255.579 67.8739 256.247 67.3732C256.971 66.8725 258.14 66.3719 259.532 66.3719C260.924 66.3719 262.093 66.8725 262.761 67.4289C263.485 67.9295 263.707 68.4302 263.596 68.5415Z" fill="#263238"/>
<path d="M271.781 85.175C271.781 85.0638 273.173 84.7856 275.4 84.5074C275.957 84.4518 276.514 84.3405 276.625 83.9511C276.737 83.5617 276.514 82.8942 276.235 82.2822C275.679 80.8914 275.122 79.4451 274.509 77.943C272.171 71.768 270.445 66.65 270.668 66.5388C270.946 66.4275 273.062 71.3786 275.4 77.6092C275.957 79.1113 276.514 80.6133 277.015 82.0041C277.238 82.6716 277.627 83.3948 277.293 84.2293C277.126 84.6743 276.737 84.9525 276.347 85.0637C275.957 85.175 275.679 85.175 275.4 85.175C273.173 85.2863 271.781 85.2863 271.781 85.175Z" fill="#263238"/>
<path d="M251.793 104.089C251.793 104.089 257.082 115.271 273.34 113.714V109.875C273.396 109.819 262.65 110.543 251.793 104.089Z" fill="#FF85AD"/>
<path d="M270.835 90.5712C270 89.5142 268.608 88.9023 267.216 89.0692C266.269 89.1804 265.267 89.6255 264.655 90.4599C264.042 91.2388 263.931 92.3514 264.488 93.1302C265.1 93.9647 266.381 94.1872 267.438 93.8534C268.496 93.5196 269.443 92.852 270.278 92.1288C270.501 91.962 270.779 91.7394 270.89 91.4613C271.057 91.1831 271.057 90.8493 270.89 90.6268" fill="#E8505B"/>
<path d="M265.155 86.7326C265.545 86.7326 265.545 89.1248 267.605 90.8493C269.665 92.5739 272.282 92.2957 272.282 92.6295C272.337 92.7964 271.725 93.1302 270.611 93.1302C269.554 93.1858 267.995 92.852 266.714 91.795C265.433 90.7381 264.877 89.3473 264.821 88.3459C264.71 87.289 264.988 86.677 265.155 86.7326Z" fill="#263238"/>
<path d="M264.154 61.977C263.931 62.589 261.704 62.3108 259.087 62.6446C256.47 62.9228 254.354 63.7016 253.965 63.1453C253.798 62.8671 254.187 62.3108 255.023 61.6989C255.858 61.087 257.25 60.5306 258.809 60.3638C260.368 60.1969 261.815 60.4194 262.817 60.8088C263.708 61.1982 264.209 61.6989 264.154 61.977Z" fill="#263238"/>
<path d="M284.81 61.5876C284.42 62.0883 282.861 61.5876 281.024 61.532C279.186 61.4207 277.572 61.8658 277.238 61.3651C277.071 61.087 277.349 60.5863 278.017 60.0856C278.685 59.5849 279.799 59.1955 281.079 59.2511C282.36 59.3068 283.474 59.7518 284.086 60.2525C284.754 60.8088 284.977 61.3651 284.81 61.5876Z" fill="#263238"/>
<path d="M229.968 101.697C234.422 102.587 239.322 101.252 242.663 98.137C246.003 95.0217 247.729 90.2931 247.172 85.787C246.671 81.7816 244.5 77.7205 245.892 73.9376C247.729 68.9309 254.745 67.4289 256.582 62.4221C257.64 59.5293 256.693 56.1358 257.918 53.2987C259.087 50.6284 261.871 49.0708 264.599 48.125C267.328 47.1237 270.278 46.4561 272.561 44.6759C274.844 42.8958 276.292 39.5023 274.788 37.0545C262.651 38.5009 250.736 41.3937 239.266 45.6773C236.594 46.6786 233.81 47.8469 232.251 50.239C230.581 52.7424 230.692 55.969 230.803 58.9174C231.472 73.4926 232.14 88.0678 232.863 102.643" fill="#263238"/>
<path d="M275.29 30.8795C275.735 34.9962 276.125 39.1685 275.011 43.1183C273.898 47.0681 270.891 50.7953 266.827 51.4629C264.878 51.7967 262.762 51.4629 261.148 52.5755C257.807 54.9676 260.535 60.6419 258.586 64.3136C256.805 67.5958 252.017 67.8739 249.678 70.7111C247.061 73.882 248.398 78.6106 250.235 82.2823C252.072 85.9539 254.299 89.9593 253.074 93.8534C251.738 98.1926 246.505 100.529 245.224 104.924C244.389 107.761 245.28 111.21 243.22 113.38C241.661 115.049 239.1 115.049 236.817 114.882C227.519 114.047 218.443 111.099 210.37 106.426C211.762 104.201 212.486 101.586 212.542 98.9715C211.038 100.084 209.535 101.197 207.976 102.309C204.468 97.9701 200.961 93.5753 197.509 89.2361C199.625 83.8955 203.967 79.5564 209.312 77.4424C212.486 76.1629 216.55 75.1059 217.274 71.7681C217.664 69.9323 215.492 66.5944 216.662 62.3109C216.662 62.3109 218.666 54.1888 223.399 51.8523C228.131 49.5714 227.463 48.1807 228.521 45.0654" fill="#263238"/>
<path d="M200.069 87.7897C200.069 87.6784 201.517 87.734 204.134 87.734C205.414 87.734 207.029 87.734 208.866 87.5115C210.704 87.289 212.764 86.8996 214.824 85.8982C215.826 85.3975 216.884 84.7856 217.775 84.0068C218.721 83.2279 219.556 82.2822 220.169 81.114C220.781 80.0014 221.171 78.6662 221.394 77.2755C221.616 75.8847 221.672 74.3827 221.95 72.7694C222.173 71.2117 222.619 69.5428 223.565 68.0408C224.01 67.3176 224.679 66.5944 225.458 66.0937C226.238 65.593 227.128 65.2593 228.019 65.0367C229.801 64.6473 231.527 64.6473 233.197 64.4804C234.867 64.3135 236.426 63.8685 237.54 62.6446C238.654 61.4764 239.21 59.8631 239.544 58.2498C239.878 56.6365 239.99 54.912 240.324 53.1874C240.658 51.4629 241.215 49.7383 242.328 48.3475C242.885 47.68 243.553 47.068 244.221 46.5674C244.889 46.0667 245.669 45.6773 246.448 45.3991C249.511 44.1752 252.684 44.1752 255.412 44.4534C258.196 44.7315 260.702 45.1766 263.04 45.2879C264.209 45.3435 265.267 45.3435 266.325 45.1766C267.327 45.0653 268.274 44.7872 269.109 44.509C270.835 43.8971 272.115 43.007 273.006 42.0613C273.897 41.1712 274.398 40.2811 274.621 39.6135C274.899 39.0016 274.955 38.6122 275.011 38.6678C275.066 38.6678 275.066 39.0572 274.899 39.7248C274.732 40.3924 274.342 41.3937 273.396 42.4507C272.505 43.5077 271.169 44.509 269.387 45.2322C268.496 45.6216 267.494 45.8998 266.436 46.0667C265.378 46.2336 264.209 46.2892 263.04 46.2892C260.646 46.2336 258.085 45.8442 255.357 45.6216C254.02 45.5104 252.628 45.4547 251.181 45.6216C249.789 45.7885 248.341 46.0667 247.005 46.623C245.669 47.1793 244.388 48.0138 243.497 49.182C242.607 50.3502 242.105 51.8523 241.771 53.4656C241.437 55.0788 241.382 56.8034 240.992 58.5836C240.602 60.3081 239.99 62.1996 238.598 63.7016C237.93 64.4248 237.039 64.9811 236.148 65.3705C235.257 65.7043 234.311 65.8712 233.42 65.9824C231.638 66.205 229.912 66.1493 228.409 66.4831C227.629 66.65 226.961 66.9282 226.349 67.3176C225.736 67.707 225.235 68.2633 224.846 68.8752C224.01 70.0991 223.621 71.6011 223.398 73.0475C223.175 74.5496 223.064 76.0516 222.786 77.5536C222.563 79.0556 222.117 80.502 221.338 81.7815C220.614 83.0611 219.612 84.0624 218.61 84.9525C217.552 85.7869 216.438 86.4545 215.325 86.8996C213.098 87.9009 210.926 88.2347 209.033 88.4016C207.14 88.5685 205.526 88.4572 204.189 88.4016C201.517 88.1234 200.069 87.9009 200.069 87.7897Z" fill="#E0E0E0"/>
<path d="M235.703 38.0003C235.87 38.0559 235.815 38.7235 235.369 39.6692C234.979 40.6149 234.2 41.8388 233.198 42.9514C232.14 44.1196 231.026 44.9541 230.135 45.3991C229.245 45.8998 228.632 46.0667 228.521 45.8998C228.298 45.566 230.191 44.1196 232.14 41.95C234.089 39.8361 235.313 37.8334 235.703 38.0003Z" fill="#8686E1"/>
<path d="M306.411 222.972L309.418 253.792H215.435L233.586 217.187L306.411 222.972Z" fill="#F3C886"/>
<path d="M306.467 183.697L326.567 210.622C326.567 210.622 330.687 181.082 331.077 181.75C331.466 182.417 308.527 153.434 308.527 153.434L306.467 183.697Z" fill="#FF85AD"/>
<path d="M233.808 121.391C233.085 121.391 209.756 130.848 207.139 135.243C204.467 139.582 221.114 221.637 221.114 221.637L306.467 223.417L307.302 184.198L313.649 131.738L278.35 119.889L273.617 115.772L264.041 132.405L237.761 115.605L233.808 121.391Z" fill="#F3C886"/>
<g opacity="0.3">
<g opacity="0.3">
<g opacity="0.3">
<g opacity="0.3">
<path opacity="0.3" d="M230.246 251.066C235.925 249.619 240.546 245.447 243.831 240.607C247.06 235.767 249.064 230.204 251.013 224.641C252.906 219.134 254.799 213.515 257.861 208.564C260.144 204.892 262.984 201.666 265.823 198.383C267.159 196.826 268.551 195.268 270.277 194.155C272.449 192.765 274.954 192.208 277.46 191.652C281.803 190.651 286.201 189.649 290.544 188.704C292.158 188.314 293.829 187.925 295.276 187.035C296.668 186.145 297.837 184.643 297.837 182.974C291.323 183.641 284.753 183.419 278.239 184.142C271.725 184.865 265.099 186.534 259.921 190.539C254.688 194.545 251.292 200.497 248.675 206.561C242.272 221.248 239.265 237.492 230.802 251.121" fill="black"/>
</g>
</g>
</g>
</g>
<path d="M207.084 135.243C207.084 135.243 200.013 139.86 198.12 154.658C196.728 165.617 194 196.714 194 196.714L227.685 193.877L207.084 135.243Z" fill="#F3C886"/>
<path d="M194 196.714C194 196.714 194.056 196.714 194.167 196.659C194.278 196.659 194.445 196.603 194.668 196.603C195.114 196.548 195.782 196.492 196.617 196.436C198.287 196.269 200.737 196.047 203.688 195.824C209.701 195.324 217.941 194.6 227.072 193.822C227.295 193.822 227.462 193.766 227.685 193.766L227.573 193.933C226.404 184.976 225.29 176.966 224.567 171.069C224.177 168.176 223.899 165.839 223.676 164.171C223.564 163.392 223.509 162.724 223.453 162.279C223.453 162.057 223.397 161.89 223.397 161.778C223.397 161.667 223.397 161.612 223.397 161.612C223.397 161.612 223.397 161.667 223.453 161.778C223.453 161.89 223.509 162.057 223.509 162.279C223.564 162.724 223.676 163.336 223.787 164.171C224.01 165.839 224.344 168.176 224.734 171.069C225.513 176.91 226.627 184.976 227.852 193.877V194.044H227.685C227.518 194.044 227.295 194.1 227.072 194.1C217.941 194.823 209.701 195.546 203.688 195.991C200.737 196.214 198.287 196.381 196.617 196.548C195.782 196.603 195.169 196.659 194.668 196.659C194.445 196.659 194.278 196.659 194.167 196.659C194.056 196.714 194 196.714 194 196.714Z" fill="#263238"/>
<path d="M263.819 132.183C263.819 132.183 263.597 132.127 263.263 132.016C262.873 131.905 262.372 131.738 261.704 131.515C260.367 131.07 258.474 130.458 256.192 129.68L256.359 129.624C255.579 130.959 254.688 132.405 253.797 133.963L253.742 134.074L253.63 134.019C252.294 133.351 250.847 132.628 249.399 131.849C245.056 129.513 241.27 127.176 238.598 125.34C237.261 124.45 236.204 123.671 235.48 123.171C235.146 122.893 234.867 122.726 234.645 122.559C234.478 122.392 234.366 122.336 234.366 122.336C234.366 122.336 234.478 122.392 234.7 122.503C234.923 122.67 235.201 122.837 235.535 123.059C236.259 123.56 237.373 124.283 238.709 125.173C241.382 126.954 245.223 129.29 249.566 131.571C251.014 132.35 252.461 133.073 253.797 133.741L253.63 133.796C254.577 132.239 255.468 130.792 256.247 129.457L256.303 129.346L256.414 129.401C258.641 130.18 260.534 130.848 261.871 131.348C262.483 131.571 262.984 131.738 263.374 131.905C263.652 132.072 263.819 132.183 263.819 132.183Z" fill="#263238"/>
<path d="M277.905 120C277.905 120 277.905 120.111 277.905 120.278C277.905 120.445 277.849 120.723 277.794 121.057C277.682 121.724 277.571 122.67 277.237 123.838C276.959 125.007 276.513 126.342 275.901 127.844C275.622 128.567 275.233 129.346 274.843 130.069C274.62 130.458 274.453 130.848 274.23 131.237C274.119 131.404 274.008 131.627 273.841 131.793C273.674 131.96 273.395 132.127 273.117 132.127C272.838 132.072 272.616 131.905 272.449 131.738C272.282 131.571 272.115 131.404 272.003 131.237C271.725 130.903 271.447 130.57 271.168 130.236C270.611 129.568 270.055 128.956 269.553 128.344C269.275 128.066 269.052 127.788 268.718 127.621C268.44 127.454 268.106 127.454 267.828 127.677C267.549 127.844 267.382 128.177 267.159 128.4C266.937 128.678 266.77 128.901 266.603 129.123C265.879 130.069 265.322 130.792 264.877 131.348C264.71 131.571 264.543 131.793 264.376 131.96C264.264 132.072 264.208 132.183 264.208 132.183C264.208 132.183 264.264 132.072 264.32 131.96C264.431 131.793 264.598 131.571 264.765 131.348C265.155 130.792 265.712 130.013 266.436 129.068C266.603 128.845 266.77 128.567 266.992 128.289C267.159 128.011 267.382 127.732 267.66 127.51C267.939 127.232 268.44 127.232 268.83 127.399C269.219 127.566 269.498 127.899 269.721 128.177C270.222 128.789 270.778 129.401 271.335 130.069C271.614 130.403 271.892 130.737 272.17 131.07C272.449 131.404 272.727 131.793 273.117 131.849C273.451 131.905 273.729 131.46 273.952 131.126C274.175 130.737 274.397 130.347 274.564 130.013C274.954 129.234 275.288 128.511 275.622 127.788C276.235 126.342 276.68 125.007 277.014 123.838C277.348 122.67 277.515 121.724 277.627 121.112C277.849 120.334 277.905 120 277.905 120Z" fill="#263238"/>
<path d="M293.495 209.899C293.551 209.955 286.145 214.127 277.014 219.134C267.883 224.14 260.423 228.201 260.367 228.09C260.311 228.034 267.716 223.862 276.847 218.855C286.034 213.849 293.495 209.843 293.495 209.899Z" fill="#263238"/>
<path d="M288.428 226.143C288.428 226.199 283.695 226.532 277.793 226.866C271.947 227.2 267.159 227.367 267.159 227.311C267.159 227.256 271.892 226.922 277.793 226.588C283.64 226.254 288.428 226.087 288.428 226.143Z" fill="#263238"/>
<path d="M309.864 188.873L305.076 183.978L309.92 158.888L314.708 175.744L309.864 188.873Z" fill="#F3C886"/>
<path d="M306.301 221.526C306.301 221.526 306.301 221.47 306.301 221.414C306.301 221.303 306.301 221.192 306.301 221.025C306.301 220.691 306.301 220.191 306.301 219.579C306.301 218.299 306.356 216.463 306.412 214.238C306.523 209.732 306.635 203.501 306.69 196.603C306.746 189.705 306.746 183.474 306.635 178.968C306.579 176.743 306.468 174.907 306.412 173.628C306.356 173.016 306.356 172.515 306.301 172.181C306.301 172.014 306.301 171.903 306.301 171.792C306.301 171.681 306.301 171.681 306.301 171.681C306.301 171.681 306.301 171.736 306.301 171.792C306.301 171.903 306.356 172.014 306.356 172.181C306.412 172.515 306.468 173.016 306.523 173.628C306.635 174.907 306.746 176.687 306.858 178.968C307.025 183.474 307.08 189.705 307.025 196.603C306.969 203.501 306.802 209.732 306.635 214.238C306.579 216.463 306.468 218.299 306.468 219.579C306.412 220.191 306.412 220.691 306.412 221.025C306.412 221.192 306.412 221.303 306.412 221.414C306.301 221.526 306.301 221.526 306.301 221.526Z" fill="#263238"/>
<path d="M290.266 118.22C290.266 118.22 288.651 117.608 287.315 118.832C285.979 120.055 286.146 121.502 286.591 122.781C286.981 124.116 287.816 124.506 287.816 124.506L293.272 121.947L290.266 118.22Z" fill="#FF85AD"/>
<path d="M285.255 126.898C285.255 126.898 282.973 128.456 282.861 128.956C282.806 129.29 283.195 129.735 283.863 129.513C284.42 129.346 286.035 128.344 286.035 128.344L285.255 126.898Z" fill="#E8505B"/>
<g opacity="0.3">
<g opacity="0.3">
<g opacity="0.3">
<path opacity="0.3" d="M285.255 126.898C285.255 126.898 282.973 128.456 282.861 128.956C282.806 129.29 283.195 129.735 283.863 129.513C284.42 129.346 286.035 128.344 286.035 128.344L285.255 126.898Z" fill="black"/>
</g>
</g>
</g>
<path d="M290.656 121.112L284.365 127.065L285.757 129.012L292.549 126.564L327.292 106.871C328.572 106.148 328.962 104.534 328.183 103.255C327.459 102.142 325.955 101.753 324.786 102.365L290.656 121.112Z" fill="#455A64"/>
<path d="M357.078 195.824C356.689 190.206 321.334 141.418 319.107 138.358L312.982 125.674L310.365 114.993C310.365 114.993 296.502 107.038 295.388 107.038C294.275 107.038 288.874 113.936 288.818 114.993C288.707 116.106 289.542 116.885 289.542 116.885L290.266 123.838C290.266 123.838 289.486 125.396 290.043 126.787C290.656 128.233 293.05 128.233 293.05 128.233L292.159 131.237C292.159 131.237 292.382 134.575 292.938 135.187C293.161 135.41 294.33 135.576 295.667 135.354C296.836 135.131 297.114 133.462 297.059 132.684C297.448 133.296 298.673 132.684 298.673 132.684C298.785 134.074 300.288 135.187 300.288 135.187C300.288 135.187 302.404 143.698 302.682 144.811C302.96 145.924 304.853 148.705 307.693 149.707C307.971 149.818 308.194 149.873 308.361 149.985C310.421 157.662 324.563 210.288 327.514 213.793C330.743 217.632 339.429 219.968 347.279 219.579C355.13 219.245 357.468 201.61 357.078 195.824Z" fill="#FFCBD1"/>
<path d="M302.905 113.769C302.905 113.825 302.125 113.88 300.956 113.88C299.731 113.936 298.061 113.936 296.224 113.936C295.277 113.936 294.386 113.936 293.607 113.936C293.217 113.936 292.827 113.936 292.438 113.88C292.104 113.825 291.825 113.936 291.547 114.103C291.046 114.381 290.656 114.715 290.378 114.937C290.155 115.16 289.988 115.327 289.988 115.271C289.988 115.271 290.099 115.104 290.322 114.826C290.545 114.604 290.879 114.214 291.435 113.88C291.714 113.714 292.048 113.602 292.438 113.602C292.772 113.602 293.161 113.602 293.551 113.602C294.386 113.602 295.221 113.602 296.168 113.602C298.005 113.602 299.62 113.602 300.9 113.602C302.125 113.714 302.905 113.714 302.905 113.769Z" fill="#FF85AD"/>
<path d="M298.729 113.769C298.729 113.825 298.395 113.714 297.949 113.435C297.504 113.157 297.003 112.657 296.446 112.1C296.39 112.045 296.335 111.989 296.279 111.933L296.502 111.766C296.613 111.989 296.557 112.212 296.502 112.378C296.446 112.545 296.335 112.712 296.279 112.823C296.112 113.102 295.889 113.269 295.722 113.435C295.388 113.714 295.11 113.88 295.11 113.825C295.11 113.769 295.277 113.602 295.611 113.269C295.778 113.102 295.945 112.879 296.112 112.657C296.279 112.434 296.39 112.1 296.279 111.878L295.889 110.988L296.557 111.766C296.613 111.822 296.669 111.878 296.724 111.933C297.226 112.49 297.727 112.99 298.116 113.324C298.45 113.547 298.729 113.714 298.729 113.769Z" fill="#FF85AD"/>
<path d="M301.903 120C301.903 120.055 301.235 120.055 300.177 120.055C299.119 120.111 297.672 120.167 296.057 120.278C294.442 120.389 293.05 120.834 292.104 121.335C291.157 121.836 290.656 122.281 290.656 122.225C290.656 122.225 290.768 122.114 290.99 121.891C291.213 121.669 291.547 121.446 292.048 121.168C292.939 120.612 294.387 120.111 296.057 120C297.672 119.833 299.175 119.833 300.233 119.833C301.235 119.889 301.903 119.944 301.903 120Z" fill="#FF85AD"/>
<path d="M295.332 120.222C295.332 120.278 294.442 120.334 293.551 119.666C292.716 118.998 292.493 118.108 292.549 118.053C292.66 117.997 292.938 118.776 293.718 119.388C294.497 120 295.388 120.111 295.332 120.222Z" fill="#FF85AD"/>
<path d="M301.736 124.116C301.736 124.116 301.346 124.45 300.567 124.728C299.787 125.007 298.729 125.229 297.56 125.452C296.391 125.674 295.333 125.897 294.609 126.23C293.885 126.509 293.496 126.787 293.44 126.787C293.44 126.787 293.774 126.397 294.498 126.064C295.222 125.674 296.279 125.396 297.504 125.173C298.674 124.951 299.787 124.784 300.511 124.506C301.29 124.283 301.736 124.061 301.736 124.116Z" fill="#FF85AD"/>
<path d="M296.168 129.735C296.168 129.68 296.446 129.791 296.836 130.125C297.226 130.403 297.616 131.015 297.671 131.794C297.727 132.183 297.671 132.572 297.449 132.851C297.282 133.129 297.114 133.351 296.892 133.518C296.502 133.852 296.168 133.852 296.168 133.796C296.168 133.741 296.446 133.685 296.725 133.351C296.892 133.184 297.003 132.962 297.17 132.739C297.282 132.517 297.337 132.183 297.337 131.849C297.282 131.182 296.947 130.625 296.613 130.347C296.391 129.958 296.168 129.791 296.168 129.735Z" fill="#FF85AD"/>
<path d="M300.344 129.29C300.4 129.29 300.289 129.513 300.177 129.902C300.01 130.236 299.732 130.737 299.231 131.126C298.952 131.293 298.674 131.404 298.396 131.46C298.117 131.46 297.894 131.404 297.672 131.348C297.282 131.182 297.171 130.903 297.226 130.903C297.282 130.848 297.393 131.07 297.727 131.182C298.061 131.293 298.563 131.237 299.008 130.959C299.453 130.625 299.732 130.18 299.954 129.902C300.177 129.513 300.344 129.29 300.344 129.29Z" fill="#FF85AD"/>
<path d="M301.625 133.574C301.625 133.629 301.402 133.685 301.012 133.629C300.622 133.574 300.066 133.407 299.62 132.906C299.175 132.405 299.063 131.849 299.063 131.46C299.063 131.07 299.175 130.848 299.231 130.848C299.286 130.848 299.231 131.07 299.286 131.46C299.342 131.849 299.509 132.35 299.843 132.739C300.233 133.129 300.678 133.351 301.068 133.462C301.346 133.518 301.625 133.518 301.625 133.574Z" fill="#FF85AD"/>
<path d="M325.342 108.762C325.287 108.818 324.34 107.872 323.505 106.482C322.614 105.091 322.169 103.867 322.224 103.867C322.28 103.811 322.892 104.98 323.728 106.37C324.563 107.65 325.398 108.707 325.342 108.762Z" fill="#263238"/>
<path d="M325.955 107.872C323.005 109.597 319.942 111.266 316.88 112.823L316.824 112.879C316.713 113.046 316.824 113.324 317.047 113.38C317.27 113.435 317.493 113.38 317.66 113.324C318.161 113.157 318.662 112.879 319.163 112.601C321.167 111.433 323.172 110.32 325.232 109.152C325.454 109.041 325.733 108.874 325.9 108.651C326.011 108.429 326.067 108.095 325.955 107.872Z" fill="#263238"/>
<path d="M236.204 197.938L226.405 213.014L225.903 194.044L198.566 196.325C198.51 197.048 200.515 219.412 203.577 238.66C204.913 247.06 213.488 253.458 222.006 253.458C228.743 253.458 234.812 249.564 237.651 243.5L254.41 201.61L236.204 197.938Z" fill="#FFCBD1"/>
<path d="M256.414 138.526C256.358 138.247 257.249 134.743 257.249 134.743C257.249 134.743 299.675 132.629 299.786 132.684C299.898 132.74 302.348 134.242 302.348 134.242L256.414 138.526Z" fill="white"/>
<path d="M256.415 138.525C256.415 138.525 256.526 138.525 256.638 138.469C256.805 138.469 257.027 138.414 257.362 138.414C257.974 138.358 258.865 138.247 260.034 138.135C262.372 137.913 265.713 137.579 269.833 137.19C278.129 136.411 289.599 135.298 302.293 134.074L302.237 134.353C301.792 134.074 301.291 133.796 300.845 133.518L300.066 133.017C299.954 132.962 299.787 132.85 299.676 132.795C299.565 132.795 299.398 132.795 299.286 132.85C298.674 132.85 298.061 132.906 297.449 132.906C296.224 132.962 295.055 133.017 293.886 133.073C291.547 133.184 289.209 133.296 286.982 133.407C282.528 133.629 278.352 133.796 274.51 134.019C266.938 134.353 260.869 134.631 257.25 134.798L257.306 134.742C257.027 135.966 256.805 136.856 256.638 137.523C256.471 138.191 256.415 138.525 256.415 138.525C256.415 138.525 256.415 138.191 256.582 137.523C256.693 136.856 256.916 135.91 257.195 134.742V134.686H257.25C260.925 134.464 266.938 134.186 274.51 133.741C278.296 133.574 282.472 133.351 286.982 133.129C289.209 133.017 291.492 132.906 293.886 132.795C295.055 132.739 296.28 132.684 297.449 132.628C298.061 132.628 298.674 132.572 299.286 132.572C299.453 132.572 299.62 132.572 299.843 132.572C300.01 132.628 300.122 132.739 300.233 132.795L301.012 133.296C301.513 133.574 301.959 133.852 302.404 134.13L302.794 134.353H302.349C289.543 135.521 278.073 136.578 269.778 137.357C265.657 137.746 262.317 138.024 259.978 138.247C258.865 138.358 257.974 138.414 257.306 138.469C257.027 138.469 256.805 138.525 256.638 138.525C256.471 138.525 256.415 138.525 256.415 138.525Z" fill="#263238"/>
<path d="M256.638 139.193L256.415 138.526L255.858 134.965L216.049 126.843L212.208 129.792L218.054 181.361L258.475 191.43L256.638 139.193Z" fill="white"/>
<path d="M256.637 139.192C256.637 139.192 256.637 139.248 256.637 139.415C256.637 139.582 256.637 139.804 256.692 140.138C256.692 140.806 256.748 141.696 256.804 142.975C256.915 145.423 257.027 149.039 257.194 153.601C257.528 162.78 257.973 175.797 258.586 191.374V191.541L258.418 191.485C246.392 188.481 232.64 185.088 217.997 181.472H217.886V181.36C217.774 180.137 217.607 178.857 217.44 177.522C215.492 160.109 213.654 143.754 212.04 129.791V129.735L212.095 129.68C213.431 128.678 214.712 127.732 215.993 126.787L216.048 126.731H216.104C235.313 130.681 249.566 133.629 255.857 134.909H255.913C256.191 136.8 256.358 137.968 256.47 138.469C256.637 139.137 256.637 139.192 256.637 139.192C256.637 139.192 256.581 139.081 256.414 138.525C256.358 138.024 256.136 136.912 255.802 135.02L255.857 135.076C249.566 133.796 235.257 130.903 216.048 127.065H216.16C214.879 128.011 213.599 128.956 212.318 129.958L212.374 129.846C213.933 143.81 215.826 160.165 217.774 177.578C217.941 178.913 218.053 180.192 218.22 181.416L218.108 181.305C232.751 184.976 246.504 188.37 258.53 191.374L258.363 191.485C257.862 175.909 257.416 162.891 257.082 153.712C256.915 149.15 256.804 145.534 256.748 143.087C256.692 141.863 256.692 140.917 256.692 140.249C256.692 139.916 256.692 139.693 256.692 139.526C256.637 139.304 256.637 139.192 256.637 139.192Z" fill="#263238"/>
<path d="M210.704 129.346L214.434 181.472L258.474 190.595L302.849 182.64L303.35 134.074L259.143 136.578C259.143 136.578 258.864 138.58 255.635 138.469L253.464 137.746L212.931 129.846L210.704 129.346Z" fill="#455A64"/>
<path d="M260.256 192.932C260.201 192.932 259.867 180.303 259.533 164.727C259.199 149.15 259.032 136.522 259.087 136.522C259.143 136.522 259.477 149.15 259.811 164.727C260.145 180.303 260.368 192.932 260.256 192.932Z" fill="#263238"/>
<path d="M254.633 191.43C254.633 191.43 254.633 191.374 254.633 191.318C254.633 191.207 254.633 191.096 254.577 190.929C254.577 190.539 254.521 190.039 254.466 189.371C254.354 188.036 254.299 186.033 254.187 183.641C253.964 178.801 253.797 172.07 253.686 164.671C253.519 157.272 253.463 150.541 253.408 145.646C253.408 143.253 253.408 141.251 253.408 139.86C253.408 139.192 253.408 138.692 253.408 138.302C253.408 138.135 253.408 138.024 253.408 137.913C253.408 137.802 253.408 137.802 253.408 137.802C253.408 137.802 253.408 137.857 253.408 137.913C253.408 138.024 253.408 138.135 253.408 138.302C253.408 138.692 253.408 139.192 253.463 139.86C253.463 141.251 253.519 143.198 253.575 145.646C253.686 150.541 253.797 157.217 253.909 164.671C254.076 172.07 254.187 178.801 254.354 183.641C254.41 186.033 254.466 188.036 254.521 189.371C254.521 190.039 254.577 190.539 254.577 190.929C254.577 191.096 254.577 191.207 254.577 191.318C254.633 191.374 254.633 191.43 254.633 191.43Z" fill="#263238"/>
<path d="M249.122 208.286C249.066 208.286 249.01 208.342 248.954 208.342C249.01 208.342 249.066 208.342 249.122 208.286Z" fill="#FFCBD1"/>
<path d="M269.164 178.412C271.336 176.298 273.451 174.128 273.897 173.35C274.955 171.625 273.229 170.401 272.059 169.9C270.89 169.344 255.189 182.807 255.189 182.807C255.189 182.807 268.329 171.124 269.164 170.346C269.999 169.567 270.501 168.51 269.721 166.34C268.942 164.226 266.38 165.005 265.49 165.172C264.543 165.283 249.677 177.8 249.677 177.8C249.677 177.8 258.307 169.455 259.087 168.788C259.866 168.12 260.145 166.952 259.866 165.339C259.588 163.725 257.862 163.892 256.693 163.892C255.523 163.892 236.816 180.47 236.816 180.47L237.707 189.26L234.533 202.667L249.288 208.341C251.793 207.284 256.581 201.054 257.528 199.83C258.474 198.606 263.764 189.594 263.764 189.594C265.879 188.425 268.942 183.641 270.166 182.306C271.336 180.971 270.946 180.303 270.278 179.246C269.944 178.69 266.436 181.472 263.318 184.142L264.042 183.53C263.931 183.419 266.603 180.971 269.164 178.412Z" fill="#FFCBD1"/>
<path d="M242.44 183.864C242.44 183.864 242.161 184.086 241.605 184.253C241.048 184.364 240.213 184.42 239.433 183.975C238.654 183.586 238.153 182.918 237.93 182.362C237.707 181.805 237.707 181.472 237.763 181.472C237.819 181.472 237.874 181.805 238.153 182.251C238.375 182.696 238.876 183.307 239.6 183.697C240.324 184.086 241.103 184.086 241.605 184.031C242.106 183.975 242.44 183.808 242.44 183.864Z" fill="#FF85AD"/>
<path d="M248.508 188.871C248.508 188.926 248.23 188.982 247.729 188.926C247.228 188.871 246.56 188.648 246.003 188.092C245.446 187.535 245.168 186.868 245.112 186.423C245.056 185.922 245.112 185.644 245.168 185.644C245.223 185.644 245.223 185.922 245.335 186.367C245.446 186.812 245.724 187.424 246.225 187.869C246.727 188.37 247.339 188.592 247.784 188.704C248.23 188.815 248.508 188.815 248.508 188.871Z" fill="#FF85AD"/>
<path d="M255.245 193.877C255.245 193.933 254.855 193.933 254.298 193.766C253.742 193.599 253.018 193.265 252.405 192.598C251.793 191.93 251.515 191.151 251.459 190.595C251.403 190.039 251.459 189.649 251.459 189.649C251.515 189.649 251.514 189.983 251.626 190.539C251.737 191.096 252.016 191.819 252.572 192.431C253.129 193.043 253.797 193.432 254.298 193.599C254.911 193.822 255.245 193.822 255.245 193.877Z" fill="#FF85AD"/>
<path d="M228.521 210.01C228.576 210.066 225.458 214.906 221.561 220.803C217.664 226.699 214.434 231.484 214.379 231.428C214.323 231.372 217.441 226.532 221.338 220.636C225.236 214.739 228.465 209.955 228.521 210.01Z" fill="#FF85AD"/>
<path d="M276.848 152.488L276.514 156.215L275.958 156.271L274.176 153.879L273.953 156.494L273.285 156.549L273.619 152.822L274.176 152.766L275.958 155.158L276.18 152.544L276.848 152.488Z" fill="#263238"/>
<path d="M277.405 154.602C277.238 153.378 278.073 152.321 279.409 152.154C280.523 152.043 281.247 152.599 281.358 153.545C281.525 154.769 280.69 155.826 279.354 155.993C278.24 156.104 277.516 155.492 277.405 154.602ZM280.634 153.601C280.579 152.989 280.133 152.655 279.409 152.711C278.463 152.822 278.017 153.601 278.073 154.435C278.129 155.047 278.574 155.381 279.298 155.325C280.244 155.27 280.746 154.491 280.634 153.601Z" fill="#263238"/>
<path d="M282.862 152.377L281.637 152.488L281.692 151.876L284.81 151.542L284.755 152.154L283.53 152.266L283.251 155.437L282.583 155.492L282.862 152.377Z" fill="#263238"/>
<path d="M285.924 152.043L285.868 152.989L287.65 152.766L287.594 153.323L285.813 153.545L285.701 154.602L287.761 154.38L287.706 154.936L284.978 155.27L285.312 151.542L287.984 151.264L287.928 151.821L285.924 152.043Z" fill="#263238"/>
<path d="M288.206 154.491L288.429 153.935C288.763 154.157 289.208 154.268 289.654 154.213C290.21 154.157 290.489 153.935 290.489 153.601C290.433 152.933 288.596 153.489 288.484 152.321C288.429 151.598 288.986 151.042 289.932 150.986C290.377 150.93 290.879 150.986 291.213 151.153L290.99 151.709C290.712 151.542 290.322 151.487 289.988 151.542C289.431 151.598 289.153 151.876 289.153 152.21C289.208 152.878 291.046 152.377 291.157 153.489C291.213 154.213 290.656 154.769 289.654 154.88C289.097 154.825 288.54 154.713 288.206 154.491Z" fill="#263238"/>
<path d="M294.163 156.104C294.163 156.16 288.985 156.994 282.527 157.94C276.068 158.886 270.89 159.553 270.89 159.498C270.89 159.442 276.068 158.607 282.527 157.662C288.929 156.716 294.163 155.993 294.163 156.104Z" fill="#263238"/>
<path d="M294.554 158.329C294.554 158.385 289.877 159.219 284.086 160.109C278.296 161 273.619 161.723 273.563 161.612C273.563 161.556 278.24 160.721 284.031 159.831C289.821 158.941 294.554 158.218 294.554 158.329Z" fill="#263238"/>
</svg>
