<svg width="459" height="284" viewBox="0 0 459 284" fill="none" xmlns="http://www.w3.org/2000/svg">
<path d="M398.338 194.7L288.697 198.359L289.793 239.014L399.434 235.354L398.338 194.7Z" fill="#E0A47C"/>
<path d="M384.248 208.689C384.248 208.761 365.86 209.483 343.213 210.276C320.567 211.069 302.178 211.574 302.178 211.43C302.178 211.357 320.567 210.636 343.213 209.843C365.924 209.122 384.248 208.617 384.248 208.689Z" fill="#E0E0E0"/>
<path d="M385.151 219.218C385.151 219.29 366.763 220.011 344.117 220.804C321.47 221.597 303.082 222.102 303.082 221.958C303.082 221.886 321.47 221.165 344.117 220.371C366.763 219.65 385.151 219.145 385.151 219.218Z" fill="#E0E0E0"/>
<path d="M320.567 191.455L363.086 190.085L361.085 192.464L364.247 194.844L360.956 197.079L364.376 199.748L319.857 201.19L322.309 198.305L320.696 195.637L322.889 193.979L320.567 191.455Z" fill="#5656B9"/>
<path d="M3.0332 117.541L10.8402 150.712L23.0991 152.01L45.2941 144.655L36.1967 107.301L3.0332 117.541Z" fill="#BD256C"/>
<path d="M13.9368 147.034L10.8398 150.784C10.8398 150.784 13.3561 152.515 15.937 152.803C18.5178 153.02 20.8405 152.803 23.0987 152.082C23.0987 152.01 17.55 152.01 13.9368 147.034Z" fill="#891F54"/>
<path d="M2.8389 126.05L15.1623 112.854L12.7105 109.969L0 123.021L2.8389 126.05Z" fill="#4A279F"/>
<path d="M44.132 113.935L28.6471 105.715L27.0986 109.392L42.5835 117.902L44.132 113.935Z" fill="#83B9CC"/>
<path d="M36.9704 120.353C36.9704 120.425 31.099 122.372 23.8082 124.608C16.5174 126.843 10.5815 128.574 10.5815 128.502C10.5815 128.43 16.4529 126.483 23.7437 124.247C30.97 122.012 36.9059 120.209 36.9704 120.353Z" fill="#E0E0E0"/>
<path d="M38.1315 125.69C38.1315 125.762 32.2602 127.709 24.9694 129.944C17.6786 132.18 11.7427 133.91 11.7427 133.838C11.7427 133.766 17.614 131.819 24.9048 129.584C32.1956 127.348 38.1315 125.617 38.1315 125.69Z" fill="#E0E0E0"/>
<path d="M39.4865 130.377C39.4865 130.449 33.6151 132.396 26.3243 134.631C19.0335 136.867 13.0977 138.597 13.0977 138.525C13.0977 138.453 18.969 136.506 26.2598 134.271C33.4861 132.035 39.422 130.305 39.4865 130.377Z" fill="#E0E0E0"/>
<path d="M40.5837 134.92C40.5837 134.992 34.7123 136.939 27.4215 139.174C20.1307 141.41 14.1948 143.14 14.1948 143.068C14.1948 142.996 20.0662 141.049 27.357 138.814C34.5833 136.578 40.5192 134.848 40.5837 134.92Z" fill="#E0E0E0"/>
<path d="M316.216 20.119L316.474 25.96C317.184 25.1668 318.216 24.662 319.313 24.5899C321.765 24.4456 323.894 26.609 324.023 29.3492C324.152 32.0894 322.281 34.4691 319.829 34.6133C318.733 34.6854 317.7 34.2527 316.862 33.6037L317.12 39.4447C317.829 38.6515 318.862 38.1467 319.958 38.0746C322.41 37.9304 324.539 40.0937 324.668 42.834C324.798 45.5742 322.926 47.9538 320.475 48.0981C319.378 48.1702 318.345 47.7375 317.507 47.0885L317.765 52.9295C318.475 52.1363 319.507 51.6315 320.604 51.5594C323.055 51.4152 325.185 53.5785 325.314 56.3187C325.443 59.0589 323.572 61.4386 321.12 61.5828C320.023 61.6549 318.991 61.2223 318.152 60.5733L318.41 66.4143C319.12 65.6211 320.152 65.1163 321.249 65.0442C323.701 64.8999 325.83 67.0633 325.959 69.8035C326.088 72.5437 324.217 74.9234 321.765 75.0676C320.668 75.1397 319.636 74.707 318.797 74.058L319.055 79.899C319.765 79.1058 320.797 78.601 321.894 78.5289C324.346 78.3847 326.475 80.548 326.604 83.2883C326.733 86.0285 324.862 88.4081 322.41 88.5524C321.313 88.6245 320.281 88.1918 319.442 87.5428L319.7 93.3838C320.475 92.5906 321.442 92.0858 322.539 92.0137C324.991 91.8695 327.12 94.0328 327.249 96.773C327.378 99.5132 325.507 101.893 323.055 102.037C321.959 102.109 320.926 101.677 320.088 101.028L320.281 104.633L459 96.3404L454.935 11.9704L316.216 20.119Z" fill="#B2B1F3"/>
<path d="M455.774 28.556C455.774 28.6281 424.739 30.5751 386.414 32.8826C348.089 35.1902 317.055 36.9209 317.055 36.8487C317.055 36.7766 348.089 34.8296 386.414 32.5221C424.675 30.2145 455.774 28.4839 455.774 28.556Z" fill="#E0E0E0"/>
<path d="M456.42 42.0407C456.42 42.1129 425.385 44.0599 387.06 46.3674C348.735 48.675 317.701 50.4056 317.701 50.3335C317.701 50.2614 348.735 48.3144 387.06 46.0068C425.321 43.6993 456.42 41.9686 456.42 42.0407Z" fill="#E0E0E0"/>
<path d="M457.064 55.5255C457.064 55.5976 426.03 57.5446 387.705 59.8522C349.38 62.1597 318.345 63.8904 318.345 63.8183C318.345 63.7462 349.38 61.7992 387.705 59.4916C425.965 57.2562 457.064 55.4534 457.064 55.5255Z" fill="#E0E0E0"/>
<path d="M457.71 69.0824C457.71 69.1545 426.675 71.1015 388.35 73.409C350.025 75.7166 318.991 77.4473 318.991 77.3752C318.991 77.303 350.025 75.356 388.35 73.0485C426.611 70.7409 457.71 68.9382 457.71 69.0824Z" fill="#E0E0E0"/>
<path d="M458.355 82.5671C458.355 82.6393 427.32 84.5863 388.995 86.8938C350.67 89.2014 319.636 90.932 319.636 90.8599C319.636 90.7878 350.67 88.8408 388.995 86.5333C427.256 84.2257 458.355 82.4229 458.355 82.5671Z" fill="#E0E0E0"/>
<path d="M335.686 19.0167L335.364 19.0358L339.439 103.43L339.761 103.411L335.686 19.0167Z" fill="#E8505B"/>
<path d="M352.154 102.614C352.089 102.614 351.057 83.7209 349.96 60.4291C348.863 37.1372 348.024 18.2441 348.089 18.2441C348.153 18.2441 349.186 37.1372 350.283 60.4291C351.379 83.7209 352.218 102.614 352.154 102.614Z" fill="#E0E0E0"/>
<path d="M327.443 104.128C327.379 104.128 326.346 85.2353 325.25 61.9434C324.153 38.6515 323.314 19.7584 323.378 19.7584C323.443 19.7584 324.475 38.6515 325.572 61.9434C326.734 85.2353 327.508 104.128 327.443 104.128Z" fill="#E0E0E0"/>
<path d="M365.639 101.821C365.574 101.821 364.542 82.9277 363.445 59.6358C362.348 36.344 361.509 17.4509 361.574 17.4509C361.638 17.4509 362.671 36.344 363.767 59.6358C364.929 82.9277 365.768 101.821 365.639 101.821Z" fill="#E0E0E0"/>
<path d="M379.188 101.028C379.123 101.028 378.091 82.1345 376.994 58.8426C375.897 35.5507 375.059 16.6576 375.123 16.6576C375.188 16.6576 376.22 35.5507 377.317 58.8426C378.478 82.1345 379.252 101.028 379.188 101.028Z" fill="#E0E0E0"/>
<path d="M392.738 100.234C392.673 100.234 391.641 81.3413 390.544 58.0494C389.447 34.7575 388.608 15.8644 388.673 15.8644C388.737 15.8644 389.77 34.7575 390.867 58.0494C391.963 81.2691 392.802 100.234 392.738 100.234Z" fill="#E0E0E0"/>
<path d="M406.223 99.369C406.158 99.369 405.126 80.4759 404.029 57.1841C402.932 33.8922 402.093 14.9991 402.158 14.9991C402.222 14.9991 403.255 33.8922 404.351 57.1841C405.513 80.4759 406.352 99.369 406.223 99.369Z" fill="#E0E0E0"/>
<path d="M419.772 98.5758C419.707 98.5758 418.675 79.6827 417.578 56.3908C416.481 33.099 415.643 14.2059 415.707 14.2059C415.772 14.2059 416.804 33.099 417.901 56.3908C418.998 79.6827 419.836 98.5758 419.772 98.5758Z" fill="#E0E0E0"/>
<path d="M433.321 97.7826C433.257 97.7826 432.224 78.8895 431.128 55.5976C430.031 32.3057 429.192 13.4127 429.256 13.4127C429.321 13.4127 430.353 32.3057 431.45 55.5976C432.547 78.8895 433.386 97.7826 433.321 97.7826Z" fill="#E0E0E0"/>
<path d="M446.806 96.9894C446.741 96.9894 445.709 78.0963 444.612 54.8044C443.515 31.5125 442.676 12.6194 442.741 12.6194C442.805 12.6194 443.838 31.5125 444.934 54.8044C446.096 78.0963 446.935 96.9894 446.806 96.9894Z" fill="#E0E0E0"/>
<path d="M331.444 28.9886C331.637 32.8826 334.605 35.8392 338.089 35.6229C341.573 35.4065 344.219 32.0894 344.025 28.1954C343.831 24.3014 340.864 21.3449 337.379 21.5612C333.895 21.7775 331.25 25.0947 331.444 28.9886Z" fill="#4A279F"/>
<path d="M327.83 26.3926C327.96 28.7002 329.702 30.503 331.831 30.3588C333.895 30.2145 335.508 28.2675 335.379 25.8879C335.25 23.5803 333.508 21.7775 331.379 21.9218C329.314 22.066 327.701 24.013 327.83 26.3926Z" fill="#4A279F"/>
<path d="M331.314 30.2866C331.314 30.2145 331.895 30.3588 332.734 30.1424C333.573 29.9261 334.67 29.0608 335.121 27.6906C335.573 26.2484 335.186 24.8783 334.734 24.013C334.282 23.1477 333.766 22.8592 333.766 22.7871C333.766 22.7871 333.895 22.8592 334.153 23.0034C334.347 23.1477 334.67 23.4361 334.928 23.8688C335.444 24.662 335.96 26.2484 335.444 27.7628C335.186 28.556 334.734 29.1329 334.282 29.5655C333.766 29.9982 333.25 30.2145 332.798 30.3588C332.347 30.4309 331.96 30.4309 331.702 30.4309C331.443 30.3588 331.314 30.2866 331.314 30.2866Z" fill="#4A279F"/>
<path d="M334.541 23.5803C334.541 23.5082 335.573 24.013 336.734 23.7245C337.96 23.4361 338.605 22.4265 338.67 22.4987C338.734 22.4987 338.605 22.7871 338.283 23.1477C337.96 23.5082 337.444 23.8688 336.799 24.0851C336.154 24.2293 335.508 24.1572 335.121 24.013C334.734 23.7967 334.476 23.5803 334.541 23.5803Z" fill="#263238"/>
<path d="M335.508 34.2527C335.444 34.2527 335.379 33.8922 335.25 33.3874C335.057 32.8826 334.734 32.2336 334.218 31.6568C333.702 31.0799 333.056 30.7914 332.605 30.5751C332.153 30.4309 331.831 30.3588 331.831 30.2866C331.831 30.2145 332.153 30.2145 332.669 30.2866C333.185 30.3588 333.895 30.7193 334.476 31.2962C335.057 31.9452 335.379 32.6663 335.508 33.2432C335.573 33.8922 335.508 34.2527 335.508 34.2527Z" fill="#263238"/>
<path d="M450.612 22.1381C450.806 25.8879 448.225 29.1329 444.87 29.2771C441.515 29.4934 438.611 26.609 438.482 22.8592C438.289 19.1094 440.87 15.8644 444.225 15.7202C447.515 15.5039 450.419 18.3883 450.612 22.1381Z" fill="#83B9CC"/>
<path d="M450.161 23.5082C452.192 23.5082 453.838 21.6679 453.838 19.3979C453.838 17.1278 452.192 15.2875 450.161 15.2875C448.129 15.2875 446.483 17.1278 446.483 19.3979C446.483 21.6679 448.129 23.5082 450.161 23.5082Z" fill="#83B9CC"/>
<path d="M450.806 23.364C450.806 23.364 450.677 23.4361 450.419 23.5082C450.161 23.5803 449.838 23.6524 449.386 23.5803C448.935 23.5082 448.419 23.364 447.902 23.0034C447.386 22.6429 446.87 22.1381 446.612 21.417C446.031 19.9748 446.289 18.4604 446.741 17.5951C447.193 16.7298 447.709 16.4413 447.709 16.4413C447.773 16.5134 447.322 16.874 446.935 17.7393C446.548 18.6047 446.354 19.9748 446.87 21.2728C447.451 22.5708 448.612 23.2198 449.386 23.364C450.29 23.5082 450.806 23.2919 450.806 23.364Z" fill="#263238"/>
<path d="M447.128 17.2345C447.128 17.3067 446.999 17.4509 446.612 17.6672C446.225 17.8835 445.644 18.0278 444.999 17.9557C444.354 17.8835 443.838 17.523 443.515 17.2345C443.193 16.9461 443.063 16.6577 443.063 16.6577C443.128 16.5855 443.838 17.4509 445.064 17.5951C446.225 17.8114 447.128 17.1624 447.128 17.2345Z" fill="#263238"/>
<path d="M447.193 27.6907C447.128 27.6907 447.064 27.3301 447.128 26.7532C447.193 26.1763 447.451 25.4552 447.967 24.7341C448.483 24.0851 449.128 23.6524 449.58 23.5082C450.096 23.364 450.354 23.364 450.354 23.4361C450.354 23.5082 450.096 23.5803 449.645 23.7967C449.193 24.013 448.612 24.3735 448.161 25.0225C447.709 25.5994 447.451 26.3205 447.322 26.8253C447.257 27.3301 447.257 27.6907 447.193 27.6907Z" fill="#263238"/>
<path d="M116.993 4.543L102.992 82.8556L127.445 99.5132L180.61 109.537L195.708 21.1285L116.993 4.543Z" fill="#F3C886"/>
<path d="M112.863 78.601C109.057 81.4855 104.863 85.091 102.992 82.8556C102.992 82.8556 106.605 89.3456 111.831 92.8069C117.057 96.2682 122.09 98.5037 127.445 99.5132C127.445 99.5132 115.831 93.1675 112.863 78.601Z" fill="#E0A47C"/>
<path d="M109.056 21.417L145.252 8.5091L142.865 0L106.088 12.2589L109.056 21.417Z" fill="#BD256C"/>
<path d="M202.16 42.185L178.416 9.01388L172.158 14.5664L195.579 48.5307L202.16 42.185Z" fill="#BD256C"/>
<path d="M182.223 47.2327C182.223 47.3049 168.803 44.5646 152.285 41.1033C135.768 37.642 122.348 34.7575 122.412 34.6133C122.412 34.5412 135.833 37.2814 152.35 40.7427C168.867 44.2041 182.287 47.1606 182.223 47.2327Z" fill="#263238"/>
<path d="M179.965 59.2753C179.965 59.3474 166.545 56.6072 150.027 53.1458C133.51 49.6845 120.09 46.8001 120.155 46.6558C120.155 46.5837 133.575 49.3239 150.092 52.7853C166.545 56.2466 179.965 59.1311 179.965 59.2753Z" fill="#263238"/>
<path d="M178.481 70.0198C178.481 70.0919 165.06 67.3517 148.543 63.8904C132.026 60.429 118.606 57.5446 118.67 57.4004C118.67 57.3283 132.09 60.0685 148.608 63.5298C165.125 66.9912 178.481 69.8756 178.481 70.0198Z" fill="#263238"/>
<path d="M176.673 80.3317C176.673 80.4038 163.253 77.6636 146.736 74.2023C130.219 70.7409 116.799 67.8565 116.863 67.7123C116.863 67.6402 130.283 70.3804 146.8 73.8417C163.318 77.303 176.673 80.1875 176.673 80.3317Z" fill="#263238"/>
<path d="M338.872 124.537L335.831 164.92L444.689 174.985L447.731 134.602L338.872 124.537Z" fill="#83B9CC"/>
<path d="M432.482 146.818C432.482 146.89 414.223 145.304 391.705 143.213C369.187 141.121 350.993 139.319 350.993 139.246C350.993 139.174 369.252 140.761 391.77 142.852C414.223 144.943 432.482 146.674 432.482 146.818Z" fill="#263238"/>
<path d="M432.224 157.346C432.224 157.418 413.965 155.832 391.447 153.741C368.93 151.65 350.735 149.847 350.735 149.775C350.735 149.703 368.994 151.289 391.512 153.38C414.029 155.471 432.224 157.274 432.224 157.346Z" fill="#263238"/>
<path d="M371.187 121.723L413.384 125.69L411.125 127.781L414.029 130.593L410.609 132.396L413.642 135.425L369.445 131.314L372.22 128.718L370.8 125.906L373.188 124.536L371.187 121.723Z" fill="white"/>
<path d="M231.104 131.17C231.555 131.963 231.813 132.901 231.813 133.982C231.813 137.011 229.62 139.463 226.91 139.463C224.2 139.463 222.006 137.011 222.006 133.982C222.006 132.973 222.264 132.035 222.716 131.17H216.974C217.425 131.963 217.683 132.901 217.683 133.982C217.683 137.011 215.49 139.463 212.78 139.463C210.07 139.463 207.876 137.011 207.876 133.982C207.876 132.973 208.134 132.035 208.586 131.17H202.908C203.36 131.963 203.618 132.901 203.618 133.982C203.618 137.011 201.424 139.463 198.714 139.463C196.005 139.463 193.811 137.011 193.811 133.982C193.811 132.973 194.069 132.035 194.521 131.17H188.843C189.294 131.963 189.552 132.901 189.552 133.982C189.552 137.011 187.359 139.463 184.649 139.463C181.939 139.463 179.745 137.011 179.745 133.982C179.745 132.973 180.003 132.035 180.455 131.17H174.777C175.229 131.963 175.487 132.901 175.487 133.982C175.487 137.011 173.293 139.463 170.583 139.463C167.874 139.463 165.68 137.011 165.68 133.982C165.68 132.973 165.938 132.035 166.39 131.17H160.712C161.164 131.963 161.422 132.901 161.422 133.982C161.422 137.011 159.228 139.463 156.518 139.463C153.808 139.463 151.614 137.011 151.614 133.982C151.614 132.973 151.873 132.035 152.324 131.17H148.582V244.384H232.975V131.17H231.104V131.17Z" fill="white"/>
<path d="M143.422 249.576C143.357 249.576 143.035 222.174 142.712 188.282C142.39 154.462 142.196 126.988 142.325 126.988C142.39 126.988 142.712 154.39 143.035 188.282C143.357 222.174 143.551 249.576 143.422 249.576Z" fill="#E0E0E0"/>
<path d="M156.971 249.432C156.906 249.432 156.584 222.03 156.261 188.138C155.938 154.318 155.745 126.843 155.874 126.843C155.938 126.843 156.261 154.246 156.584 188.138C156.906 222.03 157.1 249.432 156.971 249.432Z" fill="#E0E0E0"/>
<path d="M163.681 249.432C163.617 249.432 163.294 222.03 162.971 188.138C162.649 154.318 162.455 126.843 162.584 126.843C162.649 126.843 162.971 154.246 163.294 188.138C163.617 222.03 163.81 249.432 163.681 249.432Z" fill="#E0E0E0"/>
<path d="M177.423 249.432C177.358 249.432 177.036 222.03 176.713 188.138C176.391 154.318 176.197 126.843 176.326 126.843C176.391 126.843 176.713 154.246 177.036 188.138C177.294 222.03 177.487 249.432 177.423 249.432Z" fill="#E0E0E0"/>
<path d="M191.102 249.432C191.038 249.432 190.715 222.03 190.392 188.138C190.07 154.318 189.876 126.843 190.005 126.843C190.07 126.843 190.392 154.246 190.715 188.138C190.973 222.03 191.167 249.432 191.102 249.432Z" fill="#E0E0E0"/>
<path d="M204.78 249.432C204.715 249.432 204.393 222.03 204.07 188.138C203.748 154.318 203.554 126.843 203.683 126.843C203.748 126.843 204.07 154.246 204.393 188.138C204.715 222.03 204.844 249.432 204.78 249.432Z" fill="#E0E0E0"/>
<path d="M217.748 249.432C217.684 249.432 217.361 222.03 217.038 188.138C216.716 154.318 216.522 126.843 216.651 126.843C216.716 126.843 217.038 154.246 217.361 188.138C217.684 222.03 217.877 249.432 217.748 249.432Z" fill="#E0E0E0"/>
<path d="M230.717 249.432C230.653 249.432 230.33 222.03 230.008 188.138C229.685 154.318 229.491 126.843 229.62 126.843C229.685 126.843 230.008 154.246 230.33 188.138C230.653 222.03 230.846 249.432 230.717 249.432Z" fill="#E0E0E0"/>
<path d="M170.52 249.288C170.456 249.288 170.133 221.886 169.81 187.994C169.488 154.173 169.294 126.699 169.423 126.699C169.488 126.699 169.81 154.101 170.133 187.994C170.456 221.814 170.649 249.288 170.52 249.288Z" fill="#E0E0E0"/>
<path d="M184.069 249.144C184.004 249.144 183.682 221.741 183.359 187.849C183.037 154.029 182.843 126.555 182.972 126.555C183.037 126.555 183.359 153.957 183.682 187.849C184.004 221.669 184.133 249.144 184.069 249.144Z" fill="#E0E0E0"/>
<path d="M197.618 248.999C197.554 248.999 197.231 221.597 196.908 187.705C196.586 153.885 196.392 126.411 196.521 126.411C196.586 126.411 196.908 153.813 197.231 187.705C197.554 221.525 197.683 248.999 197.618 248.999Z" fill="#E0E0E0"/>
<path d="M211.167 248.855C211.103 248.855 210.78 221.453 210.457 187.561C210.135 153.741 209.941 126.266 210.07 126.266C210.135 126.266 210.457 153.669 210.78 187.561C211.103 221.381 211.232 248.855 211.167 248.855Z" fill="#E0E0E0"/>
<path d="M224.136 249.576C224.071 249.576 223.749 222.174 223.426 188.282C223.103 154.462 222.91 126.988 223.039 126.988C223.103 126.988 223.426 154.39 223.749 188.282C224.071 222.174 224.265 249.576 224.136 249.576Z" fill="#E0E0E0"/>
<path d="M238.266 248.495C238.202 248.495 237.879 221.092 237.556 187.2C237.234 153.38 237.04 125.906 237.169 125.906C237.234 125.906 237.556 153.308 237.879 187.2C238.137 221.092 238.331 248.495 238.266 248.495Z" fill="#E0E0E0"/>
<path d="M252.783 234.145C252.783 234.217 228.266 234.577 197.941 234.938C167.681 235.298 143.099 235.443 143.099 235.37C143.099 235.298 167.616 234.938 197.941 234.577C228.201 234.217 252.783 234.072 252.783 234.145Z" fill="#E0E0E0"/>
<path d="M253.364 241.86C253.364 241.933 228.847 242.293 198.522 242.654C168.262 243.014 143.68 243.158 143.68 243.086C143.68 243.014 168.197 242.654 198.522 242.293C228.782 242.005 253.364 241.788 253.364 241.86Z" fill="#E0E0E0"/>
<path d="M252.654 219.001C252.654 219.073 228.137 219.434 197.812 219.794C167.552 220.155 142.97 220.299 142.97 220.227C142.97 220.155 167.487 219.794 197.812 219.434C228.072 219.073 252.654 218.929 252.654 219.001Z" fill="#E0E0E0"/>
<path d="M252.525 203.858C252.525 203.93 228.007 204.291 197.682 204.651C167.422 205.012 142.84 205.156 142.84 205.084C142.84 205.012 167.358 204.651 197.682 204.291C227.942 203.93 252.525 203.786 252.525 203.858Z" fill="#E0E0E0"/>
<path d="M252.396 188.715C252.396 188.787 227.878 189.147 197.554 189.508C167.294 189.868 142.711 190.013 142.711 189.941C142.711 189.868 167.229 189.508 197.554 189.147C227.814 188.859 252.396 188.643 252.396 188.715Z" fill="#E0E0E0"/>
<path d="M252.267 173.571C252.267 173.643 227.749 174.004 197.425 174.365C167.165 174.725 142.583 174.869 142.583 174.797C142.583 174.725 167.1 174.365 197.425 174.004C227.685 173.716 252.267 173.499 252.267 173.571Z" fill="#E0E0E0"/>
<path d="M252.073 158.428C252.073 158.5 227.556 158.861 197.231 159.221C166.971 159.582 142.389 159.726 142.389 159.654C142.389 159.582 166.906 159.221 197.231 158.861C227.556 158.572 252.073 158.356 252.073 158.428Z" fill="#E0E0E0"/>
<path d="M251.944 143.357C251.944 143.429 227.427 143.789 197.102 144.15C166.842 144.511 142.26 144.655 142.26 144.583C142.26 144.511 166.778 144.15 197.102 143.789C227.427 143.429 251.944 143.213 251.944 143.357Z" fill="#E0E0E0"/>
<path d="M251.944 137.227C251.944 137.299 227.427 137.66 197.102 138.021C166.842 138.381 142.26 138.525 142.26 138.453C142.26 138.381 166.778 138.021 197.102 137.66C227.427 137.372 251.944 137.155 251.944 137.227Z" fill="#E0E0E0"/>
<path d="M251.944 151.073C251.944 151.145 227.427 151.505 197.102 151.866C166.842 152.226 142.26 152.371 142.26 152.299C142.26 152.226 166.778 151.866 197.102 151.505C227.427 151.145 251.944 150.928 251.944 151.073Z" fill="#E0E0E0"/>
<path d="M251.944 166.072C251.944 166.144 227.427 166.504 197.102 166.865C166.842 167.226 142.26 167.37 142.26 167.298C142.26 167.226 166.778 166.865 197.102 166.504C227.427 166.144 251.944 166 251.944 166.072Z" fill="#E0E0E0"/>
<path d="M251.944 181.071C251.944 181.143 227.427 181.504 197.102 181.864C166.842 182.225 142.26 182.369 142.26 182.297C142.26 182.225 166.778 181.864 197.102 181.504C227.427 181.215 251.944 180.999 251.944 181.071Z" fill="#E0E0E0"/>
<path d="M251.944 196.142C251.944 196.214 227.427 196.575 197.102 196.935C166.842 197.296 142.26 197.44 142.26 197.368C142.26 197.296 166.778 196.935 197.102 196.575C227.427 196.214 251.944 195.998 251.944 196.142Z" fill="#E0E0E0"/>
<path d="M251.944 211.141C251.944 211.213 227.427 211.574 197.102 211.934C166.842 212.295 142.26 212.439 142.26 212.367C142.26 212.295 166.778 211.934 197.102 211.574C227.427 211.213 251.944 210.997 251.944 211.141Z" fill="#E0E0E0"/>
<path d="M251.944 226.14C251.944 226.212 227.427 226.573 197.102 226.934C166.842 227.294 142.26 227.438 142.26 227.366C142.26 227.294 166.778 226.934 197.102 226.573C227.427 226.212 251.944 226.068 251.944 226.14Z" fill="#E0E0E0"/>
<path d="M184.843 147.539C185.037 151.433 188.005 154.39 191.489 154.173C194.973 153.957 197.619 150.64 197.425 146.746C197.231 142.852 194.263 139.895 190.779 140.112C187.295 140.328 184.65 143.645 184.843 147.539Z" fill="#BD256C"/>
<path d="M181.23 144.943C181.359 147.251 183.101 149.054 185.231 148.909C187.295 148.765 188.908 146.818 188.779 144.438C188.65 142.131 186.908 140.328 184.779 140.472C182.714 140.617 181.101 142.636 181.23 144.943Z" fill="#BD256C"/>
<path d="M184.714 148.837C184.714 148.765 185.295 148.909 186.134 148.693C186.973 148.477 188.069 147.611 188.521 146.241C188.973 144.799 188.586 143.429 188.134 142.564C187.682 141.698 187.166 141.41 187.166 141.338C187.166 141.338 187.295 141.41 187.553 141.554C187.747 141.698 188.069 141.987 188.328 142.419C188.844 143.213 189.36 144.799 188.844 146.313C188.586 147.107 188.134 147.683 187.682 148.116C187.166 148.549 186.65 148.765 186.198 148.909C185.747 148.981 185.36 148.981 185.101 148.981C184.843 148.909 184.714 148.909 184.714 148.837Z" fill="#263238"/>
<path d="M187.876 142.131C187.876 142.059 188.908 142.564 190.07 142.275C191.296 141.987 191.941 140.977 192.005 141.049C192.07 141.049 191.941 141.338 191.618 141.698C191.296 142.059 190.779 142.419 190.134 142.636C189.489 142.78 188.844 142.708 188.457 142.564C188.07 142.347 187.876 142.131 187.876 142.131Z" fill="#263238"/>
<path d="M188.844 152.875C188.779 152.875 188.715 152.515 188.586 152.01C188.392 151.505 188.069 150.856 187.553 150.279C187.037 149.703 186.392 149.414 185.94 149.198C185.489 149.054 185.166 148.981 185.166 148.909C185.166 148.837 185.489 148.837 186.005 148.909C186.521 148.981 187.231 149.342 187.811 149.919C188.392 150.568 188.715 151.289 188.844 151.866C188.973 152.443 188.908 152.803 188.844 152.875Z" fill="#263238"/>
<path d="M223.49 171.624C223.49 171.696 210.006 171.841 193.424 171.841C176.842 171.841 163.357 171.769 163.357 171.624C163.357 171.48 176.842 171.408 193.424 171.408C210.07 171.408 223.49 171.48 223.49 171.624Z" fill="#263238"/>
<path d="M223.49 178.619C223.49 178.691 210.006 178.835 193.424 178.835C176.842 178.835 163.357 178.763 163.357 178.619C163.357 178.547 176.842 178.403 193.424 178.403C210.07 178.403 223.49 178.475 223.49 178.619Z" fill="#263238"/>
<path d="M223.49 185.614C223.49 185.686 210.006 185.83 193.424 185.83C176.842 185.83 163.357 185.758 163.357 185.614C163.357 185.47 176.842 185.398 193.424 185.398C210.07 185.398 223.49 185.47 223.49 185.614Z" fill="#263238"/>
<path d="M223.49 192.609C223.49 192.681 210.006 192.825 193.424 192.825C176.842 192.825 163.357 192.753 163.357 192.609C163.357 192.537 176.842 192.392 193.424 192.392C210.07 192.392 223.49 192.464 223.49 192.609Z" fill="#263238"/>
<path d="M223.49 199.531C223.49 199.603 210.006 199.748 193.424 199.748C176.842 199.748 163.357 199.676 163.357 199.531C163.357 199.387 176.842 199.315 193.424 199.315C210.07 199.387 223.49 199.459 223.49 199.531Z" fill="#263238"/>
<path d="M223.49 206.526C223.49 206.598 210.006 206.742 193.424 206.742C176.842 206.742 163.357 206.67 163.357 206.526C163.357 206.454 176.842 206.31 193.424 206.31C210.07 206.382 223.49 206.454 223.49 206.526Z" fill="#263238"/>
<path d="M223.49 213.521C223.49 213.593 210.006 213.737 193.424 213.737C176.842 213.737 163.357 213.665 163.357 213.521C163.357 213.377 176.842 213.304 193.424 213.304C210.07 213.377 223.49 213.449 223.49 213.521Z" fill="#263238"/>
<path d="M279.932 283.252C295.482 277.483 284.836 254.48 284.836 254.48L216.767 261.619C211.282 261.547 206.831 266.522 206.831 272.652C206.831 278.709 211.218 283.685 216.702 283.685L279.932 283.252Z" fill="#E0206E"/>
<path d="M295.869 283.252C311.031 277.555 300.579 254.48 300.579 254.48L234.187 261.475C227.735 261.547 224.509 265.08 224.509 272.436C224.509 278.493 226.509 283.613 234.123 283.469L295.869 283.252Z" fill="#E0206E"/>
<path d="M280.448 258.374C280.448 258.374 280.384 258.374 280.255 258.374C280.126 258.374 279.932 258.374 279.674 258.374C279.158 258.374 278.448 258.446 277.545 258.446C275.674 258.518 273.029 258.662 269.738 258.879C263.157 259.311 254.06 259.816 243.994 260.465C242.769 260.537 241.478 260.681 240.252 260.681C239.026 260.681 237.8 260.754 236.639 260.826C235.478 260.898 234.316 260.97 233.155 261.114C231.994 261.258 230.897 261.403 229.864 261.907C228.832 262.34 227.864 262.989 227.09 263.854C226.316 264.72 225.8 265.801 225.413 266.883C225.025 267.965 224.832 269.046 224.703 270.128C224.574 271.21 224.509 272.219 224.509 273.229C224.509 275.176 224.832 276.979 225.413 278.421C225.993 279.863 226.767 280.873 227.477 281.594C228.187 282.243 228.897 282.603 229.348 282.747C229.8 282.892 229.8 282.892 229.348 282.675C228.897 282.459 228.251 282.098 227.542 281.449C226.832 280.8 226.122 279.719 225.542 278.349C225.025 276.979 224.703 275.176 224.703 273.301C224.703 272.363 224.767 271.354 224.896 270.272C225.025 269.263 225.219 268.181 225.606 267.099C225.929 266.018 226.509 265.08 227.219 264.215C227.929 263.422 228.897 262.773 229.864 262.34C230.897 261.907 231.994 261.763 233.09 261.619C234.252 261.475 235.413 261.403 236.575 261.33C237.736 261.258 238.962 261.186 240.188 261.186C241.414 261.186 242.64 261.042 243.93 260.97C253.995 260.321 263.092 259.744 269.674 259.239C272.964 259.023 275.609 258.807 277.481 258.662C278.384 258.59 279.094 258.518 279.61 258.518C279.868 258.518 279.997 258.446 280.19 258.446C280.384 258.374 280.448 258.374 280.448 258.374Z" fill="#7F1C4E"/>
<path d="M295.417 265.585C295.417 265.585 295.224 265.729 294.901 265.873C294.514 266.018 293.998 266.162 293.288 266.234C291.933 266.378 289.869 265.873 288.32 264.143C286.772 262.412 286.449 260.032 286.578 258.518C286.642 257.725 286.772 257.148 286.965 256.715C287.094 256.283 287.223 256.138 287.223 256.138C287.288 256.138 286.901 257.004 286.836 258.518C286.772 259.96 287.159 262.196 288.578 263.854C289.998 265.513 291.998 266.018 293.288 265.946C294.643 265.946 295.417 265.513 295.417 265.585Z" fill="#7F1C4E"/>
<path d="M275.416 191.96C266.964 193.041 265.609 199.459 261.673 205.733L255.995 217.487L266.447 224.698L266.06 242.726L261.802 258.662L301.224 256.138L296.837 240.995L302.063 217.847C302.45 214.675 303.547 208.834 302.837 205.733C300.514 195.998 291.546 193.185 285.287 191.383C283.997 191.022 277.803 191.022 276.771 191.311" fill="#83B9CC"/>
<path d="M270.963 241.284C270.963 241.284 271.544 241.139 272.383 241.644C272.77 241.933 273.221 242.365 273.48 243.014C273.738 243.663 273.802 244.456 273.609 245.25C273.415 246.043 272.963 246.692 272.383 247.052C271.802 247.413 271.221 247.485 270.77 247.485C269.802 247.413 269.35 246.908 269.415 246.908C269.415 246.836 269.931 247.269 270.77 247.269C271.221 247.269 271.737 247.125 272.189 246.836C272.641 246.476 273.092 245.899 273.221 245.25C273.415 244.529 273.35 243.807 273.092 243.231C272.834 242.654 272.447 242.221 272.125 242.005C271.544 241.356 270.963 241.356 270.963 241.284Z" fill="#FAFAFA"/>
<path d="M280.383 221.814C280.383 221.886 284.383 223.472 289.416 225.275C294.448 227.15 298.513 228.592 298.513 228.52C298.513 228.448 294.513 226.861 289.48 225.059C284.448 223.184 280.383 221.741 280.383 221.814Z" fill="#263238"/>
<g opacity="0.3">
<g opacity="0.3">
<g opacity="0.3">
<path opacity="0.3" d="M296.578 231.476C295.869 234.794 294.836 239.625 293.675 242.798C292.836 245.105 291.933 247.413 290.513 249.288C288.578 251.884 285.803 253.615 282.9 254.48C279.997 255.345 276.9 255.345 273.867 254.985L288.836 245.538L292.836 230.034L296.578 231.476Z" fill="black"/>
</g>
</g>
</g>
<path d="M266.125 242.221C266.125 242.221 266.189 241.788 266.254 240.923C266.318 240.058 266.318 238.832 266.383 237.462C266.512 234.505 266.641 230.467 266.77 225.924C266.899 221.453 266.963 217.343 267.028 214.386C267.028 212.944 267.028 211.79 267.092 210.853C267.092 210.059 267.092 209.555 267.028 209.555C267.028 209.555 266.963 209.987 266.899 210.853C266.834 211.718 266.834 212.944 266.77 214.314C266.641 217.271 266.512 221.309 266.383 225.852C266.254 230.323 266.189 234.433 266.125 237.39C266.125 238.832 266.125 239.986 266.06 240.923C266.06 241.716 266.06 242.221 266.125 242.221Z" fill="#263238"/>
<path d="M257.544 214.386C257.479 214.458 259.479 215.9 261.995 217.559C264.512 219.218 266.576 220.443 266.576 220.371C266.641 220.299 264.641 218.857 262.124 217.198C259.673 215.54 257.608 214.242 257.544 214.386Z" fill="#263238"/>
<path d="M277.222 207.031C277.222 207.031 276.899 207.68 275.996 207.968C275.545 208.112 274.964 208.185 274.383 207.968C273.802 207.752 273.222 207.247 272.835 206.526C272.448 205.805 272.383 205.012 272.512 204.291C272.641 203.569 272.964 203.065 273.351 202.704C274.061 201.983 274.706 201.983 274.706 201.983C274.706 202.055 274.125 202.127 273.544 202.848C273.222 203.209 272.964 203.714 272.835 204.291C272.706 204.867 272.835 205.589 273.157 206.238C273.48 206.887 273.996 207.319 274.512 207.536C275.028 207.752 275.545 207.752 275.996 207.608C276.835 207.463 277.222 206.959 277.222 207.031Z" fill="#FAFAFA"/>
<path d="M268.964 219.434C268.964 219.434 268.577 218.929 268.641 217.847C268.706 217.343 268.835 216.694 269.222 216.117C269.609 215.54 270.254 215.107 270.964 215.035C271.673 214.891 272.383 215.107 272.964 215.468C273.48 215.9 273.803 216.405 273.996 216.91C274.319 217.92 274.125 218.569 274.125 218.569C274.061 218.569 274.19 217.92 273.803 217.054C273.609 216.622 273.287 216.117 272.835 215.828C272.383 215.468 271.738 215.324 271.093 215.468C270.448 215.612 269.867 215.973 269.544 216.405C269.157 216.91 269.028 217.487 268.964 217.92C268.706 218.857 268.964 219.434 268.964 219.434Z" fill="#FAFAFA"/>
<path d="M268.964 235.37C268.964 235.37 268.577 234.866 268.641 233.784C268.706 233.279 268.835 232.63 269.222 232.053C269.609 231.476 270.254 231.044 270.964 230.972C271.673 230.827 272.383 231.044 272.964 231.404C273.48 231.765 273.803 232.342 273.996 232.847C274.319 233.856 274.125 234.505 274.125 234.505C274.061 234.505 274.19 233.856 273.803 232.991C273.609 232.558 273.287 232.053 272.835 231.765C272.383 231.404 271.738 231.26 271.093 231.404C270.448 231.549 269.867 231.909 269.544 232.342C269.157 232.847 269.028 233.423 268.964 233.856C268.706 234.794 268.964 235.37 268.964 235.37Z" fill="#FAFAFA"/>
<path d="M281.416 215.54C281.416 215.54 280.771 215.612 280.061 214.963C279.674 214.602 279.352 214.098 279.158 213.449C278.965 212.8 279.029 211.934 279.352 211.213C279.674 210.492 280.191 209.915 280.771 209.627C281.352 209.338 281.933 209.338 282.384 209.483C283.288 209.699 283.675 210.276 283.675 210.276C283.61 210.348 283.223 209.843 282.384 209.699C281.933 209.627 281.416 209.627 280.9 209.915C280.384 210.132 279.932 210.636 279.61 211.285C279.352 211.934 279.287 212.655 279.416 213.304C279.545 213.881 279.868 214.386 280.191 214.675C280.836 215.396 281.416 215.468 281.416 215.54Z" fill="#FAFAFA"/>
<path d="M276.319 221.886C276.319 221.886 276.9 222.174 277.222 223.184C277.351 223.688 277.416 224.337 277.287 224.986C277.158 225.708 276.706 226.357 276.061 226.789C275.416 227.222 274.706 227.366 274.061 227.222C273.416 227.078 272.964 226.717 272.641 226.357C271.996 225.563 271.932 224.842 271.996 224.914C272.061 224.914 272.19 225.563 272.835 226.212C273.158 226.501 273.609 226.861 274.19 226.933C274.771 227.078 275.351 226.933 275.932 226.501C276.513 226.14 276.9 225.563 277.029 224.914C277.222 224.337 277.158 223.688 277.029 223.256C276.771 222.39 276.319 221.958 276.319 221.886Z" fill="#FAFAFA"/>
<path d="M266.06 200.324C266.06 200.324 266.641 200.18 267.48 200.685C267.867 200.973 268.319 201.406 268.577 202.055C268.835 202.704 268.899 203.497 268.706 204.291C268.512 205.084 268.061 205.733 267.48 206.093C266.899 206.454 266.318 206.526 265.867 206.526C264.899 206.454 264.447 205.949 264.512 205.949C264.512 205.877 265.028 206.31 265.867 206.31C266.318 206.31 266.835 206.165 267.286 205.877C267.738 205.516 268.19 204.94 268.319 204.291C268.512 203.569 268.448 202.848 268.19 202.271C267.931 201.695 267.544 201.262 267.222 201.046C266.706 200.324 266.06 200.397 266.06 200.324Z" fill="#FAFAFA"/>
<path d="M283.868 219.434C283.868 219.434 283.481 218.857 283.674 217.775C283.739 217.271 283.997 216.622 284.449 216.117C284.9 215.612 285.545 215.251 286.32 215.179C287.029 215.107 287.739 215.396 288.255 215.828C288.771 216.261 289.03 216.838 289.159 217.343C289.417 218.352 289.159 219.001 289.094 219.001C289.03 219.001 289.223 218.352 288.9 217.415C288.771 216.982 288.449 216.477 288.062 216.045C287.61 215.684 287.029 215.468 286.384 215.468C285.739 215.54 285.158 215.828 284.771 216.261C284.384 216.694 284.126 217.271 284.061 217.703C283.674 218.785 283.932 219.434 283.868 219.434Z" fill="#FAFAFA"/>
<path d="M277.48 231.116C277.48 231.116 278.061 230.972 278.899 231.476C279.286 231.765 279.738 232.198 279.996 232.847C280.254 233.496 280.319 234.289 280.125 235.082C279.932 235.875 279.48 236.524 278.899 236.885C278.319 237.245 277.738 237.317 277.286 237.317C276.318 237.245 275.867 236.741 275.931 236.741C275.931 236.668 276.448 237.101 277.286 237.101C277.738 237.101 278.254 236.957 278.706 236.668C279.157 236.308 279.609 235.731 279.738 235.082C279.932 234.361 279.867 233.64 279.609 233.063C279.351 232.486 278.964 232.053 278.641 231.837C278.061 231.116 277.48 231.188 277.48 231.116Z" fill="#FAFAFA"/>
<path d="M287.804 251.956C287.804 251.956 287.74 251.235 288.385 250.442C288.707 250.009 289.159 249.648 289.74 249.432C290.32 249.216 291.095 249.288 291.74 249.648C292.385 250.009 292.901 250.658 293.095 251.307C293.288 251.956 293.288 252.605 293.159 253.11C292.901 254.119 292.385 254.552 292.385 254.48C292.32 254.408 292.772 253.975 292.901 253.038C292.966 252.533 292.966 251.956 292.772 251.379C292.579 250.802 292.127 250.225 291.546 249.937C290.966 249.576 290.32 249.504 289.804 249.721C289.288 249.865 288.836 250.225 288.514 250.586C287.933 251.307 287.869 251.956 287.804 251.956Z" fill="#FAFAFA"/>
<path d="M295.223 240.49C295.223 240.49 295.868 240.562 296.513 241.284C296.836 241.644 297.094 242.221 297.223 242.942C297.352 243.663 297.158 244.456 296.771 245.105C296.384 245.754 295.739 246.259 295.094 246.403C294.449 246.548 293.868 246.476 293.481 246.259C292.577 245.827 292.319 245.25 292.319 245.178C292.384 245.105 292.706 245.682 293.545 245.971C293.932 246.115 294.513 246.187 295.029 246.043C295.545 245.899 296.126 245.466 296.513 244.889C296.9 244.312 297.029 243.591 296.965 242.942C296.9 242.293 296.642 241.788 296.384 241.428C295.739 240.707 295.223 240.562 295.223 240.49Z" fill="#FAFAFA"/>
<path d="M295.223 218.424C295.223 218.424 295.868 218.496 296.513 219.218C296.836 219.578 297.094 220.155 297.223 220.876C297.352 221.597 297.158 222.39 296.771 223.039C296.384 223.688 295.739 224.193 295.094 224.337C294.449 224.482 293.868 224.41 293.481 224.193C292.577 223.761 292.319 223.184 292.319 223.112C292.384 223.039 292.706 223.616 293.545 223.905C293.932 224.049 294.513 224.121 295.029 223.977C295.545 223.833 296.126 223.4 296.513 222.823C296.9 222.246 297.029 221.525 296.965 220.876C296.9 220.227 296.642 219.722 296.384 219.362C295.803 218.641 295.223 218.496 295.223 218.424Z" fill="#FAFAFA"/>
<path d="M299.482 214.386C299.482 214.386 298.837 214.458 298.062 213.881C297.675 213.593 297.288 213.088 297.095 212.439C296.901 211.79 296.901 210.925 297.159 210.204C297.417 209.483 297.933 208.834 298.578 208.545C299.159 208.257 299.74 208.257 300.192 208.329C301.159 208.545 301.546 209.05 301.482 209.122C301.417 209.194 301.03 208.761 300.127 208.617C299.675 208.545 299.159 208.617 298.643 208.906C298.127 209.194 297.675 209.699 297.417 210.348C297.159 210.997 297.159 211.718 297.353 212.367C297.546 212.944 297.869 213.449 298.191 213.737C298.901 214.242 299.482 214.314 299.482 214.386Z" fill="#FAFAFA"/>
<path d="M292.32 202.199C292.32 202.199 291.675 202.271 290.901 201.695C290.514 201.406 290.126 200.901 289.933 200.252C289.739 199.603 289.739 198.738 289.997 198.017C290.255 197.296 290.772 196.647 291.417 196.358C291.998 196.07 292.578 196.07 293.03 196.142C293.998 196.358 294.385 196.863 294.32 196.935C294.256 197.007 293.869 196.575 292.965 196.43C292.514 196.358 291.998 196.43 291.481 196.719C290.965 197.007 290.514 197.512 290.256 198.161C289.997 198.81 289.997 199.531 290.191 200.18C290.385 200.757 290.707 201.262 291.03 201.55C291.739 202.127 292.32 202.127 292.32 202.199Z" fill="#FAFAFA"/>
<path d="M263.608 216.189C263.608 216.189 262.963 216.261 262.189 215.684C261.802 215.396 261.415 214.891 261.221 214.242C261.027 213.593 261.027 212.728 261.285 212.006C261.544 211.285 262.06 210.636 262.705 210.348C263.286 210.059 263.866 210.059 264.318 210.132C265.286 210.348 265.673 210.853 265.608 210.925C265.544 210.997 265.157 210.564 264.253 210.42C263.802 210.348 263.286 210.42 262.769 210.708C262.253 210.997 261.802 211.502 261.544 212.151C261.286 212.8 261.286 213.521 261.479 214.17C261.673 214.747 261.995 215.251 262.318 215.54C263.028 216.117 263.673 216.117 263.608 216.189Z" fill="#FAFAFA"/>
<path d="M292.384 205.012C292.384 205.012 293.03 205.084 293.675 205.805C293.997 206.165 294.255 206.742 294.385 207.463C294.514 208.185 294.32 208.978 293.933 209.627C293.546 210.276 292.901 210.781 292.255 210.925C291.61 211.069 291.029 210.997 290.642 210.781C289.739 210.348 289.481 209.771 289.481 209.699C289.545 209.627 289.868 210.204 290.707 210.492C291.094 210.636 291.675 210.708 292.191 210.564C292.707 210.42 293.288 209.987 293.675 209.41C294.062 208.834 294.191 208.112 294.126 207.463C294.062 206.814 293.804 206.31 293.546 205.949C292.965 205.228 292.384 205.084 292.384 205.012Z" fill="#FAFAFA"/>
<path d="M301.417 217.703C301.417 217.703 301.353 217.775 301.353 217.92C301.288 218.136 301.224 218.352 301.159 218.641C300.966 219.29 300.708 220.299 300.321 221.453C299.611 223.905 298.643 227.438 297.482 231.765L297.611 231.693C292.707 229.674 286.642 227.15 280.061 224.482C279.932 224.41 279.739 224.337 279.61 224.265L279.674 224.41C280.835 219.722 282.255 215.324 283.803 211.502C285.352 207.68 287.094 204.363 289.03 202.055C289.997 200.901 290.965 199.964 291.997 199.387C292.965 198.81 293.933 198.522 294.707 198.522C294.901 198.522 295.094 198.45 295.288 198.522C295.482 198.522 295.611 198.594 295.804 198.594C295.933 198.594 296.127 198.594 296.191 198.666C296.32 198.738 296.449 198.738 296.514 198.738C296.707 198.81 296.837 198.81 296.966 198.882C297.095 198.882 297.095 198.954 297.095 198.954C297.095 198.954 297.03 198.954 296.966 198.882C296.837 198.81 296.707 198.81 296.514 198.738C296.385 198.738 296.32 198.666 296.191 198.594C296.062 198.594 295.933 198.522 295.74 198.522C295.611 198.522 295.417 198.45 295.224 198.45C295.03 198.45 294.836 198.45 294.643 198.45C293.869 198.45 292.836 198.738 291.868 199.315C290.836 199.892 289.804 200.829 288.836 201.983C286.9 204.291 285.094 207.608 283.545 211.43C281.997 215.251 280.577 219.65 279.416 224.337V224.482L279.545 224.554C279.674 224.626 279.803 224.698 279.997 224.77C286.578 227.51 292.643 229.962 297.546 231.981L297.675 232.053V231.909C298.837 227.582 299.804 224.049 300.45 221.597C300.772 220.371 301.03 219.434 301.224 218.713C301.288 218.424 301.353 218.136 301.417 217.992C301.417 217.775 301.482 217.703 301.417 217.703Z" fill="#263238"/>
<path d="M268.319 229.529L264.899 241.428C263.609 246.331 259.931 250.009 255.35 250.946L232.639 255.706L226.445 255.489L232.639 246.98L249.672 240.49C251.35 240.058 252.705 238.688 253.092 236.813L259.866 220.299L268.448 226.212L268.319 229.529Z" fill="#F0C9CF"/>
<path d="M294.901 230.611L291.223 244.096C289.933 249.072 286.255 252.821 281.674 253.759L258.963 258.59L252.769 258.374L254.898 252.461L275.996 243.158C277.674 242.726 279.029 241.284 279.416 239.481L282.577 225.852L294.901 230.611Z" fill="#F0C9CF"/>
<path d="M274.771 258.807L274.577 257.148L257.157 256.427L248.64 232.342L216.057 234.794L227.026 261.547L274.771 258.807Z" fill="#455A64"/>
<path d="M235.801 247.918C236.317 248.783 237.349 249.072 238.188 248.495C238.962 247.918 239.22 246.764 238.704 245.827C238.188 244.961 237.156 244.673 236.317 245.25C235.543 245.899 235.285 247.052 235.801 247.918Z" fill="white"/>
<path d="M284.835 150.063C289.933 150.352 294.707 154.39 296.385 159.726C296.707 160.736 296.901 161.817 297.288 162.755C297.675 163.692 298.32 164.63 299.159 165.062C299.804 165.351 300.514 165.423 301.159 165.711C302.256 166.144 303.095 167.298 303.417 168.596C303.675 169.894 303.417 171.264 302.837 172.418C302.514 172.994 302.127 173.499 302.062 174.22C302.062 174.653 302.191 175.086 302.32 175.518C302.643 177.033 301.998 178.691 300.837 179.484C299.675 180.278 298.062 180.061 297.03 179.052C296.578 180.133 296.062 181.287 295.094 181.792C294.126 182.297 292.707 181.864 292.513 180.638C292.062 181.792 290.836 182.441 289.739 182.225C288.642 182.008 287.739 180.854 287.674 179.629" fill="#263238"/>
<path d="M269.35 167.802C267.221 165.062 267.221 160.736 268.705 157.491C270.254 154.246 273.028 152.082 275.996 150.784C280.125 148.981 284.964 148.765 288.707 151.505C291.933 153.885 293.804 158.356 293.481 162.683C293.159 167.009 290.642 171.047 287.094 172.778" fill="#F3C886"/>
<path d="M293.674 161.096C293.674 161.168 292.965 161.168 292.191 161.312C291.352 161.385 290.707 161.529 290.707 161.457C290.707 161.385 291.352 161.024 292.191 160.952C292.965 160.88 293.674 161.024 293.674 161.096Z" fill="#FAFAFA"/>
<path d="M291.675 155.111C291.675 155.183 291.029 155.255 290.32 155.471C289.61 155.688 289.029 155.904 288.965 155.832C288.9 155.76 289.481 155.327 290.255 155.111C291.03 154.895 291.675 155.039 291.675 155.111Z" fill="#FAFAFA"/>
<path d="M287.803 151.073C287.803 151.217 286.9 151.289 285.868 151.722C284.835 152.082 284.061 152.587 283.996 152.515C283.932 152.443 284.706 151.794 285.738 151.361C286.9 150.928 287.803 151.001 287.803 151.073Z" fill="#FAFAFA"/>
<path d="M281.416 149.486C281.416 149.558 280.642 149.919 279.803 150.568C278.965 151.217 278.448 152.01 278.384 151.938C278.319 151.866 278.706 150.928 279.61 150.207C280.449 149.558 281.416 149.414 281.416 149.486Z" fill="#FAFAFA"/>
<path d="M273.996 152.154C274.061 152.226 273.802 152.515 273.544 152.948C273.351 153.236 273.286 153.524 273.222 153.669L273.093 153.957V153.741C273.093 153.669 273.093 153.597 273.157 153.597C273.157 153.597 273.222 153.597 273.286 153.669H273.157C273.157 153.524 273.157 153.164 273.351 152.803C273.544 152.226 273.932 152.082 273.996 152.154Z" fill="#FAFAFA"/>
<path d="M292.32 167.442C292.32 167.514 291.739 167.586 291.094 167.37C290.449 167.153 289.997 166.721 289.997 166.649C290.062 166.577 290.513 166.793 291.158 167.009C291.739 167.226 292.32 167.298 292.32 167.442Z" fill="#FAFAFA"/>
<path d="M302.45 161.673C302.45 161.673 302.321 162.178 301.676 162.394C301.353 162.538 300.902 162.538 300.45 162.25C299.998 161.961 299.676 161.385 299.611 160.663C299.547 159.942 299.934 159.149 300.514 158.716C301.16 158.284 301.998 158.212 302.773 158.572C303.482 158.933 304.128 159.798 304.321 160.808C304.515 161.817 304.257 162.899 303.676 163.692C303.095 164.557 302.127 164.918 301.224 164.846C300.321 164.846 299.547 164.485 298.837 163.981C297.482 162.971 296.708 161.601 296.063 160.591C295.417 159.51 294.837 158.644 294.385 158.14C293.933 157.635 293.675 157.346 293.675 157.346C293.675 157.346 293.74 157.418 293.933 157.491C294.062 157.635 294.256 157.779 294.514 158.067C294.966 158.572 295.611 159.438 296.321 160.447C297.03 161.457 297.805 162.827 299.095 163.692C299.74 164.125 300.514 164.413 301.289 164.485C302.063 164.485 302.966 164.197 303.482 163.404C303.999 162.683 304.192 161.673 304.063 160.808C303.934 159.942 303.418 159.221 302.708 158.861C302.063 158.5 301.289 158.572 300.773 158.933C300.192 159.293 299.934 159.942 299.934 160.591C299.934 161.24 300.256 161.745 300.579 161.961C300.966 162.25 301.353 162.25 301.676 162.178C302.257 162.034 302.45 161.601 302.45 161.673Z" fill="#263238"/>
<path d="M287.093 157.779C288.255 157.923 289.094 159.077 289.094 160.375L287.868 194.772C287.803 198.81 281.416 203.642 277.609 203.569C273.802 203.497 274.899 198.81 274.835 194.916C274.77 188.426 274.77 186.047 274.77 186.047C274.77 186.047 269.931 185.109 268.963 177.898C268.447 174.292 268.641 168.379 268.899 163.548C269.157 159.221 271.609 153.885 275.415 154.318L287.093 157.779Z" fill="#F0C9CF"/>
<path d="M270.447 168.307C270.447 168.812 270.77 169.245 271.222 169.245C271.673 169.245 272.06 168.884 272.06 168.379C272.06 167.875 271.738 167.442 271.286 167.442C270.834 167.442 270.447 167.802 270.447 168.307Z" fill="#263238"/>
<path d="M269.931 166.721C270.06 166.865 270.641 166.288 271.544 166.288C272.383 166.288 273.028 166.793 273.157 166.649C273.222 166.577 273.092 166.36 272.834 166.144C272.576 165.927 272.125 165.711 271.544 165.711C271.028 165.711 270.576 165.927 270.254 166.144C269.996 166.432 269.866 166.649 269.931 166.721Z" fill="#263238"/>
<path d="M278.964 168.307C278.964 168.812 279.287 169.245 279.739 169.245C280.19 169.245 280.577 168.884 280.577 168.379C280.577 167.875 280.255 167.442 279.803 167.442C279.351 167.442 278.964 167.802 278.964 168.307Z" fill="#263238"/>
<path d="M278.448 166.865C278.577 167.009 279.158 166.432 280.061 166.432C280.9 166.432 281.545 166.937 281.674 166.793C281.739 166.721 281.61 166.504 281.352 166.288C281.094 166.072 280.642 165.855 280.061 165.855C279.545 165.855 279.093 166.072 278.771 166.288C278.513 166.577 278.448 166.793 278.448 166.865Z" fill="#263238"/>
<path d="M275.287 174.292C275.287 174.22 274.771 174.148 273.867 174.004C273.674 174.004 273.416 173.932 273.416 173.788C273.351 173.571 273.48 173.355 273.545 173.067C273.738 172.418 273.996 171.769 274.19 171.12C275.093 168.379 275.739 166.072 275.674 166C275.545 165.928 274.771 168.163 273.867 170.903C273.674 171.552 273.416 172.201 273.222 172.85C273.158 173.139 272.964 173.499 273.093 173.86C273.158 174.076 273.287 174.22 273.48 174.22C273.609 174.292 273.738 174.292 273.867 174.292C274.771 174.365 275.287 174.365 275.287 174.292Z" fill="#263238"/>
<path d="M275.673 176.672C275.996 176.167 276.512 175.951 277.092 176.023C277.479 176.095 277.867 176.311 278.06 176.6C278.318 176.96 278.318 177.465 278.125 177.826C277.867 178.186 277.415 178.259 276.963 178.186C276.576 178.042 276.189 177.754 275.866 177.393C275.802 177.321 275.673 177.249 275.608 177.105C275.608 176.961 275.544 176.816 275.673 176.672Z" fill="#E383A9"/>
<path d="M277.867 175.013C277.738 175.013 277.738 176.095 276.899 176.888C276.125 177.682 275.092 177.537 275.092 177.682C275.092 177.754 275.286 177.898 275.737 177.898C276.125 177.898 276.77 177.754 277.286 177.321C277.802 176.816 277.996 176.239 277.996 175.807C278.06 175.23 277.931 174.941 277.867 175.013Z" fill="#263238"/>
<path d="M278.061 165.134C278.125 165.423 279.028 165.279 280.061 165.423C281.093 165.567 281.932 165.855 282.061 165.639C282.125 165.495 281.996 165.279 281.674 164.99C281.351 164.702 280.835 164.485 280.19 164.413C279.609 164.341 279.028 164.413 278.641 164.63C278.254 164.774 278.061 164.99 278.061 165.134Z" fill="#263238"/>
<path d="M270.253 163.764C270.382 163.981 271.027 163.764 271.737 163.764C272.447 163.692 273.092 163.908 273.221 163.692C273.286 163.548 273.157 163.332 272.899 163.115C272.64 162.899 272.189 162.755 271.673 162.755C271.157 162.755 270.769 162.971 270.511 163.187C270.253 163.476 270.189 163.692 270.253 163.764Z" fill="#263238"/>
<path d="M288.384 169.389C288.836 169.028 289.545 169.172 290.062 169.461C291.223 170.254 291.804 171.985 291.352 173.427C290.9 174.869 289.545 175.879 288.19 175.662" fill="#F0C9CF"/>
<path d="M278.448 152.01C276.125 152.082 274.383 152.875 272.383 154.173C270.383 155.471 268.705 157.563 268.06 160.087C267.931 160.591 267.867 161.24 268.125 161.745C268.447 162.394 269.286 162.466 269.867 162.178C270.447 161.889 270.899 161.24 271.286 160.663C271.609 161.961 272.706 162.971 273.932 162.971C275.093 162.971 276.254 161.889 276.512 160.591C276.512 161.961 277.738 163.115 278.964 163.115C280.19 163.043 281.222 161.961 281.674 160.663C281.868 161.889 282.126 163.187 282.771 164.197C283.416 165.206 284.577 165.928 285.61 165.567C285.481 166.649 285.287 167.802 285.674 168.812C285.997 169.821 286.965 170.687 287.868 170.326C288.771 169.966 289.094 168.812 289.287 167.73C289.675 165.711 289.997 163.692 289.933 161.673C289.868 159.654 289.416 157.563 288.32 155.904C287.223 154.246 285.481 153.164 283.674 152.659C281.868 152.154 280.061 152.082 278.19 152.082" fill="#263238"/>
<path d="M288.771 173.571C288.771 173.499 289.029 173.643 289.352 173.499C289.674 173.355 289.932 172.85 289.868 172.273C289.868 171.696 289.481 171.264 289.223 171.119C288.9 170.975 288.707 171.047 288.642 170.975C288.642 170.975 288.836 170.759 289.287 170.831C289.481 170.903 289.739 171.047 289.932 171.264C290.126 171.48 290.255 171.841 290.255 172.201C290.32 172.922 289.932 173.571 289.481 173.715C289.029 173.86 288.771 173.571 288.771 173.571Z" fill="#E383A9"/>
<path d="M291.223 173.932C291.223 173.932 291.288 173.932 291.481 174.004C291.675 174.076 291.868 174.148 292.191 174.365C292.772 174.725 293.61 175.374 294.256 176.6C294.578 177.177 294.772 177.97 294.836 178.763C294.901 179.629 294.707 180.494 294.32 181.287C293.933 182.08 293.352 182.874 292.643 183.45C291.933 184.027 291.03 184.388 290.062 184.388C288.126 184.388 286.513 183.018 285.803 181.359C285.416 180.566 285.287 179.629 285.352 178.763C285.416 177.97 285.674 177.177 285.932 176.6C286.578 175.374 287.416 174.725 287.997 174.437C288.32 174.292 288.578 174.22 288.707 174.148C288.9 174.148 288.965 174.076 288.965 174.148C288.965 174.22 288.578 174.22 287.997 174.581C287.416 174.941 286.642 175.59 286.062 176.744C285.803 177.321 285.545 178.042 285.545 178.835C285.481 179.629 285.61 180.422 285.997 181.215C286.707 182.729 288.191 184.027 289.997 184.027C291.739 184.027 293.288 182.657 293.998 181.143C294.772 179.629 294.643 177.826 293.998 176.744C293.417 175.59 292.643 174.869 292.062 174.509C291.546 174.148 291.159 174.004 291.223 173.932Z" fill="#BD256C"/>
<path d="M106.66 267.388C106.66 267.388 106.66 267.316 106.789 267.099C106.854 266.883 106.983 266.667 107.112 266.378C107.37 265.729 107.757 264.72 108.015 263.35C108.66 260.681 108.854 256.571 107.95 251.668C107.499 249.216 106.854 246.62 106.015 243.807C105.176 240.995 104.208 238.039 103.434 234.866C102.66 231.693 102.079 228.231 102.144 224.554C102.273 220.948 103.24 217.271 104.273 213.665C105.305 210.059 106.402 206.526 106.725 202.92C107.112 199.387 106.402 195.854 104.982 193.041C103.563 190.157 101.821 187.705 100.466 185.109C99.1111 182.585 98.2723 179.917 97.7562 177.465C96.7239 172.562 97.111 168.379 97.5626 165.711C98.0788 162.971 98.6595 161.529 98.6595 161.529C98.6595 161.529 98.6595 161.601 98.5949 161.817C98.5304 162.034 98.4659 162.25 98.4014 162.61C98.2078 163.332 97.9497 164.341 97.6917 165.711C97.24 168.451 96.9174 172.562 97.9497 177.393C98.4659 179.773 99.3047 182.369 100.66 184.893C101.95 187.417 103.757 189.868 105.176 192.825C106.66 195.709 107.37 199.315 106.983 202.92C106.66 206.526 105.563 210.132 104.466 213.737C103.434 217.343 102.466 220.948 102.337 224.482C102.208 228.087 102.789 231.476 103.563 234.649C104.337 237.822 105.241 240.779 106.079 243.591C106.918 246.403 107.563 248.999 108.015 251.523C108.918 256.427 108.66 260.609 108.015 263.277C107.692 264.648 107.305 265.657 107.047 266.306C106.918 266.595 106.789 266.883 106.725 267.027C106.725 267.316 106.66 267.388 106.66 267.388Z" fill="#83B9CC"/>
<path d="M102.337 187.705C102.337 187.705 99.627 178.114 104.466 172.49C104.66 172.273 104.918 172.418 104.982 172.634C105.24 174.22 105.563 179.052 102.337 187.705Z" fill="#83B9CC"/>
<path d="M103.949 175.663C104.013 175.663 103.949 176.312 103.755 177.465C103.562 178.691 103.368 180.133 103.175 181.72C102.981 183.306 102.723 184.749 102.594 185.974C102.465 187.056 102.336 187.705 102.336 187.705C102.271 187.705 102.271 186.984 102.4 185.902C102.465 184.821 102.658 183.306 102.917 181.648C103.175 179.989 103.433 178.475 103.626 177.465C103.755 176.312 103.884 175.663 103.949 175.663Z" fill="#83B9CC"/>
<path d="M105.5 210.276C105.5 210.276 107.113 200.397 113.758 197.945C114.016 197.873 114.21 198.089 114.145 198.377C113.694 199.892 111.952 204.363 105.5 210.276Z" fill="#83B9CC"/>
<path d="M111.951 200.541C112.016 200.541 111.628 201.118 111.048 201.983C110.403 202.993 109.628 204.146 108.725 205.372C107.886 206.67 107.112 207.824 106.402 208.762C105.822 209.627 105.434 210.204 105.434 210.132C105.37 210.132 105.693 209.483 106.209 208.617C106.725 207.68 107.499 206.454 108.467 205.156C109.37 203.786 110.209 202.632 110.854 201.767C111.499 200.973 111.886 200.469 111.951 200.541Z" fill="#83B9CC"/>
<path d="M103.691 235.01C103.691 235.01 102.724 225.059 108.401 220.516C108.595 220.371 108.853 220.516 108.853 220.804C108.853 222.463 108.337 227.294 103.691 235.01Z" fill="#83B9CC"/>
<path d="M107.37 223.616C107.435 223.616 107.241 224.265 106.919 225.347C106.532 226.501 106.08 227.871 105.628 229.385C105.112 230.9 104.725 232.27 104.338 233.423C104.015 234.433 103.822 235.082 103.757 235.082C103.693 235.082 103.822 234.433 104.08 233.351C104.338 232.27 104.789 230.827 105.306 229.313C105.822 227.727 106.338 226.357 106.725 225.347C107.048 224.193 107.306 223.616 107.37 223.616Z" fill="#83B9CC"/>
<path d="M108.726 259.96C108.726 259.96 108.081 249.937 113.888 245.682C114.081 245.538 114.339 245.682 114.339 245.971C114.21 247.557 113.565 252.389 108.726 259.96Z" fill="#83B9CC"/>
<path d="M112.66 248.639C112.725 248.639 112.467 249.288 112.144 250.297C111.757 251.451 111.241 252.749 110.725 254.264C110.208 255.778 109.692 257.076 109.305 258.23C108.918 259.239 108.724 259.888 108.66 259.888C108.595 259.888 108.789 259.239 109.047 258.158C109.37 257.148 109.821 255.706 110.402 254.119C110.983 252.605 111.499 251.163 111.951 250.225C112.338 249.216 112.66 248.639 112.66 248.639Z" fill="#83B9CC"/>
<path d="M98.5304 179.268C98.5304 179.268 90.5944 174.653 90.4009 166.865C90.4009 166.577 90.659 166.432 90.8525 166.577C92.0139 167.442 95.3044 170.615 98.5304 179.268Z" fill="#83B9CC"/>
<path d="M92.0132 169.533C92.0777 169.533 92.4003 170.038 92.981 170.903C93.6262 171.913 94.4004 173.067 95.2392 174.365C96.078 175.663 96.8522 176.816 97.4974 177.826C98.0781 178.691 98.4652 179.268 98.4007 179.268C98.3362 179.268 97.9491 178.835 97.3039 177.97C96.6587 177.105 95.8199 175.951 94.9811 174.581C94.0778 173.211 93.3681 171.985 92.7874 171.047C92.2713 170.11 92.0132 169.533 92.0132 169.533Z" fill="#83B9CC"/>
<path d="M107.047 199.82C107.047 199.82 98.8527 195.709 98.272 187.993C98.272 187.705 98.5301 187.561 98.7236 187.705C99.9495 188.498 103.369 191.455 107.047 199.82Z" fill="#83B9CC"/>
<path d="M100.078 190.517C100.143 190.517 100.53 191.022 101.175 191.815C101.885 192.753 102.724 193.907 103.627 195.132C104.53 196.358 105.369 197.512 106.079 198.45C106.724 199.315 107.111 199.82 107.047 199.82C107.047 199.82 106.53 199.387 105.885 198.594C105.24 197.801 104.337 196.647 103.369 195.349C102.401 194.051 101.562 192.825 100.982 191.96C100.401 191.166 100.014 190.589 100.078 190.517Z" fill="#83B9CC"/>
<path d="M102.338 222.823C102.338 222.823 96.7244 215.035 99.3697 207.824C99.4342 207.608 99.7568 207.536 99.8859 207.752C100.66 209.122 102.531 213.449 102.338 222.823Z" fill="#83B9CC"/>
<path d="M99.8857 210.997C99.9503 210.997 100.079 211.646 100.273 212.728C100.531 213.953 100.789 215.324 101.112 216.91C101.434 218.496 101.692 219.867 101.95 221.092C102.144 222.174 102.338 222.823 102.273 222.823C102.208 222.823 102.015 222.174 101.757 221.165C101.499 220.083 101.176 218.641 100.854 216.982C100.531 215.324 100.273 213.881 100.144 212.8C99.9503 211.646 99.8857 210.997 99.8857 210.997Z" fill="#83B9CC"/>
<path d="M107.885 249.793C107.885 249.793 99.7558 245.538 99.3042 237.822C99.3042 237.534 99.5623 237.39 99.7558 237.534C100.982 238.327 104.401 241.356 107.885 249.793Z" fill="#83B9CC"/>
<path d="M101.047 240.418C101.112 240.418 101.499 240.923 102.08 241.788C102.789 242.726 103.564 243.88 104.467 245.178C105.37 246.403 106.144 247.557 106.854 248.495C107.499 249.36 107.822 249.865 107.822 249.937C107.822 249.937 107.37 249.504 106.661 248.711C106.015 247.918 105.112 246.764 104.209 245.394C103.306 244.096 102.467 242.87 101.886 241.933C101.37 240.995 101.047 240.418 101.047 240.418Z" fill="#83B9CC"/>
<path d="M124.146 210.348C124.146 210.348 124.146 210.42 124.146 210.564C124.146 210.708 124.146 210.925 124.146 211.213C124.146 211.79 124.081 212.655 124.081 213.665C123.952 215.828 123.823 218.785 123.629 222.39C123.049 225.996 121.371 230.034 119.178 233.928C117.565 236.813 115.822 239.409 114.339 241.86C112.855 244.312 111.629 246.548 110.725 248.567C109.822 250.586 109.306 252.244 109.048 253.47C108.919 254.047 108.79 254.552 108.725 254.84C108.661 255.129 108.596 255.345 108.596 255.345C108.596 255.345 108.596 255.201 108.661 254.84C108.725 254.48 108.79 254.047 108.919 253.398C109.177 252.172 109.693 250.442 110.532 248.423C111.371 246.403 112.596 244.096 114.08 241.644C115.564 239.192 117.242 236.596 118.855 233.712C121.049 229.818 122.726 225.852 123.307 222.246C123.5 218.713 123.694 215.684 123.823 213.593C123.888 212.583 123.952 211.79 124.017 211.141C124.017 210.853 124.081 210.708 124.081 210.492C124.081 210.42 124.146 210.348 124.146 210.348Z" fill="#83B9CC"/>
<path d="M119.306 233.135C119.306 233.135 122.726 223.833 118.403 217.775C118.274 217.559 117.951 217.631 117.887 217.92C117.5 219.506 116.79 224.265 119.306 233.135Z" fill="#83B9CC"/>
<path d="M118.661 221.02C118.726 221.02 118.79 221.669 118.919 222.751C119.048 223.833 119.177 225.347 119.306 227.006C119.435 228.664 119.435 230.178 119.435 231.26C119.435 232.342 119.371 233.063 119.371 233.063C119.306 233.063 119.306 232.414 119.242 231.26C119.177 230.034 119.113 228.592 118.984 227.006C118.855 225.419 118.79 223.977 118.726 222.751C118.597 221.741 118.597 221.092 118.661 221.02Z" fill="#83B9CC"/>
<g opacity="0.3">
<path opacity="0.3" d="M119.306 233.135C119.306 233.135 122.726 223.833 118.403 217.775C118.274 217.559 117.951 217.631 117.887 217.92C117.5 219.506 116.79 224.265 119.306 233.135Z" fill="#83B9CC"/>
</g>
<path d="M108.596 255.489C108.596 255.489 111.37 245.971 106.596 240.274C106.402 240.058 106.144 240.13 106.079 240.418C105.821 242.005 105.434 246.836 108.596 255.489Z" fill="#83B9CC"/>
<path d="M107.112 243.519C107.177 243.519 107.306 244.168 107.499 245.25C107.693 246.331 107.951 247.846 108.145 249.504C108.403 251.163 108.532 252.677 108.596 253.759C108.661 254.84 108.661 255.562 108.661 255.562C108.596 255.562 108.532 254.913 108.403 253.831C108.209 252.605 108.08 251.163 107.822 249.576C107.628 247.99 107.435 246.548 107.241 245.322C107.112 244.168 107.048 243.519 107.112 243.519Z" fill="#83B9CC"/>
<g opacity="0.3">
<path opacity="0.3" d="M108.596 255.489C108.596 255.489 111.37 245.971 106.596 240.274C106.402 240.058 106.144 240.13 106.079 240.418C105.821 242.005 105.434 246.836 108.596 255.489Z" fill="#83B9CC"/>
</g>
<path d="M123.693 221.814C123.693 221.814 131.049 216.045 130.339 208.329C130.339 208.04 130.016 207.896 129.823 208.112C128.726 209.194 125.823 212.8 123.693 221.814Z" fill="#83B9CC"/>
<g opacity="0.3">
<path opacity="0.3" d="M123.693 221.814C123.693 221.814 131.049 216.045 130.339 208.329C130.339 208.04 130.016 207.896 129.823 208.112C128.726 209.194 125.823 212.8 123.693 221.814Z" fill="#83B9CC"/>
</g>
<path d="M128.92 211.213C128.984 211.213 128.726 211.862 128.339 212.872C127.888 213.881 127.307 215.251 126.597 216.694C125.887 218.136 125.178 219.506 124.662 220.371C124.145 221.309 123.758 221.814 123.758 221.814C123.694 221.814 124.016 221.165 124.468 220.227C124.984 219.145 125.629 217.847 126.275 216.477C126.984 215.035 127.565 213.809 128.081 212.728C128.597 211.79 128.92 211.213 128.92 211.213Z" fill="#83B9CC"/>
<path d="M111.564 246.043C111.564 246.043 120.468 244.529 122.791 237.173C122.856 236.885 122.662 236.668 122.404 236.741C121.113 237.173 117.049 238.976 111.564 246.043Z" fill="#83B9CC"/>
<g opacity="0.3">
<path opacity="0.3" d="M111.564 246.043C111.564 246.043 120.468 244.529 122.791 237.173C122.856 236.885 122.662 236.668 122.404 236.741C121.113 237.173 117.049 238.976 111.564 246.043Z" fill="#83B9CC"/>
</g>
<path d="M120.468 239.12C120.468 239.192 120.017 239.625 119.242 240.274C118.468 240.923 117.371 241.86 116.145 242.87C114.92 243.88 113.823 244.673 112.984 245.25C112.145 245.827 111.629 246.115 111.564 246.115C111.564 246.043 112.016 245.682 112.855 245.033C113.758 244.312 114.79 243.519 115.952 242.582C117.113 241.644 118.146 240.851 119.049 240.13C119.952 239.481 120.468 239.048 120.468 239.12Z" fill="#83B9CC"/>
<path d="M103.111 264.287L100.53 283.757H116.66L114.531 264.287H103.111Z" fill="#4A279F"/>
<path d="M115.176 270.344C115.176 270.416 112.273 270.561 108.66 270.561C105.046 270.561 102.143 270.489 102.143 270.344C102.143 270.272 105.046 270.128 108.66 270.128C112.273 270.128 115.176 270.2 115.176 270.344Z" fill="#83B9CC"/>
<path d="M115.499 271.859C115.499 271.931 112.466 272.075 108.789 272.075C105.047 272.075 102.079 272.003 102.079 271.859C102.079 271.714 105.111 271.642 108.789 271.642C112.531 271.714 115.499 271.786 115.499 271.859Z" fill="#83B9CC"/>
</svg>
