<svg width="419" height="244" viewBox="0 0 419 244" fill="none" xmlns="http://www.w3.org/2000/svg">
<g opacity="0.8">
<g opacity="0.8">
<path opacity="0.8" d="M388.126 183.905H361.974L357.101 196.538H339.237L366.566 131.53H383.814L411.199 196.538H392.999L388.126 183.905ZM383.03 170.378L375.078 149.585L367.126 170.378H383.03Z" fill="#E0A47C"/>
</g>
</g>
<path d="M159.938 112.749C159.938 122.028 152.21 127.505 137.762 127.505H108.641V73.6771H136.25C150.418 73.6771 157.362 79.4345 157.362 87.763C157.362 92.9055 154.73 97.0419 150.138 99.4454C156.186 101.569 159.938 106.209 159.938 112.749ZM123.761 84.6887V95.0855H134.233C139.33 95.0855 141.962 93.2968 141.962 89.8312C141.962 86.4215 139.33 84.6887 134.233 84.6887H123.761ZM144.538 111.072C144.538 107.383 141.738 105.594 136.53 105.594H123.761V116.494H136.53C141.794 116.494 144.538 114.761 144.538 111.072Z" fill="#4A27A0"/>
<path d="M331.671 0.284973H261.668V101.57H331.671V0.284973Z" fill="#0B96AD"/>
<path d="M328.199 0.284973H258.196V101.57H328.199V0.284973Z" fill="#66BBCF"/>
<path d="M319.518 11.2407H266.876V90.6137H319.518V11.2407Z" fill="white"/>
<path d="M319.518 90.6138C319.518 90.6138 319.518 90.502 319.518 90.2225C319.518 89.943 319.518 89.6076 319.518 89.1046C319.518 88.0984 319.518 86.6451 319.518 84.7446C319.518 80.9437 319.518 75.4099 319.462 68.4228C319.462 54.4487 319.406 34.6054 319.35 11.2966L319.518 11.4643C303.446 11.4643 285.637 11.4643 266.876 11.4643L267.044 11.2966C267.044 41.2571 267.044 68.8141 266.988 90.6697L266.82 90.502C282.837 90.5579 295.997 90.5579 305.126 90.5579C309.718 90.5579 313.246 90.6138 315.71 90.6138C316.942 90.6138 317.838 90.6138 318.51 90.6138C319.182 90.6138 319.518 90.6138 319.518 90.6138C319.518 90.6138 319.182 90.6138 318.566 90.6138C317.95 90.6138 316.998 90.6138 315.822 90.6138C313.414 90.6138 309.83 90.6138 305.294 90.6697C296.109 90.6697 282.949 90.7256 266.876 90.7256H266.708V90.5579C266.708 68.7582 266.708 41.1453 266.652 11.1848V11.0171H266.82C285.525 11.0171 303.39 11.0171 319.462 11.0171H319.63V11.1848C319.574 34.5495 319.574 54.4487 319.518 68.4228C319.518 75.4099 319.462 80.9437 319.462 84.7446C319.462 86.6451 319.462 88.0984 319.462 89.0487C319.462 89.5517 319.462 89.8871 319.462 90.1666C319.518 90.502 319.518 90.6138 319.518 90.6138Z" fill="#E0E0E0"/>
<path d="M328.423 0.284986C328.479 0.340882 327.975 1.01164 327.191 2.07368C326.351 3.13571 325.231 4.64492 323.887 6.21002C322.543 7.83102 321.311 9.22843 320.415 10.2346C319.519 11.2407 318.903 11.8556 318.847 11.7997C318.791 11.7438 319.351 11.1289 320.191 10.0669C321.143 8.94895 322.263 7.55154 323.551 5.98643C324.839 4.42133 325.959 3.02392 326.911 1.90599C327.807 0.899848 328.367 0.229089 328.423 0.284986Z" fill="#E0E0E0"/>
<path d="M319.799 90.3343C322.431 94.4706 325.511 98.3275 328.983 101.793L319.799 90.3343Z" fill="white"/>
<path d="M328.927 101.793C328.871 101.849 328.255 101.29 327.303 100.34C326.351 99.3895 325.119 98.048 323.831 96.427C322.543 94.8619 321.479 93.2968 320.807 92.1789C320.079 91.061 319.687 90.3343 319.743 90.2784C319.799 90.2225 320.247 90.9492 321.031 92.0112C321.815 93.0732 322.879 94.5824 324.167 96.1475C325.455 97.7126 326.631 99.1101 327.527 100.116C328.423 101.178 328.983 101.793 328.927 101.793Z" fill="#E0E0E0"/>
<path d="M258.141 101.514C261.221 97.7693 264.245 93.9683 267.325 90.2233L258.141 101.514Z" fill="white"/>
<path d="M267.325 90.2225C267.381 90.2784 265.421 92.8496 262.9 95.9798C260.38 99.11 258.252 101.569 258.14 101.514C258.084 101.458 260.044 98.8865 262.564 95.7562C265.141 92.626 267.269 90.1666 267.325 90.2225Z" fill="#E0E0E0"/>
<path d="M258.196 0.284974C258.252 0.229078 260.268 2.57673 262.62 5.59514C264.972 8.61356 266.877 11.073 266.765 11.1289C266.709 11.1848 264.692 8.83714 262.284 5.81873C259.932 2.80032 258.084 0.340871 258.196 0.284974Z" fill="#E0E0E0"/>
<path d="M303.11 27.3389H285.469V77.2545H303.11V27.3389Z" fill="#DE206E"/>
<path d="M415.12 193.575H404.367V206.32H415.12V193.575Z" fill="#F5F5F5"/>
<path d="M404.759 192.737H356.149V207.158H404.759V192.737Z" fill="#B3B3F4"/>
<path d="M415.455 193.966H403.415V192.737H415.455C415.791 192.737 416.071 193.016 416.071 193.352C416.071 193.687 415.791 193.966 415.455 193.966Z" fill="#B3B3F4"/>
<path d="M415.455 207.158H403.415V205.928H415.455C415.791 205.928 416.071 206.208 416.071 206.543C416.071 206.879 415.791 207.158 415.455 207.158Z" fill="#B3B3F4"/>
<g opacity="0.4">
<g opacity="0.4">
<g opacity="0.4">
<g opacity="0.4">
<path opacity="0.4" d="M400.951 192.737H395.183V207.158H400.951V192.737Z" fill="black"/>
</g>
</g>
</g>
</g>
<g opacity="0.4">
<g opacity="0.4">
<g opacity="0.4">
<g opacity="0.4">
<path opacity="0.4" d="M366.23 192.737H360.461V207.158H366.23V192.737Z" fill="black"/>
</g>
</g>
</g>
</g>
<path d="M415.176 195.699C415.176 195.755 412.824 195.755 409.967 195.755C407.111 195.755 404.759 195.699 404.759 195.699C404.759 195.643 407.111 195.643 409.967 195.643C412.824 195.587 415.176 195.643 415.176 195.699Z" fill="#E0E0E0"/>
<path d="M415.176 197.6C415.176 197.656 412.824 197.656 409.967 197.656C407.111 197.656 404.759 197.6 404.759 197.6C404.759 197.544 407.111 197.544 409.967 197.544C412.824 197.544 415.176 197.544 415.176 197.6Z" fill="#E0E0E0"/>
<path d="M415.176 199.947C415.176 200.003 412.824 200.003 409.967 200.003C407.111 200.003 404.759 199.947 404.759 199.947C404.759 199.892 407.111 199.892 409.967 199.892C412.824 199.892 415.176 199.892 415.176 199.947Z" fill="#E0E0E0"/>
<path d="M415.176 202.295C415.176 202.351 412.824 202.351 409.967 202.351C407.111 202.351 404.759 202.295 404.759 202.295C404.759 202.239 407.111 202.239 409.967 202.239C412.824 202.239 415.176 202.295 415.176 202.295Z" fill="#E0E0E0"/>
<path d="M415.176 204.643C415.176 204.699 412.824 204.699 409.967 204.699C407.111 204.699 404.759 204.643 404.759 204.643C404.759 204.643 407.111 204.587 409.967 204.587C412.824 204.587 415.176 204.643 415.176 204.643Z" fill="#E0E0E0"/>
<g opacity="0.2">
<g opacity="0.2">
<g opacity="0.2">
<g opacity="0.2">
<path opacity="0.2" d="M392.158 198.662H370.262V201.233H392.158V198.662Z" fill="black"/>
</g>
</g>
</g>
</g>
<path d="M415.063 207.438H404.143V215.207H415.063V207.438Z" fill="#FAFAFA"/>
<path d="M404.255 207.158H357.773V215.487H404.255V207.158Z" fill="#455A64"/>
<path d="M403.919 207.717H415.679C415.847 207.717 415.959 207.605 415.959 207.438C415.959 207.27 415.847 207.158 415.679 207.158H403.919V207.717Z" fill="#455A64"/>
<path d="M403.919 215.487H415.735C415.847 215.487 415.959 215.375 415.959 215.263V215.151C415.959 215.039 415.847 214.928 415.735 214.928H403.919V215.487Z" fill="#455A64"/>
<path d="M415.063 208.891C415.063 208.947 412.655 208.947 409.687 208.947C406.719 208.947 404.311 208.891 404.311 208.891C404.311 208.835 406.719 208.835 409.687 208.835C412.599 208.835 415.063 208.835 415.063 208.891Z" fill="#E0E0E0"/>
<path d="M415.063 210.344C415.063 210.4 412.655 210.4 409.687 210.4C406.719 210.4 404.311 210.344 404.311 210.344C404.311 210.288 406.719 210.288 409.687 210.288C412.599 210.288 415.063 210.344 415.063 210.344Z" fill="#E0E0E0"/>
<path d="M415.063 211.853C415.063 211.909 412.655 211.909 409.687 211.909C406.719 211.909 404.311 211.853 404.311 211.853C404.311 211.797 406.719 211.797 409.687 211.797C412.599 211.797 415.063 211.797 415.063 211.853Z" fill="#E0E0E0"/>
<path d="M415.063 213.307C415.063 213.363 412.655 213.363 409.687 213.363C406.719 213.363 404.311 213.307 404.311 213.307C404.311 213.251 406.719 213.251 409.687 213.251C412.599 213.251 415.063 213.251 415.063 213.307Z" fill="#E0E0E0"/>
<path d="M416.687 216.213H405.543V237.286H416.687V216.213Z" fill="#EBEBEB"/>
<path d="M405.599 215.487H353.237V238.348H405.599V215.487Z" fill="#4A27A0"/>
<path d="M417.584 238.348H404.143V236.839H417.584C417.976 236.839 418.312 237.174 418.312 237.566C418.312 238.013 417.976 238.348 417.584 238.348Z" fill="#4A27A0"/>
<path d="M417.696 216.94H404.143V215.431H417.696C418.032 215.431 418.312 215.71 418.312 216.046V216.325C418.312 216.66 418.032 216.94 417.696 216.94Z" fill="#4A27A0"/>
<path d="M416.688 219.064C416.688 219.12 414.168 219.12 411.087 219.12C408.007 219.12 405.487 219.064 405.487 219.064C405.487 219.008 408.007 219.008 411.087 219.008C414.224 219.008 416.688 219.008 416.688 219.064Z" fill="#E0E0E0"/>
<path d="M416.688 221.747C416.688 221.803 414.168 221.803 411.087 221.803C408.007 221.803 405.487 221.747 405.487 221.747C405.487 221.691 408.007 221.691 411.087 221.691C414.224 221.691 416.688 221.691 416.688 221.747Z" fill="#E0E0E0"/>
<path d="M416.688 224.43C416.688 224.486 414.168 224.486 411.087 224.486C408.007 224.486 405.487 224.43 405.487 224.43C405.487 224.374 408.007 224.374 411.087 224.374C414.224 224.374 416.688 224.43 416.688 224.43Z" fill="#E0E0E0"/>
<path d="M416.688 227.169C416.688 227.225 414.168 227.225 411.087 227.225C408.007 227.225 405.487 227.169 405.487 227.169C405.487 227.113 408.007 227.113 411.087 227.113C414.224 227.113 416.688 227.113 416.688 227.169Z" fill="#E0E0E0"/>
<path d="M416.688 229.852C416.688 229.908 414.168 229.908 411.087 229.908C408.007 229.908 405.487 229.852 405.487 229.852C405.487 229.796 408.007 229.796 411.087 229.796C414.224 229.796 416.688 229.852 416.688 229.852Z" fill="#E0E0E0"/>
<path d="M416.688 232.591C416.688 232.647 414.168 232.647 411.087 232.647C408.007 232.647 405.487 232.591 405.487 232.591C405.487 232.535 408.007 232.535 411.087 232.535C414.224 232.479 416.688 232.535 416.688 232.591Z" fill="#E0E0E0"/>
<path d="M416.688 235.274C416.688 235.33 414.168 235.33 411.087 235.33C408.007 235.33 405.487 235.274 405.487 235.274C405.487 235.274 408.007 235.218 411.087 235.218C414.224 235.218 416.688 235.218 416.688 235.274Z" fill="#E0E0E0"/>
<g opacity="0.3">
<g opacity="0.3">
<g opacity="0.3">
<path opacity="0.3" d="M366.23 215.487L359.005 238.348H353.237V215.487H366.23Z" fill="black"/>
</g>
</g>
</g>
<path d="M359.509 225.436H361.525C362.981 225.436 363.989 226.331 363.989 227.672C363.989 229.014 362.981 229.908 361.525 229.908H359.509V225.436ZM361.525 229.069C362.421 229.069 362.981 228.566 362.981 227.672C362.981 226.834 362.421 226.275 361.525 226.275H360.573V229.069H361.525Z" fill="white"/>
<path d="M364.83 225.436H365.894V229.908H364.83V225.436Z" fill="white"/>
<path d="M366.622 227.672C366.622 226.331 367.686 225.38 369.03 225.38C369.814 225.38 370.43 225.66 370.878 226.163L370.206 226.778C369.926 226.442 369.534 226.275 369.086 226.275C368.246 226.275 367.63 226.89 367.63 227.728C367.63 228.566 368.246 229.181 369.086 229.181C369.534 229.181 369.926 229.014 370.206 228.678L370.878 229.293C370.43 229.796 369.814 230.076 369.03 230.076C367.686 230.02 366.622 229.014 366.622 227.672Z" fill="white"/>
<path d="M372.501 226.275H371.045V225.436H374.966V226.275H373.509V229.908H372.445V226.275H372.501Z" fill="white"/>
<path d="M375.526 225.436H376.59V229.908H375.526V225.436Z" fill="white"/>
<path d="M377.318 227.672C377.318 226.331 378.382 225.38 379.782 225.38C381.182 225.38 382.246 226.331 382.246 227.672C382.246 229.014 381.182 229.964 379.782 229.964C378.382 230.02 377.318 229.014 377.318 227.672ZM381.182 227.672C381.182 226.834 380.566 226.219 379.782 226.219C378.998 226.219 378.382 226.778 378.382 227.672C378.382 228.51 378.998 229.125 379.782 229.125C380.566 229.125 381.182 228.566 381.182 227.672Z" fill="white"/>
<path d="M387.118 225.436V229.908H386.278L384.038 227.169V229.908H383.03V225.436H383.87L386.11 228.175V225.436H387.118Z" fill="white"/>
<path d="M391.15 228.958H389.078L388.686 229.908H387.622L389.638 225.436H390.646L392.662 229.908H391.598L391.15 228.958ZM390.814 228.175L390.086 226.442L389.358 228.175H390.814Z" fill="white"/>
<path d="M395.967 229.908L395.127 228.678H395.071H394.119V229.908H393.055V225.436H395.015C396.191 225.436 396.975 226.051 396.975 227.057C396.975 227.728 396.639 228.231 396.079 228.455L397.087 229.908H395.967ZM394.959 226.275H394.119V227.84H394.959C395.575 227.84 395.911 227.56 395.911 227.057C395.911 226.61 395.631 226.275 394.959 226.275Z" fill="white"/>
<path d="M399.887 228.343V229.908H398.822V228.287L397.086 225.436H398.206L399.382 227.448L400.559 225.436H401.567L399.887 228.343Z" fill="white"/>
<path d="M76.6106 62.3246H0V66.2374H76.6106V62.3246Z" fill="#455A64"/>
<path d="M62.5542 22.4704C62.5542 22.4704 62.5542 22.4145 62.4982 22.3586C62.4422 22.2468 62.3862 22.135 62.3302 22.0233C62.1622 21.7438 61.8822 21.2966 61.5461 20.7376C60.7621 19.6756 59.5861 18.1664 57.57 16.9926C56.562 16.3777 55.3859 15.8746 53.9859 15.651C52.6418 15.4834 51.0738 15.5393 49.6177 16.0982C48.1617 16.6572 46.7616 17.6633 45.8656 19.1166C45.0256 20.6258 44.7456 22.3586 44.2416 24.0355C43.9615 24.874 43.6815 25.6565 43.1775 26.3832C42.7295 27.1098 42.0575 27.6129 41.3855 28.116C40.7134 28.619 40.0414 29.0662 39.3694 29.5693C38.7534 30.0724 38.1934 30.6872 37.7453 31.3021C36.8493 32.5877 36.3453 33.9851 36.0653 35.3266C35.7853 36.6681 35.7853 37.9538 35.8413 39.1276C36.0093 41.4753 36.5133 43.2639 36.7933 44.5496C36.9613 45.1644 37.0733 45.6675 37.1853 46.0029C37.2973 46.3383 37.3533 46.5059 37.3533 46.5059C37.3533 46.5059 37.3533 46.3383 37.2413 46.0029C37.1293 45.6675 37.0173 45.1644 36.9053 44.5496C36.6253 43.2639 36.1773 41.4752 36.0093 39.1835C35.9533 38.0097 36.0093 36.7799 36.2893 35.4384C36.5693 34.0969 37.0733 32.7554 37.9133 31.5257C38.3614 30.9108 38.8654 30.3518 39.4814 29.8488C40.0974 29.3457 40.7694 28.8985 41.4415 28.3955C42.1135 27.8924 42.7855 27.3334 43.2895 26.6068C43.7935 25.8801 44.1296 25.0417 44.3536 24.2032C44.8576 22.5263 45.1376 20.7935 45.9776 19.3402C46.7616 17.8869 48.1617 16.9367 49.5617 16.4336C50.9618 15.8746 52.4738 15.7628 53.7619 15.9864C55.1059 16.1541 56.282 16.6572 57.29 17.2162C59.3061 18.39 60.5381 19.8433 61.3221 20.8494C61.7141 21.3525 61.9942 21.7997 62.1622 22.0792C62.4422 22.3586 62.4982 22.5263 62.5542 22.4704Z" fill="#68BDD1"/>
<path d="M40.6018 28.6191C41.0498 28.1719 41.2738 28.5073 41.8898 28.6191C42.5058 28.7309 43.0659 29.0662 43.5699 29.4575C45.6979 31.1903 46.65 34.2087 45.8659 36.8359C43.9059 36.9476 41.8898 35.8856 40.8818 34.2087C39.8737 32.5318 39.8177 30.296 40.8258 28.5632" fill="#68BDD1"/>
<path d="M59.5859 20.011C59.8099 19.452 60.146 19.6197 60.762 19.452C61.378 19.2843 61.994 19.3402 62.61 19.5079C65.2981 20.1228 67.4822 22.4704 67.8742 25.2094C66.1382 26.1596 63.8981 26.0478 62.218 24.9858C60.538 23.9237 59.5859 21.9115 59.7539 19.8992" fill="#68BDD1"/>
<path d="M36.4016 40.3014C37.6337 38.8481 39.5937 38.0097 41.4978 38.1214C43.4019 38.2332 45.2499 39.2394 46.37 40.8045C44.9699 42.0901 43.0659 42.8168 41.1618 42.8727C39.2577 42.8727 37.3537 42.0342 35.9536 40.7486" fill="#68BDD1"/>
<path d="M37.9695 31.5816C36.0654 31.6375 34.1053 30.799 32.8733 29.2898C31.6412 27.8365 31.0812 25.7683 31.4732 23.8678C33.4893 23.4207 35.7294 24.1473 37.1294 25.6565C38.4735 27.2216 38.9215 29.5134 38.2495 31.4698" fill="#68BDD1"/>
<path d="M44.6337 21.3525C42.8417 22.0232 40.7136 21.8555 39.0336 20.9053C37.3535 19.955 36.1775 18.1664 35.8975 16.2659C37.6335 15.1479 39.9856 15.0921 41.8337 16.0982C43.6257 17.1043 44.8018 19.1166 44.8018 21.1848" fill="#68BDD1"/>
<path d="M46.8736 17.9987C48.6656 17.3279 50.7937 17.4956 52.4738 18.4459C54.1538 19.3961 55.3299 21.1848 55.6099 23.0853C53.8738 24.2032 51.5217 24.2591 49.6737 23.253C47.8816 22.2468 46.7056 20.2346 46.7056 18.1664" fill="#68BDD1"/>
<path d="M49.5619 16.21C47.7139 15.5951 46.2018 14.1418 45.5858 12.2972C44.9138 10.5086 45.1378 8.38449 46.1458 6.76349C48.2179 7.04297 50.066 8.49628 50.794 10.3968C51.522 12.2972 51.13 14.6449 49.7859 16.21" fill="#68BDD1"/>
<path d="M56.3939 16.5454C55.7219 14.7567 55.9459 12.6326 56.9539 11.0116C57.962 9.39064 59.754 8.21681 61.6581 7.99323C62.7221 9.78191 62.7221 12.1296 61.7141 13.9183C60.65 15.7069 58.578 16.8249 56.5619 16.769" fill="#68BDD1"/>
<path d="M28.8408 62.66L25.2007 39.8542L53.0896 40.1896L50.3455 62.3805" fill="#263238"/>
<path d="M40.8813 35.662C42.3934 36.6122 44.1294 36.724 45.5295 36.0533C46.9295 35.3825 47.8815 33.8174 48.0495 32.0287C46.5375 31.302 44.8574 31.1903 43.4014 31.8051C42.0013 32.3641 40.8813 33.6497 40.3213 35.2148" fill="#E0A47C"/>
<path d="M53.6499 40.5809C55.1619 41.5311 56.898 41.6429 58.298 40.9721C59.6981 40.3014 60.6501 38.7363 60.8181 36.9476C59.306 36.2209 57.626 36.1091 56.1699 36.724C54.7699 37.283 53.6499 38.5686 53.0898 40.1337" fill="#E0A47C"/>
<path d="M46.4817 29.6252C47.2097 31.2462 48.6097 32.3082 50.1218 32.4759C51.6338 32.6436 53.3139 31.9169 54.4339 30.5195C53.5379 29.0662 52.1939 28.0601 50.6818 27.7806C49.1698 27.5011 47.5457 27.9483 46.2017 28.9544" fill="#E0A47C"/>
<path d="M51.1297 35.2707C49.3377 35.2707 47.7696 36.0532 46.9856 37.3389C46.1456 38.6245 46.1456 40.4132 46.8736 42.0901C48.5536 41.9224 50.0657 41.1398 50.9617 39.9101C51.8578 38.6804 52.1938 37.0594 51.8018 35.3825" fill="#E0A47C"/>
<path d="M55.6098 44.2701C54.8258 45.8352 54.8818 47.6239 55.7218 48.9095C56.5619 50.1951 58.1859 50.9777 59.978 50.9777C60.538 49.3567 60.426 47.6798 59.698 46.3383C58.9699 44.9967 57.6259 44.326 56.0018 43.9906" fill="#E0A47C"/>
<path d="M63.058 45.3321C63.058 45.388 62.778 44.9408 61.938 44.6054C61.5459 44.4378 61.0419 44.3819 60.4259 44.326C59.8099 44.326 59.1379 44.3819 58.3538 44.4378C57.5698 44.4937 56.7298 44.5495 55.8338 44.2142C54.9377 43.8788 54.2097 43.0962 53.7617 42.2019C53.2577 41.2517 53.0897 40.1896 52.8657 39.1276C52.6416 38.0655 52.4176 36.9476 51.8016 35.9415C51.1856 34.9912 50.2896 34.2646 49.4495 33.5379C48.6095 32.8113 47.7695 32.1405 47.2095 31.2462C46.0334 29.5134 45.8654 27.5011 46.0894 25.9919C46.3134 24.4268 46.9295 23.3089 47.4335 22.6381C47.7135 22.3027 47.9375 22.0232 48.1055 21.9115C48.2735 21.7438 48.3855 21.6879 48.3855 21.6879C48.3855 21.6879 48.3295 21.7997 48.1615 21.9673C47.9935 22.135 47.7695 22.4145 47.5455 22.7499C47.0415 23.4207 46.4814 24.5945 46.3134 26.1037C46.0894 27.6129 46.3134 29.5134 47.4335 31.1903C47.9935 32.0287 48.7775 32.6995 49.6735 33.4261C50.5136 34.1528 51.4656 34.8794 52.0816 35.8856C52.7537 36.8917 52.9777 38.0655 53.2017 39.1276C53.4257 40.1896 53.5937 41.2517 54.0417 42.146C54.4897 43.0403 55.1617 43.767 56.0018 44.0465C56.8418 44.3819 57.6818 44.326 58.4098 44.2701C59.1939 44.2142 59.8659 44.1583 60.4819 44.2142C61.0979 44.2701 61.6019 44.3819 62.05 44.5495C62.442 44.7172 62.722 44.9408 62.89 45.1085C63.002 45.1644 63.002 45.2762 63.058 45.2762C63.058 45.3321 63.058 45.3321 63.058 45.3321Z" fill="#E0A47C"/>
<path d="M63.058 45.3321C63.058 45.388 62.778 44.9408 61.938 44.6054C61.5459 44.4378 61.0419 44.3819 60.4259 44.326C59.8099 44.326 59.1379 44.3819 58.3538 44.4378C57.5698 44.4937 56.7298 44.5495 55.8338 44.2142C54.9377 43.8788 54.2097 43.0962 53.7617 42.2019C53.2577 41.2517 53.0897 40.1896 52.8657 39.1276C52.6416 38.0655 52.4176 36.9476 51.8016 35.9415C51.1856 34.9912 50.2896 34.2646 49.4495 33.5379C48.6095 32.8113 47.7695 32.1405 47.2095 31.2462C46.0334 29.5134 45.8654 27.5011 46.0894 25.9919C46.3134 24.4268 46.9295 23.3089 47.4335 22.6381C47.7135 22.3027 47.9375 22.0232 48.1055 21.9115C48.2735 21.7438 48.3855 21.6879 48.3855 21.6879C48.3855 21.6879 48.3295 21.7997 48.1615 21.9673C47.9935 22.135 47.7695 22.4145 47.5455 22.7499C47.0415 23.4207 46.4814 24.5945 46.3134 26.1037C46.0894 27.6129 46.3134 29.5134 47.4335 31.1903C47.9935 32.0287 48.7775 32.6995 49.6735 33.4261C50.5136 34.1528 51.4656 34.8794 52.0816 35.8856C52.7537 36.8917 52.9777 38.0655 53.2017 39.1276C53.4257 40.1896 53.5937 41.2517 54.0417 42.146C54.4897 43.0403 55.1617 43.767 56.0018 44.0465C56.8418 44.3819 57.6818 44.326 58.4098 44.2701C59.1939 44.2142 59.8659 44.1583 60.4819 44.2142C61.0979 44.2701 61.6019 44.3819 62.05 44.5495C62.442 44.7172 62.722 44.9408 62.89 45.1085C63.002 45.1644 63.002 45.2762 63.058 45.2762C63.058 45.3321 63.058 45.3321 63.058 45.3321Z" fill="#E0A47C"/>
<path d="M9.74429 47.6798C9.85629 45.3321 8.73626 42.9844 6.83219 41.6429C4.92813 40.2455 2.35204 39.9101 0.167969 40.7486C1.79202 44.4378 5.48815 47.1767 9.46428 47.6239" fill="#0B96AD"/>
<path d="M7.89611 48.6299C6.55207 50.1392 6.60807 52.5427 7.6161 54.3314C8.56813 56.1201 10.2482 57.3498 11.9843 58.4677C12.5443 56.5673 12.4883 54.4432 11.7602 52.5986C11.0322 50.754 9.74418 49.133 8.00812 48.071" fill="#0B96AD"/>
<path d="M14.5602 41.6429C14.7843 43.8229 15.9043 45.8911 17.6404 47.2326C19.3764 48.5741 21.6725 49.189 23.8006 48.9095C23.2965 46.7295 22.4005 44.4937 20.7205 43.0404C19.0404 41.5311 16.3523 41.0281 14.4482 42.2578" fill="#0B96AD"/>
<path d="M14.5045 39.407C14.1685 37.3948 12.2084 35.9415 10.1923 35.7738C8.17626 35.6061 6.16019 36.4445 4.53613 37.6743C5.76817 39.0717 7.50423 39.966 9.3523 40.1337C11.2004 40.3014 13.1044 39.7983 14.5605 38.6245" fill="#0B96AD"/>
<path d="M4.08826 56.3437C2.18419 57.9647 1.68018 60.8714 2.4642 63.2749C3.24823 65.6785 5.1523 67.5789 7.22437 68.9764C8.00839 66.6287 8.51241 64.0575 8.1204 61.598C7.67238 59.1386 6.21633 56.735 3.92025 55.7289" fill="#0B96AD"/>
<path d="M14.1685 33.8174C15.1765 32.3082 16.9126 31.358 18.7046 31.2462C20.4967 31.1344 22.3447 31.9169 23.5208 33.2584C22.7368 34.9912 20.8887 36.221 18.9846 36.2769C17.0806 36.3327 15.1765 35.2148 14.3365 33.482" fill="#0B96AD"/>
<path d="M16.5207 28.06C14.4486 28.6749 12.1525 28.3954 10.3045 27.2775C8.45642 26.1596 7.16838 24.2032 6.77637 22.0791C8.28842 21.9673 9.85647 21.8555 11.3685 22.135C12.8806 22.4145 14.3926 23.0293 15.4567 24.1473C16.5207 25.2652 16.8567 26.5508 16.5207 28.06Z" fill="#0B96AD"/>
<path d="M20.9445 26.5509C19.5445 25.377 18.6484 23.5883 18.6484 21.7437C18.6484 19.8992 19.4885 18.1105 20.8885 16.9366C22.2886 18.6135 23.2406 20.6258 23.6326 22.7499C23.8006 23.5324 23.8566 24.3709 23.6326 25.1534C23.4086 25.936 22.7366 26.6067 21.9526 26.7185" fill="#0B96AD"/>
<g opacity="0.4">
<g opacity="0.4">
<g opacity="0.4">
<path opacity="0.4" d="M9.74429 47.6798C9.85629 45.3321 8.73626 42.9844 6.83219 41.6429C4.92813 40.2455 2.35204 39.9101 0.167969 40.7486C1.79202 44.4378 5.48815 47.1767 9.46428 47.6239" fill="#0B96AD"/>
</g>
</g>
</g>
<g opacity="0.4">
<g opacity="0.4">
<g opacity="0.4">
<path opacity="0.4" d="M7.89611 48.6299C6.55207 50.1392 6.60807 52.5427 7.6161 54.3314C8.56813 56.1201 10.2482 57.3498 11.9843 58.4677C12.5443 56.5673 12.4883 54.4432 11.7602 52.5986C11.0322 50.754 9.74418 49.133 8.00812 48.071" fill="#0B96AD"/>
</g>
</g>
</g>
<g opacity="0.4">
<g opacity="0.4">
<g opacity="0.4">
<path opacity="0.4" d="M14.5602 41.6429C14.7843 43.8229 15.9043 45.8911 17.6404 47.2326C19.3764 48.5741 21.6725 49.189 23.8006 48.9095C23.2965 46.7295 22.4005 44.4937 20.7205 43.0404C19.0404 41.5311 16.3523 41.0281 14.4482 42.2578" fill="#0B96AD"/>
</g>
</g>
</g>
<g opacity="0.4">
<g opacity="0.4">
<g opacity="0.4">
<path opacity="0.4" d="M14.5045 39.407C14.1685 37.3948 12.2084 35.9415 10.1923 35.7738C8.17626 35.6061 6.16019 36.4445 4.53613 37.6743C5.76817 39.0717 7.50423 39.966 9.3523 40.1337C11.2004 40.3014 13.1044 39.7983 14.5605 38.6245" fill="#0B96AD"/>
</g>
</g>
</g>
<g opacity="0.4">
<g opacity="0.4">
<g opacity="0.4">
<path opacity="0.4" d="M4.08826 56.3437C2.18419 57.9647 1.68018 60.8714 2.4642 63.2749C3.24823 65.6785 5.1523 67.5789 7.22437 68.9764C8.00839 66.6287 8.51241 64.0575 8.1204 61.598C7.67238 59.1386 6.21633 56.735 3.92025 55.7289" fill="#0B96AD"/>
</g>
</g>
</g>
<g opacity="0.4">
<g opacity="0.4">
<g opacity="0.4">
<path opacity="0.4" d="M14.1685 33.8174C15.1765 32.3082 16.9126 31.358 18.7046 31.2462C20.4967 31.1344 22.3447 31.9169 23.5208 33.2584C22.7368 34.9912 20.8887 36.221 18.9846 36.2769C17.0806 36.3327 15.1765 35.2148 14.3365 33.482" fill="#0B96AD"/>
</g>
</g>
</g>
<g opacity="0.4">
<g opacity="0.4">
<g opacity="0.4">
<path opacity="0.4" d="M16.5207 28.06C14.4486 28.6749 12.1525 28.3954 10.3045 27.2775C8.45642 26.1596 7.16838 24.2032 6.77637 22.0791C8.28842 21.9673 9.85647 21.8555 11.3685 22.135C12.8806 22.4145 14.3926 23.0293 15.4567 24.1473C16.5207 25.2652 16.8567 26.5508 16.5207 28.06Z" fill="#0B96AD"/>
</g>
</g>
</g>
<g opacity="0.4">
<g opacity="0.4">
<g opacity="0.4">
<path opacity="0.4" d="M20.9445 26.5509C19.5445 25.377 18.6484 23.5883 18.6484 21.7437C18.6484 19.8992 19.4885 18.1105 20.8885 16.9366C22.2886 18.6135 23.2406 20.6258 23.6326 22.7499C23.8006 23.5324 23.8566 24.3709 23.6326 25.1534C23.4086 25.936 22.7366 26.6067 21.9526 26.7185" fill="#0B96AD"/>
</g>
</g>
</g>
<path d="M28.6172 40.5809C28.6172 40.5809 28.6172 40.525 28.6172 40.4132C28.6172 40.3014 28.6172 40.1337 28.6172 39.966C28.6172 39.5748 28.6732 38.9599 28.6732 38.1773C28.6732 36.6681 28.6732 34.3764 27.6091 31.861C27.1051 30.6313 26.2651 29.2898 25.033 28.2837C23.857 27.2216 22.1769 26.5509 20.3849 26.5509C19.4889 26.5509 18.5928 26.7745 17.7528 27.2216C16.9128 27.6688 16.2407 28.3396 15.7367 29.1221C14.7287 30.799 14.4487 32.8672 14.5607 34.9353C14.6167 37.0035 14.9527 39.0717 14.6727 41.084C14.5607 42.0901 14.3367 43.0403 13.8887 43.9347C13.4967 44.829 12.9366 45.6116 12.1526 46.1705C11.4246 46.7295 10.5846 47.0649 9.74453 47.4003C8.9605 47.6798 8.17648 48.0151 7.50445 48.4064C6.16041 49.2449 5.15237 50.4187 4.53635 51.6484C3.92033 52.8781 3.69633 54.1079 3.69633 55.1699C3.69633 56.2319 3.92033 57.1822 4.14434 57.9088C4.64836 59.3621 5.26438 59.977 5.20838 60.0329C5.20838 60.0329 5.15237 59.977 5.09637 59.9211C5.04037 59.8652 4.92837 59.6975 4.81636 59.5298C4.59236 59.1944 4.31235 58.6914 4.03234 57.9647C3.75233 57.2381 3.52832 56.2878 3.52832 55.2258C3.52832 54.1079 3.75233 52.8781 4.36835 51.5925C4.98437 50.3628 5.9924 49.1331 7.39245 48.2387C8.7925 47.3444 10.5846 47.1208 11.9846 46.0029C13.3847 44.8849 14.1127 43.0403 14.3367 41.084C14.5607 39.1276 14.2807 37.1153 14.1687 34.9912C14.0567 32.9231 14.3367 30.7431 15.4007 29.0103C15.9047 28.1719 16.6888 27.4452 17.5288 26.998C18.3688 26.5509 19.3769 26.3273 20.2729 26.3273C22.1209 26.2714 23.857 27.0539 25.089 28.116C26.3211 29.178 27.1611 30.5195 27.6651 31.8051C28.1691 33.0908 28.4492 34.3205 28.5612 35.4384C28.6732 36.5563 28.6732 37.4507 28.6172 38.2332C28.5612 39.0158 28.5052 39.5748 28.5052 40.0219C28.5052 40.1896 28.4492 40.3573 28.4492 40.4691C28.6172 40.525 28.6172 40.5809 28.6172 40.5809Z" fill="#0B96AD"/>
<g opacity="0.4">
<g opacity="0.4">
<g opacity="0.4">
<path opacity="0.4" d="M28.6172 40.5809C28.6172 40.5809 28.6172 40.525 28.6172 40.4132C28.6172 40.3014 28.6172 40.1337 28.6172 39.966C28.6172 39.5748 28.6732 38.9599 28.6732 38.1773C28.6732 36.6681 28.6732 34.3764 27.6091 31.861C27.1051 30.6313 26.2651 29.2898 25.033 28.2837C23.857 27.2216 22.1769 26.5509 20.3849 26.5509C19.4889 26.5509 18.5928 26.7745 17.7528 27.2216C16.9128 27.6688 16.2407 28.3396 15.7367 29.1221C14.7287 30.799 14.4487 32.8672 14.5607 34.9353C14.6167 37.0035 14.9527 39.0717 14.6727 41.084C14.5607 42.0901 14.3367 43.0403 13.8887 43.9347C13.4967 44.829 12.9366 45.6116 12.1526 46.1705C11.4246 46.7295 10.5846 47.0649 9.74453 47.4003C8.9605 47.6798 8.17648 48.0151 7.50445 48.4064C6.16041 49.2449 5.15237 50.4187 4.53635 51.6484C3.92033 52.8781 3.69633 54.1079 3.69633 55.1699C3.69633 56.2319 3.92033 57.1822 4.14434 57.9088C4.64836 59.3621 5.26438 59.977 5.20838 60.0329C5.20838 60.0329 5.15237 59.977 5.09637 59.9211C5.04037 59.8652 4.92837 59.6975 4.81636 59.5298C4.59236 59.1944 4.31235 58.6914 4.03234 57.9647C3.75233 57.2381 3.52832 56.2878 3.52832 55.2258C3.52832 54.1079 3.75233 52.8781 4.36835 51.5925C4.98437 50.3628 5.9924 49.1331 7.39245 48.2387C8.7925 47.3444 10.5846 47.1208 11.9846 46.0029C13.3847 44.8849 14.1127 43.0403 14.3367 41.084C14.5607 39.1276 14.2807 37.1153 14.1687 34.9912C14.0567 32.9231 14.3367 30.7431 15.4007 29.0103C15.9047 28.1719 16.6888 27.4452 17.5288 26.998C18.3688 26.5509 19.3769 26.3273 20.2729 26.3273C22.1209 26.2714 23.857 27.0539 25.089 28.116C26.3211 29.178 27.1611 30.5195 27.6651 31.8051C28.1691 33.0908 28.4492 34.3205 28.5612 35.4384C28.6732 36.5563 28.6732 37.4507 28.6172 38.2332C28.5612 39.0158 28.5052 39.5748 28.5052 40.0219C28.5052 40.1896 28.4492 40.3573 28.4492 40.4691C28.6172 40.525 28.6172 40.5809 28.6172 40.5809Z" fill="#0B96AD"/>
</g>
</g>
</g>
<path d="M69.2746 35.6061C69.2186 35.6061 69.6666 34.9353 69.6666 33.5379C69.6666 32.8672 69.5546 32.0287 69.1066 31.1903C68.6585 30.3518 67.9305 29.5134 66.8105 29.0103C66.2505 28.7308 65.6904 28.5631 65.0184 28.5072C64.3464 28.4513 63.6744 28.5631 63.0024 28.7308C61.6583 29.0662 60.2583 29.8488 58.6902 30.1841C57.9062 30.3518 57.0101 30.4077 56.1701 30.1282C55.3301 29.8488 54.6021 29.2339 54.0981 28.5072C53.146 26.998 52.866 25.0976 51.69 23.7001C51.1299 23.0294 50.3459 22.5263 49.5059 22.2468C48.6659 21.9674 47.7698 21.9115 46.9298 21.9674C45.1937 22.135 43.6817 23.0294 42.6177 24.2032C41.5536 25.377 40.8816 26.7745 40.4896 28.116C40.0976 29.4575 39.9856 30.799 40.0416 32.0287C40.1536 34.4323 40.5456 36.3887 40.7696 37.7302C40.8816 38.4009 40.9936 38.904 41.0496 39.2953C41.0496 39.463 41.1056 39.5748 41.1056 39.6866C41.1056 39.7983 41.1056 39.7983 41.1056 39.7983C41.1056 39.7983 41.1056 39.7424 41.0496 39.6866C41.0496 39.5748 40.9936 39.463 40.9376 39.2953C40.8816 38.904 40.7696 38.4009 40.6016 37.7861C40.3216 36.4446 39.9296 34.5441 39.7616 32.0846C39.7056 30.8549 39.8176 29.5134 40.2096 28.116C40.6016 26.7186 41.2736 25.3211 42.3937 24.0914C42.9537 23.4766 43.5697 22.9176 44.3537 22.5263C45.0817 22.135 45.9778 21.8556 46.8738 21.7438C47.7698 21.632 48.6659 21.7438 49.5619 22.0232C50.4579 22.3027 51.298 22.8058 51.914 23.5325C53.146 25.0417 53.426 26.9421 54.3781 28.3396C54.8261 29.0662 55.4981 29.6252 56.2821 29.8488C57.0662 30.0723 57.9062 30.0723 58.6342 29.9047C60.2023 29.6252 61.5463 28.8426 62.9463 28.5072C63.6184 28.3396 64.3464 28.2278 65.0184 28.2837C65.6904 28.3396 66.3065 28.5072 66.8665 28.7867C67.9865 29.3457 68.7705 30.24 69.2186 31.0785C69.6666 31.9728 69.7786 32.8113 69.7226 33.5379C69.7226 34.2087 69.5546 34.7677 69.4426 35.103C69.3866 35.4384 69.2746 35.6061 69.2746 35.6061Z" fill="#E0A47C"/>
<path d="M52.9218 25.4888C54.4338 26.439 56.5059 26.4949 57.9059 25.8242C59.306 25.1534 60.258 23.5883 60.426 21.7996C58.914 21.073 57.2339 20.9612 55.7779 21.576C54.3218 22.1909 53.2578 23.4206 52.6978 24.9857" fill="#E0A47C"/>
<path d="M58.2417 30.2959C58.2417 32.0846 59.2497 33.8733 60.5378 34.7117C61.8258 35.5502 63.6179 35.5502 65.2979 34.7676C65.1299 33.0907 64.3459 31.5815 63.1139 30.6872C61.8818 29.7929 60.2578 29.5134 58.5777 29.8487" fill="#E0A47C"/>
<path d="M67.426 29.2339C68.9941 30.0164 71.1221 29.8487 72.4102 29.0103C73.6982 28.1718 74.4822 26.5508 74.4822 24.7621C72.8582 24.2032 71.1781 24.315 69.8341 25.0416C68.49 25.7683 67.538 27.1098 67.146 28.7867" fill="#E0A47C"/>
<path d="M45.2497 22.3027C43.9056 21.1289 43.0096 19.1166 43.2896 17.6074C43.5696 16.0982 44.6896 14.7008 46.3697 14.03C47.5457 15.2598 48.1057 16.8808 47.9377 18.39C47.7697 19.8992 46.9297 21.3525 45.5857 22.3586" fill="#E0A47C"/>
<path d="M9.35254 15.7628C9.35254 15.7628 9.35254 15.7069 9.40854 15.6511C9.46454 15.5393 9.52055 15.4275 9.57655 15.3157C9.74455 15.0362 10.0246 14.589 10.3606 14.0301C11.1446 12.968 12.3206 11.4588 14.3367 10.285C15.3447 9.67012 16.5208 9.16705 17.9208 8.94347C19.2649 8.77578 20.8329 8.83167 22.289 9.39064C23.745 9.9496 25.1451 10.9557 26.0411 12.4091C26.8811 13.9183 27.1611 15.6511 27.6652 17.3279C27.9452 18.1664 28.2252 18.9489 28.7292 19.6756C29.1772 20.4023 29.8492 20.9053 30.5213 21.4084C31.1933 21.9115 31.8653 22.3586 32.5373 22.8617C33.1533 23.3648 33.7134 23.9796 34.1614 24.5945C35.0574 25.8801 35.5614 27.2775 35.8414 28.619C36.1214 29.9606 36.1214 31.2462 36.0654 32.42C35.8974 34.7677 35.3934 36.5564 35.1134 37.842C34.9454 38.4568 34.8334 38.9599 34.7214 39.2953C34.6094 39.6307 34.5534 39.7983 34.5534 39.7983C34.5534 39.7983 34.5534 39.6307 34.6654 39.2953C34.7774 38.9599 34.8894 38.4568 35.0014 37.842C35.2814 36.5564 35.7294 34.7677 35.8974 32.42C35.9534 31.2462 35.8974 30.0165 35.6174 28.6749C35.3374 27.3334 34.8334 25.9919 33.9934 24.7622C33.5454 24.1473 33.0413 23.5884 32.4253 23.0853C31.8093 22.5822 31.1373 22.135 30.4653 21.632C29.7932 21.1289 29.1212 20.5699 28.6172 19.8433C28.1132 19.1166 27.7772 18.2782 27.5532 17.4397C27.0491 15.7628 26.7691 14.0301 25.9291 12.5767C25.1451 11.1234 23.745 10.1732 22.345 9.67012C20.9449 9.11116 19.4329 8.99936 18.1448 9.22295C16.8008 9.39064 15.6248 9.89371 14.6167 10.4527C12.6006 11.6265 11.3686 13.0798 10.5846 14.0859C10.1926 14.589 9.91256 15.0362 9.74455 15.3157C9.46454 15.5952 9.40854 15.7628 9.35254 15.7628Z" fill="#F3C886"/>
<path d="M31.3051 21.9114C30.8571 21.4642 30.6331 21.7996 30.0171 21.9114C29.4011 22.0232 28.841 22.3586 28.337 22.7499C26.2089 24.4827 25.2569 27.5011 26.0409 30.1282C28.001 30.24 30.0171 29.178 31.0251 27.5011C32.0331 25.8242 32.0891 23.5883 31.0811 21.8555" fill="#F3C886"/>
<path d="M12.3205 13.2475C12.0965 12.6885 11.7605 12.8562 11.1445 12.6885C10.5284 12.5208 9.91242 12.5767 9.2964 12.7444C6.60831 13.3593 4.42424 15.7069 4.03223 18.4459C5.76828 19.3961 8.00836 19.2843 9.68842 18.2223C11.3685 17.1603 12.3205 15.148 12.1525 13.1357" fill="#F3C886"/>
<path d="M35.5054 33.5379C34.2734 32.0846 32.3133 31.2462 30.4093 31.358C28.5052 31.4697 26.6571 32.4759 25.5371 34.041C26.9372 35.3266 28.8412 36.0533 30.7453 36.1092C32.6493 36.1092 34.5534 35.2707 35.9535 33.9851" fill="#F3C886"/>
<path d="M33.9374 24.8181C35.8415 24.874 37.8015 24.0355 39.0336 22.5263C40.2656 21.073 40.8256 19.0048 40.4336 17.1044C38.4175 16.6572 36.1775 17.3838 34.7774 18.893C33.4334 20.4582 32.9854 22.7499 33.6574 24.7063" fill="#F3C886"/>
<path d="M27.273 14.589C29.065 15.2597 31.1931 15.092 32.8732 14.1418C34.5532 13.1916 35.7293 11.4029 36.0093 9.50239C34.2732 8.38446 31.9211 8.32856 30.0731 9.3347C28.281 10.3408 27.105 12.3531 27.105 14.4213" fill="#F3C886"/>
<path d="M25.0332 11.2352C23.2411 10.5644 21.113 10.7321 19.433 11.6824C17.7529 12.6326 16.5769 14.4213 16.2969 16.3218C18.0329 17.4397 20.385 17.4956 22.2331 16.4895C24.0251 15.4833 25.2012 13.4711 25.2012 11.4029" fill="#F3C886"/>
<path d="M22.3449 9.44651C24.193 8.83165 25.705 7.37834 26.321 5.53376C26.9931 3.74507 26.769 1.621 25.761 0C23.6889 0.279483 21.8409 1.73279 21.1129 3.63327C20.3848 5.53376 20.7768 7.88141 22.1209 9.44651" fill="#F3C886"/>
<path d="M15.5127 9.78191C16.1847 7.99322 15.9607 5.86915 14.9527 4.24815C13.9447 2.62715 12.1526 1.45332 10.2485 1.22974C9.18449 3.01843 9.18449 5.36608 10.1925 7.15477C11.2566 8.94346 13.3286 10.0614 15.3447 10.0055" fill="#F3C886"/>
<path d="M24.8647 60.0328L26.9928 62.66H53.2577L55.0498 60.0328H24.8647Z" fill="#263238"/>
<path d="M54.4339 59.977C54.4339 60.0329 47.9937 60.1446 40.0414 60.1446C32.0891 60.1446 25.6489 60.0887 25.6489 59.977C25.6489 59.9211 32.0891 59.8093 40.0414 59.8093C47.9937 59.8652 54.4339 59.9211 54.4339 59.977Z" fill="#455A64"/>
<path d="M51.5215 50.0274C51.5215 50.0274 51.4655 50.0833 51.3535 50.2509C51.2414 50.3627 51.0734 50.5863 50.7934 50.8099C50.2894 51.2571 49.5054 51.8719 48.4414 52.4309C47.3773 52.934 45.9773 53.437 44.3532 53.4929C43.5692 53.5488 42.7292 53.4929 41.8331 53.2694C40.9931 53.1017 40.0971 52.7663 39.257 52.4309C37.577 51.7043 36.0089 50.8658 34.4969 50.4186C32.9848 49.9156 31.5848 49.8038 30.4088 50.0274C29.2327 50.2509 28.3927 50.754 27.8887 51.2012C27.3846 51.6484 27.2166 51.9837 27.1606 51.9278C27.1606 51.9278 27.2166 51.816 27.2726 51.7043C27.3847 51.5366 27.5527 51.3689 27.7767 51.0894C28.2807 50.6422 29.1207 50.0833 30.2967 49.8038C31.4728 49.5243 32.9848 49.6361 34.4969 50.1392C36.0089 50.5863 37.577 51.4248 39.257 52.1514C40.0971 52.4868 40.9371 52.8222 41.7771 52.9899C42.6172 53.1576 43.4572 53.2135 44.1852 53.2135C45.7533 53.1576 47.1533 52.7663 48.2174 52.2632C50.5134 51.2012 51.4655 49.9715 51.5215 50.0274Z" fill="#455A64"/>
<path d="M51.746 48.0151C51.746 48.0151 51.69 48.071 51.578 48.2387C51.466 48.3505 51.242 48.5741 51.018 48.7418C50.5139 49.1889 49.6739 49.7479 48.6099 50.251C47.4898 50.754 46.0898 51.1453 44.4657 51.2571C43.6817 51.313 42.7857 51.2571 41.9457 51.0894C41.1056 50.9217 40.2096 50.6422 39.3696 50.3628C37.6335 49.7479 36.0655 49.0213 34.4974 48.5741C32.9854 48.1269 31.5293 48.0151 30.3533 48.1828C29.1772 48.3505 28.2812 48.7977 27.7772 49.1889C27.2172 49.5802 26.9932 49.8597 26.9932 49.8597C26.9932 49.8597 27.0492 49.8038 27.1612 49.6361C27.2732 49.5243 27.4412 49.3007 27.7212 49.133C28.2812 48.7418 29.1772 48.2387 30.3533 48.0151C31.5293 47.7915 33.0414 47.9033 34.6094 48.3505C36.1775 48.7418 37.7455 49.4684 39.4816 50.0833C40.3216 50.4187 41.2176 50.6423 42.0577 50.8099C42.8977 50.9776 43.7377 51.0335 44.5217 50.9776C46.0898 50.9217 47.4898 50.5305 48.5539 50.0833C50.682 49.0771 51.746 47.9033 51.746 48.0151Z" fill="#455A64"/>
<path d="M23.0729 65.2313H20.7769V71.6594H23.0729V65.2313Z" fill="#455A64"/>
<path d="M55.8898 65.2313H53.5938V71.6594H55.8898V65.2313Z" fill="#455A64"/>
<path d="M156.346 114.873L166.595 110.569L191.067 105.706L217.5 110.904L182.611 148.355L166.035 149.305L153.49 124.431L156.346 114.873Z" fill="#FECAD0"/>
<path d="M245.333 143.436C245.333 143.436 228.645 116.662 224.165 113.475C219.685 110.289 205.348 108.277 205.348 108.277C205.348 108.277 189.556 143.827 174.547 142.598C159.539 141.368 157.914 114.146 157.914 114.146L151.306 116.773C148.954 117.724 147.106 119.624 146.266 122.028L132.994 160.54L155.506 165.906C159.483 180.607 165.027 193.408 172.027 204.475L172.755 200.786L219.517 200.059L233.069 194.805L216.772 157.801L245.333 143.436Z" fill="#E0206E"/>
<path d="M158.923 176.471C158.923 176.471 158.867 176.359 158.811 176.191C158.755 175.968 158.643 175.688 158.475 175.297C158.195 174.515 157.803 173.397 157.355 172.055C156.403 169.316 155.115 165.515 153.883 161.267C153.322 159.143 152.818 157.075 152.482 155.174C152.146 153.274 151.866 151.597 151.754 150.144C151.698 149.417 151.642 148.746 151.642 148.187C151.586 147.628 151.586 147.125 151.586 146.734C151.586 146.343 151.586 146.063 151.586 145.784C151.586 145.56 151.586 145.448 151.586 145.448C151.586 145.448 151.586 145.56 151.642 145.784C151.642 146.007 151.698 146.343 151.698 146.734C151.698 147.125 151.754 147.628 151.81 148.187C151.866 148.746 151.922 149.417 151.978 150.144C152.146 151.597 152.37 153.274 152.762 155.174C153.154 157.075 153.602 159.087 154.219 161.211C155.395 165.459 156.683 169.26 157.579 171.999C158.027 173.397 158.363 174.515 158.643 175.297C158.755 175.688 158.867 175.968 158.923 176.191C158.923 176.359 158.923 176.471 158.923 176.471Z" fill="#263238"/>
<path d="M206.02 170.322C206.02 170.322 205.964 170.378 205.796 170.49C205.628 170.546 205.404 170.714 205.068 170.825C204.396 171.105 203.444 171.496 202.212 171.776C199.748 172.446 196.108 172.726 192.3 171.776C188.491 170.769 185.467 168.757 183.619 166.968C182.667 166.074 181.995 165.292 181.603 164.733C181.379 164.453 181.211 164.23 181.099 164.062C180.987 163.894 180.931 163.838 180.931 163.838C180.931 163.838 181.211 164.118 181.659 164.677C182.107 165.236 182.779 165.962 183.731 166.857C185.579 168.534 188.603 170.546 192.356 171.552C196.108 172.502 199.692 172.223 202.156 171.664C203.388 171.384 204.34 171.049 205.012 170.769C205.684 170.434 206.02 170.266 206.02 170.322Z" fill="#263238"/>
<path d="M211.004 128.232C211.004 128.232 211.06 128.009 211.172 127.561C211.284 127.114 211.452 126.555 211.732 125.773C212.236 124.319 213.132 122.307 214.477 120.295C215.765 118.283 217.221 116.662 218.397 115.544C218.957 114.985 219.461 114.593 219.797 114.314C220.133 114.034 220.357 113.923 220.357 113.923C220.413 113.979 219.629 114.593 218.565 115.711C217.445 116.829 216.045 118.45 214.757 120.463C213.468 122.475 212.572 124.431 211.956 125.885C211.284 127.338 211.06 128.288 211.004 128.232Z" fill="#263238"/>
<path d="M212.516 158.081C212.46 158.081 211.788 153.106 211.06 146.958C210.332 140.809 209.828 135.834 209.884 135.834C209.94 135.834 210.612 140.809 211.34 146.958C212.068 153.05 212.628 158.081 212.516 158.081Z" fill="#263238"/>
<g opacity="0.3">
<g opacity="0.3">
<g opacity="0.3">
<path opacity="0.3" d="M181.211 164.844C183.62 168.366 186.084 171.887 189.5 174.459C192.916 177.03 197.396 178.427 201.484 177.198C202.772 176.806 204.004 176.135 205.124 175.409C206.748 174.347 208.316 172.838 208.54 170.937C208.596 170.49 208.54 169.987 208.148 169.763C207.924 169.651 207.644 169.651 207.364 169.707C204.508 170.266 201.988 172.279 199.132 172.446C197.62 172.558 196.164 172.167 194.708 171.831C189.556 170.602 184.684 168.701 181.211 164.844Z" fill="black"/>
</g>
</g>
</g>
<g opacity="0.3">
<g opacity="0.3">
<g opacity="0.3">
<path opacity="0.3" d="M214.812 180.328C215.54 179.433 216.044 178.707 216.716 177.924C217.052 177.477 217.276 177.03 217.444 176.471C217.612 175.856 217.556 175.241 217.444 174.626C216.716 169.428 215.428 164.341 213.692 159.422C213.636 159.199 213.524 158.919 213.692 158.752C213.804 158.64 213.916 158.584 214.028 158.584C214.868 158.305 215.876 157.969 216.716 157.69C217.948 163.838 219.012 170.658 220.244 176.583C220.244 176.471 216.604 179.154 214.812 180.328Z" fill="black"/>
</g>
</g>
</g>
<g opacity="0.3">
<g opacity="0.3">
<g opacity="0.3">
<path opacity="0.3" d="M155.282 165.962C153.266 164.006 151.586 161.658 150.41 159.143C149.906 158.081 149.458 156.907 149.234 155.733C148.954 154.392 148.954 153.05 149.01 151.709C149.122 147.181 149.738 142.598 150.858 138.182C151.082 138.405 151.138 138.741 151.194 139.076C152.034 143.66 151.53 148.411 152.258 152.994C152.538 154.839 153.042 156.684 153.322 158.528C153.49 159.478 153.602 160.429 153.882 161.379C154.106 162.217 154.498 163 154.778 163.838C155.058 164.621 155.17 165.459 155.338 166.242" fill="black"/>
</g>
</g>
</g>
<path d="M190.171 197.879L220.244 176.471L216.716 157.69L236.429 147.516C236.429 147.516 243.597 177.421 238.837 188.936C237.213 192.904 188.491 208.388 188.491 208.388L190.171 197.879Z" fill="#FECAD0"/>
<path d="M231.613 174.626C231.613 174.682 230.941 174.403 229.821 174.235C229.261 174.123 228.589 174.067 227.861 174.067C227.133 174.067 226.293 174.123 225.453 174.235C224.613 174.403 223.829 174.626 223.157 174.85C222.485 175.129 221.869 175.409 221.365 175.688C220.413 176.247 219.853 176.694 219.853 176.639C219.853 176.639 219.965 176.527 220.189 176.303C220.413 176.08 220.805 175.8 221.253 175.521C221.757 175.185 222.317 174.906 223.045 174.626C223.773 174.347 224.557 174.123 225.397 173.956C226.237 173.788 227.077 173.788 227.861 173.788C228.589 173.844 229.261 173.9 229.821 174.067C230.381 174.179 230.829 174.347 231.109 174.459C231.445 174.515 231.613 174.626 231.613 174.626Z" fill="#D37F8B"/>
<path d="M227.356 170.881C227.356 170.937 226.852 171.161 226.124 171.552C225.34 171.943 224.332 172.614 223.212 173.341C222.092 174.067 221.196 174.906 220.692 175.577C220.188 176.247 219.964 176.75 219.908 176.75C219.852 176.75 220.02 176.191 220.524 175.465C221.028 174.738 221.924 173.844 223.044 173.117C224.164 172.39 225.228 171.776 226.012 171.384C226.796 170.993 227.356 170.825 227.356 170.881Z" fill="#D37F8B"/>
<path d="M166.203 212.301C167.827 212.301 169.115 212.301 169.115 212.356C169.115 212.356 167.827 212.412 166.203 212.412C164.579 212.412 163.291 212.412 163.291 212.356C163.291 212.301 164.579 212.301 166.203 212.301Z" fill="#EB996E"/>
<path d="M169.899 199.947C169.899 199.947 114.289 177.197 105.049 175.185C95.8085 173.229 79.624 172.223 72.8477 185.806C68.0876 195.252 67.5836 206.487 85.7282 216.046C103.873 225.604 157.915 234.491 157.915 234.491C157.915 234.491 206.692 246.677 214.589 243.379C222.485 240.081 233.405 233.206 230.101 220.014C226.797 206.879 227.525 200.059 215.653 199.333C203.948 198.606 201.036 198.215 189.892 208.947L169.899 199.947Z" fill="#F3C886"/>
<path d="M232.845 194.19C232.845 194.19 242.813 210.847 239.061 220.461C235.253 230.076 225.621 236.336 225.621 236.336L209.492 201.289L232.845 194.19Z" fill="#F3C886"/>
<path d="M164.411 223.368C164.411 223.368 164.355 223.368 164.187 223.256C164.019 223.2 163.851 223.089 163.571 222.977C163.067 222.697 162.283 222.306 161.331 221.747C159.371 220.685 156.626 219.064 153.322 216.828C150.018 214.592 146.266 211.742 142.178 208.444C140.106 206.823 137.978 205.09 135.794 203.301C133.61 201.513 131.314 199.612 128.85 197.879C126.385 196.091 123.865 194.581 121.345 193.296C118.825 192.01 116.249 190.948 113.785 190.054C108.857 188.265 104.265 187.203 100.401 186.365C96.5364 185.526 93.3443 185.023 91.1603 184.632C90.0962 184.464 89.2562 184.296 88.6402 184.185C88.3602 184.129 88.1362 184.073 87.9681 184.073C87.8001 184.017 87.7441 184.017 87.7441 184.017C87.7441 184.017 87.8001 184.017 87.9681 184.017C88.1362 184.017 88.3602 184.073 88.6402 184.129C89.2562 184.24 90.0962 184.352 91.1603 184.52C93.3443 184.855 96.5364 185.358 100.401 186.141C104.265 186.979 108.913 188.041 113.841 189.774C116.305 190.669 118.881 191.675 121.401 192.96C123.921 194.246 126.497 195.811 128.962 197.544C131.426 199.333 133.722 201.177 135.906 202.966C138.09 204.755 140.274 206.487 142.29 208.108C146.378 211.406 150.074 214.257 153.378 216.493C156.626 218.729 159.371 220.406 161.275 221.523C162.227 222.082 163.011 222.474 163.515 222.809C163.739 222.921 163.963 223.033 164.075 223.144C164.355 223.312 164.411 223.312 164.411 223.368Z" fill="#455A64"/>
<path d="M165.083 222.977C167.435 222.027 159.987 224.486 157.523 223.759C153.603 222.697 150.914 218.17 146.826 218.114C144.194 218.058 141.954 219.847 139.49 220.741C136.466 221.859 133.162 221.579 129.97 221.132C126.778 220.685 123.586 220.014 120.393 220.35C119.441 220.461 118.489 220.685 117.817 221.356C116.977 222.25 116.921 223.703 117.537 224.765C118.153 225.828 119.273 226.554 120.449 226.945C121.625 227.337 122.858 227.449 124.09 227.616C129.802 228.455 135.234 230.746 140.834 232.144C146.602 233.597 152.595 234.1 158.531 234.603C158.531 234.603 158.139 225.828 165.083 222.977Z" fill="#FECAD0"/>
<path d="M216.716 223.312C216.716 223.312 216.772 223.368 216.828 223.536C216.884 223.703 216.996 223.927 217.052 224.207C217.22 224.765 217.444 225.66 217.5 226.722C217.612 227.784 217.612 229.125 217.332 230.523C217.052 231.92 216.492 233.429 215.596 234.827C214.644 236.224 213.412 237.286 212.18 238.013C210.948 238.74 209.66 239.131 208.596 239.299C207.532 239.466 206.636 239.41 206.02 239.299C205.74 239.243 205.516 239.187 205.348 239.131C205.18 239.075 205.124 239.075 205.124 239.075C205.124 238.963 206.468 239.466 208.596 239.075C209.66 238.907 210.892 238.46 212.068 237.733C213.3 237.007 214.476 235.945 215.372 234.603C216.268 233.262 216.828 231.753 217.108 230.411C217.388 229.014 217.444 227.728 217.332 226.666C217.276 225.604 217.108 224.765 216.94 224.151C216.772 223.648 216.66 223.368 216.716 223.312Z" fill="#455A64"/>
<path d="M178.299 212.356L212.236 196.873L222.989 199.109L223.493 200.283L183.844 216.157L178.299 214.816V212.356Z" fill="white"/>
<path d="M213.133 198.326L178.299 214.816L189.724 217.555L225.789 200.73L213.133 198.326Z" fill="#455A64"/>
<path d="M165.083 222.977C165.083 222.977 183.003 210.791 187.707 208.332C192.411 205.872 217.388 200.171 223.604 202.798C229.877 205.369 205.012 227.616 205.012 227.616L165.083 222.977Z" fill="#F3C886"/>
<path d="M201.596 213.195C201.596 213.195 201.54 213.195 201.484 213.139C201.372 213.083 201.26 213.027 201.092 212.971C200.756 212.804 200.252 212.58 199.636 212.356C198.348 211.797 196.556 211.015 194.148 210.344C192.972 210.009 191.628 209.785 190.228 209.729C189.5 209.673 188.772 209.729 187.987 209.841C187.259 209.953 186.475 210.121 185.691 210.344C182.555 211.294 179.587 213.363 176.563 215.543C173.483 217.723 170.403 219.567 167.715 221.356C166.371 222.25 165.083 223.089 163.907 223.927C162.731 224.765 161.723 225.66 161.051 226.666C160.323 227.672 159.875 228.678 159.539 229.573C159.203 230.467 158.979 231.305 158.811 231.976C158.643 232.647 158.53 233.15 158.418 233.485C158.362 233.653 158.362 233.765 158.306 233.877C158.306 233.988 158.25 233.988 158.25 233.988C158.25 233.988 158.25 233.933 158.25 233.821C158.25 233.709 158.306 233.597 158.306 233.429C158.362 233.094 158.474 232.535 158.642 231.864C158.811 231.194 159.035 230.355 159.371 229.461C159.707 228.566 160.155 227.504 160.883 226.498C161.555 225.436 162.619 224.542 163.795 223.703C164.971 222.865 166.259 221.971 167.603 221.076C170.347 219.288 173.371 217.387 176.451 215.263C179.531 213.083 182.499 211.015 185.691 210.065C186.475 209.785 187.259 209.673 188.043 209.562C188.828 209.506 189.556 209.45 190.284 209.506C191.74 209.562 193.084 209.841 194.26 210.176C196.668 210.847 198.46 211.686 199.692 212.301C200.308 212.58 200.812 212.804 201.148 212.971C201.316 213.027 201.428 213.083 201.54 213.139L201.596 213.195Z" fill="#455A64"/>
<path d="M204.452 212.189C204.396 212.245 203.948 211.797 203.052 211.294C202.156 210.791 200.812 210.288 199.244 210.121C197.676 209.897 196.22 209.953 195.212 210.009C194.148 210.065 193.532 210.121 193.532 210.065C193.532 210.009 194.148 209.897 195.212 209.785C196.276 209.673 197.732 209.618 199.3 209.841C200.924 210.009 202.324 210.568 203.22 211.127C203.668 211.406 204.004 211.686 204.228 211.853C204.396 212.077 204.508 212.189 204.452 212.189Z" fill="#455A64"/>
<path d="M227.917 205.09C227.917 205.09 227.525 204.866 226.909 204.419C226.237 204.028 225.285 203.469 223.941 203.022C222.653 202.575 221.029 202.183 219.181 202.071C217.333 201.904 215.316 202.016 213.244 202.239C211.116 202.519 209.156 202.854 207.308 203.245C205.516 203.581 203.892 203.972 202.492 204.251C201.148 204.587 200.028 204.866 199.3 205.034C198.964 205.146 198.684 205.202 198.404 205.258C198.18 205.313 198.124 205.313 198.068 205.313C198.068 205.313 198.18 205.258 198.348 205.202C198.516 205.146 198.852 205.034 199.188 204.922C199.916 204.699 201.036 204.419 202.38 204.028C203.724 203.692 205.348 203.301 207.14 202.966C208.932 202.63 210.948 202.239 213.076 201.96C215.204 201.736 217.221 201.624 219.069 201.848C220.917 202.016 222.541 202.407 223.885 202.91C225.229 203.413 226.181 203.972 226.853 204.419C227.189 204.643 227.413 204.866 227.581 204.978C227.861 205.034 227.917 205.09 227.917 205.09Z" fill="#455A64"/>
<path d="M142.29 163C142.29 163 145.314 185.582 146.49 189.215C147.722 192.793 157.187 205.928 157.187 205.928L169.843 199.947L161.387 184.073L155.562 166.074L142.29 163Z" fill="#FECAD0"/>
<path d="M169.339 199.109C170.459 198.941 171.523 198.885 172.643 198.941C173.035 198.941 173.483 198.997 173.819 199.277C174.043 199.444 174.155 199.668 174.323 199.891C174.939 201.009 175.331 202.295 175.331 203.581C175.331 203.804 175.331 204.084 175.163 204.307C174.883 204.643 174.379 204.531 173.987 204.363C173.427 204.14 172.923 203.804 172.475 203.413C171.859 202.91 171.355 202.239 170.907 201.624C170.739 201.401 170.571 201.177 170.403 201.009C170.011 200.45 169.563 199.947 169.171 199.388" fill="#D37F8B"/>
<path d="M164.803 189.383C165.699 191.731 168.499 199.221 168.499 199.221L170.403 201.345L166.035 188.88C165.923 188.544 165.531 188.377 165.195 188.433C164.859 188.545 164.635 188.992 164.803 189.383Z" fill="#E0E0E0"/>
<path d="M162.339 199.891C162.339 199.891 159.651 200.115 158.866 200.898C158.138 201.68 157.858 204.084 157.858 204.084C157.858 204.084 156.29 206.264 157.13 208.164C157.13 208.164 155.842 211.183 156.906 212.189C157.97 213.195 158.418 213.363 158.418 213.363H170.627L175.443 205.984L170.627 201.401C170.627 201.401 167.603 196.929 165.979 196.761C164.355 196.482 161.107 196.873 162.339 199.891Z" fill="#FECAD0"/>
<path d="M162.339 199.892C162.339 199.892 162.283 199.836 162.227 199.668C162.171 199.5 162.059 199.333 162.059 198.997C162.003 198.718 162.003 198.326 162.171 197.879C162.339 197.488 162.787 197.097 163.291 196.873C163.795 196.65 164.467 196.538 165.139 196.538C165.475 196.538 165.811 196.538 166.203 196.65C166.595 196.761 166.931 196.985 167.211 197.208C168.443 198.215 169.563 199.612 170.683 201.233C172.139 202.63 173.763 204.196 175.499 205.817L175.555 205.872L175.499 205.984C173.987 208.276 172.363 210.791 170.683 213.363L170.627 213.418H170.571C170.347 213.418 170.123 213.418 169.955 213.418C165.867 213.418 161.947 213.418 158.363 213.418H158.307C157.747 213.139 157.355 212.748 156.963 212.412C156.795 212.245 156.515 212.021 156.459 211.742C156.347 211.462 156.291 211.183 156.291 210.959C156.291 209.897 156.627 208.947 156.963 208.052V208.164C156.627 207.382 156.683 206.543 156.851 205.872C157.019 205.146 157.355 204.531 157.691 203.972V204.028C157.859 202.91 158.027 201.96 158.475 201.177C158.587 201.009 158.755 200.786 158.923 200.674C159.091 200.562 159.259 200.45 159.427 200.395C159.763 200.227 160.099 200.171 160.379 200.115C160.995 200.003 161.443 199.947 161.723 199.892C161.891 199.892 162.003 199.892 162.059 199.892C162.339 199.892 162.339 199.892 162.339 199.892C162.339 199.892 162.283 199.892 162.227 199.892C162.115 199.892 162.003 199.947 161.891 199.947C161.555 200.003 161.107 200.059 160.547 200.227C160.267 200.283 159.931 200.395 159.595 200.562C159.427 200.618 159.259 200.73 159.091 200.842C158.923 200.954 158.811 201.121 158.699 201.289C158.307 202.016 158.083 203.022 157.971 204.084C157.635 204.587 157.355 205.258 157.187 205.928C157.019 206.599 157.019 207.382 157.299 208.108V208.164V208.22C156.963 209.059 156.683 210.009 156.683 211.015C156.683 211.238 156.739 211.518 156.795 211.742C156.851 211.965 157.075 212.133 157.243 212.301C157.635 212.636 158.083 213.027 158.475 213.251H158.419C161.947 213.251 165.867 213.251 170.011 213.251C170.235 213.251 170.459 213.251 170.627 213.251L170.515 213.307C172.195 210.68 173.875 208.22 175.331 205.928V206.096C173.595 204.419 171.971 202.854 170.515 201.457C169.395 199.892 168.275 198.438 167.099 197.432C166.819 197.208 166.483 196.985 166.147 196.873C165.811 196.761 165.475 196.761 165.139 196.761C164.467 196.761 163.851 196.873 163.347 197.041C162.843 197.264 162.451 197.544 162.283 197.935C162.115 198.326 162.115 198.718 162.171 198.997C162.227 199.277 162.283 199.5 162.339 199.668C162.339 199.78 162.395 199.892 162.339 199.892Z" fill="#D37F8B"/>
<path d="M168.107 209.729C168.107 209.785 167.491 209.729 166.539 209.618C166.035 209.562 165.475 209.506 164.859 209.394C164.523 209.338 164.187 209.282 163.851 209.114C163.515 208.947 163.179 208.779 162.899 208.555C161.723 207.661 160.771 206.655 160.155 205.872C159.539 205.09 159.259 204.587 159.315 204.531C159.371 204.531 159.707 204.978 160.323 205.705C160.939 206.431 161.891 207.382 163.067 208.276C163.347 208.5 163.683 208.667 163.963 208.835C164.243 208.947 164.579 209.059 164.915 209.114C165.531 209.226 166.091 209.338 166.595 209.394C167.491 209.562 168.107 209.673 168.107 209.729Z" fill="#D37F8B"/>
<path d="M167.603 212.86C167.603 212.915 167.043 212.971 166.091 213.027C165.643 213.027 165.027 213.027 164.411 212.971C163.795 212.915 163.123 212.692 162.451 212.356C161.107 211.686 160.155 210.791 159.483 210.121C158.811 209.45 158.475 209.003 158.475 208.947C158.531 208.891 158.923 209.338 159.651 209.953C160.323 210.568 161.331 211.462 162.619 212.077C163.907 212.692 165.195 212.804 166.147 212.804C166.987 212.86 167.603 212.804 167.603 212.86Z" fill="#D37F8B"/>
<path d="M169.731 206.599C169.731 206.655 169.227 206.431 168.499 205.984C167.771 205.537 166.819 204.922 165.867 204.084C164.915 203.245 164.131 202.407 163.571 201.736C163.067 201.065 162.787 200.618 162.787 200.618C162.843 200.562 164.131 202.183 166.035 203.86C167.995 205.537 169.787 206.543 169.731 206.599Z" fill="#D37F8B"/>
<path d="M142.29 216.66V212.356H178.299V213.754V214.033L173.259 217.555L142.29 216.66Z" fill="white"/>
<path d="M172.587 217.89H139.602V216.157H175.163L172.587 217.89Z" fill="#455A64"/>
<path d="M184.403 199.221C184.011 199.277 176.003 200.674 176.003 200.674L170.291 207.549V212.412C170.291 212.412 172.027 213.418 172.867 211.909C172.867 211.909 171.131 216.884 171.803 217.611C172.475 218.337 173.595 218.952 174.547 217.611C175.499 216.269 176.843 212.971 176.843 212.971L177.067 215.039C177.067 215.039 181.883 212.692 182.387 212.021C182.947 211.35 186.028 206.823 186.028 206.823L187.484 205.537L186.028 207.829C186.028 207.829 183.451 210.568 184.515 211.127C185.58 211.686 187.484 209.673 187.484 209.673L190.452 206.264L192.972 205.984C192.972 205.984 193.14 204.363 192.58 201.009C192.412 199.947 190.62 197.823 190.788 197.6V197.544L184.403 199.221Z" fill="#FECAD0"/>
<path d="M177.739 202.854C177.795 202.91 177.347 203.301 176.731 204.084C176.115 204.81 175.275 205.872 174.491 207.046C174.099 207.605 174.043 208.332 173.875 208.947C173.707 209.562 173.539 210.121 173.371 210.568C173.035 211.462 172.811 212.021 172.755 212.021C172.699 212.021 172.867 211.462 173.147 210.512C173.259 210.065 173.427 209.506 173.595 208.891C173.651 208.555 173.763 208.276 173.819 207.941C173.875 207.605 174.043 207.214 174.267 206.934C175.107 205.705 175.947 204.699 176.619 203.972C177.235 203.189 177.683 202.798 177.739 202.854Z" fill="#D37F8B"/>
<path d="M181.771 203.972C181.771 203.972 181.659 204.084 181.491 204.307C181.267 204.587 180.987 204.866 180.707 205.202C180.371 205.593 179.979 206.04 179.587 206.487C179.363 206.711 179.139 206.99 178.915 207.27C178.691 207.549 178.467 207.829 178.355 208.164C177.683 210.456 177.067 212.468 176.843 213.139L176.787 213.307V213.139C176.787 212.915 176.787 212.86 176.787 212.86C176.787 212.86 176.843 212.971 176.899 213.139H176.787C176.955 212.468 177.403 210.456 178.131 208.108C178.187 207.941 178.299 207.717 178.411 207.549C178.523 207.382 178.635 207.27 178.747 207.102C178.971 206.823 179.195 206.543 179.419 206.32C179.867 205.817 180.259 205.369 180.595 205.034C181.267 204.307 181.771 203.916 181.771 203.972Z" fill="#D37F8B"/>
<path d="M183.843 205.425C183.899 205.425 183.563 205.872 183.059 206.487C182.779 206.823 182.443 207.158 182.107 207.549C181.939 207.773 181.771 207.941 181.603 208.164C181.435 208.388 181.323 208.667 181.211 208.947C180.987 209.506 180.875 210.065 180.707 210.568C180.539 211.071 180.427 211.518 180.315 211.909C180.091 212.692 179.923 213.139 179.867 213.139C179.811 213.139 179.923 212.636 180.091 211.853C180.203 211.406 180.315 210.959 180.427 210.456C180.539 209.953 180.707 209.394 180.931 208.779C181.043 208.5 181.155 208.22 181.323 207.941C181.491 207.717 181.659 207.493 181.883 207.27C182.219 206.879 182.555 206.543 182.891 206.264C183.451 205.761 183.843 205.369 183.843 205.425Z" fill="#D37F8B"/>
<path d="M193.252 205.537C193.252 205.537 193.196 205.537 193.084 205.593C192.972 205.649 192.804 205.649 192.58 205.705C192.076 205.817 191.404 205.984 190.508 206.208H190.564C190.172 206.711 189.668 207.214 189.164 207.885C188.884 208.22 188.604 208.555 188.324 208.891C187.988 209.226 187.764 209.617 187.372 209.953C186.98 210.288 186.588 210.624 186.084 210.903C185.86 211.015 185.58 211.183 185.3 211.238C185.02 211.294 184.683 211.294 184.403 211.015C184.291 210.903 184.235 210.68 184.291 210.512C184.291 210.344 184.347 210.176 184.403 210.065C184.515 209.785 184.683 209.506 184.852 209.226C185.188 208.723 185.636 208.22 186.084 207.717C186.532 206.99 187.036 206.208 187.54 205.425L187.708 205.593C187.26 205.984 186.756 206.431 186.252 206.879C185.132 208.444 184.011 210.065 182.779 211.797C182.723 211.909 182.611 212.021 182.555 212.133C182.443 212.245 182.331 212.356 182.219 212.412C181.995 212.58 181.771 212.692 181.547 212.859C181.099 213.139 180.595 213.418 180.147 213.642C179.195 214.145 178.187 214.648 177.179 215.151L177.011 215.263V215.039C176.955 214.425 176.843 213.698 176.787 212.971L177.067 213.027C176.675 213.922 176.283 214.872 175.835 215.766C175.611 216.213 175.387 216.716 175.107 217.164C174.827 217.611 174.547 218.114 173.987 218.393C173.651 218.561 173.203 218.561 172.867 218.449C172.531 218.337 172.195 218.114 171.971 217.834C171.915 217.778 171.859 217.722 171.803 217.611C171.747 217.499 171.691 217.387 171.691 217.331C171.635 217.164 171.635 216.94 171.635 216.772C171.635 216.437 171.691 216.046 171.747 215.71C172.027 214.369 172.419 213.083 172.867 211.797L173.147 211.909C172.923 212.356 172.419 212.748 171.859 212.804C171.299 212.859 170.795 212.692 170.347 212.468L170.291 212.412V212.301C170.291 210.624 170.291 209.003 170.291 207.438V207.382L170.347 207.326C172.419 204.866 174.323 202.575 176.115 200.506V200.45H176.171C179.475 199.892 182.275 199.444 184.571 199.053C186.588 198.494 188.212 198.047 189.332 197.767C189.892 197.6 190.284 197.544 190.62 197.432C190.732 197.376 190.844 197.376 190.956 197.376C191.012 197.376 191.012 197.376 191.068 197.376V197.432C191.124 197.376 190.956 197.432 190.676 197.544C190.396 197.656 189.948 197.767 189.444 197.935C188.324 198.271 186.7 198.718 184.683 199.277C182.387 199.668 179.587 200.171 176.283 200.786L176.339 200.73C174.603 202.798 172.699 205.09 170.627 207.605L170.683 207.493C170.683 209.059 170.683 210.68 170.683 212.356L170.627 212.245C171.019 212.468 171.523 212.58 171.971 212.524C172.419 212.468 172.811 212.189 173.035 211.742L173.315 211.853C172.867 213.083 172.475 214.369 172.251 215.71C172.195 216.046 172.139 216.381 172.139 216.716C172.139 216.884 172.139 217.052 172.139 217.219C172.139 217.387 172.251 217.443 172.363 217.555C172.811 218.002 173.483 218.337 174.099 218.058C174.547 217.834 174.827 217.387 175.051 216.94C175.331 216.493 175.555 216.046 175.779 215.598C176.227 214.704 176.619 213.754 177.011 212.859L177.235 212.356L177.291 212.915C177.347 213.642 177.459 214.313 177.515 214.984L177.291 214.872C178.299 214.369 179.307 213.866 180.259 213.363C180.763 213.083 181.211 212.859 181.659 212.58C181.883 212.468 182.107 212.301 182.331 212.133C182.443 212.077 182.555 211.965 182.611 211.909C182.667 211.797 182.779 211.686 182.835 211.574C184.067 209.897 185.188 208.22 186.308 206.711C186.812 206.264 187.316 205.817 187.764 205.425L188.436 204.866L187.988 205.593C187.484 206.376 186.98 207.158 186.532 207.885C186.084 208.388 185.692 208.835 185.356 209.394C185.188 209.673 185.02 209.897 184.908 210.176C184.795 210.456 184.74 210.735 184.852 210.903C185.02 211.071 185.3 211.127 185.58 211.071C185.86 211.015 186.084 210.903 186.308 210.791C186.756 210.512 187.204 210.176 187.54 209.841C187.932 209.506 188.212 209.114 188.492 208.779C188.772 208.444 189.108 208.108 189.332 207.773C189.892 207.158 190.34 206.599 190.788 206.152C191.684 205.984 192.356 205.817 192.86 205.705C193.084 205.649 193.252 205.649 193.42 205.593C193.196 205.537 193.252 205.481 193.252 205.537Z" fill="#D37F8B"/>
<path d="M152.258 80.8878C149.626 79.0432 148.282 75.5217 149.01 72.3915C149.066 72.0562 149.178 71.6649 149.01 71.3295C148.842 71.05 148.562 70.8823 148.282 70.7705C146.77 69.988 145.594 68.5906 145.146 66.9137C144.698 65.2927 145.146 63.3922 146.434 62.2184C143.97 61.324 142.906 58.0261 144.082 55.6785C145.258 53.3308 148.114 52.1011 150.746 52.4365C149.85 51.0949 150.242 49.1945 151.306 48.0206C152.37 46.8468 153.994 46.2319 155.562 45.9525C157.691 45.5612 160.211 45.8407 161.443 47.5735C161.555 46.232 162.899 45.3935 164.187 45.0581C167.603 44.2197 171.523 46.4555 172.531 49.8652C173.651 49.0827 174.883 48.4119 176.227 48.356C177.571 48.356 179.027 49.1945 179.307 50.4801C179.867 49.2504 181.323 48.8032 182.667 48.6355C183.619 48.5237 184.627 48.6355 185.467 49.0827C186.307 49.5298 186.923 50.536 186.699 51.4862C188.436 50.8155 190.62 51.7098 191.404 53.3867C192.188 55.0636 191.516 57.2995 189.948 58.2497C191.348 59.0323 192.356 60.5974 192.412 62.2184C192.468 63.8394 191.628 65.4604 190.284 66.4106C191.068 66.4665 191.516 67.5844 191.124 68.3111C190.788 69.0377 189.948 69.3731 189.108 69.5408C189.444 72.3356 189.724 75.0746 190.06 77.8694C190.284 79.6581 190.452 81.5027 190.116 83.2355C189.78 85.0242 188.716 86.7569 187.091 87.4836" fill="#263238"/>
<path d="M151.418 72.8946C151.026 66.1311 157.41 58.5292 164.186 58.4174L186.419 59.8148L186.811 63.448L191.963 110.122L167.715 123.872L166.203 106.321C166.203 106.321 157.466 105.985 154.274 95.0296C152.706 89.5517 151.866 80.3847 151.418 72.8946Z" fill="#FECAD0"/>
<path d="M154.946 81.0555C155.002 81.838 155.73 82.397 156.514 82.3411C157.298 82.2852 157.914 81.6144 157.858 80.8878C157.802 80.1052 157.074 79.5463 156.29 79.6022C155.45 79.6581 154.89 80.3288 154.946 81.0555Z" fill="#263238"/>
<path d="M153.994 77.3663C154.218 77.534 155.17 76.5837 156.738 76.416C158.306 76.1925 159.538 76.8632 159.65 76.6396C159.706 76.5278 159.482 76.2483 158.978 75.913C158.474 75.6335 157.578 75.354 156.626 75.5217C155.674 75.6335 154.89 76.0807 154.498 76.5278C153.994 76.975 153.882 77.3104 153.994 77.3663Z" fill="#263238"/>
<path d="M168.779 79.9375C168.835 80.7201 169.563 81.279 170.347 81.2231C171.131 81.1672 171.747 80.4965 171.691 79.7698C171.635 78.9873 170.907 78.4283 170.123 78.4842C169.283 78.5401 168.723 79.2108 168.779 79.9375Z" fill="#263238"/>
<path d="M169.227 76.1365C169.451 76.3042 170.403 75.354 171.971 75.1863C173.539 74.9627 174.771 75.6335 174.883 75.4099C174.939 75.2981 174.715 75.0186 174.211 74.6832C173.707 74.4037 172.811 74.1243 171.859 74.292C170.907 74.4038 170.123 74.8509 169.731 75.2981C169.227 75.6894 169.115 76.0247 169.227 76.1365Z" fill="#263238"/>
<path d="M165.026 87.9307C165.026 87.8189 164.018 87.8189 162.45 87.8189C162.058 87.8189 161.666 87.8189 161.554 87.5394C161.442 87.2599 161.554 86.8128 161.666 86.3656C161.89 85.3595 162.17 84.2974 162.45 83.2354C163.514 78.7637 164.242 75.1304 164.074 75.0745C163.906 75.0186 162.842 78.596 161.778 83.1236C161.498 84.2415 161.274 85.3036 161.05 86.2538C160.938 86.701 160.77 87.2599 161.05 87.8189C161.218 88.0984 161.498 88.2661 161.778 88.322C162.058 88.3779 162.282 88.322 162.45 88.322C164.074 88.0984 165.026 87.9866 165.026 87.9307Z" fill="#263238"/>
<path d="M166.258 106.321C166.258 106.321 173.875 105.874 180.763 100.452C180.763 100.452 177.739 108.78 166.426 109.116L166.258 106.321Z" fill="#D37F8B"/>
<path d="M166.147 91.564C166.595 90.7814 167.547 90.2225 168.499 90.2225C169.171 90.2225 169.899 90.4461 170.347 90.9491C170.795 91.4522 171.019 92.1788 170.683 92.7937C170.347 93.4086 169.507 93.6881 168.723 93.5763C167.939 93.4645 167.267 93.0732 166.595 92.626C166.427 92.5142 166.203 92.4024 166.091 92.2347C165.979 92.0671 165.923 91.8435 166.035 91.6758" fill="#D37F8B"/>
<path d="M169.731 88.4338C169.451 88.4338 169.675 90.1107 168.387 91.5081C167.099 92.9055 165.307 92.9055 165.307 93.1291C165.307 93.2409 165.755 93.4086 166.483 93.3527C167.211 93.2968 168.275 92.9055 169.059 92.0671C169.843 91.2286 170.123 90.2225 170.067 89.4958C170.067 88.7692 169.843 88.3779 169.731 88.4338Z" fill="#263238"/>
<path d="M168.051 70.6587C168.275 71.05 169.787 70.6587 171.635 70.6587C173.483 70.6028 174.995 70.9382 175.219 70.5469C175.331 70.3792 174.995 69.9879 174.379 69.6526C173.763 69.3172 172.755 69.0377 171.635 69.0936C170.515 69.0936 169.563 69.429 168.947 69.7643C168.275 70.0997 167.939 70.491 168.051 70.6587Z" fill="#263238"/>
<path d="M153.994 72.8387C154.33 73.1741 155.338 72.671 156.626 72.5033C157.914 72.2797 159.034 72.4474 159.202 72.0561C159.314 71.8885 159.09 71.5531 158.586 71.2736C158.082 70.9941 157.242 70.8264 156.402 70.9382C155.506 71.05 154.778 71.4972 154.386 71.8885C153.938 72.3356 153.826 72.671 153.994 72.8387Z" fill="#263238"/>
<path d="M154.386 59.4235C153.938 61.5476 154.89 63.8952 156.682 65.1249C158.474 66.3547 161.051 66.3547 162.843 65.1249C162.171 65.9075 162.451 67.1931 163.235 67.9198C164.019 68.5905 165.139 68.7582 166.147 68.7023C168.331 68.5905 170.403 67.4167 171.691 65.6839C172.139 67.3608 173.427 68.8141 175.051 69.429C176.675 70.0438 178.579 69.8762 180.091 68.9818C178.747 70.6028 178.579 73.0623 179.699 74.8509C180.819 76.6396 183.115 77.5899 185.131 77.1427C187.203 76.6955 188.827 74.8509 189.051 72.7269C190.564 71.8325 191.628 70.2674 191.852 68.5346C192.076 66.8018 191.46 65.0132 190.172 63.7834C191.236 63.2804 191.908 62.1065 192.02 60.9327C192.132 59.7589 191.74 58.5851 191.236 57.523C190.004 54.8959 187.819 52.6041 185.075 51.7098C182.331 50.8154 178.915 51.5421 177.179 53.8338C176.955 54.1133 176.787 54.3928 176.451 54.5046C176.003 54.6164 175.611 54.3369 175.219 54.0574C173.651 52.7718 172.083 51.4303 170.067 51.1508C167.659 50.8154 165.139 52.3246 164.411 54.6164C162.787 52.4923 159.762 51.3744 157.298 52.4364C154.834 53.4985 153.546 56.8523 155.058 59.0881" fill="#263238"/>
<path d="M183.731 74.7392C184.123 76.975 184.851 79.2109 185.86 81.2232C186.308 82.1175 186.924 83.0119 187.876 83.1236C188.772 83.2354 189.556 82.5088 189.892 81.6703C190.172 80.8319 190.116 79.9375 190.004 79.0432C189.556 75.913 188.716 72.8946 187.876 69.8762" fill="#263238"/>
<path d="M186.476 77.0868C186.588 76.9751 191.908 74.4038 192.692 80.1053C193.476 85.8067 187.596 85.4154 187.596 85.2477C187.54 85.0801 186.476 77.0868 186.476 77.0868Z" fill="#FECAD0"/>
<path d="M188.995 82.8442C188.995 82.8442 189.107 82.9001 189.275 82.956C189.444 83.0119 189.724 83.0119 190.004 82.8442C190.564 82.5647 190.956 81.5027 190.844 80.4965C190.788 79.9935 190.62 79.4904 190.34 79.0991C190.116 78.7079 189.78 78.4284 189.499 78.4284C189.163 78.4284 188.995 78.5961 188.939 78.7638C188.883 78.9314 188.939 79.0432 188.883 79.0432C188.883 79.0432 188.771 78.9873 188.771 78.7079C188.771 78.5961 188.827 78.4284 188.939 78.3166C189.051 78.2048 189.275 78.093 189.444 78.093C189.892 78.0371 190.34 78.4284 190.62 78.8196C190.9 79.2109 191.124 79.7699 191.18 80.3848C191.292 81.5586 190.844 82.6765 190.06 83.0678C189.668 83.2355 189.331 83.1796 189.107 83.0678C189.051 83.0119 188.995 82.9001 188.995 82.8442Z" fill="#D37F8B"/>
<path d="M155.786 86.6452C154.442 86.6452 152.706 86.5334 152.146 86.0862C151.306 85.4154 150.298 82.7883 149.346 80.273C149.234 79.9376 149.122 79.714 149.122 79.6581L149.626 79.3786C149.682 79.4345 149.682 79.5463 149.906 80.0494C150.41 81.3909 151.698 84.9683 152.538 85.5831C153.49 86.3657 160.714 85.9185 161.33 85.3596C161.722 84.9683 162.339 81.5586 162.675 79.2668L162.731 79.0432L165.587 78.652L165.699 78.8197C166.427 80.273 168.611 84.1298 169.899 84.7447C171.579 85.5272 177.683 84.3534 178.075 83.6268C178.411 83.0119 179.083 79.0432 179.419 76.5838L179.475 76.3602L188.267 75.6895L188.323 76.2484L179.979 76.8633C179.811 78.093 179.027 83.0678 178.579 83.9062C177.963 85.0242 171.411 86.0303 169.675 85.2478C168.051 84.5211 165.755 80.2171 165.251 79.2668L163.235 79.5463C163.067 80.8319 162.395 85.0801 161.778 85.7508C161.218 86.3098 157.578 86.4775 157.186 86.5334C156.794 86.6452 156.346 86.6452 155.786 86.6452Z" fill="#455A64"/>
<path d="M165.81 79.714L165.138 78.8196C168.666 76.1925 175.331 74.5156 179.867 76.3602L179.419 77.4222C175.443 75.7453 169.17 77.2545 165.81 79.714Z" fill="#455A64"/>
<path d="M149.57 80.2729L149.066 79.2668C153.434 76.9192 159.426 76.8074 163.29 79.0432L162.73 79.9935C159.202 77.9812 153.602 78.093 149.57 80.2729Z" fill="#455A64"/>
<path d="M190.9 80.1052C190.228 79.7699 189.444 79.6581 188.828 80.1052C188.436 80.3847 188.212 80.9437 188.324 81.4468C188.436 81.9498 188.884 82.3411 189.332 82.4529C189.612 82.5088 189.892 82.4529 190.116 82.6206C190.34 82.7883 190.508 83.0678 190.508 83.3472C190.508 83.6267 190.452 83.9062 190.396 84.1857C190.284 84.8564 190.34 85.5272 190.564 86.1421C190.62 86.3098 190.676 86.5333 190.844 86.6451C190.956 86.7569 191.124 86.7569 191.292 86.7569C191.796 86.7569 192.244 86.4775 192.524 86.0303C192.804 85.639 192.916 85.1359 193.028 84.6329C193.14 83.8503 193.196 83.0678 193.084 82.3411C193.028 81.8939 192.916 81.3909 192.636 80.9996C192.188 80.3847 190.508 79.8817 189.724 79.8258" fill="#263238"/>
<path d="M171.859 64.5101C171.859 64.5101 171.803 64.566 171.691 64.566C171.579 64.6219 171.411 64.6778 171.187 64.7337C170.739 64.8455 170.067 65.0132 169.171 64.9573C168.723 64.9573 168.219 64.9014 167.715 64.7337C167.211 64.6219 166.651 64.3424 166.147 63.9511C165.643 63.5599 165.251 63.0009 164.971 62.386C164.691 61.7153 164.579 60.9327 164.859 60.2061L165.083 60.3179C163.963 61.324 162.451 62.1066 160.715 62.2743C159.875 62.386 158.923 62.2742 158.027 62.0507C157.579 61.9389 157.131 61.7712 156.739 61.4917C156.347 61.2122 155.955 60.8768 155.787 60.4297C155.507 59.9266 155.451 59.3117 155.451 58.8087C155.451 58.2497 155.507 57.7466 155.563 57.1877C155.619 56.6846 155.731 56.1256 155.955 55.6785C156.179 55.2313 156.571 54.7841 157.075 54.6164L157.187 54.8959C156.235 55.3431 155.171 55.399 154.219 55.1195C153.267 54.8959 152.483 54.3928 151.867 53.778C151.251 53.1631 150.859 52.3806 150.747 51.6539C150.635 50.9273 150.691 50.2006 150.803 49.5857C151.139 48.356 151.811 47.5735 152.315 47.1263C152.875 46.6791 153.211 46.5673 153.211 46.5673C153.211 46.5673 152.875 46.735 152.371 47.1822C151.867 47.6294 151.251 48.4119 150.915 49.5857C150.747 50.2006 150.747 50.8714 150.859 51.5421C150.971 52.2688 151.363 52.9395 151.923 53.5544C152.483 54.1134 153.267 54.5605 154.163 54.7841C155.059 55.0077 156.067 54.9518 156.963 54.5605L157.075 54.84C156.627 54.9518 156.291 55.2872 156.123 55.7344C155.899 56.1815 155.787 56.6846 155.731 57.1877C155.619 58.1938 155.451 59.3117 155.955 60.262C156.347 61.1004 157.187 61.4917 158.027 61.7153C158.867 61.9389 159.763 61.9948 160.603 61.9389C162.283 61.7712 163.795 61.0445 164.859 60.0943L165.251 59.7589L165.083 60.262C164.859 60.9327 164.915 61.6594 165.139 62.2743C165.419 62.8891 165.811 63.3922 166.259 63.7835C166.707 64.1747 167.211 64.3983 167.715 64.566C168.219 64.7337 168.667 64.7896 169.115 64.7896C169.955 64.8455 170.683 64.6778 171.131 64.6219C171.635 64.566 171.859 64.5101 171.859 64.5101Z" fill="white"/>
<path d="M153.882 64.2306C153.882 64.2306 153.77 64.3424 153.546 64.4542C153.322 64.566 152.93 64.6778 152.426 64.7337C151.922 64.7337 151.306 64.6778 150.746 64.2865C150.466 64.1188 150.186 63.7835 150.13 63.3922C150.074 63.0009 150.13 62.5537 150.522 62.2742L150.69 62.5537C150.634 62.5537 150.634 62.5537 150.578 62.6096C149.122 63.2245 147.61 62.945 146.714 62.4419C146.266 62.2184 145.93 61.9389 145.762 61.7712C145.594 61.5476 145.482 61.4358 145.482 61.4358C145.538 61.3799 145.93 61.883 146.826 62.2742C147.666 62.6655 149.122 62.945 150.466 62.3301C150.522 62.3301 150.522 62.3301 150.578 62.2742L151.866 61.7153L150.69 62.4978C150.466 62.6655 150.354 63.0009 150.41 63.3363C150.466 63.6158 150.69 63.8952 150.914 64.0629C151.418 64.3983 151.978 64.5101 152.482 64.5101C153.378 64.5101 153.882 64.1747 153.882 64.2306Z" fill="white"/>
<path d="M160.435 104.197C160.435 104.197 160.435 104.253 160.491 104.42C160.547 104.588 160.603 104.812 160.659 105.147C160.771 105.762 160.995 106.712 161.219 107.83C161.723 110.178 162.451 113.587 163.739 117.668C165.027 121.748 167.043 126.555 170.627 130.971C171.523 132.089 172.475 133.151 173.483 134.269C173.987 134.828 174.491 135.387 175.107 135.834C175.723 136.281 176.451 136.449 177.179 136.337C177.907 136.225 178.635 135.834 179.251 135.443C179.867 134.996 180.483 134.493 181.043 133.934C182.219 132.872 183.339 131.642 184.403 130.468C188.772 125.549 192.02 120.071 193.532 114.593C194.316 111.854 194.708 109.171 194.764 106.656C194.82 104.141 194.652 101.793 194.316 99.6691C193.7 95.4209 192.804 92.0671 192.244 89.7195C191.964 88.5456 191.684 87.6513 191.572 87.0364C191.516 86.757 191.46 86.5334 191.404 86.3657C191.348 86.198 191.348 86.1421 191.348 86.1421C191.348 86.1421 191.404 86.198 191.404 86.3657C191.46 86.5334 191.516 86.757 191.628 87.0364C191.796 87.6513 192.076 88.5456 192.356 89.7195C192.972 92.0671 193.924 95.4209 194.54 99.6691C194.876 101.793 195.044 104.141 194.988 106.712C194.932 109.227 194.596 111.966 193.756 114.705C192.188 120.239 188.94 125.773 184.571 130.692C183.451 131.921 182.331 133.095 181.155 134.213C180.595 134.772 179.979 135.331 179.307 135.778C178.635 136.225 177.907 136.617 177.123 136.728C176.339 136.84 175.499 136.673 174.827 136.169C174.155 135.722 173.707 135.107 173.203 134.604C172.195 133.486 171.243 132.424 170.347 131.306C166.763 126.835 164.803 121.972 163.515 117.891C162.227 113.755 161.555 110.345 161.051 107.998C160.827 106.824 160.659 105.929 160.547 105.259C160.491 104.979 160.435 104.7 160.435 104.532C160.491 104.253 160.435 104.197 160.435 104.197Z" fill="#263238"/>
<path d="M181.155 198.606C181.155 198.606 181.155 198.55 181.099 198.438C181.043 198.326 181.043 198.159 180.987 197.935C180.931 197.712 180.875 197.432 180.819 197.153C180.707 196.873 180.707 196.482 180.651 196.091C180.427 194.47 180.539 192.01 181.267 189.159C181.939 186.309 183.171 183.011 184.067 179.266C184.515 177.365 184.851 175.353 184.795 173.285C184.795 171.161 184.235 169.037 183.451 166.968C182.667 164.9 181.659 162.944 180.763 160.988C179.867 159.087 178.971 157.187 178.859 155.174C178.747 153.162 179.531 151.429 179.979 149.752C180.203 148.914 180.371 148.131 180.315 147.293C180.259 146.51 180.147 145.784 179.867 145.057C179.363 143.715 178.635 142.542 178.075 141.536C177.515 140.529 177.067 139.579 176.843 138.797C176.731 138.405 176.675 138.014 176.619 137.735C176.619 137.399 176.619 137.12 176.619 136.952C176.675 136.728 176.675 136.617 176.675 136.449C176.675 136.337 176.731 136.281 176.731 136.281C176.787 136.281 176.451 137.231 176.899 138.797C177.123 139.579 177.571 140.473 178.131 141.48C178.691 142.486 179.419 143.604 179.979 145.001C180.259 145.672 180.427 146.454 180.483 147.293C180.539 148.131 180.371 148.97 180.147 149.808C179.699 151.485 178.971 153.218 179.083 155.118C179.195 157.019 180.091 158.919 180.987 160.82C181.883 162.72 182.891 164.677 183.675 166.801C184.459 168.925 185.019 171.049 185.075 173.229C185.131 175.353 184.795 177.421 184.347 179.266C183.395 183.067 182.163 186.309 181.491 189.159C180.763 192.01 180.651 194.414 180.819 196.035C180.875 196.426 180.875 196.817 180.931 197.097C180.987 197.376 181.043 197.656 181.099 197.879C181.155 198.103 181.155 198.215 181.211 198.382C181.155 198.55 181.155 198.606 181.155 198.606Z" fill="#263238"/>
<path d="M175.163 135.722L174.995 136.393L176.339 138.07H176.899L178.411 136.393L178.187 135.722H175.163Z" fill="#455A64"/>
<path d="M61.6476 194.246L86.7364 238.348L184.012 238.404C184.852 238.404 185.468 237.733 185.468 236.895C185.468 236.057 184.796 235.442 184.012 235.386L151.699 234.491C150.243 234.491 148.843 233.653 148.171 232.312L127.17 192.345C126.722 191.507 125.882 191.004 124.93 191.004L63.8877 190.501C61.9276 190.445 60.6956 192.569 61.6476 194.246Z" fill="#455A64"/>
<path d="M61.7598 192.569C61.7598 192.569 61.8718 192.569 62.0398 192.569C62.2638 192.569 62.5438 192.569 62.8798 192.569C63.6638 192.569 64.7279 192.569 66.1839 192.569C69.04 192.569 73.1842 192.625 78.2803 192.681C88.4727 192.793 102.585 192.96 118.098 193.128C119.05 193.128 120.058 193.128 121.01 193.184C121.514 193.184 121.962 193.184 122.466 193.184C122.97 193.184 123.474 193.296 123.922 193.519C124.37 193.743 124.762 194.078 125.042 194.47C125.322 194.917 125.49 195.308 125.714 195.699C126.162 196.538 126.554 197.32 127.002 198.159C128.682 201.401 130.362 204.531 131.93 207.493C135.066 213.474 137.866 218.84 140.218 223.312C142.57 227.84 144.475 231.473 145.819 233.988C146.491 235.218 146.995 236.224 147.331 236.895C147.499 237.23 147.611 237.454 147.723 237.678C147.835 237.845 147.835 237.957 147.835 237.957C147.835 237.957 147.779 237.901 147.667 237.733C147.555 237.566 147.443 237.286 147.275 237.007C146.939 236.336 146.379 235.386 145.707 234.1C144.363 231.585 142.458 227.952 140.05 223.424C137.642 218.896 134.842 213.586 131.706 207.605C130.138 204.643 128.514 201.513 126.778 198.271C126.33 197.488 125.938 196.65 125.49 195.811C125.266 195.42 125.042 194.973 124.818 194.581C124.538 194.19 124.202 193.911 123.81 193.687C123.418 193.463 122.97 193.352 122.522 193.352C122.018 193.352 121.57 193.352 121.066 193.352C120.114 193.352 119.162 193.352 118.154 193.296C102.585 193.072 88.5287 192.904 78.3363 192.737C73.2402 192.681 69.152 192.569 66.2399 192.513C64.8399 192.457 63.7198 192.457 62.9358 192.457C62.5438 192.457 62.2638 192.457 62.0958 192.457C61.8718 192.625 61.7598 192.569 61.7598 192.569Z" fill="#263238"/>
<path d="M102.417 213.307C102.417 214.48 101.353 215.487 100.065 215.487C98.7769 215.487 97.7129 214.536 97.7129 213.307C97.7129 212.133 98.7769 211.127 100.065 211.127C101.353 211.127 102.417 212.077 102.417 213.307Z" fill="white"/>
</svg>
