<svg width="141" height="236" viewBox="0 0 141 236" fill="none" xmlns="http://www.w3.org/2000/svg">
<path d="M115.84 234.871C115.84 234.871 115.84 225.04 111.193 210.892C106.547 196.744 82.7147 193.888 85.1709 173.563C98.5141 178.345 109.003 198.205 111.326 204.25C103.493 173.762 109.003 152.174 109.003 152.174C109.003 152.174 119.691 174.958 115.774 204.383C129.847 169.112 140.934 164.33 140.934 164.33C140.934 164.33 138.013 185.718 130.379 196.943C122.744 208.169 116.836 207.97 116.836 207.97C116.836 207.97 117.035 226.435 120.421 234.937H115.84V234.871Z" fill="#68BDD1"/>
<path d="M49.6554 196.014L48.5933 226.634L51.7797 232.148L59.5467 229.158L61.6046 198.803" fill="#FECAD0"/>
<path d="M32.0636 234.406L48.9916 224.642L52.178 229.158H59.5467L60.3433 236H32.4619C31.5989 236 31.267 234.804 32.0636 234.406Z" fill="#F3C886"/>
<path d="M101.302 196.014L111.061 226.634L107.874 232.148L100.107 229.158L89.3531 198.803" fill="#FECAD0"/>
<path d="M127.59 234.406L110.729 224.642L107.542 229.158H100.174L99.3771 236H127.258C128.055 236 128.321 234.804 127.59 234.406Z" fill="#F3C886"/>
<path d="M50.5847 95.3166L46.6017 210.826L62.4675 211.955L68.5085 139.687L92.3404 214.147L106.414 209.697C106.414 209.697 87.3616 131.118 85.2373 119.893C83.113 108.668 84.1751 102.756 80.7895 94.9181L50.5847 95.3166Z" fill="#8585DD"/>
<path d="M63.2641 17.7349C58.6836 16.4728 55.2316 23.1815 56.2938 31.4844C57.3559 39.7872 50.2528 47.6915 51.0494 51.0791C51.846 54.4666 67.7119 59.1827 78.2669 59.1162C88.822 59.0498 92.1412 54.4002 90.2161 51.0791C88.2246 47.7579 85.1709 44.5697 85.4364 34.6727C85.702 24.7757 78.798 6.11089 63.2641 17.7349Z" fill="#222221"/>
<path d="M41.4237 65.0279L35.5156 78.1796L26.4873 56.8579C26.4873 56.8579 25.3588 49.5514 24.363 47.5587C23.4336 45.4996 23.7656 42.7763 22.5043 42.3777C21.243 41.9792 20.8446 44.1711 20.8446 46.0974C20.8446 48.0237 20.5127 49.8171 20.5127 49.8171C20.5127 49.8171 15.3348 45.3003 15.0028 43.839C14.6709 42.4441 14.8701 37.5289 13.7415 36.9311C12.613 36.3333 11.2853 37.7281 11.0198 41.8463C10.7543 45.9646 19.0523 58.0535 19.0523 58.0535L25.1596 87.6116L42.2204 90.7335L52.3771 74.0614L41.4237 65.0279Z" fill="#FECAD0"/>
<path d="M93.8009 68.8804L87.4944 73.4635L86.8969 73.8621L82.1837 77.2496L81.4534 95.848L78.5989 95.7816H78.0015L69.7034 95.5823H69.106L60.8079 95.3831H60.2105L51.9125 95.1838H51.315H50.452C50.452 95.1838 50.7839 90.667 49.4563 84.0248C48.1286 77.3825 49.9873 72.7993 49.9873 72.7993L41.4238 65.0279L45.8715 58.0535C47.2656 55.9279 49.1907 54.2009 51.4478 53.1382C51.6469 53.0718 51.8461 52.9389 52.0452 52.8725C52.7091 52.6068 53.3729 52.3411 54.0368 52.2083L60.2769 50.6141L60.6088 50.5477L60.8743 50.4813L62.9986 49.9499H69.1724H69.7698H76.4746L78.0678 50.747L78.6653 51.0791L84.3079 54.0017C85.2373 54.4666 86.1667 55.0644 86.8969 55.7951C87.0961 55.9944 87.2952 56.1272 87.4944 56.3265C88.8885 57.6549 89.9506 59.3155 90.6808 61.1089L93.8009 68.8804Z" fill="#E0206E"/>
<path opacity="0.25" d="M52.0452 52.8725V95.3166H51.4478V53.1382C51.6469 53.0053 51.8461 52.9389 52.0452 52.8725Z" fill="white"/>
<path opacity="0.25" d="M60.8743 50.4149V95.5159H60.2769V50.5477L60.6752 50.4813L60.8743 50.4149Z" fill="white"/>
<path opacity="0.25" d="M69.7698 49.8835V95.6488H69.1723V49.8835H69.7698Z" fill="white"/>
<path opacity="0.25" d="M78.5989 51.0127V95.848H78.0014V50.747L78.5989 51.0127Z" fill="white"/>
<path opacity="0.25" d="M87.4944 56.3265V73.4636L86.8969 73.8621V55.7951C87.0961 55.928 87.2952 56.1272 87.4944 56.3265Z" fill="white"/>
<path d="M78.6653 51.0791C76.8065 54.8652 71.9605 57.0571 66.0523 56.6586C61.0735 56.3265 60.476 53.0053 60.6752 50.5477L63.065 49.9499L76.541 50.0163L78.6653 51.0791Z" fill="white"/>
<path d="M76.4746 49.8835C76.4746 49.8835 74.0184 54.7988 67.7119 54.7988C61.4054 54.7988 62.9986 49.8835 62.9986 49.8835L64.791 49.2857L64.6582 46.2302L64.5254 41.7799L75.2133 38.5252C75.0141 38.9902 74.815 39.588 74.7486 40.385C74.2839 43.7726 74.815 49.3521 74.815 49.3521L76.4746 49.8835Z" fill="#FECAD0"/>
<path d="M63.4633 22.4509C64.4591 27.6983 75.678 31.3515 76.4746 31.9493C76.9393 32.2815 77.0721 33.145 77.1385 33.7428C77.1385 33.8756 77.3376 33.8756 77.404 33.8092C77.6695 33.0121 78.267 31.9494 79.1964 31.8165C80.6568 31.6172 82.1173 33.5435 81.2543 35.7354C80.3913 37.9938 77.0057 36.7982 77.0057 36.7982C77.0057 36.7982 74.2176 43.5069 67.9111 43.7062C61.5382 43.9054 60.1441 38.5252 60.6088 35.2041C61.0735 31.8829 61.0735 30.2224 60.7416 28.2961C60.476 26.3034 62.9323 24.975 63.4633 22.4509Z" fill="#FECAD0"/>
<path d="M79.7274 33.0785C79.1963 33.2114 78.5989 34.6727 78.8644 35.4033" stroke="#E45E8E" stroke-width="0.5252" stroke-miterlimit="9" stroke-linecap="round"/>
<path d="M66.9817 37.2631L66.2514 36.7982C65.7203 36.5325 65.5212 35.9347 65.7203 35.4033L66.9153 32.6136" stroke="#E45E8E" stroke-width="0.5252" stroke-miterlimit="9" stroke-linecap="round"/>
<path d="M69.637 33.942C69.637 34.3405 69.9026 34.6062 70.1681 34.6062C70.4336 34.6062 70.6992 34.2741 70.6992 33.942C70.6992 33.6099 70.4336 33.2778 70.1681 33.2778C69.9026 33.2778 69.637 33.5435 69.637 33.942Z" fill="black"/>
<path d="M63.2641 33.5435C63.2641 33.942 63.5296 34.2077 63.7952 34.2077C64.0607 34.2077 64.3262 33.8756 64.3262 33.5435C64.3262 33.1449 64.0607 32.8792 63.7952 32.8792C63.5296 32.8792 63.2641 33.1449 63.2641 33.5435Z" fill="black"/>
<path d="M72.4251 30.2887C72.4251 30.2887 71.0975 28.8275 69.0396 29.8902" stroke="black" stroke-width="0.7879" stroke-miterlimit="10" stroke-linecap="round" stroke-linejoin="round"/>
<path d="M62.0692 30.2235C62.0692 30.2235 63.3969 28.7622 65.5212 30.0907" stroke="black" stroke-width="0.7879" stroke-miterlimit="10" stroke-linecap="round" stroke-linejoin="round"/>
<path d="M65.5876 33.6763C65.5876 35.2041 64.3927 36.3997 62.8658 36.3997C61.339 36.3997 60.1441 35.2041 60.1441 33.6763C60.1441 32.1486 61.339 30.953 62.8658 30.953C64.3927 30.953 65.5876 32.215 65.5876 33.6763Z" stroke="#E0A47C" stroke-width="0.7879" stroke-miterlimit="10"/>
<path d="M73.089 33.6763C73.089 35.2041 71.8941 36.3997 70.3673 36.3997C68.8404 36.3997 67.6455 35.2041 67.6455 33.6763C67.6455 32.1486 68.8404 30.953 70.3673 30.953C71.8941 30.953 73.089 32.215 73.089 33.6763Z" stroke="#E0A47C" stroke-width="0.7879" stroke-miterlimit="10"/>
<path d="M65.5212 33.0785C65.5212 33.0785 66.6498 31.9493 67.7783 33.0785" stroke="#E0A47C" stroke-width="0.7879" stroke-miterlimit="10"/>
<path d="M67.7119 39.7208C67.7119 39.7208 69.4378 40.4514 70.8983 39.1894" stroke="#E45E8E" stroke-width="0.5252" stroke-miterlimit="9" stroke-linecap="round"/>
<path d="M48.5268 95.0509H22.1059C21.6412 95.0509 21.2429 94.7853 21.1766 94.3867L15.5339 73.8621C15.4011 73.3307 15.6667 72.7993 16.1977 72.6665L16.5297 72.6001H42.8842L48.5268 95.0509Z" fill="#5656BA"/>
<path d="M32.7938 84.7554C32.7938 85.8846 31.8644 86.8145 30.7359 86.8145C29.6074 86.8145 28.678 85.8846 28.678 84.7554C28.678 83.6262 29.6074 82.6963 30.7359 82.6963C31.8644 82.6963 32.7938 83.6262 32.7938 84.7554Z" fill="#E6EAFD"/>
<path d="M48.5268 95.051H69.4379C69.9689 95.051 70.3672 94.6524 70.3672 94.121V93.7889C70.3672 93.2575 69.9689 92.859 69.4379 92.859H48.5268C47.9958 92.859 47.5975 93.2575 47.5975 93.7889V94.121C47.5311 94.586 47.9958 95.051 48.5268 95.051Z" fill="#2C1970"/>
<path d="M41.8884 73.7957L47.4647 93.9882C47.5975 94.5196 48.1286 94.7853 48.6596 94.6524L48.9916 94.586C49.5226 94.4531 49.7882 93.9218 49.6554 93.3904L44.0791 73.1979C43.9464 72.6665 43.4153 72.4008 42.8842 72.5336L42.5523 72.6001C42.0876 72.7329 41.7557 73.2643 41.8884 73.7957Z" fill="#2C1970"/>
<path d="M103.294 100.896C103.294 103.487 102.165 105.944 100.107 107.671C97.1201 110.129 92.8051 110.328 89.6187 108.136L74.9478 98.04C74.9478 98.04 66.9817 99.7669 63.3969 99.4348C59.8122 99.1027 55.9619 97.1765 55.9619 96.4458C55.8955 95.7152 70.4336 94.1874 69.7034 93.5896C69.0396 92.9918 62.5339 92.9254 62.4675 91.5305C62.4012 90.1357 63.9944 89.6707 66.7161 89.4714C69.4379 89.2722 72.8899 90.667 72.8899 90.667L87.5608 92.7261L83.3786 80.5708L82.25 77.3161L93.8009 68.8804L94.5311 71.338L102.896 98.3057C103.161 99.1691 103.294 100.033 103.294 100.896Z" fill="#FECAD0"/>
<path d="M52.7091 93.8553C52.7091 94.0546 52.5763 94.1874 52.3771 94.1874C52.178 94.1874 52.0452 94.0546 52.0452 93.8553C52.0452 93.6561 52.178 93.5232 52.3771 93.5232C52.5763 93.5232 52.7091 93.7225 52.7091 93.8553Z" fill="#171C51"/>
<path d="M54.1031 93.8553C54.1031 94.0546 53.9703 94.1874 53.7712 94.1874C53.572 94.1874 53.4393 94.0546 53.4393 93.8553C53.4393 93.6561 53.572 93.5232 53.7712 93.5232C53.9703 93.5232 54.1031 93.7225 54.1031 93.8553Z" fill="#171C51"/>
<path d="M61.9364 216.206L46.7345 215.675C45.6723 215.608 44.8757 214.745 44.9421 213.748L45.0085 211.357C45.0749 210.294 45.9379 209.497 46.9336 209.564L62.1356 210.095C63.1977 210.162 63.9944 211.025 63.928 212.021L63.8616 214.413C63.8616 215.409 62.9986 216.206 61.9364 216.206Z" fill="#96A4CD"/>
<path d="M107.542 212.752L93.0043 217.136C92.0085 217.402 90.9464 216.87 90.6808 215.874L90.017 213.549C89.7514 212.553 90.2825 211.49 91.2783 211.224L105.816 206.84C106.812 206.575 107.874 207.106 108.14 208.102L108.804 210.427C109.136 211.424 108.538 212.42 107.542 212.752Z" fill="#96A4CD"/>
<path d="M63.928 124.675L71.2966 148.388" stroke="#171C51" stroke-width="0.5252" stroke-miterlimit="10" stroke-linecap="round" stroke-linejoin="round"/>
<path d="M82.1836 77.3161L77.2048 68.8804" stroke="#171C51" stroke-width="0.5252" stroke-miterlimit="10" stroke-linecap="round" stroke-linejoin="round"/>
<path d="M50.1865 72.9322C52.3108 68.6811 52.7754 63.168 52.7754 63.168" stroke="#171C51" stroke-width="0.5252" stroke-miterlimit="10" stroke-linecap="round" stroke-linejoin="round"/>
<path d="M34.0551 0V28.0304L27.0184 20.9896H0V0H34.0551Z" fill="#68BDD1"/>
<path d="M9.22742 5.71234H24.8941" stroke="white" stroke-miterlimit="10" stroke-linecap="round" stroke-linejoin="round"/>
<path opacity="0.25" d="M11.8164 8.90063H24.8941" stroke="white" stroke-miterlimit="10" stroke-linecap="round" stroke-linejoin="round"/>
<path opacity="0.25" d="M9.22742 12.1553H24.8941" stroke="white" stroke-miterlimit="10" stroke-linecap="round" stroke-linejoin="round"/>
<path opacity="0.25" d="M13.8743 15.3436H24.8941" stroke="white" stroke-miterlimit="10" stroke-linecap="round" stroke-linejoin="round"/>
</svg>
