<svg width="154" height="236" viewBox="0 0 154 236" fill="none" xmlns="http://www.w3.org/2000/svg">
<g clip-path="url(#clip0)">
<path d="M32.1874 233.509C32.1874 233.509 32.1874 222.976 27.3315 207.817C22.4757 192.657 -2.42792 189.597 0.138746 167.819C14.082 172.943 25.0423 194.223 27.4703 200.7C19.2847 168.033 25.0423 144.902 25.0423 144.902C25.0423 144.902 36.2108 169.314 32.118 200.842C46.8243 163.051 58.409 157.926 58.409 157.926C58.409 157.926 55.3568 180.843 47.3793 192.871C39.4018 204.899 33.2973 204.614 33.2973 204.614C33.2973 204.614 33.5054 224.399 37.0433 233.509H32.1874Z" fill="#68BDD1"/>
<path d="M108.771 214.08L110.297 225.965L106.968 231.872L98.8513 228.598L96.354 217.069" fill="#FECAD0"/>
<path d="M127.57 234.221L109.95 223.759L106.621 228.598H98.9207L98.0883 235.929H127.223C128.056 236 128.403 234.719 127.57 234.221Z" fill="#2C1970"/>
<path d="M45.9919 214.08L43.7721 225.965L47.1018 231.872L55.218 228.598L58.4784 217.069" fill="#FECAD0"/>
<path d="M117.581 98.7129L104.332 116.577C103.846 117.217 103.568 117.929 103.568 118.712L102.459 134.583L97.7414 101.204L104.47 89.6743L103.777 87.3969L101.279 78.7853L114.321 73.7322L115.084 76.152L119.246 88.7491C120.286 92.1653 119.732 95.8661 117.581 98.7129Z" fill="#FECAD0"/>
<path d="M111.199 217.14L95.2441 219.844L82.6189 164.474L79.4973 150.667L79.4279 150.382L59.0333 221.268L43.009 216.713L57.9234 118.214L59.0333 110.812L99.6838 110.171L100.1 114.228L111.199 217.14Z" fill="#F3C886"/>
<path d="M100.1 114.228L57.9234 118.214L58.5478 114.228L59.0333 110.812L99.6838 110.171L100.031 113.516L100.1 114.228Z" fill="#E0A47C"/>
<path d="M100.031 113.516C91.2207 114.797 64.791 114.37 58.5478 114.228L59.1027 110.812L99.7532 110.171L100.031 113.516Z" fill="#171C51"/>
<path d="M116.332 72.9494L106.898 78.7141L105.719 79.4258L102.875 81.1339V81.2051L102.805 82.415L102.389 92.5211L102.32 93.731L101.904 103.837L101.834 105.047L101.695 108.25C101.695 108.25 103.36 110.171 102.875 111.808C102.736 112.235 99.9613 112.52 95.7991 112.733C95.3829 112.733 95.036 112.805 94.6198 112.805C91.7757 112.947 88.3072 113.018 84.7694 113.018C84.3531 113.018 83.9369 113.018 83.5901 113.018C80.3297 113.018 76.9306 113.018 73.7396 112.947C73.3234 112.947 72.9072 112.947 72.5604 112.947C68.8144 112.876 65.3459 112.733 62.7099 112.52C62.2937 112.52 61.8775 112.449 61.5306 112.449C58.8252 112.164 57.2297 111.808 57.2297 111.381C57.4378 109.104 58.8252 107.538 58.8252 107.538V105.118V103.908L58.8946 93.8022V92.5923L58.964 82.4861V81.8456L57.9928 81.2762L51.7495 77.5042L50.5703 76.7925L42.7315 72.0953L43.1477 71.0989L43.7027 69.889L48.0036 59.7829L48.5586 58.573L50.4315 54.3028L50.8477 53.4487C51.1252 52.8794 51.4027 52.31 51.6802 51.7407C52.3045 50.6019 52.9982 49.4632 53.8306 48.4668C54.1775 48.0398 54.5243 47.6128 54.8712 47.257C56.7441 45.1219 59.0333 43.3426 61.5306 42.0615C61.9468 41.848 62.3631 41.6345 62.7099 41.4922C64.4441 40.7093 66.3171 40.2111 68.1901 39.8553L71.1036 39.3571L72.5604 39.1436L73.7396 38.9301H73.809L83.6595 39.7841L84.8387 39.8553L87.8216 40.1399L90.3189 40.4958C90.4577 40.4958 90.6658 40.567 90.8045 40.567C92.1225 40.7805 93.4405 41.1363 94.6892 41.5633C95.1054 41.7057 95.5216 41.848 95.8685 42.0615C98.7126 43.2714 101.279 44.9795 103.43 47.257C103.846 47.684 104.193 48.0398 104.54 48.4668C104.956 48.965 105.372 49.4632 105.719 50.0326C106.135 50.6731 106.551 51.3136 106.898 51.9542C107.314 52.6659 107.661 53.3776 108.008 54.1604L109.95 58.573L110.505 59.7829L114.945 69.889L115.5 71.0989L116.332 72.9494Z" fill="#8585DD"/>
<path opacity="0.25" d="M115.014 69.889H106.968V59.7829H110.575L110.02 58.573H106.968V51.9542C106.621 51.3137 106.205 50.6731 105.788 50.0326V58.573H95.9378V48.3957H104.609C104.262 47.9687 103.846 47.5416 103.499 47.1858H95.9378V41.9904C95.5216 41.848 95.1054 41.6345 94.7586 41.4922V47.1146H84.9081V39.8553L83.7288 39.7841V47.257H73.8784V38.8589L72.6991 39.0724V47.1146H62.6405V41.3498C62.2243 41.5633 61.8081 41.7057 61.4613 41.9192V47.1146H54.8018C54.455 47.5416 54.1081 47.8975 53.7613 48.3245H61.4613V58.4307H51.6108V51.5983C51.3333 52.1677 51.0559 52.7371 50.7784 53.3064L50.3622 54.1605V58.4307H48.4892L48.0036 59.7829H50.4315V69.889H43.564L43.009 71.0989H50.3622V76.7214L51.5414 77.4331V71.0278H61.3919V81.1339H57.7847L58.7559 81.7033V82.3438H61.3919V92.4499H58.7559V93.6598H61.3919V103.766H58.6865V104.976H61.3919V112.449C61.7387 112.52 62.155 112.52 62.5712 112.52V105.118H72.4216V112.947C72.8378 112.947 73.2541 112.947 73.6009 112.947V105.047H83.4514V112.947C83.8676 112.947 84.2838 112.947 84.6306 112.947V105.047H94.4811V112.733C94.8973 112.733 95.3135 112.662 95.6604 112.662V105.047H101.626L101.695 103.837H95.6604V93.731H102.112L102.181 92.5211H95.6604V82.415H102.597L102.667 81.2051H95.6604V71.0989H105.511V79.4258L106.69 78.7141V71.0989H115.292L115.014 69.889ZM61.4613 69.889H51.6108V59.7829H61.4613V69.889ZM72.491 103.98H62.6405V93.8734H72.491V103.98ZM72.491 92.5923H62.6405V82.4861H72.491V92.5923ZM72.491 81.2051H62.6405V71.0989H72.491V81.2051ZM72.491 69.889H62.6405V59.7829H72.491V69.889ZM72.491 58.5018H62.6405V48.3957H72.491V58.5018ZM83.5901 103.98H73.7396V93.8734H83.5901V103.98ZM83.5901 92.5923H73.7396V82.4861H83.5901V92.5923ZM83.5901 81.2051H73.7396V71.0989H83.5901V81.2051ZM83.5901 69.889H73.7396V59.7829H83.5901V69.889ZM83.5901 58.5018H73.7396V48.3957H83.5901V58.5018ZM94.6892 103.98H84.8387V93.8734H94.6892V103.98ZM94.6892 92.5923H84.8387V82.4861H94.6892V92.5923ZM94.6892 81.2051H84.8387V71.0989H94.6892V81.2051ZM94.6892 69.889H84.8387V59.7829H94.6892V69.889ZM94.6892 58.5018H84.8387V48.3957H94.6892V58.5018ZM105.719 69.889H95.8685V59.7829H105.719V69.889Z" fill="white"/>
<path d="M90.7351 40.4958C89.764 44.5525 87.5441 48.538 82.4802 48.538C74.1559 48.4668 71.7279 41.9904 71.0342 39.3571L73.7397 38.9301L87.7523 40.1399L90.2496 40.4958C90.4577 40.4246 90.5964 40.4958 90.7351 40.4958Z" fill="white"/>
<path d="M101.21 78.7853L100.169 62.2738" stroke="#171C51" stroke-width="0.5252" stroke-miterlimit="10" stroke-linecap="round" stroke-linejoin="round"/>
<path d="M94.273 12.7395C94.273 12.7395 96.0072 14.661 94.6198 18.0772C93.2324 21.4222 92.5387 24.3402 92.4694 27.4717C92.4 30.105 81.2315 31.6707 77.3469 32.0977C76.5838 32.1689 76.0982 32.2401 76.0982 32.2401L73.046 26.1194C72.6297 25.0519 71.6586 22.9879 70.8261 20.6393C69.4387 16.7961 68.3982 12.0989 70.5487 9.32329C74.0865 4.83958 78.0405 6.83234 84.0757 3.77202C90.1108 0.71171 93.1631 -2.13509 96.6315 2.06394C100.1 6.26298 94.273 12.7395 94.273 12.7395Z" fill="#2E2E2B"/>
<path d="M78.3874 30.8166L77.3468 32.1689C76.5838 32.24 76.0982 32.3112 76.0982 32.3112L73.0459 26.1906C72.6297 25.123 71.6586 23.0591 70.8261 20.7105C73.809 19.4294 75.8901 16.2268 75.8901 16.2268L78.3874 30.8166Z" fill="#222221"/>
<path d="M87.7522 40.0687C87.7522 40.0687 88.0297 46.1182 81.6477 45.9047C75.2658 45.6912 73.7396 38.8589 73.7396 38.8589L75.5432 38.503C75.5432 38.503 76.1676 31.3148 75.5432 26.1194L87.7522 32.5247C87.6135 32.6671 87.5441 32.7382 87.4054 32.8806C86.018 34.8733 86.1567 39.4282 86.1567 39.4282L87.7522 40.0687Z" fill="#FECAD0"/>
<path d="M93.3018 26.6888C93.3018 27.8275 93.2324 28.9662 93.0937 30.0338C92.4694 34.3752 90.1802 37.4355 84.7 37.0085C76.6532 36.3679 75.1964 28.1834 75.1964 28.1834C75.1964 28.1834 73.1153 29.9626 71.1036 27.8987C69.0919 25.8348 70.1324 22.7744 72.0748 22.4186C73.1153 22.2051 74.1559 23.3438 74.9189 24.4114C75.2658 24.9095 75.9595 24.6249 75.9595 24.0555V16.1556C75.9595 16.1556 85.8099 16.5826 91.637 14.3764C91.7063 14.3764 91.7063 14.3764 91.7063 14.3052C92.6081 15.1592 92.955 16.3691 93.0937 17.6502C93.2324 19.4295 92.8856 21.4222 93.0937 23.1303C93.2324 24.3402 93.3018 25.5501 93.3018 26.6888Z" fill="#FECAD0"/>
<path d="M87.4748 28.2545L88.2378 27.7563C88.7928 27.4717 89.0009 26.76 88.7234 26.1906L87.4748 23.2014" stroke="#E45E8E" stroke-width="0.5252" stroke-miterlimit="9" stroke-linecap="round"/>
<path d="M84.6306 25.4077C84.6306 25.8348 84.3532 26.1194 84.0757 26.1194C83.7982 26.1194 83.5207 25.7636 83.5207 25.4077C83.5207 24.9807 83.7982 24.696 84.0757 24.696C84.3532 24.696 84.6306 24.9807 84.6306 25.4077Z" fill="black"/>
<path d="M90.7351 25.7636C91.0416 25.7636 91.2901 25.4449 91.2901 25.0519C91.2901 24.6588 91.0416 24.3402 90.7351 24.3402C90.4286 24.3402 90.1802 24.6588 90.1802 25.0519C90.1802 25.4449 90.4286 25.7636 90.7351 25.7636Z" fill="black"/>
<path d="M71.4504 24.696C72.6297 23.9843 74.0865 25.1942 73.809 26.9023" stroke="#E45E8E" stroke-width="0.5252" stroke-miterlimit="9" stroke-linecap="round"/>
<path d="M84.7694 31.5284C84.7694 31.5284 86.2955 33.1653 88.3766 31.8842" stroke="#E45E8E" stroke-width="0.5252" stroke-miterlimit="9" stroke-linecap="round"/>
<path d="M81.3703 22.2763C81.3703 22.2763 82.5495 20.497 84.8387 21.2799" stroke="black" stroke-width="0.7879" stroke-miterlimit="10" stroke-linecap="round" stroke-linejoin="round"/>
<path d="M92.4694 21.351C92.4694 21.351 91.082 19.7853 88.8622 21.2087" stroke="black" stroke-width="0.7879" stroke-miterlimit="10" stroke-linecap="round" stroke-linejoin="round"/>
<path d="M81.6477 30.2473C82.7205 30.2473 83.5901 29.3551 83.5901 28.2545C83.5901 27.154 82.7205 26.2618 81.6477 26.2618C80.575 26.2618 79.7054 27.154 79.7054 28.2545C79.7054 29.3551 80.575 30.2473 81.6477 30.2473Z" fill="#FBB8C2"/>
<path d="M93.3018 26.6888C93.3018 27.8275 93.2324 28.9662 93.0937 30.0338C92.8162 30.1761 92.4694 30.3185 92.1225 30.3185C91.0126 30.3185 90.1802 29.3933 90.1802 28.3257C90.1802 27.2582 91.082 26.333 92.1225 26.333C92.6081 26.2618 92.955 26.4041 93.3018 26.6888Z" fill="#FBB8C2"/>
<path d="M97.464 94.1581H87.4054C86.2261 94.1581 85.3937 93.1617 85.6712 91.9518L89.9027 70.3872C90.1802 69.1773 91.2901 68.181 92.5387 68.181H104.054C105.233 68.181 106.066 69.1773 105.788 70.3872L100.1 91.9518C99.8225 93.1617 98.6432 94.1581 97.464 94.1581Z" fill="#C11046"/>
<path d="M98.9207 95.0833H88.8622C87.6829 95.0833 86.8505 94.0869 87.1279 92.877L91.3595 71.3124C91.6369 70.1026 92.7469 69.1062 93.9955 69.1062H104.054C105.233 69.1062 106.066 70.1026 105.788 71.3124L101.557 92.877C101.279 94.0869 100.1 95.0833 98.9207 95.0833Z" fill="#E0206E"/>
<path d="M96.4928 90.7419C96.4928 92.877 93.9955 94.7274 93.9955 94.7274C93.9955 94.7274 94.6198 97.6454 89.9027 98.6417C85.1856 99.6381 80.4685 95.4391 80.4685 95.4391L50.2234 101.987C49.4604 102.129 48.6279 102.271 47.8649 102.271C44.4658 102.271 41.2054 100.706 39.055 97.93C36.3495 94.4427 35.7252 89.6743 37.5288 85.6888L41.8991 76.0097L43.4252 72.6647L58.8252 81.9168L57.7153 83.8384L56.1198 86.6852L80.6072 85.76C80.6072 85.76 83.1045 83.9807 84.7 81.7744C86.2955 79.5682 86.9198 79.07 88.1685 79.924C89.4171 80.7781 88.0297 84.4789 86.9892 85.9023C90.8739 88.1086 95.591 86.4005 97.464 86.6852C99.4063 86.9699 99.4063 89.2473 96.4928 90.7419Z" fill="#FECAD0"/>
<path d="M96.4928 90.7419C94.0649 91.8094 88.1685 90.8842 86.5036 89.6743" stroke="#E45E8E" stroke-width="0.5252" stroke-miterlimit="9" stroke-linecap="round"/>
<path d="M93.9955 94.7274C90.6658 95.3679 86.9892 95.1544 85.0468 93.2328" stroke="#E45E8E" stroke-width="0.5252" stroke-miterlimit="9" stroke-linecap="round"/>
<path d="M92.8856 78.4295C92.2613 78.4295 91.845 77.9313 91.9838 77.2907L92.8162 73.0917C92.955 72.4512 93.5793 71.953 94.2036 71.953C94.8279 71.953 95.2442 72.4512 95.1054 73.0917L94.273 77.2907C94.1342 77.9313 93.5099 78.4295 92.8856 78.4295Z" fill="#C11046"/>
<path d="M58.8252 81.8456L67.6351 64.4801" stroke="#171C51" stroke-width="0.5252" stroke-miterlimit="10" stroke-linecap="round" stroke-linejoin="round"/>
<path d="M79.4279 150.382L85.0468 131.665" stroke="#171C51" stroke-width="0.5252" stroke-miterlimit="10" stroke-linecap="round" stroke-linejoin="round"/>
<path d="M26.4991 234.221L44.1883 223.759L47.518 228.598H55.218L56.0505 235.929H26.9153C26.0135 236 25.6667 234.719 26.4991 234.221Z" fill="#2C1970"/>
<path d="M58.7558 221.695L43.2171 218.421C42.1766 218.207 41.4829 217.14 41.691 216.072L42.1766 213.51C42.3847 212.443 43.4252 211.731 44.4658 211.944L60.0045 215.218C61.045 215.432 61.7387 216.499 61.5306 217.567L61.045 220.129C60.8369 221.268 59.7964 221.908 58.7558 221.695Z" fill="#E0A47C"/>
<path d="M111.477 218.635L95.8685 221.624C94.8279 221.837 93.7874 221.125 93.5793 219.987L93.0937 217.425C92.8856 216.357 93.5793 215.29 94.6892 215.076L110.297 212.087C111.338 211.873 112.378 212.585 112.586 213.724L113.072 216.286C113.211 217.425 112.517 218.492 111.477 218.635Z" fill="#E0A47C"/>
<path d="M84.6306 133.942L82.6189 164.474L79.4973 150.667L79.5667 150.027L84.6306 133.942Z" fill="#E0A47C"/>
<path d="M118.414 18.433V48.4668L125.767 40.9228H154V18.433H118.414Z" fill="#68BDD1"/>
<path d="M144.358 24.5537H127.986" stroke="white" stroke-miterlimit="10" stroke-linecap="round" stroke-linejoin="round"/>
<path opacity="0.25" d="M141.652 27.9698H127.986" stroke="white" stroke-miterlimit="10" stroke-linecap="round" stroke-linejoin="round"/>
<path opacity="0.25" d="M144.358 31.4572H127.986" stroke="white" stroke-miterlimit="10" stroke-linecap="round" stroke-linejoin="round"/>
<path opacity="0.25" d="M139.502 34.8734H127.986" stroke="white" stroke-miterlimit="10" stroke-linecap="round" stroke-linejoin="round"/>
</g>
<defs>
<clipPath id="clip0">
<rect width="154" height="236" fill="white"/>
</clipPath>
</defs>
</svg>
